<?xml version="1.0" encoding="utf-8"?>
<!-- Generator: Adobe Illustrator 22.1.0, SVG Export Plug-In . SVG Version: 6.00 Build 0)  -->
<!DOCTYPE svg PUBLIC "-//W3C//DTD SVG 1.1//EN" "http://www.w3.org/Graphics/SVG/1.1/DTD/svg11.dtd">
<svg version="1.1" id="Layer_1" xmlns="http://www.w3.org/2000/svg" xmlns:xlink="http://www.w3.org/1999/xlink" x="0px" y="0px"
	 viewBox="0 0 1000 500" style="enable-background:new 0 0 1000 500;" xml:space="preserve">
<style type="text/css">
	.st0{fill:#FFFFFF;}
</style>
<g>
	<g>
		<g>
			<path class="st0" d="M989.1,112.6c-4.4-25.7-25.7-51.8-57.7-51.8c-7.3,0-14.8,1.4-22.3,4c-20.7,7.4-41.2,15.4-63,23.9
				c-86.9,33.9-185.4,72.4-325.4,77.1c-7.9,0.3-16,0.4-23.8,0.4c-134.3,0-235.1-37.7-341.8-77.6c-21-7.9-42.7-16-64.5-23.7
				c-7.5-2.7-15.1-4-22.3-4c-32,0-53.3,26-57.7,51.8c-3.9,22.6,4.1,53.6,39.6,66.2c24.3,8.6,53,18,82.9,27.2l4.9,1.5l2-4.7
				c12.1-29,37.3-47.8,64.3-47.8c7,0,14.2,1.2,21.3,3.6c86.9,28.9,179.1,45.1,274.2,48.2l0.2,0l0.2,0c95-3.1,187.3-19.3,274.2-48.2
				c6.9-2.3,13.9-3.5,20.7-3.5c26.8,0,52.4,18.9,65,48.3l2,4.6l4.8-1.5c28.5-9,56.4-18.3,82.8-27.7C985,166.2,993,135.3,989.1,112.6
				z M945.8,168.2c-24.8,8.8-50.9,17.6-77.7,26.1c-15.1-30.8-43.4-50.4-73.2-50.4c-8,0-16.2,1.4-24.2,4
				c-85.8,28.5-176.9,44.6-270.8,47.6c-93.9-3.1-185-19.1-270.8-47.6c-8.3-2.8-16.7-4.2-24.9-4.2c-30,0-58,19.5-72.6,50
				c-28.1-8.6-54.8-17.4-77.7-25.6c-28.9-10.3-35.6-34.5-32.3-53.7C25.2,93.4,42.4,72,68.2,72c6,0,12.3,1.1,18.6,3.4
				c21.7,7.7,43.4,15.8,64.3,23.6c107.6,40.3,209.3,78.3,345.7,78.3c8,0,16.1-0.1,24.2-0.4c142-4.7,241.4-43.6,329.1-77.8
				c21.7-8.5,42.1-16.5,62.7-23.7c6.4-2.3,12.6-3.4,18.6-3.4c25.8,0,43,21.4,46.7,42.5C981.4,133.7,974.6,158,945.8,168.2z"/>
		</g>
		<g>
			<path class="st0" d="M276.1,85.6c0.1,0,0.1,0,0.2,0.1l0.4,0.2c6.7,2.5,10,3.6,16.8,5.9c2.3,0.8,4.7,1.1,7.1,1.1
				c0.5,0,1,0,1.5-0.1c3-0.3,5.9-1.1,8.3-2.3c2.2-1.2,4.2-2.8,6-4.9c1.7-2,3-4.2,3.8-6.7c1.7-5.1,1.4-10.1-0.8-14.9
				c-0.5-1.1-1.4-2.4-2.3-3.4c2.1-1.2,3.9-2.6,5.4-4.3c1.5-1.8,2.7-3.8,3.4-6c1.6-4.4,1.4-8.9-0.4-13.4c-2-4.8-5.4-8.1-10.1-9.7
				c-5.4-1.9-8.1-2.8-13.4-4.8c-1.4-0.5-2.9-0.6-4.2-0.2c-1.8,0.6-2.7,1.8-3.1,2.6c-7.8,18-15.5,36.2-22.8,54
				c-0.4,1-0.6,2.5,0.5,4.3C273.3,84.1,274.5,85.1,276.1,85.6z M314.7,46.4c-0.4,1.2-1,2.2-1.8,3.1c-0.8,0.9-1.6,1.6-2.5,2.2
				c-0.8,0.5-1.7,0.9-2.6,1c-0.8,0.1-1.5,0.1-2.1-0.1c-3.5-1.2-5.5-1.9-8.5-3c2.5-6.1,4-9.9,6.6-16c2.9,1.1,4.9,1.8,8.2,2.9
				c0.5,0.2,1,0.6,1.5,1.1c0.6,0.6,1,1.4,1.3,2.3c0.3,1,0.5,2,0.5,3.1C315.3,44.1,315.1,45.3,314.7,46.4z M308.2,66.7
				c0.6,1.3,0.9,2.7,1,4.1c0.1,1.5-0.2,2.9-0.6,4.3c-0.5,1.3-1.2,2.6-2.2,3.7c-1,1.2-2.2,2.1-3.5,2.8c-1,0.5-2.1,0.8-3.3,1
				c-0.3,0-0.6,0.1-0.8,0.1c-0.7,0-1.3-0.1-1.9-0.3c-4.6-1.6-7.2-2.4-11.2-3.9c3-7.5,4.8-12.1,7.8-19.6c4,1.4,6.4,2.3,10.8,3.8
				C305.9,63.2,307.2,64.5,308.2,66.7z"/>
		</g>
		<g>
			<path class="st0" d="M336.6,103.5c1.5,0.4,3,0.4,4.4,0c2-0.7,2.8-2,3.1-3c2.3-8,3.5-12.3,5.7-19.8c3.3,0.9,5.5,1.5,8.9,2.3
				c2.8,9.8,4.4,15,7.9,25.3c0.4,1.1,1,2,2,2.6c0.8,0.6,1.8,1,2.9,1.3c0.3,0.1,0.6,0.1,1,0.2c0.2,0,0.4,0,0.5,0c0.2,0,0.5,0,0.8,0
				c1.7-0.1,3.1-0.7,3.9-1.8c1-1.2,1.3-2.7,0.7-4.2c-3.2-9.4-4.8-14.3-7.5-23.2c2-0.6,4-1.6,5.9-3c2-1.5,3.8-3.4,5.4-5.7
				c1.4-2.2,2.5-4.5,3.1-7.1c0.6-2.4,0.7-5,0.4-7.5c-0.3-2.6-1-5.1-2.1-7.3c-1.2-2.5-2.8-4.7-4.9-6.5c-2-1.8-4.3-3-6.9-3.6
				c-6.3-1.6-9.4-2.4-15.6-4.2c-1.4-0.4-2.8-0.3-4.1,0.2c-1.8,0.7-2.6,2-2.9,3C343.4,60,337.5,78.7,332,97c-0.4,1.5-0.1,2.9,1,4.2
				C333.9,102.3,335.1,103.1,336.6,103.5z M352.5,71.2c2.5-8.4,4-13.3,6.5-21.7c3.7,1,6,1.6,10.3,2.7c0.6,0.2,1.2,0.5,1.8,1.1
				c0.6,0.6,1.2,1.5,1.7,2.6c0.7,1.5,1.1,2.9,1.2,4.4c0.2,1.6,0.1,3.1-0.3,4.5c-0.4,1.5-1,2.9-1.9,4.2c-0.9,1.3-2,2.4-3.3,3.3
				c-1,0.7-2,1.2-3,1.5c-0.6,0.2-1.1,0.2-1.5,0.2c-0.3,0-0.6,0-0.8-0.1C358.9,72.9,356.5,72.3,352.5,71.2z"/>
		</g>
		<g>
			<path class="st0" d="M415.2,121.1c1.8,0.3,3.6,0.4,5.2,0.4c4.2,0,7.9-0.9,11-2.7c3.2-1.9,5.6-4.6,6.9-8.1c0.4-1.1,0.7-2,0.8-2.9
				l0.2-1.4c1.7-13.6,2.5-20.4,4.3-33.9c0.2-1.8,0.2-3.4-0.1-4.9c-0.3-1.4-0.6-2.7-1.1-3.9c-0.5-1.2-1.2-2.3-1.9-3.2
				c-0.7-0.9-1.4-1.6-2.1-2.3c-2.1-1.9-4.3-3.3-6.8-4.1c-2.3-0.8-4.1-1.2-5.4-1.4c-2.3-0.4-4.6-0.4-6.9-0.1c-2.4,0.3-4.6,1-6.7,2.1
				c-2.1,1.1-4,2.6-5.5,4.5c-1.6,2-2.7,4.4-3.3,7.3c-2.6,13.1-3.9,19.7-6.4,32.8c-0.2,0.4-0.3,1-0.5,1.7c-0.2,0.8-0.2,1.9-0.2,3.1
				c0.1,3.9,1.4,7.3,3.9,10.1C403.8,117.8,408.8,120.1,415.2,121.1z M416.7,111.3c-2.9-0.4-5.1-1.4-6.3-2.7c-0.6-0.7-1-1.3-1.2-1.9
				c-0.2-0.8-0.3-1.6-0.4-2.2c0-0.7,0-1.2,0.1-1.7l0.2-1.2c2.4-13.3,3.6-19.9,6-33.2c0.5-2.6,1.7-4.4,3.7-5.3
				c1.1-0.6,2.5-0.9,3.9-0.9c0.6,0,1.3,0.1,1.9,0.2c0.5,0.1,1.2,0.3,2.3,0.6c0.9,0.3,1.8,0.7,2.7,1.4c0.8,0.6,1.5,1.5,2,2.5
				c0.5,1,0.6,2.3,0.4,4.1c-1.9,13.6-2.9,20.4-4.8,34l-0.1,1c0,0.2-0.1,0.6-0.4,1.4c-0.2,0.6-0.6,1.2-1.1,1.8
				c-0.4,0.6-1,1.1-1.7,1.5C422.3,111.5,419.8,111.7,416.7,111.3z"/>
		</g>
		<g>
			<path class="st0" d="M463.3,121.7c3.6,3.4,8.6,5.2,15.1,5.6c0.7,0,1.5,0.1,2.2,0.1c5.5,0,10.1-1.3,13.7-3.9c3-2.2,5.1-5.1,6-8.7
				c0.3-1.1,0.5-2.1,0.5-3l0-1.4c0.4-13.7,0.6-20.5,0.9-34.2c0.1-1.8-0.1-3.4-0.5-4.9c-0.4-1.4-0.9-2.7-1.5-3.8
				c-0.6-1.2-1.4-2.2-2.2-3c-0.8-0.8-1.5-1.5-2.3-2.1c-2.2-1.7-4.6-2.9-7.1-3.5c-2.4-0.5-4.2-0.9-5.5-0.9c-2.3-0.1-4.6,0.1-6.9,0.5
				c-2.3,0.5-4.5,1.4-6.4,2.7c-2,1.3-3.7,3-5,5.1c-1.4,2.1-2.3,4.7-2.5,7.6l-0.1,0.6c-1.2,12.9-1.9,19.6-3.1,32.6
				c-0.1,0.4-0.2,1-0.3,1.7c-0.1,0.8,0,1.9,0.1,3.1C458.9,115.9,460.5,119.1,463.3,121.7z M470.5,108.4c1.1-13.4,1.6-20.1,2.7-33.6
				c0.2-2.6,1.2-4.5,3-5.7c1.4-0.9,3-1.3,4.9-1.3c0.3,0,0.5,0,0.8,0c0.3,0,1,0.1,2.4,0.4c0.9,0.2,1.9,0.6,2.8,1.1
				c0.9,0.5,1.6,1.3,2.3,2.3c0.6,0.9,0.9,2.3,0.8,4c-0.6,13.7-0.9,20.6-1.4,34.2l-0.1,1.1c0,0.2-0.1,0.7-0.3,1.4
				c-0.2,0.6-0.5,1.2-0.9,1.9c-0.4,0.6-0.9,1.2-1.6,1.6c-1.5,1.1-3.9,1.6-7,1.4c-2.9-0.2-5.1-0.9-6.5-2.1c-0.7-0.6-1.1-1.2-1.4-1.8
				c-0.3-0.8-0.5-1.5-0.6-2.2c-0.1-0.7-0.1-1.2-0.1-1.7l0.1-1l-1.9-0.1L470.5,108.4z"/>
		</g>
		<g>
			<path class="st0" d="M520.7,117.9c0,1.1,0.4,2.5,2.1,3.7c1.1,0.8,2.5,1.1,3.9,1.1l0.1,0c1.6,0,3-0.4,4.1-1.3c1.7-1.2,2-2.7,2-3.8
				l-0.4-16.9c2.5-3.3,4.1-5.3,6.2-8c7.2,10,11.5,15.5,20,26.1c0.7,0.7,1.5,1.3,2.5,1.6c0.9,0.3,1.9,0.4,3,0.4
				c0.9-0.1,1.8-0.3,2.6-0.7c1.5-0.7,2.4-1.7,2.9-3c0.5-1.5,0.2-2.9-0.8-4.1c-9.9-11.9-14.6-17.9-23.2-29.7
				c6.1-8.4,9.2-12.9,15.1-21.9c0.9-1.3,1-2.7,0.5-4.1c-0.5-1.3-1.5-2.2-2.8-2.8c-1.3-0.6-2.8-0.7-4.2-0.3c-1.4,0.4-2.6,1.2-3.3,2.4
				c-7.3,11-11.5,17-18.8,26.5l-0.6-23c0-1.4-0.7-2.7-1.9-3.6c-1.1-0.8-2.4-1.3-3.9-1.3l0,0c-1.4,0-2.7,0.5-3.8,1.4
				c-1.2,1-1.8,2.3-1.8,3.7c0.1,13.3,0.2,20.9,0.3,32.5L520.7,117.9z M526.7,120.9L526.7,120.9L526.7,120.9L526.7,120.9z"/>
		</g>
		<g>
			<path class="st0" d="M589.1,112c0.1,1,0.6,2.4,2.5,3.4c1,0.5,2.1,0.8,3.2,0.8c0.3,0,0.6,0,1-0.1c12.8-1.6,19.1-2.6,31.8-4.8
				c1.5-0.3,2.8-0.9,3.8-2c1.5-1.5,1.6-3,1.4-4c-0.2-1-0.8-2.4-2.7-3.3c-1.3-0.6-2.7-0.8-4.2-0.5c-10.2,1.8-15.5,2.7-25.3,4
				c-2.5-18.1-5-35.7-7.4-52.4c-0.1-0.9-0.6-2.3-2.2-3.3c-1.2-0.7-2.5-1-4.1-0.8c-1.4,0.2-2.6,0.8-3.6,1.8c-1.4,1.4-1.5,2.8-1.4,3.8
				C584.4,74.2,586.8,93.6,589.1,112z"/>
		</g>
		<g>
			<path class="st0" d="M640.7,70.9c2.9,11,4.3,16.7,7.2,27.9c0.3,1,1,2.4,3,3.1c0.8,0.3,1.5,0.4,2.3,0.4c0.6,0,1.2-0.1,1.9-0.2
				c1.6-0.4,2.8-1.1,3.7-2.2c1.3-1.6,1.3-3.1,1-4.1c-3-11.2-4.5-16.8-7.6-27.8c2.7-11.9,3.9-17.9,5.9-29.9c0.2-1.5-0.3-2.8-1.3-3.8
				c-0.9-0.9-2.2-1.4-3.8-1.5l-0.2,0c-1.4,0-2.7,0.4-3.8,1.1c-1.7,1.1-2.2,2.5-2.3,3.4c-1.4,7.8-2.2,12.2-3.7,19.2
				c-5-5.5-8-8.9-13.2-15c-0.9-1.1-2.2-1.8-3.7-1.9c-1.4-0.1-2.7,0.2-4,1c-1.4,0.8-2.3,1.9-2.6,3.1c-0.4,1.4-0.1,2.8,0.9,4
				C628.3,57.1,632.4,61.8,640.7,70.9z"/>
		</g>
		<g>
			<path class="st0" d="M672.1,31.1l-0.2,0.1l0.2,0.5l0,0l0.3,0.8l-0.1,0.1l0.3,0.9c6.6,18.4,13.1,36.9,19.1,54.9
				c0.3,1,1.1,2.2,3.2,2.8c0.7,0.2,1.3,0.3,2,0.3c0.8,0,1.6-0.1,2.3-0.4c1.6-0.5,2.8-1.4,3.6-2.5c1.2-1.7,1-3.2,0.7-4.1
				c-5-14-7.8-21.9-12.3-34c12.6,10.6,20.7,16.9,36,27.9l0.3,0.2l0.3,0.6h0.9c0,0,0.1,0,0.1,0l0.4,0.7l1.2-0.4l0.3,0
				c0.1,0,0.3,0,0.4,0l0.1,0c0.2,0,0.4,0,0.6-0.1l0.3,0l0.2-0.1c0.2,0,0.5-0.1,0.7-0.2l0.6-0.2c0.5-0.2,0.8-0.4,1-0.5l-0.9-1.7
				l1.1,1.6c0.3-0.1,0.6-0.3,0.9-0.6l1.6-0.6l-0.2-0.4l0.7-0.3l-0.2-0.6l0.7-0.3l-0.1-0.1l0.1,0l-0.1-0.4l0.3-0.1l-0.4-1.1l0.1-0.2
				l0-0.1l0.1-0.1l-0.7-1.5c-7.5-17.6-15.5-35.6-23.6-53.5c-0.4-0.9-1.3-2-3.2-2.6c-1.4-0.4-2.8-0.3-4.1,0.2
				c-1.5,0.6-2.5,1.5-3.2,2.7c-0.9,1.7-0.6,3.1-0.3,4c6,13.9,9.4,21.7,14.4,33.7c-13.4-10-21.3-16.4-35.2-28.6l-0.1,0
				c0,0-0.1-0.1-0.1-0.1l-0.4-1.2l-0.3,0.1l-0.1-0.1l-0.1,0l-0.1-0.1l-0.4,0.1l-0.1-0.3l-0.1,0l0-0.1l-0.4,0.1l-0.1-0.2l-1.2,0.4
				l-0.3-0.1l-0.2,0.1l-0.1,0l-0.2,0.1l-0.2-0.1l-1.4,0.4c-0.4,0.1-0.8,0.3-1,0.4l-0.4,0.2c-0.3,0.1-0.5,0.3-0.8,0.5l-1.8,0.7
				l0.1,0.3l-0.4,0.1l0.2,0.8l-0.7,0.3l0.1,0.2l-0.2,0.1L672.1,31.1z M729.2,79.1l0.5-1.8l0,0l-0.3,1.8
				C729.3,79.1,729.3,79.1,729.2,79.1z M732.8,77.1L732.8,77.1L732.8,77.1L732.8,77.1z"/>
		</g>
		<g>
			<path class="st0" d="M271.3,210.8c-2-0.6-3.9-0.5-5.8,0.4c-1.9,0.9-3.2,2.3-3.8,4.2l-14.1,43.6c-9.1-3-18.2-6.2-27.1-9.5
				l16.1-42.9c0.7-1.8,0.6-3.8-0.3-5.6c-0.9-1.8-2.3-3.1-4.3-3.9c-1.8-0.7-3.8-0.7-5.6,0.1c-1.9,0.8-3.3,2.1-4,3.9l-34.7,88
				c-0.5,1.3-0.8,3.4,0.5,5.9c1,1.8,2.6,3.1,4.6,3.9c2.1,0.8,4.2,0.9,6.2,0.2c2.7-0.9,3.8-2.7,4.3-4l12-32
				c9.2,3.4,18.5,6.7,27.8,9.7l-10.6,32.5c-0.4,1.3-0.6,3.4,0.9,5.8c1.1,1.8,2.8,3,4.9,3.7c1.1,0.4,2.3,0.5,3.4,0.4
				c0.9-0.1,1.8-0.3,2.6-0.6c2.6-1.1,3.6-2.9,4.1-4.2l27.8-90.4c0.6-1.8,0.3-3.8-0.7-5.6C274.6,212.6,273.1,211.4,271.3,210.8z"/>
		</g>
		<g>
			<path class="st0" d="M370.6,242c-0.8-1.4-1.6-2.6-2.4-3.8c-2.6-3.3-5.4-5.7-8.5-7.2c-3-1.4-5.3-2.3-7.2-2.8
				c-3.1-0.8-6.2-1-9.4-0.8c-3.3,0.3-6.5,1.2-9.5,2.8c-3,1.6-5.7,3.8-8.2,6.7c-2.5,2.9-4.4,6.7-5.6,11.1l-15,52.5
				c-0.3,0.6-0.6,1.4-0.9,2.6c-0.4,1.3-0.6,2.9-0.8,4.7c-0.6,6.1,0.6,11.6,3.5,16.2c3.8,6.2,10.2,10.4,19.1,12.6
				c3.3,0.8,6.5,1.2,9.5,1.2c5,0,9.6-1.1,13.6-3.4c4.7-2.7,8.3-6.8,10.6-12.1c0.7-1.6,1.2-3.1,1.5-4.4l11.9-56.9
				c0.6-2.7,0.8-5.3,0.7-7.6c-0.1-2.3-0.4-4.4-0.9-6.3C372.1,245.3,371.4,243.5,370.6,242z M357.9,257.9l-12.7,56.3
				c-0.1,0.6-0.5,1.5-0.9,2.4c-0.5,1-1.1,2-1.9,3c-0.8,0.9-1.7,1.8-2.9,2.4c-2.6,1.4-6.1,1.6-10.3,0.5c-4.1-1-6.9-2.7-8.5-5.1
				c-0.8-1.1-1.2-2.2-1.4-3.5c-0.2-1.4-0.2-2.7-0.1-3.9c0.1-1.2,0.3-2.2,0.5-3l14.8-55c1.2-4.5,3.3-7.4,6.4-9
				c1.5-0.8,3.1-1.1,4.8-1.1c1.1,0,2.2,0.1,3.3,0.4c0.4,0.1,1.3,0.4,3,1.1c1.2,0.5,2.4,1.4,3.5,2.5c1.1,1.1,1.9,2.6,2.5,4.5
				C358.6,252.4,358.6,254.9,357.9,257.9z"/>
		</g>
		<g>
			<path class="st0" d="M465.4,243.6c-15.1-0.7-30.3-1.9-45.2-3.5c-2.1-0.2-3.9,0.3-5.5,1.5c-1.6,1.2-2.6,3-2.9,5
				c-0.2,1.9,0.3,3.8,1.6,5.4c1.3,1.6,3.1,2.5,5.1,2.7c5.2,0.6,10.5,1.1,15.8,1.6l-7.5,86.9c-0.2,2.1,0.6,4,2.2,5.6
				c1.5,1.4,3.3,2.2,5.4,2.4c0.3,0,0.6,0,0.8,0c1.9,0,3.6-0.5,5-1.5c1.7-1.2,2.7-3,2.9-5.1l6.2-87c5.1,0.4,10.3,0.6,15.5,0.9l0.3,0
				c1.9,0,3.5-0.6,5-1.9c1.5-1.4,2.4-3.1,2.5-5c0.1-2-0.6-3.9-2-5.3C469.1,244.5,467.4,243.7,465.4,243.6z"/>
		</g>
		<g>
			<path class="st0" d="M611.3,266.3c-0.6-4.6-1.8-8.5-3.8-11.8c-1.9-3.2-4.3-5.9-7-7.9c-2.7-2-5.7-3.4-8.9-4.1
				c-3.1-0.8-6.3-1-9.4-0.7c-3.7,0.3-7.4,0.6-11.1,0.9c-2.6,0.2-5.3,0.4-7.9,0.5c-2.1,0.1-3.8,1-5.1,2.5c-1.3,1.5-2,3.3-1.9,5.2
				l4.8,94.5c0.1,2,1,3.7,2.7,5.1c1.5,1.2,3.2,1.8,5.2,1.8c0.2,0,0.4,0,0.6,0c3.1-0.2,6.1-0.4,9.2-0.6c4.3-0.3,8.6-0.6,12.9-1
				c3.6-0.3,7-1.2,10.4-2.6c3.4-1.4,6.4-3.4,8.9-6c2.5-2.6,4.5-5.7,5.8-9.3c1.3-3.6,1.7-7.9,1.1-12.6L611.3,266.3z M598.9,332.4
				c-2.1,2-5,3.2-8.5,3.5c-4.2,0.4-8.4,0.7-12.6,1l-1,0.1l-5.2-79.8l0.6,0c3.8-0.3,7.6-0.5,11.3-0.9c3-0.3,5.6,0.4,7.8,1.9
				c2.9,2.2,4.5,5.5,5,9.9l5.7,53.7C602.5,326.4,601.5,329.9,598.9,332.4z"/>
		</g>
		<g>
			<path class="st0" d="M720.3,305.9l-14.4-56.4c-0.7-2.7-1.6-5.1-2.8-7.1c-1.1-2-2.3-3.7-3.6-5.3c-1.3-1.5-2.7-2.8-4-3.8
				c-1.3-0.9-2.6-1.7-3.9-2.3c-3.7-1.8-7.4-2.7-10.8-2.7c-3.3,0-5.8,0.2-7.7,0.7c-3.1,0.7-6,1.8-8.8,3.5c-2.8,1.7-5.3,3.9-7.3,6.7
				c-2,2.7-3.4,6-4.4,9.6c-0.9,3.7-1,7.9-0.1,12.4l9.7,53.8c0,0.6,0.1,1.5,0.3,2.7c0.2,1.3,0.7,2.9,1.4,4.6
				c2.1,5.7,5.6,10.1,10.2,13c3.8,2.4,8.2,3.7,13.1,3.9c3,0.1,6.2-0.2,9.6-1c8.9-1.9,15.6-6,19.8-12.1c3-4.5,4.5-9.8,4.2-15.5
				C720.8,308.7,720.6,307.2,720.3,305.9z M669.3,247.4c1.6-2.2,3.9-3.5,7-4.2c0.4-0.1,1.4-0.2,3.3-0.3c0.3,0,0.5,0,0.8,0
				c1.1,0,2.3,0.3,3.5,0.7c1.5,0.5,2.9,1.5,4.2,2.9c1.3,1.4,2.4,3.6,3.1,6.6l13,54.5l2.3-0.6l-2.2,0.8l0.3,1.3
				c0.2,0.6,0.2,1.5,0.3,2.6c0,1.1-0.1,2.3-0.4,3.5c-0.3,1.2-0.8,2.3-1.5,3.4c-1.7,2.4-4.8,4.1-9,5c-4.1,0.9-7.4,0.7-9.8-0.8
				c-1.2-0.7-2.1-1.5-2.8-2.5c-0.8-1.2-1.4-2.3-1.8-3.4c-0.4-1.1-0.7-2.1-0.9-2.9l-11-55.9C666.7,253.7,667.2,250.2,669.3,247.4z"/>
		</g>
		<g>
			<path class="st0" d="M816.4,275.4c-0.5-1.4-0.8-2.1-1.1-2.5l-10.7-27.6l-2.2,0.8c-6.9,2.7-13.9,5.3-20.9,7.7
				c-2,0.7-3.6,2-4.6,3.8c-1.1,1.9-1.3,3.8-0.7,5.7c0.7,2,2.1,3.4,4.1,4.2c1.9,0.8,4,0.8,6,0.1c2.8-1,5.7-2,8.5-3l5.4,14.7
				c0.5,1.4,0.9,2.7,1,3.7c0.1,1.1,0.1,2.3,0,3.7c-0.1,1.2-0.5,2.5-1.2,3.7c-1.2,2.5-4.1,4.5-8.5,6c-4.1,1.4-7.2,1.6-10,0.4
				c-1.3-0.5-2.3-1.2-3.1-2.2c-0.9-1.1-1.7-2.2-2.2-3.2c-0.5-1-0.9-1.9-1.2-2.7l-17.5-54.3c-1.4-4.4-1.2-8,0.5-11
				c1.5-2.4,3.7-4.1,6.6-5.1c0.4-0.1,1.3-0.4,3.1-0.7c1.2-0.2,2.6-0.1,4,0.3c1.4,0.4,2.9,1.2,4.4,2.5c1.5,1.3,2.8,3.4,3.9,6.3
				c0.7,1.8,2.1,3.2,4,4c1.9,0.8,3.9,0.8,5.9,0c1.9-0.7,3.4-2,4.3-3.9c1-1.9,1.1-3.9,0.4-5.7c-2-5.2-4.6-9.2-7.7-11.7
				c-3-2.5-5.7-4.2-8.4-5.1c-6-2.1-12.2-2.1-18.7,0.2c-3,1-5.8,2.6-8.4,4.5c-2.6,2-4.8,4.5-6.5,7.4c-1.7,2.9-2.8,6.3-3.3,10.1
				c-0.5,3.8-0.1,8,1.3,12.4l16,52.4c0.1,0.7,0.3,1.5,0.8,2.8c0.4,1.2,1,2.6,1.7,4.2c2.9,5.6,6.9,9.5,11.9,11.6
				c2.6,1.3,5.5,2.1,8.6,2.3c4.4,0.4,9.2-0.4,14.4-2.1c8.7-3,15-7.9,18.5-14.5c2.5-4.7,3.3-10,2.5-15.8
				C817.2,278.2,816.8,276.7,816.4,275.4z"/>
		</g>
		<g>
			<path class="st0" d="M80.4,114.1c0.6-0.3,1-0.8,1.2-1.4c0.2-0.7,0.1-1.3-0.2-1.9c-0.3-0.6-0.8-1-1.4-1.2l-11.7-3.7
				c-0.6-0.2-1.3-0.2-1.9,0.2c-0.6,0.3-1,0.8-1.2,1.5c-0.2,0.6-0.1,1.3,0.2,1.9c0.3,0.6,0.8,1,1.5,1.2l3.5,1.1l-7.1,22.6
				c-0.2,0.7-0.1,1.3,0.2,1.9c0.3,0.6,0.8,1,1.4,1.2c0.3,0.1,0.5,0.1,0.8,0.1c0.4,0,0.8-0.1,1.1-0.3c0.6-0.3,1-0.8,1.2-1.5l7.1-22.6
				l3.4,1.1C79.1,114.5,79.8,114.4,80.4,114.1z"/>
		</g>
		<g>
			<path class="st0" d="M102.1,117.3c-0.3-0.6-0.8-1-1.4-1.2c-0.7-0.2-1.3-0.1-1.9,0.2c-0.6,0.3-1,0.8-1.2,1.4l-3.7,11.6l-5.6-1.8
				l3.7-11.7c0.2-0.6,0.1-1.3-0.2-1.9c-0.3-0.6-0.8-1-1.5-1.2c-0.6-0.2-1.3-0.1-1.9,0.2c-0.6,0.3-1,0.8-1.2,1.4l-7.9,25
				c-0.2,0.6-0.1,1.3,0.2,1.9c0.3,0.6,0.8,1,1.4,1.2c0.7,0.2,1.3,0.1,1.9-0.2c0.6-0.3,1-0.8,1.2-1.4l2.7-8.6l5.6,1.8l-2.7,8.6
				c-0.2,0.6-0.1,1.3,0.2,1.9c0.3,0.6,0.8,1,1.5,1.2c0.2,0.1,0.5,0.1,0.7,0.1c0.4,0,0.8-0.1,1.2-0.3c0.6-0.3,1-0.8,1.2-1.4l7.9-25
				C102.5,118.5,102.4,117.9,102.1,117.3z"/>
		</g>
		<g>
			<path class="st0" d="M122.6,123l-9.8-3.1c-0.7-0.2-1.3-0.1-1.9,0.2c-0.6,0.3-1,0.8-1.2,1.5l-7.9,25c-0.2,0.6-0.1,1.3,0.2,1.9
				c0.3,0.6,0.8,1,1.5,1.2l9.8,3.1c0.3,0.1,0.5,0.1,0.8,0.1c0.4,0,0.8-0.1,1.1-0.3c0.6-0.3,1-0.8,1.2-1.4c0.2-0.7,0.1-1.3-0.2-1.9
				c-0.3-0.6-0.8-1-1.5-1.2l-7.5-2.4l2-6.2l5.3,1.7c0.7,0.2,1.3,0.1,1.9-0.2c0.6-0.3,1-0.8,1.2-1.4c0.2-0.6,0.2-1.3-0.1-1.9
				c-0.3-0.6-0.8-1.1-1.5-1.3l-5.3-1.7l2.9-9.2l7.5,2.4c0.6,0.2,1.3,0.1,1.9-0.2c0.6-0.3,1-0.8,1.2-1.5c0.2-0.6,0.1-1.3-0.2-1.9
				C123.7,123.6,123.2,123.2,122.6,123z"/>
		</g>
		<g>
			<path class="st0" d="M905.6,140.8l-0.3-0.6c-0.3-0.6-0.8-1-1.5-1.2c-0.7-0.2-1.3-0.2-1.9,0.1c-0.6,0.3-1,0.8-1.3,1.4
				c-0.2,0.7-0.2,1.3,0.1,1.9c0.1,0.4,0.3,0.7,0.3,1c0,0.3,0.1,0.6,0.1,0.9c0,0.3,0,0.5-0.1,0.8c-0.2,0.5-0.6,0.9-1.4,1.2
				c-0.7,0.3-1.3,0.4-1.8,0.1c-0.2-0.1-0.5-0.3-0.6-0.5c-0.2-0.3-0.4-0.5-0.6-0.8c-0.1-0.2-0.3-0.5-0.3-0.6l-6-14.3
				c-0.4-1-0.5-1.9-0.2-2.6c0.1-0.2,0.2-0.4,0.4-0.6c0.2-0.2,0.4-0.4,0.7-0.5c0.2-0.1,0.4-0.1,0.7-0.2c0.3-0.1,0.6,0,0.9,0
				c0.3,0.1,0.6,0.2,1,0.5c0.3,0.3,0.7,0.8,1,1.5c0.3,0.6,0.7,1.1,1.4,1.4c0.6,0.3,1.3,0.2,1.9,0c0.6-0.3,1.1-0.7,1.3-1.4
				c0.3-0.6,0.3-1.3,0-1.9c-0.6-1.5-1.4-2.6-2.4-3.4c-0.9-0.7-1.7-1.1-2.5-1.4c-1.1-0.4-2.2-0.5-3.2-0.3c-0.9,0.2-1.6,0.3-2.1,0.6
				c-0.8,0.3-1.6,0.8-2.3,1.5c-0.7,0.6-1.2,1.4-1.6,2.3c-0.4,0.9-0.6,1.9-0.6,3c0,1.1,0.3,2.3,0.8,3.5l6.1,14.4
				c0.1,0.4,0.4,0.8,0.7,1.2c0.5,0.7,1,1.3,1.5,1.9c0.6,0.6,1.3,1,1.9,1.3c0.9,0.4,1.8,0.6,2.8,0.6c1,0,2-0.2,3.1-0.7
				c2.1-0.9,3.5-2.3,4.2-4.2c0.5-1.4,0.6-2.9,0.2-4.5C905.8,141.7,905.7,141.2,905.6,140.8z"/>
		</g>
		<g>
			<path class="st0" d="M926.1,132.7l-6.3-14.8c-0.3-0.7-0.7-1.4-1.1-1.9c-0.4-0.5-0.8-1-1.2-1.4c-0.4-0.4-0.9-0.7-1.3-1
				c-0.4-0.2-0.8-0.4-1.2-0.5c-1.2-0.4-2.2-0.5-3.2-0.3c-0.9,0.2-1.6,0.3-2.1,0.6c-0.8,0.4-1.6,0.8-2.3,1.5
				c-0.7,0.6-1.2,1.4-1.6,2.4c-0.4,0.9-0.6,1.9-0.6,3c0,1.1,0.3,2.3,0.8,3.5l5.8,13.8c0,0.2,0.1,0.5,0.3,0.9
				c0.2,0.4,0.4,0.8,0.7,1.2c0.9,1.5,2.1,2.6,3.4,3.2c0.9,0.4,1.8,0.6,2.8,0.6c1,0,2.1-0.2,3.1-0.7c2.1-0.9,3.5-2.3,4.2-4.2
				c0.5-1.4,0.6-2.9,0.2-4.5C926.4,133.5,926.2,133.1,926.1,132.7z M921.7,136c0,0.3,0,0.5-0.1,0.8c-0.2,0.6-0.7,1-1.5,1.3
				c-0.8,0.3-1.3,0.4-1.9,0.1c-0.2-0.1-0.5-0.2-0.6-0.4c-0.2-0.3-0.4-0.5-0.6-0.8c-0.2-0.3-0.3-0.5-0.4-0.9l-6.1-14.4
				c-0.4-1.1-0.5-1.9-0.2-2.7c0.3-0.5,0.7-0.9,1.3-1.2c0.1-0.1,0.4-0.1,0.7-0.2c0.1,0,0.3,0,0.4,0c0.2,0,0.3,0,0.5,0.1
				c0.3,0.1,0.7,0.2,1,0.5c0.3,0.3,0.7,0.8,1,1.5l6,14.3c0,0,0.1,0.2,0.2,0.4c0.1,0.2,0.1,0.4,0.2,0.6
				C921.7,135.4,921.7,135.7,921.7,136z M915.5,136.4L915.5,136.4L915.5,136.4L915.5,136.4z"/>
		</g>
		<g>
			<path class="st0" d="M935.4,131.8c-0.7-0.3-1.4-0.3-2,0c-0.7,0.3-1.2,0.8-1.5,1.5c-0.2,0.6-0.2,1.3,0,2c0.3,0.6,0.8,1.1,1.4,1.4
				c0.3,0.1,0.7,0.2,1,0.2c0.4,0,0.7-0.1,1-0.2c0.7-0.3,1.2-0.8,1.4-1.5c0.3-0.6,0.2-1.3,0-2C936.5,132.6,936,132.1,935.4,131.8z"/>
		</g>
	</g>
	<g>
		<g>
			<path class="st0" d="M139,404.5h-0.5c-1.9,0-4.4,1.2-5.3,2.7c2.4,0.4,4,1.9,4,4c0,3.1-2.3,4.4-4.3,4.4c-2.3,0-4.8-1.6-4.8-4.5
				c0-5.8,5.7-9.9,10.4-9.9h0.6L139,404.5z M151.1,404.5h-0.5c-1.9,0-4.4,1.2-5.3,2.7c2.4,0.4,4,1.9,4,4c0,3.1-2.3,4.4-4.3,4.4
				c-2.3,0-4.8-1.6-4.8-4.5c0-5.8,5.7-9.9,10.4-9.9h0.6L151.1,404.5z"/>
		</g>
		<g>
			<path class="st0" d="M208.6,447.4c-9.6,16.8-26.4,15.8-28.1,6.5c-12.5,13.4-24.4,4.2-17-8.6l21.4-37.4
				c-10.8,5.4-29.4,6.8-29.4,17.3c0,4.1,4.4,5.9,4.4,5.9l-3.1,5.4c-4.1-1.6-8.6-5.6-8.6-11.4c0-17.2,26.2-15.6,42.1-26.3l4.3,7.3
				l-23.9,41.4c-5.6,9.8,1.4,13.9,11.9-2.7l25.1-43.5h8.4l-28.2,49.1c-4,7.1,5.2,9,12.3-3.1l22.3-38.5c9.8-16.9,23.3-10.7,25.1-3.9
				l-5.6,3.1c-2.4-5.5-7.9-4.6-12.6,3.5L208.6,447.4z"/>
		</g>
		<g>
			<path class="st0" d="M229.6,443.5l-0.8,1.5c-3.9,6.8-0.8,10,4.4,10c5.9,0,13.6-5.6,19.7-12.6l0.6-0.7c1.1,0.5,2.6,1.8,3.1,2.9
				c-6.9,8.1-16.4,15.5-25.9,15.5c-9.9,0-14.4-8.2-9.2-17.2l8.8-15.1c3.5-6.1,8.9-9.7,15.7-9.7c6.9,0,11.2,5.8,6.7,13.6l-1.2,2.1
				C245.2,444.7,235.1,445.7,229.6,443.5z M232.1,439.4c3.1,1.1,8.5,1.3,12.6-5.6l1.2-2.1c5-8.7-3.5-10.1-8.4-1.8L232.1,439.4z"/>
		</g>
		<g>
			<path class="st0" d="M261.7,412.9h0.5c1.9,0,4.4-1.2,5.3-2.7c-2.4-0.4-4-1.9-4-4c0-3.1,2.3-4.4,4.3-4.4c2.3,0,4.8,1.6,4.8,4.5
				c0,5.8-5.7,9.9-10.4,9.9h-0.6L261.7,412.9z"/>
		</g>
		<g>
			<path class="st0" d="M292,432.8c1-1.7,0.6-3.4-0.5-4.8l-1.1-1.5c-9.3,12.5-20.9,28-25,32.7c-1.2-0.8-2.4-1.9-3.1-2.9
				c6-7.1,18.7-24.5,25.2-33.5l-0.6-0.9c-3-3.9-2.6-8.6,2.2-12.9l4.4,4.8c-1.7,1.6-1.7,3.3-0.5,4.8l4.7,5.6
				c2.7,3.3,4.1,6.3,1.2,11.4l-8.4,14.7c-1.9,3.3-0.9,4.6,1,4.6c3.7,0,9.6-5.6,15.6-12.6l0.6-0.7c1.1,0.5,2.6,1.8,3.1,2.9
				c-6.9,8.1-14.9,15.5-21.9,15.5c-6.8,0-9.3-5.7-5.7-11.9L292,432.8z"/>
		</g>
		<g>
			<path class="st0" d="M315,443.5l-0.8,1.5c-3.9,6.8-0.8,10,4.4,10c5.9,0,13.6-5.6,19.7-12.6l0.6-0.7c1.1,0.5,2.6,1.8,3.1,2.9
				c-6.9,8.1-16.4,15.5-25.9,15.5c-9.9,0-14.4-8.2-9.2-17.2l8.8-15.1c3.5-6.1,8.9-9.7,15.7-9.7c6.9,0,11.2,5.8,6.7,13.6l-1.2,2.1
				C330.5,444.7,320.4,445.7,315,443.5z M317.4,439.4c3.2,1.1,8.6,1.3,12.6-5.6l1.2-2.1c5-8.7-3.5-10.1-8.4-1.8L317.4,439.4z"/>
		</g>
		<g>
			<path class="st0" d="M384,452.8c-11.3,14.3-31.5,7.6-21-10.6l3.6-6.2l4.1-7.2c4.8-8.4,9.8-11,16.3-11c7.9,0,12.6,8.3,7.5,17.1
				l-7.9,13.6c4.2-0.1,8.9-2.1,12.7-6.2l0.6-0.7c1.1,0.5,2.6,1.8,3.1,2.9c-4.3,5.1-12.2,8.1-17.2,8.1H384z M381.6,442.3h0.4
				l6.1-10.5c5.1-8.7-3-12.7-8.9-2.7l-4,6.9l-6.4,11c-5,8.7,4.6,10,8.5,3.2l0.1-0.2c-0.5-0.8-0.8-1.8-0.8-2.8
				C376.6,444.5,378.8,442.3,381.6,442.3z"/>
		</g>
		<g>
			<path class="st0" d="M439.5,441.7c1.1,0.5,2.6,1.8,3.1,2.9c-6.9,8.1-14.9,15.5-21.8,15.5c-6.8,0-9.3-5.7-5.7-11.9l10.9-18.9
				c3.6-6.2-2.1-8.3-14.9,7.7l-12.8,22.3h-8.5L413,419h8.4l-3.1,5.5c4.2-4.4,8-6.3,11.6-6.3c4.7,0,8.1,4.6,4.5,11l-12.1,21.2
				c-1.9,3.3-0.9,4.6,1,4.6c3.7,0,9.6-5.6,15.6-12.6L439.5,441.7z"/>
		</g>
		<g>
			<path class="st0" d="M446.9,443.5l-0.8,1.5c-3.9,6.8-0.8,10,4.3,10c5.9,0,13.6-5.6,19.7-12.6l0.6-0.7c1.1,0.5,2.6,1.8,3.1,2.9
				c-6.9,8.1-16.4,15.5-25.9,15.5c-9.9,0-14.4-8.2-9.2-17.2l8.8-15.1c3.5-6.1,8.9-9.7,15.7-9.7c6.9,0,11.2,5.8,6.7,13.6l-1.2,2.1
				C462.5,444.7,452.3,445.7,446.9,443.5z M449.3,439.4c3.1,1.1,8.5,1.3,12.6-5.6l1.2-2.1c5-8.7-3.5-10.1-8.4-1.8L449.3,439.4z"/>
		</g>
		<g>
			<path class="st0" d="M515.9,452.8c-11.3,14.3-31.5,7.6-21-10.6l3.6-6.2l4.1-7.2c4.8-8.4,9.8-11,16.3-11c7.9,0,12.6,8.3,7.5,17.1
				l-7.9,13.6c4.2-0.1,8.9-2.1,12.7-6.2l0.6-0.7c1.1,0.5,2.6,1.8,3.1,2.9c-4.3,5.1-12.2,8.1-17.2,8.1H515.9z M513.5,442.3h0.4
				l6.1-10.5c5.1-8.7-3-12.7-8.9-2.7l-4,6.9l-6.4,11c-5,8.7,4.6,10,8.6,3.2l0.1-0.2c-0.5-0.8-0.8-1.8-0.8-2.8
				C508.6,444.5,510.8,442.3,513.5,442.3z"/>
		</g>
		<g>
			<path class="st0" d="M561.8,441.7c1.1,0.5,2.6,1.8,3.1,2.9c-9.5,11-20.6,13.5-28.9,13.9c0.8,2.3,0.7,5.5-1,8.5l-6.3,11.1
				c-9,15.7-21.9,6.8-15.4-4.4l34.7-60.2c11-19,29.1-13.6,19.4,3.2l-13.5,23.3c-4.3,7.3-11.2,12.1-16.9,15.1
				c6.7-0.5,15.8-3,24.1-12.6L561.8,441.7z M530.4,458.7h-0.7l-9.5,16.3c-3.5,5.9,0,7.3,2.9,2.3l7-12.3
				C531.8,461.9,531.8,459.6,530.4,458.7z M533.1,452.8c6.6-2.9,12.2-9.9,15.9-16.3l13.1-22.7c4.1-7.6-1.7-7.9-6.2-0.1L533.1,452.8z
				"/>
		</g>
		<g>
			<path class="st0" d="M626,441.7c1.1,0.5,2.6,1.8,3.1,2.9c-6.9,8.1-14.9,15.5-21.8,15.5c-4.3,0-6.9-2.3-7.3-5.5
				c-4,3.3-8.2,5.5-11.6,5.5c-6.8,0-9.3-5.7-5.7-11.9l11.8-20.3c3.5-6.1,9.8-9.7,14.3-9.7c5.5,0,9.1,4.9,8.8,8.5h4.8l-13.6,23.7
				c-1.9,3.3-0.9,4.6,1,4.6c3.7,0,9.6-5.6,15.6-12.6L626,441.7z M589.9,450.3c-1.9,3.3-0.9,4.6,1,4.6c3.5,0,8.5-3.8,13.6-11.8
				l6.5-11.4c4.1-7.6-4.8-9.6-9.3-1.8L589.9,450.3z"/>
		</g>
		<g>
			<path class="st0" d="M658.3,461.2l2.3-4c-2.8,1.8-5.7,2.8-8,2.8c-6.8,0-9.3-5.7-5.7-11.9l11.8-20.3c3.5-6.1,9.8-9.7,14.4-9.7
				c5.2,0,8.8,4.6,8.8,8.1h4.9l-18.8,32.1c6.6-2.8,12.6-8,19.5-16l0.6-0.7c1.1,0.5,2.6,1.8,3.1,2.9c-9.2,10.7-17.7,16.6-26.5,19.3
				l-6.4,11.1c-6.1,10.3-18.4,8.6-18.4,0.6C639.9,469.3,647,464.7,658.3,461.2z M651.2,473.7l3.8-6.8c-6.4,2.5-8.4,5-8.4,7.2
				C646.6,476.3,649.5,476.8,651.2,473.7z M654.1,450.3c-1.9,3.3-0.9,4.6,1,4.6c3.5,0,8.6-4,13.7-12.1l6.4-11.1
				c4.1-7.6-4.8-9.6-9.4-1.8L654.1,450.3z"/>
		</g>
		<g>
			<path class="st0" d="M706.6,432.8c1-1.7,0.6-3.4-0.5-4.8l-1.1-1.4c-6.7,9.1-9.8,13.3-13.9,18c-1.2-0.8-2.4-1.9-3.2-2.9
				c5.5-6.4,10.5-13.5,14.2-18.8l-0.7-1c-3-3.9-2.6-8.6,2.2-12.9l4.4,4.8c-1.7,1.6-1.7,3.3-0.5,4.8l4.7,5.6
				c2.7,3.3,4.1,6.3,1.2,11.4l-8.4,14.7c-1.9,3.3-0.9,4.6,1,4.6c3.7,0,9.6-5.6,15.6-12.6l0.6-0.7c1.1,0.5,2.6,1.8,3.2,2.9
				c-6.9,8.1-14.9,15.5-21.9,15.5c-6.8,0-9.3-5.7-5.7-11.9L706.6,432.8z"/>
		</g>
		<g>
			<path class="st0" d="M742.9,441.7c1.1,0.5,2.6,1.8,3.1,2.9c-6.9,8.1-14.9,15.5-21.9,15.5c-6.8,0-9.3-5.7-5.7-11.9l16.8-29.2h8.4
				l-18,31.4c-1.9,3.3-0.9,4.6,1,4.6c3.7,0,9.6-5.6,15.6-12.6L742.9,441.7z M744.8,405c2.7,0,4.9,2.2,4.9,4.9c0,2.7-2.2,4.8-4.9,4.8
				c-2.7,0-4.8-2.1-4.8-4.8C739.9,407.1,742,405,744.8,405z"/>
		</g>
		<g>
			<path class="st0" d="M782.5,441.7c1.1,0.5,2.6,1.8,3.1,2.9c-6.9,8.1-14.9,15.5-21.8,15.5c-6.8,0-9.3-5.7-5.7-11.9l10.9-18.9
				c3.6-6.2-2.1-8.3-14.9,7.7l-12.8,22.3h-8.5L756,419h8.4l-3.1,5.5c4.2-4.4,8-6.3,11.6-6.3c4.7,0,8.1,4.6,4.5,11l-12.1,21.2
				c-1.9,3.3-0.9,4.6,1,4.6c3.7,0,9.6-5.6,15.6-12.6L782.5,441.7z"/>
		</g>
		<g>
			<path class="st0" d="M822.1,441.7c1.1,0.5,2.6,1.8,3.1,2.9c-6.9,8.1-14.9,15.5-21.9,15.5c-4.3,0-6.9-2.3-7.3-5.5
				c-4,3.3-8.2,5.5-11.6,5.5c-6.8,0-9.3-5.7-5.7-11.9l11.8-20.3c3.5-6.1,9.8-9.7,14.4-9.7c3.5,0,6.2,2,7.7,4.4l12.3-21.3h8.4
				l-28.4,49.1c-1.9,3.3-0.9,4.6,1,4.6c3.7,0,9.6-5.6,15.6-12.6L822.1,441.7z M786.1,450.3c-1.9,3.3-0.9,4.6,1,4.6
				c3.5,0,8.7-4,13.8-12.3l6.4-11h-0.1c4.1-7.6-4.8-9.6-9.4-1.8L786.1,450.3z"/>
		</g>
		<g>
			<path class="st0" d="M828.8,450.8c2.6,0,4.7,2.1,4.7,4.7c0,2.6-2.1,4.6-4.7,4.6c-2.6,0-4.6-2-4.6-4.6
				C824.2,452.9,826.2,450.8,828.8,450.8z"/>
		</g>
		<g>
			<path class="st0" d="M843.9,412.5h0.5c1.9,0,4.4-1.2,5.3-2.7c-2.4-0.4-4-1.9-4-4c0-3.1,2.3-4.4,4.3-4.4c2.3,0,4.8,1.6,4.8,4.5
				c0,5.8-5.7,9.9-10.4,9.9h-0.6L843.9,412.5z M856,412.5h0.5c1.9,0,4.4-1.2,5.3-2.7c-2.4-0.4-4-1.9-4-4c0-3.1,2.3-4.4,4.3-4.4
				c2.3,0,4.8,1.6,4.8,4.5c0,5.8-5.7,9.9-10.4,9.9h-0.6L856,412.5z"/>
		</g>
	</g>
</g>
</svg>
