<?xml version="1.0" encoding="utf-8"?>
<!-- Generator: Adobe Illustrator 27.7.0, SVG Export Plug-In . SVG Version: 6.00 Build 0)  -->
<svg version="1.1" id="Layer_1" xmlns="http://www.w3.org/2000/svg" xmlns:xlink="http://www.w3.org/1999/xlink" x="0px" y="0px"
	 viewBox="0 0 447.6 67.1" style="enable-background:new 0 0 447.6 67.1;" xml:space="preserve">
<style type="text/css">
	.st0{fill:#FFFFFF;}
</style>
<g>
	<g>
		<path class="st0" d="M159.1,38.9c-0.6,0.5-1.5,1.1-2.6,1.7c-1.1,0.6-2.3,1.1-3.7,1.6c-1.4,0.4-2.9,0.6-4.5,0.6
			c-1.9,0-3.7-0.3-5.4-0.9c-1.7-0.6-3.1-1.4-4.4-2.5c-1.2-1.1-2.2-2.4-2.9-3.9s-1.1-3.2-1.1-5.1c0-1.7,0.4-3.4,1.1-4.8
			c0.7-1.5,1.7-2.8,3-3.8c1.3-1.1,2.8-1.9,4.4-2.5c1.7-0.6,3.4-0.9,5.2-0.9c1.5,0,3,0.2,4.4,0.6s2.7,0.9,3.8,1.5s2.1,1.2,2.7,1.9
			l-2.2,3.1c-1.2-1-2.6-1.8-4.1-2.5s-3.2-1-5.1-1c-1.2,0-2.4,0.2-3.5,0.6c-1.2,0.4-2.2,1-3.1,1.7c-0.9,0.7-1.7,1.6-2.2,2.7
			c-0.5,1-0.8,2.2-0.8,3.5c0,1.4,0.3,2.7,0.9,3.8c0.6,1.1,1.3,2,2.3,2.7s2.1,1.3,3.3,1.7s2.5,0.5,3.8,0.5c1.4,0,2.6-0.2,3.6-0.5
			c1.1-0.4,2-0.8,2.9-1.3c0.8-0.5,1.6-1,2.3-1.5L159.1,38.9z"/>
		<path class="st0" d="M148.3,43.5c-2,0-3.9-0.3-5.6-0.9c-1.7-0.6-3.3-1.5-4.6-2.6s-2.4-2.5-3.1-4.1c-0.7-1.6-1.1-3.4-1.1-5.3
			c0-1.8,0.4-3.6,1.2-5.1s1.8-2.9,3.2-4.1c1.3-1.1,2.9-2,4.6-2.7c3.2-1.1,6.9-1.2,10.1-0.3c1.5,0.4,2.8,0.9,4,1.6
			c1.2,0.6,2.2,1.3,2.9,2l0.4,0.4l-2.9,4.1l-0.5-0.4c-1.2-1-2.5-1.8-3.9-2.4s-3-0.9-4.8-0.9c-1.1,0-2.2,0.2-3.3,0.6
			s-2.1,0.9-2.9,1.6c-0.8,0.7-1.5,1.5-2,2.5c-0.5,0.9-0.7,2-0.7,3.2c0,1.3,0.3,2.5,0.8,3.5s1.2,1.8,2.1,2.5c0.9,0.7,1.9,1.2,3.1,1.5
			c2.4,0.7,5.1,0.7,7.1,0c1-0.3,1.9-0.8,2.7-1.2c0.8-0.5,1.6-1,2.2-1.5l0.6-0.4l2.4,4.2l-0.4,0.4c-0.7,0.5-1.6,1.1-2.7,1.8
			c-1.1,0.6-2.4,1.2-3.9,1.6C151.5,43.2,150,43.5,148.3,43.5z M148.3,19.1c-1.8,0-3.4,0.3-5,0.9s-3,1.4-4.2,2.4s-2.2,2.3-2.9,3.6
			c-0.7,1.4-1,2.9-1,4.5c0,1.8,0.3,3.4,1,4.8c0.7,1.4,1.6,2.6,2.8,3.6s2.6,1.8,4.2,2.3c2.9,1,6.5,1.1,9.5,0.2
			c1.4-0.4,2.6-0.9,3.6-1.5c0.8-0.5,1.5-0.9,2.1-1.3l-1.1-2c-0.5,0.4-1.1,0.8-1.7,1.1c-0.9,0.5-1.9,1-3,1.4c-2.2,0.7-5.2,0.8-7.9,0
			c-1.3-0.4-2.5-1-3.5-1.8s-1.9-1.8-2.5-2.9c-0.6-1.2-0.9-2.5-0.9-4.1c0-1.4,0.3-2.7,0.9-3.8c0.6-1.1,1.4-2.1,2.4-2.9
			s2.1-1.4,3.3-1.8s2.5-0.6,3.8-0.6c2,0,3.8,0.4,5.3,1c1.3,0.6,2.6,1.3,3.7,2.1l1.5-2.1c-0.6-0.5-1.3-1-2.2-1.4
			c-1.1-0.6-2.3-1.1-3.7-1.4C151.2,19.3,149.8,19.1,148.3,19.1z"/>
	</g>
	<g>
		<path class="st0" d="M189.5,42.5l-2.7-5.6h-14.1l-2.7,5.6h-3.9l11.6-23.8h4.3l11.6,23.8H189.5z M177.9,26.2l-3.5,7.2h10.7
			l-3.5-7.3c-0.3-0.7-0.6-1.3-0.9-1.9c-0.3-0.6-0.6-1.3-0.9-2c-0.3,0.7-0.6,1.4-0.9,2C178.5,24.9,178.2,25.5,177.9,26.2z"/>
		<path class="st0" d="M194.6,43.1h-5.5l-2.7-5.6h-13.3l-2.7,5.6H165L177.3,18h5.1L194.6,43.1z M189.9,41.8h2.6l-10.9-22.5h-3.5
			l-11,22.5h2.4l2.7-5.6h14.9L189.9,41.8z M186.1,34h-12.7l4.9-10c0.3-0.6,0.6-1.3,0.9-2l0.6-1.5l0.6,1.4c0.3,0.7,0.6,1.3,0.9,1.9
			L186.1,34z M175.4,32.7h8.6l-4-8.2c-0.1-0.2-0.2-0.4-0.3-0.6c-0.1,0.2-0.2,0.5-0.3,0.7L175.4,32.7z"/>
	</g>
	<g>
		<path class="st0" d="M224.6,26c0,1.1-0.2,2.2-0.7,3.2s-1.2,1.8-2,2.5s-1.8,1.3-2.9,1.6l7,9.3h-4.6l-6.6-8.8h-8.2v8.8h-3.7v-24
			h13.9c1.4,0,2.7,0.3,3.9,1c1.2,0.6,2.1,1.5,2.8,2.6C224.2,23.3,224.6,24.6,224.6,26z M215.8,22.2h-9.2v8h9.2
			c0.9,0,1.7-0.2,2.4-0.6s1.3-0.9,1.8-1.5c0.4-0.6,0.7-1.3,0.7-2.1c0-0.7-0.2-1.3-0.7-1.9c-0.4-0.6-1-1-1.8-1.4
			C217.5,22.4,216.7,22.2,215.8,22.2z"/>
		<path class="st0" d="M227.3,43.2h-6.2l-6.6-8.8h-7.2v8.8h-5V18h14.6c1.5,0,2.9,0.4,4.2,1.1s2.3,1.7,3,2.8c0.8,1.2,1.2,2.6,1.2,4.1
			c0,1.2-0.3,2.4-0.8,3.4s-1.2,2-2.1,2.7c-0.7,0.6-1.4,1.1-2.2,1.4L227.3,43.2z M221.7,41.8h3l-6.7-8.9l0.8-0.3
			c1-0.3,1.9-0.8,2.6-1.5c0.8-0.7,1.4-1.4,1.8-2.3c0.4-0.9,0.7-1.8,0.7-2.9c0-1.3-0.3-2.4-1-3.4c-0.6-1-1.5-1.8-2.6-2.4
			s-2.3-0.9-3.6-0.9h-13.3v22.5h2.4V33h9.1L221.7,41.8z M215.8,30.8h-9.9v-9.3h9.9c1,0,1.9,0.2,2.7,0.6s1.5,0.9,2,1.5
			c0.5,0.7,0.8,1.5,0.8,2.3c0,0.9-0.3,1.7-0.8,2.4c-0.5,0.7-1.2,1.3-2,1.7C217.7,30.6,216.8,30.8,215.8,30.8z M207.2,29.5h8.6
			c0.8,0,1.5-0.2,2.1-0.5s1.1-0.8,1.5-1.3s0.5-1.1,0.5-1.7s-0.2-1.1-0.5-1.5c-0.4-0.5-0.9-0.9-1.5-1.2c-0.6-0.3-1.4-0.5-2.1-0.5
			h-8.6V29.5z"/>
	</g>
	<g>
		<path class="st0" d="M237.3,42.5V18.6h19.5v3.5H241V29h14.3v3.5H241v9.8h-3.7V42.5z"/>
		<path class="st0" d="M241.7,43.1h-5V18h20.8v4.8h-15.9v5.6H256v4.8h-14.3V43.1z M238,41.8h2.4V32h14.3v-2.2h-14.3v-8.2h15.9v-2.2
			H238V41.8z"/>
	</g>
	<g>
		<path class="st0" d="M286.8,38.9v3.5h-19.6V18.6h3.7v20.3H286.8z"/>
		<path class="st0" d="M287.4,43.1h-20.9V18h5v20.3h15.9V43.1z M267.8,41.8h18.3v-2.2h-15.9V19.3h-2.4V41.8z"/>
	</g>
	<g>
		<path class="st0" d="M317.9,18.6v12.5c0,2.2-0.5,4.2-1.5,6c-1,1.7-2.4,3.1-4.2,4.1c-1.8,1-3.9,1.5-6.3,1.5s-4.5-0.5-6.3-1.5
			s-3.2-2.4-4.2-4.1c-1-1.7-1.5-3.7-1.5-6V18.6h3.7v12.3c0,1.6,0.4,3,1.1,4.2s1.7,2.2,3,2.9s2.7,1.1,4.2,1.1c1.6,0,3.1-0.4,4.4-1.1
			c1.3-0.7,2.3-1.7,3-2.9s1.1-2.6,1.1-4.2V18.6H317.9z"/>
		<path class="st0" d="M305.9,43.3c-2.5,0-4.7-0.5-6.6-1.6s-3.4-2.5-4.4-4.4c-1-1.8-1.6-4-1.6-6.3V18h5v13c0,1.5,0.3,2.8,1,3.9
			c0.7,1.1,1.6,2,2.8,2.7c2.4,1.3,5.7,1.3,8,0c1.2-0.6,2.1-1.5,2.8-2.7s1-2.4,1-3.9V18h4.8v13.1c0,2.4-0.5,4.5-1.6,6.3
			c-1,1.8-2.5,3.3-4.4,4.4C310.7,42.8,308.4,43.3,305.9,43.3z M294.6,19.3v11.8c0,2.1,0.5,4,1.4,5.7c0.9,1.6,2.2,2.9,3.9,3.9
			c1.7,0.9,3.7,1.4,6,1.4s4.3-0.5,6-1.4s3-2.2,3.9-3.9c0.9-1.6,1.4-3.6,1.4-5.7V19.3H315V31c0,1.7-0.4,3.2-1.2,4.6
			c-0.8,1.3-1.9,2.4-3.3,3.1c-2.7,1.5-6.4,1.5-9.2,0c-1.4-0.8-2.4-1.8-3.2-3.1c-0.8-1.3-1.2-2.9-1.2-4.6V19.3H294.6z"/>
	</g>
	<g>
		<path class="st0" d="M329.2,18.6H349v3.5h-16.1v6.3h14.2V32h-14.2v6.9H349v3.5h-19.8V18.6z"/>
		<path class="st0" d="M349.6,43.1h-21.1V18h21.1v4.8h-16.1v5h14.2v4.8h-14.2v5.6h16.1V43.1z M329.9,41.8h18.5v-2.2h-16.1v-8.2h14.2
			v-2.2h-14.2v-7.6h16.1v-2.2h-18.5V41.8z"/>
	</g>
	<g>
		<path class="st0" d="M382.7,18.6h3.7v23.8h-3.7l-19-18.7c0.1,1.5,0.3,2.9,0.4,4.4s0.2,2.9,0.2,4.4v9.9h-3.7V18.6h3.6l19,19.2
			c-0.2-1.1-0.3-2.3-0.4-3.6s-0.1-2.6-0.2-4c0-1.3-0.1-2.6-0.1-3.8v-7.8H382.7z"/>
		<path class="st0" d="M387.1,43.1h-4.6l-18-17.7c0.1,0.9,0.2,1.8,0.3,2.6c0.1,1.5,0.2,3,0.2,4.5v10.6h-5V18h4.6l17.9,18.1
			c-0.1-0.6-0.1-1.2-0.1-1.8c-0.1-1.3-0.1-2.7-0.2-4c0-1.3-0.1-2.6-0.1-3.8V18h5L387.1,43.1L387.1,43.1z M383,41.8h2.8V19.3h-2.4
			v7.2c0,1.2,0,2.4,0.1,3.7c0,1.3,0.1,2.6,0.2,3.9c0.1,1.3,0.2,2.5,0.4,3.6l0.3,1.9L364,19.3h-2.7v22.5h2.4v-9.3
			c0-1.4-0.1-2.9-0.2-4.3c-0.1-1.5-0.3-2.9-0.4-4.4l-0.2-1.8L383,41.8z"/>
	</g>
	<g>
		<path class="st0" d="M405.1,42.5V22.2H396v-3.5h22v3.5h-9.3v20.3H405.1z"/>
		<path class="st0" d="M409.4,43.1h-5V22.8h-9.1V18h23.3v4.8h-9.3v20.3H409.4z M405.7,41.8h2.4V21.5h9.3v-2.2h-20.7v2.2h9.1
			L405.7,41.8L405.7,41.8z"/>
	</g>
</g>
<g>
	<g>
		<path class="st0" d="M117.4,52.1l-3.9-4.6c2.9-4.3,4.4-9.3,4.4-14.5c0-15.2-13.4-27.7-29.9-27.7c-9.9,0-18.7,4.5-24.1,11.3
			c1.2,0.3,2.3,0.6,3.2,0.9l0,0c0.4,0.2,1,0.6,1.8,1.2c4.5-5.1,11.4-8.3,19.2-8.3c13.7,0,24.8,10.1,24.8,22.5
			c0,5.6-2.2,10.7-5.9,14.6l6.6,7.9c0,0-25.1,0-25.5,0c-5.8,0-11.1-1.8-15.3-4.8c-0.6,0-5.2,1.2-6.4,1.4c5.5,5.3,13.2,8.6,21.7,8.6
			h25.5h11.2L117.4,52.1z"/>
	</g>
	<g>
		<path class="st0" d="M96.7,37.1H82.3c0.4,1.7,0.5,2.8,0.5,3.7h13.9C96.7,40.8,96.7,37.1,96.7,37.1z"/>
	</g>
	<g>
		<path class="st0" d="M102.6,27H77.5c2.5,2.1,2.9,3.6,2.9,3.7h22.2C102.6,30.7,102.6,27,102.6,27z"/>
	</g>
	<g>
		<path class="st0" d="M78.4,40.9c0.2-0.7-0.3-3-0.7-4.5c-0.3-1.2-0.7-2.3-1.1-3.4c-0.3-0.7-0.7-1.3-1.2-1.8
			c-2.4-2.4-9.5-9.4-10.1-9.6c-4.2-1.7-14.1-2-17.4-2c-12.9,0-18,2.5-19.2,3c-3.2,1-11.6,7.5-12,7.9c-0.4,0.3-4.7,1.8-7.7,3.2
			c-0.5,0.3-1,0.6-1.5,0.9C6,35.5,4.9,37,4.6,38.8c-0.1,1-0.1,2,0.1,3.1V42c0.4,2.3,2.2,4,4.4,4.6c0.9,0.2,1.7,0.4,2.6,0.5
			c0,0,1.9,0,4.8,0c-0.7-1.3-1-2.7-1-4.2c-0.1-5,4-9.2,9-9.3l0,0l0,0c5.1,0,9.2,4.2,9.1,9.2c0,1.5-0.4,3-1.1,4.3c5,0,9.2,0,10.4,0
			c2.5,0,8-0.1,13.7-0.3c-0.6-1.2-0.9-2.6-0.9-4c-0.1-5,4-9.2,9-9.3h0.1h0.1c5,0.1,9.1,4.2,9.1,9.2c0,1.2-0.2,2.3-0.7,3.4
			c0.7,0,1-0.1,1.1-0.1C75.5,45.1,78.3,41.6,78.4,40.9z"/>
	</g>
	<g>
		<path class="st0" d="M65,37.1c-3.2,0-5.7,2.6-5.6,5.8c0,1.7,0.8,3.4,2.1,4.5c1,0.9,2.3,1.3,3.5,1.3c1.4,0,2.8-0.5,3.8-1.5
			c1.2-1.1,1.8-2.6,1.8-4.3C70.7,39.7,68.2,37.1,65,37.1z"/>
	</g>
	<g>
		<path class="st0" d="M24.6,37.1c-3.2,0-5.7,2.6-5.6,5.8c0,2,1,3.8,2.6,4.9c0.9,0.6,2,0.9,3,0.9c1.1,0,2.1-0.3,3-0.9
			c1.6-1.1,2.6-2.9,2.6-4.9C30.3,39.7,27.8,37.1,24.6,37.1z"/>
	</g>
</g>
<g>
	<g>
		<path class="st0" d="M435.1,25.6c-1.1,0-2.1-0.3-3.1-0.8c-0.9-0.5-1.7-1.2-2.2-2.1s-0.8-1.9-0.8-3s0.3-2.1,0.8-3s1.3-1.6,2.2-2.1
			c0.9-0.5,1.9-0.8,3.1-0.8s2.1,0.3,3,0.8s1.6,1.2,2.2,2.1c0.5,0.9,0.8,1.9,0.8,3s-0.3,2.1-0.8,3s-1.3,1.6-2.2,2.1
			C437.2,25.3,436.2,25.6,435.1,25.6z M435.1,23.9c0.8,0,1.5-0.2,2.2-0.6s1.2-0.9,1.6-1.5c0.4-0.7,0.6-1.4,0.6-2.2
			c0-0.8-0.2-1.5-0.6-2.2c-0.4-0.6-0.9-1.2-1.6-1.5c-0.7-0.4-1.4-0.6-2.2-0.6c-0.8,0-1.6,0.2-2.2,0.6c-0.7,0.4-1.2,0.9-1.6,1.5
			s-0.6,1.4-0.6,2.2c0,0.8,0.2,1.5,0.6,2.2s0.9,1.2,1.6,1.5C433.5,23.7,434.3,23.9,435.1,23.9z M435.9,22.7l-0.9-2.5h-0.7v2.5h-1.5
			v-6.3h2.9c0.6,0,1,0.2,1.4,0.5s0.6,0.8,0.6,1.4c0,0.5-0.1,0.8-0.3,1.1c-0.2,0.3-0.5,0.5-0.8,0.6l1,2.6L435.9,22.7L435.9,22.7z
			 M435.1,19.2c0.3,0,0.5-0.1,0.7-0.2s0.3-0.3,0.3-0.5s-0.1-0.4-0.3-0.5c-0.2-0.1-0.4-0.2-0.7-0.2h-0.9v1.4
			C434.2,19.2,435.1,19.2,435.1,19.2z"/>
	</g>
</g>
</svg>
