<?xml version="1.0" encoding="UTF-8"?>
<svg id="Layer_1" xmlns="http://www.w3.org/2000/svg" xmlns:xlink="http://www.w3.org/1999/xlink" version="1.1" viewBox="0 0 837.8 246.7">
  <!-- Generator: Adobe Illustrator 29.3.0, SVG Export Plug-In . SVG Version: 2.1.0 Build 146)  -->
  <defs>
    <style>
      .st0 {
        fill: #fff;
      }

      .st1 {
        fill: #2c3640;
      }
    </style>
  </defs>
  <g>
    <path class="st0" d="M366.8,62.2v95.1h-15.5l-1.1-9.2c-5.2,8-13.5,10.7-21.6,10.7-19.7,0-34.5-13.1-34.5-35.1s14.6-35.1,34.1-35.1,18.1,3.8,22,10.7v-37.1h16.6ZM310.6,123.7c0,11.7,8.4,19.7,19,19.7s19.4-7.6,19.4-19.7-9-19.6-19.4-19.6-19,7.5-19,19.6Z"/>
    <path class="st0" d="M448.7,90.2l-40.9,95.1h-18.2l12.5-29.1-26.8-66h19.3l10.2,29,6.4,18.9,6.9-18.5,12.2-29.4h18.4Z"/>
    <path class="st0" d="M506.8,157.3v-35.1c0-10.2-5.6-17.9-16.2-17.9s-17.1,8.6-17.1,18.8v34.3h-16.5v-67.3h14.8l1.1,9.1c6.8-6.7,13.6-10.1,22-10.1,15.8,0,28.4,11.8,28.4,32.9v35.2h-16.5Z"/>
    <path class="st0" d="M590.8,90.2h15.9v67h-15.6l-.8-9.8c-3.8,7.9-14.3,11.7-21.8,11.8-19.9.1-34.5-12.1-34.5-35.6s15.4-35.2,34.9-35.1c9,0,17.5,4.2,21.3,10.9l.6-9.2ZM550.6,123.7c0,12.8,8.8,20.4,19.9,20.4,26.1,0,26.1-40.7,0-40.7-11.1,0-19.9,7.5-19.9,20.3Z"/>
    <path class="st0" d="M665.4,157.3v-35.9c0-8.8-4.6-16.9-13.7-16.9s-14.3,8-14.3,16.9v35.9h-16.6v-67.2h15.4l1.2,8.2c3.5-6.8,11.3-9.2,17.7-9.2s16,3.3,19.9,12.5c6-9.5,13.7-12.2,22.4-12.2,19,0,28.4,11.7,28.4,31.8v36.2h-16.6v-36.2c0-8.8-3.7-16.3-12.6-16.3s-14.6,7.8-14.6,16.6v35.9h-16.6Z"/>
    <path class="st0" d="M760.7,71.3c0,12.9-19.6,12.9-19.6,0s19.6-12.9,19.6,0ZM742.6,90v67.3h16.6v-67.3h-16.6Z"/>
    <path class="st0" d="M831.7,148.7c-7.8,7.6-15.9,10.6-25.8,10.6-19.4,0-35.6-11.7-35.6-35.5s16.2-35.5,35.6-35.5,16.9,2.7,24.2,9.9l-10.5,11c-3.9-3.5-8.8-5.3-13.5-5.3-11.2,0-19.3,8.2-19.3,19.9s8.7,19.6,19,19.6,10.6-1.5,14.7-5.6l11.2,10.9Z"/>
  </g>
  <g>
    <path class="st0" d="M433.9,181.8c-1.2,0-2.2.2-3,.7s-1.2,1.2-1.2,2.2.4,1.8,1.2,2.3c.8.5,2.4,1.1,4.9,1.7,2.5.6,4.4,1.5,5.7,2.6,1.3,1.1,1.9,2.7,1.9,4.9s-.8,3.9-2.4,5.2-3.7,2-6.4,2-7.2-1.3-10.2-4l2.6-3.1c2.5,2.2,5.1,3.2,7.7,3.2s2.4-.3,3.2-.9c.8-.6,1.2-1.3,1.2-2.3s-.4-1.7-1.1-2.2-2-1-3.8-1.4-3.2-.8-4.1-1.2-1.8-.8-2.5-1.4c-1.5-1.1-2.2-2.8-2.2-5.1s.8-4,2.5-5.2c1.6-1.2,3.7-1.8,6.1-1.8s3.1.3,4.7.8,2.9,1.2,4,2.2l-2.2,3.1c-.7-.7-1.7-1.2-2.9-1.6-1.3-.5-2.5-.7-3.7-.7Z"/>
    <path class="st0" d="M464.2,199.3c1.4,0,2.7-.2,3.7-.7s2.1-1.2,3.2-2.3l2.7,2.7c-2.6,2.9-5.8,4.3-9.5,4.3s-6.8-1.2-9.2-3.6c-2.4-2.4-3.7-5.4-3.7-9.1s1.2-6.7,3.7-9.1c2.5-2.4,5.6-3.6,9.4-3.6s7,1.4,9.5,4.2l-2.6,2.9c-1.2-1.1-2.3-1.9-3.3-2.4-1-.4-2.3-.7-3.7-.7-2.5,0-4.6.8-6.2,2.4-1.7,1.6-2.5,3.6-2.5,6.1s.8,4.6,2.5,6.2c1.7,1.9,3.7,2.7,6,2.7Z"/>
    <path class="st0" d="M483.2,203.1v-24.5h4.1v10.6h12.2v-10.6h4.1v24.5h-4.1v-10h-12.2v10h-4.1Z"/>
    <path class="st0" d="M535.4,199.7c-2.5,2.4-5.5,3.6-9.2,3.6s-6.7-1.2-9.2-3.6c-2.5-2.4-3.7-5.4-3.7-9.1s1.2-6.6,3.7-9.1c2.5-2.4,5.5-3.6,9.2-3.6s6.7,1.2,9.2,3.6c2.5,2.4,3.7,5.4,3.7,9.1,0,3.7-1.2,6.7-3.7,9.1ZM532.3,184.3c-1.7-1.7-3.7-2.6-6.2-2.6s-4.5.9-6.2,2.6c-1.7,1.7-2.5,3.8-2.5,6.3s.8,4.6,2.5,6.3,3.7,2.6,6.2,2.6,4.5-.9,6.2-2.6c1.7-1.7,2.5-3.8,2.5-6.3.1-2.4-.8-4.5-2.5-6.3Z"/>
    <path class="st0" d="M569.2,199.7c-2.5,2.4-5.5,3.6-9.2,3.6s-6.7-1.2-9.2-3.6c-2.5-2.4-3.7-5.4-3.7-9.1s1.2-6.6,3.7-9.1c2.5-2.4,5.5-3.6,9.2-3.6s6.7,1.2,9.2,3.6c2.5,2.4,3.7,5.4,3.7,9.1,0,3.7-1.2,6.7-3.7,9.1ZM566.2,184.3c-1.7-1.7-3.7-2.6-6.2-2.6s-4.5.9-6.2,2.6c-1.7,1.7-2.5,3.8-2.5,6.3s.8,4.6,2.5,6.3,3.7,2.6,6.2,2.6,4.5-.9,6.2-2.6c1.7-1.7,2.5-3.8,2.5-6.3s-.8-4.5-2.5-6.3Z"/>
    <path class="st0" d="M582.6,203.1v-24.5h4.1v20.6h11.2v3.9h-15.3Z"/>
    <path class="st0" d="M641.4,199.7c-2.5,2.4-5.5,3.6-9.2,3.6s-6.7-1.2-9.2-3.6c-2.5-2.4-3.7-5.4-3.7-9.1s1.2-6.6,3.7-9.1c2.5-2.4,5.5-3.6,9.2-3.6s6.7,1.2,9.2,3.6c2.5,2.4,3.7,5.4,3.7,9.1,0,3.7-1.3,6.7-3.7,9.1ZM638.3,184.3c-1.7-1.7-3.7-2.6-6.2-2.6s-4.5.9-6.2,2.6c-1.7,1.7-2.5,3.8-2.5,6.3s.8,4.6,2.5,6.3,3.7,2.6,6.2,2.6,4.5-.9,6.2-2.6,2.5-3.8,2.5-6.3-.8-4.5-2.5-6.3Z"/>
    <path class="st0" d="M658.8,182.4v6.7h10.9v3.8h-10.9v10.1h-4.1v-24.5h16.3v3.9h-12.2Z"/>
    <path class="st0" d="M698.4,203.1h-4.1v-24.5h6.5l7.4,15.4,7.4-15.4h6.4v24.5h-4.1v-19.2l-8.6,17h-2.3l-8.5-17v19.2h0Z"/>
    <path class="st0" d="M738.7,197.5c1.1,1.3,2.6,2,4.6,2s3.4-.7,4.6-2c1.1-1.3,1.7-3.1,1.7-5.3v-13.6h4.1v13.8c0,3.5-1,6.3-2.9,8.2s-4.4,2.9-7.5,2.9-5.5-1-7.5-2.9c-1.9-1.9-2.9-4.6-2.9-8.2v-13.8h4.1v13.6c0,2.2.5,4,1.7,5.3Z"/>
    <path class="st0" d="M771.9,181.8c-1.2,0-2.2.2-3,.7s-1.2,1.2-1.2,2.2.4,1.8,1.2,2.3,2.4,1.1,4.9,1.7c2.5.6,4.4,1.5,5.7,2.6s1.9,2.7,1.9,4.9-.8,3.9-2.4,5.2c-1.6,1.3-3.7,2-6.4,2s-7.2-1.3-10.2-4l2.6-3.1c2.5,2.2,5.1,3.2,7.7,3.2s2.4-.3,3.2-.9c.8-.6,1.2-1.3,1.2-2.3s-.4-1.7-1.1-2.2c-.7-.5-2-1-3.8-1.4s-3.2-.8-4.1-1.2c-.9-.4-1.8-.8-2.5-1.4-1.5-1.1-2.2-2.8-2.2-5.1s.8-4,2.5-5.2c1.6-1.2,3.7-1.8,6.1-1.8s3.1.3,4.7.8,2.9,1.2,4,2.2l-2.2,3.1c-.7-.7-1.7-1.2-2.9-1.6-1.3-.5-2.5-.7-3.7-.7Z"/>
    <path class="st0" d="M791,178.6h4.1v24.5h-4.1v-24.5Z"/>
    <path class="st0" d="M817.5,199.3c1.4,0,2.7-.2,3.7-.7s2.1-1.2,3.2-2.3l2.7,2.7c-2.6,2.9-5.8,4.3-9.5,4.3s-6.8-1.2-9.2-3.6c-2.4-2.4-3.7-5.4-3.7-9.1s1.2-6.7,3.7-9.1c2.5-2.4,5.6-3.6,9.4-3.6s7,1.4,9.5,4.2l-2.6,2.9c-1.2-1.1-2.3-1.9-3.3-2.4-1-.4-2.3-.7-3.7-.7-2.5,0-4.6.8-6.2,2.4-1.7,1.6-2.5,3.6-2.5,6.1s.8,4.6,2.5,6.2c1.7,1.9,3.7,2.7,6,2.7Z"/>
  </g>
  <g>
    <path class="st0" d="M198.7,102.3s-34.4-48.4-69-52.2c-5.7,33.3-11.4,66.6-17,99.9-3.9,22.7-4.7,50.6-17.2,70.4-5.6,8.9-13.5,16-22.3,21.3h30c24.2,0,45.8-5.1,64.8-15.3s33.9-24.3,44.6-42.2c10.4-17.4,15.8-37.1,16.1-59.1-8.8-3.7-20.4-10.5-30-22.8Z"/>
    <path class="st0" d="M83.1,167.9c3.5-20.7,6.4-41.5,9.9-62,5.8-33.9,11.6-67.7,17.3-101.6-1.8,0-3.6,0-5.5,0H6.1v185c17.9-22.3,51-30.4,77-21.3Z"/>
    <path d="M215.8,67.2c-1-1.9-2-3.8-3.1-5.6-5.4-9.3-12-17.5-19.5-24.6,5.8,6.1,11.7,13.2,17.5,21.4,0,0,2.1,3.6,5.1,8.8Z"/>
    <path class="st1" d="M240.8,106.5c-3.4-3.1-16.1-24.2-23.8-37.4-12.7-24.3-26.9-35-26.9-35h0c-6.4-5.6-13.6-10.5-21.4-14.7-17.3-9.3-36.8-14.3-58.3-15-5.8,33.8-11.6,67.6-17.4,101.4-3.5,20.5-6.4,41.4-9.9,62-26-9.1-59.1-1-77,21.3v52.5h67c8.8-5.4,16.7-12.4,22.3-21.3,12.5-19.8,13.4-47.7,17.2-70.4,5.7-33.3,11.4-66.6,17-99.9,34.6,3.8,69,52.2,69,52.2,9.6,12.2,21.3,19.1,30,22.8,7.5,3.2,12.9,4.1,12.9,4.1,10.1,1.2,26.9-4.8,26.9-4.8-15.9-1.1-27.6-17.8-27.6-17.8Z"/>
  </g>
</svg>