<?xml version="1.0" encoding="utf-8"?>
<!-- Generator: Adobe Illustrator 27.8.1, SVG Export Plug-In . SVG Version: 6.00 Build 0)  -->
<svg version="1.1" id="Layer_1" xmlns="http://www.w3.org/2000/svg" xmlns:xlink="http://www.w3.org/1999/xlink" x="0px" y="0px"
	 viewBox="0 0 837.8 246.7" style="enable-background:new 0 0 837.8 246.7;" xml:space="preserve">
<style type="text/css">
	.st0{fill:#FFFFFF;}
	.st1{fill:#214596;}
</style>
<g>
	<path class="st0" d="M366.8,62.2v95.1h-15.5l-1.1-9.2c-5.2,8-13.5,10.7-21.6,10.7c-19.7,0-34.5-13.1-34.5-35.1
		c0-23.1,14.6-35.1,34.1-35.1c7.1,0,18.1,3.8,22,10.7V62.2H366.8z M310.6,123.7c0,11.7,8.4,19.7,19,19.7c10.5,0,19.4-7.6,19.4-19.7
		c0-11.7-9-19.6-19.4-19.6C319,104.1,310.6,111.6,310.6,123.7z"/>
	<path class="st0" d="M448.7,90.2l-40.9,95.1h-18.2l12.5-29.1l-26.8-66h19.3l10.2,29l6.4,18.9l6.9-18.5l12.2-29.4L448.7,90.2
		L448.7,90.2z"/>
	<path class="st0" d="M506.8,157.3v-35.1c0-10.2-5.6-17.9-16.2-17.9c-10.2,0-17.1,8.6-17.1,18.8v34.3H457V90.1h14.8l1.1,9.1
		c6.8-6.7,13.6-10.1,22-10.1c15.8,0,28.4,11.8,28.4,32.9v35.2h-16.5V157.3z"/>
	<path class="st0" d="M590.8,90.2h15.9v67h-15.6l-0.8-9.8c-3.8,7.9-14.3,11.7-21.8,11.8c-19.9,0.1-34.5-12.1-34.5-35.6
		c0-23.1,15.4-35.2,34.9-35.1c9,0,17.5,4.2,21.3,10.9L590.8,90.2z M550.6,123.7c0,12.8,8.8,20.4,19.9,20.4c26.1,0,26.1-40.7,0-40.7
		C559.4,103.4,550.6,110.9,550.6,123.7z"/>
	<path class="st0" d="M665.4,157.3v-35.9c0-8.8-4.6-16.9-13.7-16.9c-9,0-14.3,8-14.3,16.9v35.9h-16.6V90.1h15.4l1.2,8.2
		c3.5-6.8,11.3-9.2,17.7-9.2c8,0,16,3.3,19.9,12.5c6-9.5,13.7-12.2,22.4-12.2c19,0,28.4,11.7,28.4,31.8v36.2h-16.6v-36.2
		c0-8.8-3.7-16.3-12.6-16.3s-14.6,7.8-14.6,16.6v35.9L665.4,157.3L665.4,157.3z"/>
	<path class="st0" d="M760.7,71.3c0,12.9-19.6,12.9-19.6,0S760.7,58.4,760.7,71.3z M742.6,90v67.3h16.6V90H742.6z"/>
	<path class="st0" d="M831.7,148.7c-7.8,7.6-15.9,10.6-25.8,10.6c-19.4,0-35.6-11.7-35.6-35.5s16.2-35.5,35.6-35.5
		c9.5,0,16.9,2.7,24.2,9.9l-10.5,11c-3.9-3.5-8.8-5.3-13.5-5.3c-11.2,0-19.3,8.2-19.3,19.9c0,12.8,8.7,19.6,19,19.6
		c5.3,0,10.6-1.5,14.7-5.6L831.7,148.7z"/>
</g>
<g>
	<path class="st0" d="M433.9,181.8c-1.2,0-2.2,0.2-3,0.7s-1.2,1.2-1.2,2.2s0.4,1.8,1.2,2.3c0.8,0.5,2.4,1.1,4.9,1.7
		c2.5,0.6,4.4,1.5,5.7,2.6c1.3,1.1,1.9,2.7,1.9,4.9c0,2.1-0.8,3.9-2.4,5.2s-3.7,2-6.4,2c-3.8,0-7.2-1.3-10.2-4l2.6-3.1
		c2.5,2.2,5.1,3.2,7.7,3.2c1.3,0,2.4-0.3,3.2-0.9c0.8-0.6,1.2-1.3,1.2-2.3c0-0.9-0.4-1.7-1.1-2.2s-2-1-3.8-1.4s-3.2-0.8-4.1-1.2
		s-1.8-0.8-2.5-1.4c-1.5-1.1-2.2-2.8-2.2-5.1s0.8-4,2.5-5.2c1.6-1.2,3.7-1.8,6.1-1.8c1.6,0,3.1,0.3,4.7,0.8s2.9,1.2,4,2.2l-2.2,3.1
		c-0.7-0.7-1.7-1.2-2.9-1.6C436.3,182,435.1,181.8,433.9,181.8z"/>
	<path class="st0" d="M464.2,199.3c1.4,0,2.7-0.2,3.7-0.7s2.1-1.2,3.2-2.3l2.7,2.7c-2.6,2.9-5.8,4.3-9.5,4.3s-6.8-1.2-9.2-3.6
		c-2.4-2.4-3.7-5.4-3.7-9.1c0-3.7,1.2-6.7,3.7-9.1c2.5-2.4,5.6-3.6,9.4-3.6s7,1.4,9.5,4.2l-2.6,2.9c-1.2-1.1-2.3-1.9-3.3-2.4
		c-1-0.4-2.3-0.7-3.7-0.7c-2.5,0-4.6,0.8-6.2,2.4c-1.7,1.6-2.5,3.6-2.5,6.1s0.8,4.6,2.5,6.2C459.9,198.5,461.9,199.3,464.2,199.3z"
		/>
	<path class="st0" d="M483.2,203.1v-24.5h4.1v10.6h12.2v-10.6h4.1v24.5h-4.1v-10h-12.2v10H483.2z"/>
	<path class="st0" d="M535.4,199.7c-2.5,2.4-5.5,3.6-9.2,3.6c-3.6,0-6.7-1.2-9.2-3.6c-2.5-2.4-3.7-5.4-3.7-9.1
		c0-3.6,1.2-6.6,3.7-9.1c2.5-2.4,5.5-3.6,9.2-3.6s6.7,1.2,9.2,3.6c2.5,2.4,3.7,5.4,3.7,9.1C539.1,194.3,537.9,197.3,535.4,199.7z
		 M532.3,184.3c-1.7-1.7-3.7-2.6-6.2-2.6c-2.4,0-4.5,0.9-6.2,2.6c-1.7,1.7-2.5,3.8-2.5,6.3s0.8,4.6,2.5,6.3s3.7,2.6,6.2,2.6
		c2.4,0,4.5-0.9,6.2-2.6c1.7-1.7,2.5-3.8,2.5-6.3C534.9,188.2,534,186.1,532.3,184.3z"/>
	<path class="st0" d="M569.2,199.7c-2.5,2.4-5.5,3.6-9.2,3.6c-3.6,0-6.7-1.2-9.2-3.6c-2.5-2.4-3.7-5.4-3.7-9.1
		c0-3.6,1.2-6.6,3.7-9.1c2.5-2.4,5.5-3.6,9.2-3.6s6.7,1.2,9.2,3.6c2.5,2.4,3.7,5.4,3.7,9.1C573,194.3,571.7,197.3,569.2,199.7z
		 M566.2,184.3c-1.7-1.7-3.7-2.6-6.2-2.6c-2.4,0-4.5,0.9-6.2,2.6c-1.7,1.7-2.5,3.8-2.5,6.3s0.8,4.6,2.5,6.3s3.7,2.6,6.2,2.6
		c2.4,0,4.5-0.9,6.2-2.6c1.7-1.7,2.5-3.8,2.5-6.3C568.7,188.2,567.9,186.1,566.2,184.3z"/>
	<path class="st0" d="M582.6,203.1v-24.5h4.1v20.6h11.2v3.9H582.6z"/>
	<path class="st0" d="M641.4,199.7c-2.5,2.4-5.5,3.6-9.2,3.6c-3.6,0-6.7-1.2-9.2-3.6c-2.5-2.4-3.7-5.4-3.7-9.1
		c0-3.6,1.2-6.6,3.7-9.1c2.5-2.4,5.5-3.6,9.2-3.6s6.7,1.2,9.2,3.6c2.5,2.4,3.7,5.4,3.7,9.1C645.1,194.3,643.8,197.3,641.4,199.7z
		 M638.3,184.3c-1.7-1.7-3.7-2.6-6.2-2.6c-2.4,0-4.5,0.9-6.2,2.6c-1.7,1.7-2.5,3.8-2.5,6.3s0.8,4.6,2.5,6.3s3.7,2.6,6.2,2.6
		c2.4,0,4.5-0.9,6.2-2.6s2.5-3.8,2.5-6.3C640.8,188.2,640,186.1,638.3,184.3z"/>
	<path class="st0" d="M658.8,182.4v6.7h10.9v3.8h-10.9V203h-4.1v-24.5H671v3.9H658.8z"/>
	<path class="st0" d="M698.4,203.1h-4.1v-24.5h6.5l7.4,15.4l7.4-15.4h6.4v24.5h-4.1v-19.2l-8.6,17H707l-8.5-17v19.2H698.4z"/>
	<path class="st0" d="M738.7,197.5c1.1,1.3,2.6,2,4.6,2s3.4-0.7,4.6-2c1.1-1.3,1.7-3.1,1.7-5.3v-13.6h4.1v13.8c0,3.5-1,6.3-2.9,8.2
		s-4.4,2.9-7.5,2.9s-5.5-1-7.5-2.9c-1.9-1.9-2.9-4.6-2.9-8.2v-13.8h4.1v13.6C737,194.4,737.5,196.2,738.7,197.5z"/>
	<path class="st0" d="M771.9,181.8c-1.2,0-2.2,0.2-3,0.7s-1.2,1.2-1.2,2.2s0.4,1.8,1.2,2.3s2.4,1.1,4.9,1.7c2.5,0.6,4.4,1.5,5.7,2.6
		s1.9,2.7,1.9,4.9c0,2.1-0.8,3.9-2.4,5.2c-1.6,1.3-3.7,2-6.4,2c-3.8,0-7.2-1.3-10.2-4l2.6-3.1c2.5,2.2,5.1,3.2,7.7,3.2
		c1.3,0,2.4-0.3,3.2-0.9c0.8-0.6,1.2-1.3,1.2-2.3c0-0.9-0.4-1.7-1.1-2.2c-0.7-0.5-2-1-3.8-1.4s-3.2-0.8-4.1-1.2
		c-0.9-0.4-1.8-0.8-2.5-1.4c-1.5-1.1-2.2-2.8-2.2-5.1s0.8-4,2.5-5.2c1.6-1.2,3.7-1.8,6.1-1.8c1.6,0,3.1,0.3,4.7,0.8s2.9,1.2,4,2.2
		l-2.2,3.1c-0.7-0.7-1.7-1.2-2.9-1.6C774.3,182,773.1,181.8,771.9,181.8z"/>
	<path class="st0" d="M791,178.6h4.1v24.5H791V178.6z"/>
	<path class="st0" d="M817.5,199.3c1.4,0,2.7-0.2,3.7-0.7s2.1-1.2,3.2-2.3l2.7,2.7c-2.6,2.9-5.8,4.3-9.5,4.3s-6.8-1.2-9.2-3.6
		c-2.4-2.4-3.7-5.4-3.7-9.1c0-3.7,1.2-6.7,3.7-9.1c2.5-2.4,5.6-3.6,9.4-3.6c3.8,0,7,1.4,9.5,4.2l-2.6,2.9c-1.2-1.1-2.3-1.9-3.3-2.4
		c-1-0.4-2.3-0.7-3.7-0.7c-2.5,0-4.6,0.8-6.2,2.4c-1.7,1.6-2.5,3.6-2.5,6.1s0.8,4.6,2.5,6.2C813.2,198.5,815.2,199.3,817.5,199.3z"
		/>
</g>
<g>
	<path class="st0" d="M198.7,102.3c0,0-34.4-48.4-69-52.2c-5.7,33.3-11.4,66.6-17,99.9c-3.9,22.7-4.7,50.6-17.2,70.4
		c-5.6,8.9-13.5,16-22.3,21.3h30c24.2,0,45.8-5.1,64.8-15.3s33.9-24.3,44.6-42.2c10.4-17.4,15.8-37.1,16.1-59.1
		C219.9,121.4,208.3,114.6,198.7,102.3z"/>
	<path class="st0" d="M83.1,167.9c3.5-20.7,6.4-41.5,9.9-62C98.8,72,104.6,38.2,110.3,4.3c-1.8-0.1-3.6-0.1-5.5-0.1H6.1v185
		C24,166.9,57.1,158.8,83.1,167.9z"/>
	<path d="M215.8,67.2c-1-1.9-2-3.8-3.1-5.6c-5.4-9.3-12-17.5-19.5-24.6c5.8,6.1,11.7,13.2,17.5,21.4C210.7,58.4,212.8,62,215.8,67.2
		z"/>
	<path class="st1" d="M240.8,106.5c-3.4-3.1-16.1-24.2-23.8-37.4c-12.7-24.3-26.9-35-26.9-35l0,0c-6.4-5.6-13.6-10.5-21.4-14.7
		c-17.3-9.3-36.8-14.3-58.3-15C104.6,38.2,98.8,72,93,105.8c-3.5,20.5-6.4,41.4-9.9,62c-26-9.1-59.1-1-77,21.3v52.5h67
		c8.8-5.4,16.7-12.4,22.3-21.3c12.5-19.8,13.4-47.7,17.2-70.4c5.7-33.3,11.4-66.6,17-99.9c34.6,3.8,69,52.2,69,52.2
		c9.6,12.2,21.3,19.1,30,22.8c7.5,3.2,12.9,4.1,12.9,4.1c10.1,1.2,26.9-4.8,26.9-4.8C252.5,123.2,240.8,106.5,240.8,106.5z"/>
</g>
</svg>
