<?xml version="1.0" encoding="UTF-8"?>
<svg id="Layer_1" xmlns="http://www.w3.org/2000/svg" xmlns:xlink="http://www.w3.org/1999/xlink" version="1.1" viewBox="0 0 563.9 120.5">
  <!-- Generator: Adobe Illustrator 29.3.0, SVG Export Plug-In . SVG Version: 2.1.0 Build 146)  -->
  <defs>
    <style>
      .st0 {
        fill: #fff;
      }
    </style>
  </defs>
  <g>
    <path class="st0" d="M171.3,3.4c8.8,0,15.5,2.2,20.3,6.7s7.1,11.3,7.1,20.4-.5,9-1.6,12.7-2.7,6.8-4.9,9.3-5.1,4.5-8.5,5.8c-3.5,1.3-7.6,2-12.3,2h-19.6V3.3h19.5ZM171.9,54c.9,0,1.9,0,3.2-.2,1.3,0,2.6-.4,4.1-1,1.4-.5,2.9-1.2,4.3-2.2,1.4-1,2.7-2.3,3.8-3.9,1.1-1.6,2-3.7,2.8-6.2.7-2.5,1.1-5.5,1.1-9s-.3-6.5-1-9.1-1.8-5-3.3-6.9-3.5-3.3-5.9-4.3-5.3-1.5-8.9-1.5h-12.8v44.3h12.6Z"/>
    <path class="st0" d="M236,57.8c-3.1,2.3-7,3.5-11.7,3.5s-6.2-.5-8.6-1.6c-2.4-1.1-4.5-2.6-6.1-4.5s-2.9-4.2-3.7-6.9-1.3-5.6-1.4-8.7c0-3.1.5-6,1.4-8.6s2.3-4.9,4-6.8c1.7-1.9,3.8-3.4,6.1-4.5,2.4-1.1,5-1.6,7.8-1.6s6.7.8,9.1,2.3c2.4,1.5,4.4,3.5,5.8,5.8s2.5,4.9,3,7.7c.6,2.8.8,5.4.7,7.9h-30.9c-.1,1.8.2,3.5.6,5.2.5,1.6,1.3,3.1,2.3,4.3,1.1,1.3,2.4,2.2,4.1,3,1.6.7,3.6,1.1,5.8,1.1s5.2-.7,7.1-2c1.8-1.3,3-3.3,3.6-6.1h6.7c-.6,4.6-2.6,8.1-5.7,10.5h0ZM234.4,31.2c-.6-1.4-1.4-2.7-2.5-3.7s-2.3-1.9-3.7-2.5-3-.9-4.7-.9-3.3.3-4.8.9c-1.4.6-2.6,1.4-3.6,2.5s-1.8,2.3-2.4,3.7c-.6,1.4-.9,2.9-1,4.5h23.7c0-1.5-.4-3-1-4.5h0Z"/>
    <path class="st0" d="M286.3,60.2c-1.2.7-2.8,1-4.9,1s-3.2-.5-4.2-1.5-1.6-2.6-1.6-4.8c-1.9,2.2-4,3.8-6.5,4.8s-5.2,1.5-8,1.5-3.6-.2-5.3-.6c-1.7-.4-3.1-1.1-4.3-2s-2.2-2.1-2.9-3.6-1.1-3.2-1.1-5.3.4-4.3,1.2-5.8,1.9-2.7,3.2-3.6c1.3-.9,2.8-1.6,4.5-2.1,1.7-.5,3.4-.9,5.2-1.2,1.9-.4,3.6-.7,5.3-.8s3.2-.4,4.4-.8c1.3-.3,2.3-.8,3-1.5s1.1-1.6,1.1-2.9-.3-2.7-.8-3.6c-.6-.9-1.3-1.6-2.2-2.1s-1.9-.8-3-1-2.2-.2-3.2-.2c-2.9,0-5.3.5-7.2,1.6-1.9,1.1-3,3.2-3.1,6.2h-6.8c.1-2.6.6-4.7,1.6-6.5s2.2-3.2,3.8-4.3c1.6-1.1,3.4-1.9,5.5-2.4,2-.5,4.2-.7,6.6-.7s3.7.1,5.5.4,3.5.8,5,1.6c1.5.8,2.7,2,3.6,3.5s1.4,3.4,1.4,5.8v21.2c0,1.6.1,2.8.3,3.5.2.7.8,1.1,1.9,1.1s1.3,0,2.1-.3v5.4h0ZM275.2,39.1c-.9.6-2,1.1-3.3,1.4-1.4.3-2.8.5-4.3.7s-3,.4-4.6.6c-1.5.2-2.9.6-4.2,1.2-1.2.5-2.2,1.3-3,2.3-.8,1-1.2,2.3-1.2,4s.2,2.1.7,2.8c.4.8,1,1.4,1.8,1.9.7.5,1.6.8,2.5,1,1,.2,2,.3,3,.3,2.2,0,4.2-.3,5.8-.9,1.6-.6,2.9-1.4,3.9-2.3,1-.9,1.8-1.9,2.2-3,.5-1.1.7-2.1.7-3.1v-6.9h0Z"/>
    <path class="st0" d="M299.7,3.4v57h-6.7V3.4s6.7,0,6.7,0Z"/>
    <path class="st0" d="M339.5,57.8c-3.1,2.3-7,3.5-11.7,3.5s-6.2-.5-8.6-1.6-4.5-2.6-6.1-4.5-2.9-4.2-3.7-6.9c-.8-2.7-1.3-5.6-1.4-8.7,0-3.1.5-6,1.4-8.6,1-2.6,2.3-4.9,4-6.8,1.7-1.9,3.8-3.4,6.1-4.5,2.4-1.1,5-1.6,7.8-1.6s6.7.8,9.1,2.3,4.4,3.5,5.8,5.8,2.5,4.9,3,7.7c.6,2.8.8,5.4.7,7.9h-30.9c-.1,1.8.2,3.5.6,5.2.5,1.6,1.3,3.1,2.3,4.3,1.1,1.3,2.4,2.2,4.1,3,1.6.7,3.6,1.1,5.8,1.1s5.2-.7,7.1-2c1.8-1.3,3-3.3,3.6-6.1h6.7c-.6,4.6-2.6,8.1-5.7,10.5h0ZM337.9,31.2c-.6-1.4-1.4-2.7-2.5-3.7-1-1-2.3-1.9-3.7-2.5-1.4-.6-3-.9-4.7-.9s-3.3.3-4.8.9c-1.4.6-2.6,1.4-3.6,2.5s-1.8,2.3-2.4,3.7-.9,2.9-1,4.5h23.7c-.1-1.5-.4-3-1-4.5h0Z"/>
    <path class="st0" d="M359.3,19.1v8.7h.2c1.6-3.3,3.7-5.8,6.1-7.4s5.4-2.3,9.1-2.2v7.2c-2.7,0-5,.4-6.9,1.1s-3.5,1.8-4.6,3.3c-1.2,1.4-2,3.2-2.6,5.2-.5,2-.8,4.4-.8,7.1v18.4h-6.8V19.1h6.3Z"/>
    <path class="st0" d="M397.4,19.1v6h-8.2v25.6c0,.8.1,1.4.2,1.9s.4.9.8,1.1c.4.3.9.4,1.6.5s1.5,0,2.6,0h3.1v6h-5.2c-1.8,0-3.3,0-4.5-.4-1.3-.2-2.3-.7-3-1.3-.8-.6-1.3-1.5-1.7-2.7-.4-1.2-.6-2.7-.6-4.6v-26.2h-7v-6h7V6.7h6.8v12.4h8.1Z"/>
    <path class="st0" d="M411,19.1v8.7h.2c1.6-3.3,3.7-5.8,6.1-7.4s5.4-2.3,9.1-2.2v7.2c-2.7,0-5,.4-6.9,1.1s-3.5,1.8-4.6,3.3c-1.2,1.4-2,3.2-2.6,5.2-.5,2-.8,4.4-.8,7.1v18.4h-6.8V19.1h6.3Z"/>
    <path class="st0" d="M468.1,60.2c-1.2.7-2.8,1-4.9,1s-3.2-.5-4.2-1.5-1.6-2.6-1.6-4.8c-1.9,2.2-4,3.8-6.5,4.8s-5.2,1.5-8,1.5-3.6-.2-5.3-.6c-1.7-.4-3.1-1.1-4.3-2-1.2-.9-2.2-2.1-2.9-3.6-.7-1.5-1.1-3.2-1.1-5.3s.4-4.3,1.2-5.8c.8-1.5,1.9-2.7,3.2-3.6,1.3-.9,2.8-1.6,4.5-2.1s3.4-.9,5.2-1.2c1.9-.4,3.6-.7,5.3-.8s3.2-.4,4.4-.8c1.3-.3,2.3-.8,3-1.5s1.1-1.6,1.1-2.9-.3-2.7-.8-3.6c-.6-.9-1.3-1.6-2.2-2.1s-1.9-.8-3-1-2.2-.2-3.2-.2c-2.9,0-5.3.5-7.2,1.6-1.9,1.1-3,3.2-3.1,6.2h-6.8c.1-2.6.6-4.7,1.6-6.5s2.2-3.2,3.8-4.3c1.6-1.1,3.4-1.9,5.5-2.4s4.2-.7,6.6-.7,3.7.1,5.5.4,3.5.8,5,1.6c1.5.8,2.7,2,3.6,3.5s1.4,3.4,1.4,5.8v21.2c0,1.6.1,2.8.3,3.5.2.7.8,1.1,1.9,1.1s1.3,0,2.1-.3v5.4h-.1ZM457,39.1c-.9.6-2,1.1-3.3,1.4-1.4.3-2.8.5-4.3.7s-3,.4-4.6.6c-1.5.2-2.9.6-4.2,1.2-1.2.5-2.2,1.3-3,2.3s-1.2,2.3-1.2,4,.2,2.1.7,2.8c.4.8,1,1.4,1.8,1.9.7.5,1.6.8,2.5,1,1,.2,2,.3,3,.3,2.2,0,4.2-.3,5.8-.9,1.6-.6,2.9-1.4,3.9-2.3,1-.9,1.8-1.9,2.2-3,.5-1.1.7-2.1.7-3.1v-6.9h0Z"/>
    <path class="st0" d="M499,26.3c-1.7-1.4-4-2.2-6.9-2.2s-4.5.5-6.1,1.4-3,2.1-3.9,3.6c-1,1.5-1.7,3.2-2.1,5.2s-.6,3.9-.6,6,.2,3.8.7,5.6c.4,1.8,1.2,3.4,2.1,4.8,1,1.4,2.2,2.5,3.8,3.4,1.5.9,3.4,1.3,5.5,1.3,3.3,0,6-.9,7.9-2.6,1.9-1.8,3-4.2,3.5-7.4h6.9c-.7,5.1-2.6,9.1-5.7,11.8-3.1,2.8-7.2,4.2-12.5,4.2s-5.9-.5-8.3-1.5-4.4-2.5-6.1-4.3c-1.6-1.9-2.9-4.1-3.7-6.7-.8-2.6-1.2-5.4-1.2-8.5s.4-6,1.2-8.7c.8-2.7,2-5,3.6-7s3.7-3.6,6.1-4.7,5.3-1.7,8.5-1.7,4.5.3,6.6.8c2,.6,3.9,1.4,5.4,2.6,1.6,1.2,2.9,2.6,3.9,4.4s1.6,3.9,1.9,6.3h-7c-.7-2.7-1.8-4.7-3.5-6.1h0Z"/>
    <path class="st0" d="M524.4,3.4v33.8l18.8-18h9.1l-16.4,15,17.6,26.3h-8.6l-14.1-21.6-6.4,5.9v15.6h-6.8V3.4s6.8,0,6.8,0Z"/>
  </g>
  <g>
    <path class="st0" d="M155.4,77.9v11.5h.1c.6-1.2,1.5-2.1,2.8-2.7s2.7-.8,4.3-.8,3.2.3,4.5.9,2.3,1.5,3.2,2.6c.8,1.1,1.5,2.3,1.9,3.7.4,1.4.6,2.9.6,4.5s-.2,3.1-.6,4.5c-.4,1.4-1.1,2.6-1.9,3.7-.8,1.1-1.9,1.9-3.2,2.5s-2.8.9-4.4.9-1.2,0-1.8-.2c-.7,0-1.3-.3-2-.6-.7-.3-1.3-.6-1.9-1.1-.6-.4-1.1-1-1.5-1.7h-.1v3h-3.6v-30.7h3.6ZM168.5,94.2c-.3-1-.7-1.9-1.2-2.6-.6-.8-1.3-1.4-2.2-1.8-.9-.5-1.9-.7-3.1-.7s-2.3.2-3.1.7c-.9.5-1.6,1.1-2.1,1.9s-.9,1.7-1.2,2.7c-.2,1-.4,2-.4,3s.1,2.1.4,3.2c.3,1,.7,1.9,1.2,2.7.6.8,1.3,1.4,2.2,1.9s2,.7,3.2.7,2.3-.2,3.2-.7c.8-.5,1.5-1.1,2-1.9s.9-1.7,1.1-2.7c.2-1,.3-2.1.3-3.2.1-1.2,0-2.2-.3-3.2h0Z"/>
    <path class="st0" d="M185.8,111.5c-.4,1.1-.8,2-1.3,2.7s-.9,1.4-1.4,1.8c-.5.5-1.1.8-1.7,1-.6.2-1.3.3-2.1.3s-.9,0-1.3,0c-.4,0-.8-.2-1.2-.3v-3.4c.3,0,.7.3,1.1.4.4,0,.8.2,1.1.2.7,0,1.4-.2,1.9-.5.5-.4.9-.9,1.1-1.5l1.5-3.7-8.8-22.1h4.1l6.5,18.2h.1l6.2-18.2h3.9l-9.7,25.2h0Z"/>
    <path class="st0" d="M229.6,82.2c-1.6-1.1-3.4-1.6-5.6-1.6s-3.4.3-4.7,1-2.4,1.6-3.2,2.8c-.8,1.2-1.5,2.5-1.9,4s-.6,3-.6,4.6.2,3.4.6,5c.4,1.6,1,2.9,1.9,4.1.8,1.2,1.9,2.1,3.2,2.8,1.3.7,2.9,1,4.7,1s2.5-.2,3.6-.7c1-.4,1.9-1.1,2.7-1.8.8-.8,1.4-1.7,1.8-2.8.4-1.1.7-2.3.8-3.5h4.1c-.4,3.9-1.7,6.9-4,9-2.3,2.2-5.4,3.2-9.3,3.2s-4.5-.4-6.2-1.2-3.3-1.9-4.4-3.4-2.1-3.1-2.6-5.1c-.6-1.9-.9-4-.9-6.3s.3-4.3.9-6.3c.6-2,1.6-3.7,2.8-5.1,1.2-1.5,2.7-2.6,4.6-3.5,1.8-.8,3.9-1.3,6.3-1.3s3.1.2,4.6.6c1.4.4,2.7,1.1,3.8,1.9s2.1,1.9,2.8,3.1,1.2,2.7,1.5,4.3h-4.1c-.6-2.1-1.6-3.7-3.2-4.8h0Z"/>
    <path class="st0" d="M241,92.9c.5-1.4,1.1-2.6,2.1-3.7.9-1,2.1-1.9,3.4-2.5,1.3-.6,2.9-.9,4.6-.9s3.3.3,4.7.9c1.3.6,2.5,1.4,3.4,2.5.9,1.1,1.6,2.3,2.1,3.7.5,1.4.7,2.9.7,4.6s-.2,3.2-.7,4.6-1.1,2.6-2.1,3.7c-.9,1.1-2,1.9-3.4,2.4-1.3.6-2.9.9-4.7.9s-3.3-.3-4.6-.9-2.5-1.4-3.4-2.4c-.9-1.1-1.6-2.3-2.1-3.7s-.7-2.9-.7-4.6.2-3.2.7-4.6ZM244.7,101c.4,1.1.8,1.9,1.5,2.6.6.7,1.4,1.2,2.2,1.6s1.7.6,2.7.6,1.8-.2,2.7-.6c.8-.4,1.6-.9,2.2-1.6s1.1-1.6,1.5-2.6c.4-1,.5-2.2.5-3.6s-.2-2.5-.5-3.6c-.4-1-.8-1.9-1.5-2.6-.6-.7-1.4-1.3-2.2-1.6-.8-.4-1.7-.6-2.7-.6s-1.8.2-2.7.6c-.8.4-1.6.9-2.2,1.6-.6.7-1.1,1.6-1.5,2.6-.4,1.1-.5,2.2-.5,3.6-.1,1.4,0,2.6.5,3.6h0Z"/>
    <path class="st0" d="M264.4,86.3h4.7l5.3,7.8,5.5-7.8h4.4l-7.6,10.2,8.6,12h-4.7l-6.2-9.2-6.2,9.2h-4.4l8.3-11.7-7.7-10.5h0Z"/>
    <path class="st0" d="M313.8,77.9l12,30.7h-4.5l-3.4-9.2h-13l-3.4,9.2h-4.2l11.9-30.7s4.6,0,4.6,0ZM316.6,95.9l-5.1-14.3h-.1l-5.2,14.3h10.4Z"/>
    <path class="st0" d="M343.1,108.5v-3.5h-.1c-.8,1.4-1.8,2.4-3,3s-2.6,1-4.3,1-2.7-.2-3.7-.6-1.8-.9-2.4-1.7c-.6-.7-1-1.6-1.3-2.6s-.4-2.1-.4-3.3v-14.5h3.7v15c0,1.4.4,2.5,1.2,3.3.8.8,1.9,1.2,3.3,1.2s2.1-.2,2.9-.5,1.5-.8,2-1.5c.5-.6.9-1.4,1.2-2.2s.4-1.8.4-2.8v-12.5h3.7v22.2h-3.2Z"/>
    <path class="st0" d="M361.5,86.3v3.2h-4.4v13.8c0,.4,0,.8.1,1,.1.3.2.5.4.6.2,0,.5.2.8.3.4,0,.8,0,1.4,0h1.7v3.2h-2.8c-.9,0-1.8,0-2.4-.2-.7,0-1.2-.4-1.6-.7-.4-.3-.7-.8-.9-1.5-.2-.6-.3-1.5-.3-2.5v-14.1h-3.8v-3.2h3.8v-6.7h3.6v6.7h4.4Z"/>
    <path class="st0" d="M365.1,92.9c.5-1.4,1.1-2.6,2.1-3.7.9-1,2.1-1.9,3.4-2.5s2.9-.9,4.6-.9,3.3.3,4.7.9c1.3.6,2.5,1.4,3.4,2.5s1.6,2.3,2.1,3.7c.5,1.4.7,2.9.7,4.6s-.2,3.2-.7,4.6-1.1,2.6-2.1,3.7c-.9,1.1-2,1.9-3.4,2.4-1.3.6-2.9.9-4.7.9s-3.3-.3-4.6-.9c-1.3-.6-2.5-1.4-3.4-2.4-.9-1.1-1.6-2.3-2.1-3.7-.5-1.4-.7-2.9-.7-4.6s.2-3.2.7-4.6ZM368.8,101c.4,1.1.8,1.9,1.5,2.6.6.7,1.4,1.2,2.2,1.6.8.4,1.7.6,2.7.6s1.8-.2,2.7-.6c.8-.4,1.6-.9,2.2-1.6s1.1-1.6,1.5-2.6.5-2.2.5-3.6-.2-2.5-.5-3.6c-.4-1-.8-1.9-1.5-2.6-.6-.7-1.4-1.3-2.2-1.6-.8-.4-1.7-.6-2.7-.6s-1.8.2-2.7.6c-.8.4-1.6.9-2.2,1.6s-1.1,1.6-1.5,2.6c-.4,1.1-.5,2.2-.5,3.6,0,1.4.1,2.6.5,3.6Z"/>
    <path class="st0" d="M393.7,86.3v3.3h.1c1.7-2.5,4-3.8,7.2-3.8s2.6.3,3.7.9,1.9,1.5,2.4,2.9c.7-1.2,1.7-2.1,2.9-2.8s2.6-1,4-1,2.1,0,3,.4c.9.2,1.7.6,2.3,1.1.6.5,1.1,1.2,1.5,2s.5,1.8.5,2.9v16.3h-3.7v-14.5c0-.7-.1-1.3-.2-1.9s-.3-1.1-.6-1.6c-.3-.4-.7-.8-1.3-1.1-.6-.3-1.3-.4-2.2-.4-1.8,0-3.2.5-4.3,1.5-1,1-1.5,2.4-1.5,4.1v13.8h-3.7v-14.4c0-.7-.1-1.4-.2-2s-.4-1.1-.7-1.6c-.3-.4-.7-.8-1.3-1-.5-.2-1.2-.4-2-.4s-2,.2-2.7.6c-.8.4-1.4.9-1.8,1.5-.5.6-.8,1.2-1,1.9-.2.6-.3,1.2-.3,1.6v13.8h-3.7v-22.1h3.6Z"/>
    <path class="st0" d="M426.3,92.9c.5-1.4,1.1-2.6,2.1-3.7.9-1,2.1-1.9,3.4-2.5s2.9-.9,4.6-.9,3.3.3,4.7.9c1.3.6,2.5,1.4,3.4,2.5s1.6,2.3,2.1,3.7c.5,1.4.7,2.9.7,4.6s-.2,3.2-.7,4.6-1.1,2.6-2.1,3.7c-.9,1.1-2,1.9-3.4,2.4-1.3.6-2.9.9-4.7.9s-3.3-.3-4.6-.9c-1.3-.6-2.5-1.4-3.4-2.4-.9-1.1-1.6-2.3-2.1-3.7s-.7-2.9-.7-4.6.3-3.2.7-4.6ZM430.1,101c.4,1.1.8,1.9,1.5,2.6.6.7,1.4,1.2,2.2,1.6.8.4,1.7.6,2.7.6s1.8-.2,2.7-.6c.8-.4,1.6-.9,2.2-1.6s1.1-1.6,1.5-2.6.5-2.2.5-3.6-.2-2.5-.5-3.6c-.4-1-.8-1.9-1.5-2.6-.6-.7-1.4-1.3-2.2-1.6-.8-.4-1.7-.6-2.7-.6s-1.8.2-2.7.6c-.8.4-1.6.9-2.2,1.6s-1.1,1.6-1.5,2.6c-.4,1.1-.5,2.2-.5,3.6-.1,1.4.1,2.6.5,3.6Z"/>
    <path class="st0" d="M461,86.3v3.2h-4.4v13.8c0,.4,0,.8.1,1,.1.3.2.5.4.6.2,0,.5.2.8.3.4,0,.8,0,1.4,0h1.7v3.2h-2.8c-.9,0-1.8,0-2.4-.2-.7,0-1.2-.4-1.6-.7-.4-.3-.7-.8-.9-1.5-.2-.6-.3-1.5-.3-2.5v-14.1h-3.8v-3.2h3.8v-6.7h3.6v6.7h4.4Z"/>
    <path class="st0" d="M465.3,82.3v-4.5h3.7v4.5h-3.7ZM468.9,86.3v22.2h-3.7v-22.2h3.7Z"/>
    <path class="st0" d="M480.7,108.5l-8.3-22.2h4.1l6.2,18.5h.1l6.1-18.5h3.8l-8.1,22.2h-3.9Z"/>
    <path class="st0" d="M511.8,107.1c-1.7,1.3-3.7,1.9-6.3,1.9s-3.3-.3-4.6-.9c-1.3-.6-2.4-1.4-3.3-2.4s-1.6-2.3-2-3.7c-.4-1.4-.7-3-.7-4.7s.3-3.2.8-4.6,1.2-2.6,2.2-3.6c.9-1,2-1.8,3.3-2.4s2.7-.9,4.2-.9,3.6.4,4.9,1.2,2.3,1.9,3.1,3.1c.8,1.3,1.3,2.6,1.6,4.1s.4,2.9.4,4.3h-16.6c0,1,.1,1.9.3,2.8.3.9.7,1.6,1.2,2.3.6.7,1.3,1.2,2.2,1.6.9.4,1.9.6,3.1.6s2.8-.4,3.8-1.1,1.6-1.8,2-3.3h3.6c-.5,2.6-1.6,4.5-3.2,5.7ZM510.9,92.9c-.3-.8-.8-1.4-1.3-2-.6-.6-1.2-1-2-1.3s-1.6-.5-2.5-.5-1.8.2-2.6.5c-.8.3-1.4.8-2,1.4s-1,1.2-1.3,2-.5,1.6-.6,2.4h12.8c0-1-.2-1.8-.5-2.5h0Z"/>
  </g>
  <path class="st0" d="M60.2,3.4C28.7,3.4,3.1,28.9,3.1,60.5s25.6,57.1,57.1,57.1,57.1-25.6,57.1-57.1S91.7,3.4,60.2,3.4ZM49.9,84h-29.4l7.6-26.9c1.7-5.9,7.1-10.1,13.9-10.9h14.3l-2.9,10.5h-12.3c-1.3,0-2.5.8-2.9,2.1l-4.2,14.7h16.4c1.7,0,2.5-.8,2.9-2.1l10.1-36.9h10.5l-10.6,39c-1.6,7.1-7.9,10.5-13.4,10.5h0ZM65.4,84l13.4-49.1h10.9l-10.8,38.6c-1.7,7.1-8,10.5-13.5,10.5ZM98.6,57.5h-10.5l2.9-10.5h10.5l-2.9,10.5Z"/>
</svg>