<?xml version="1.0" encoding="utf-8"?>
<!-- Generator: Adobe Illustrator 22.1.0, SVG Export Plug-In . SVG Version: 6.00 Build 0)  -->
<!DOCTYPE svg PUBLIC "-//W3C//DTD SVG 1.1//EN" "http://www.w3.org/Graphics/SVG/1.1/DTD/svg11.dtd">
<svg version="1.1" id="Layer_1" xmlns="http://www.w3.org/2000/svg" xmlns:xlink="http://www.w3.org/1999/xlink" x="0px" y="0px"
	 viewBox="0 0 717 300" style="enable-background:new 0 0 717 300;" xml:space="preserve">
<style type="text/css">
	.st0{fill:#FFFFFF;}
</style>
<g>
	<path class="st0" d="M282,8c17.8,34.2,35.6,68.4,53.5,102.6c18.2,34.8,36.4,69.6,54.6,104.3c0.7,1.4,1.4,2.9,2.4,5
		c-10.4,0-20.2,0-29.9,0c-5.8,0-11.7-0.2-17.5,0.1c-3.1,0.1-4.7-0.9-6.1-3.7c-14.6-30.1-29.4-60-44-90.1c-12.7-26-25.4-52-38-78
		c-0.2-0.4-0.6-0.8-1.2-1.6c-1,1.8-1.9,3.3-2.6,4.8c-27.1,54.5-54.2,109-81.1,163.6c-1.8,3.6-3.7,5.1-7.8,5
		c-13.3-0.3-26.5-0.1-40.7-0.1C160.2,148.8,196.6,78.4,233,8C249.3,8,265.7,8,282,8z"/>
	<path class="st0" d="M664,8c0.1,8.3,0.1,16.7,0.1,25c0,60.1,0,120.3,0,180.4c0,2,0,3.9,0,6.2c-11.4,0-22.5,0-34.2,0
		c0-30.2,0-60.4,0-90.9c-35.8,0-71.1,0-106.9,0c0,30.3,0,60.5,0,91c-11.5,0-22.5,0-33.8,0c0-50.7,0-101.4,0-152.5c11,0,22,0,33.5,0
		c0,7,0,14.1,0,21.6c35.8,0,71.1,0,107.3,0c0-27,0-54,0-80.9C641.3,8,652.7,8,664,8z"/>
	<path class="st0" d="M548,8c0,12.1,0,24.3,0,37.1c-27.2,0-54.3,0-81.8,0c0,58.5,0,116.4,0,174.6c-13.9,0-27.3,0-41.2,0
		c0-58.1,0-116,0-174.4c-27.4,0-54.3,0-82,0c0-12.8,0-25,0-37.3C411.3,8,479.7,8,548,8z"/>
	<path class="st0" d="M709,236c-78.8,0-157.6-0.1-236.3,0c-52.3,0-104.6,0.1-156.9,0.1c-47.8,0-95.6-0.1-143.4-0.1
		c-54.5,0-108.9,0-163.4,0.1c0-0.7,0-1.3,0-2c233.3,0,466.7,0,700,0C709,234.7,709,235.3,709,236z"/>
	<path class="st0" d="M441,294c-6.3-2.6-8.2-7.6-8-14c0.2-8.3-0.1-16.7,0.1-25c0.2-9.1,7-13.9,15.7-11.5c4.3,1.2,7.3,4,7.5,8.4
		c0.4,11,0.3,21.9,0.1,32.9c-0.1,4.7-3.6,7.2-7.3,9.3C446.3,294,443.7,294,441,294z M440.8,268.5c0,4.7-0.4,9.4,0.2,14
		c0.2,1.6,2.6,3,4,4.5c1.3-1.4,3.8-2.8,3.8-4.2c0.3-9.5,0.3-19,0-28.5c-0.1-1.5-2.5-2.8-3.8-4.3c-1.4,1.5-3.8,2.9-4,4.5
		C440.5,259.1,440.8,263.8,440.8,268.5z"/>
	<path class="st0" d="M159.6,102.7c-6.8,13.1-12.9,25.3-19.3,37.2c-0.7,1.2-3.3,1.9-5,1.9c-13.5,0.2-27,0.1-41,0.1
		c0,26,0,51.7,0,77.8c-14,0-27.4,0-41.2,0c0-70.1,0-140.1,0-210.5c51.4,0,102.9,0,154.8,0c-6.1,11.8-11.9,23.3-18,34.7
		c-0.7,1.3-3.5,2.2-5.3,2.2c-28.2,0.1-56.3,0.1-84.5,0.1c-1.8,0-3.6,0-5.7,0c0,19,0,37.6,0,56.6
		C115.6,102.7,137.1,102.7,159.6,102.7z"/>
	<path class="st0" d="M362.7,67.1c13.7,0,26.8,0,40.2,0c0,41.5,0,82.9,0,125.2c-3.9-7.3-7.4-13.9-10.9-20.5
		c-9.2-17.7-18.5-35.3-27.7-53c-0.8-1.6-1.6-3.4-1.6-5.1C362.6,98.3,362.7,83,362.7,67.1z"/>
	<path class="st0" d="M276.8,141.5c-14.6,0-28.4,0-42.8,0c0.4-1.2,0.6-2.3,1.1-3.2c5.4-10.8,10.8-21.7,16.4-32.4
		c0.8-1.5,2.5-3.2,4-3.4c1-0.2,2.9,1.8,3.6,3.2C265,117.2,270.7,129,276.8,141.5z"/>
	<path class="st0" d="M555.4,244.2c3.6,0,6.8,0,10.3,0c0,16.2,0,32.2,0,48.5c-2.1,0-4.1,0-6.5,0c0-9.8,0-19.7,0-29.6
		c-0.4,0-0.7-0.1-1.1-0.1c-1.5,9.8-3.1,19.7-4.7,29.7c-2.4,0-4.5,0-7.1,0c-1.5-9.3-3.1-18.6-4.6-27.8c-0.3,0-0.5,0-0.8,0
		c0,9.2,0,18.4,0,27.8c-2.6,0-4.5,0-6.7,0c0-16.1,0-32.2,0-48.5c3.4,0,6.7,0,10.3,0c1.7,10.4,3.4,20.8,5.2,31.2c0.3,0,0.6,0,0.9,0
		C552.2,265.2,553.8,255,555.4,244.2z"/>
	<path class="st0" d="M354.4,292.9c-2.5,0-4.6,0-7.3,0c0-6.8,0-13.6,0-20.6c-2.9,0-5.3,0-8.3,0c0,6.8,0,13.5,0,20.5
		c-2.8,0-5.1,0-7.6,0c0-16.2,0-32.3,0-48.5c2.5,0,4.7,0,7.4,0c0,6.8,0,13.4,0,20.4c2.8,0,5.2,0,8.1,0c0-6.5,0-13.3,0-20.3
		c2.8,0,5,0,7.6,0C354.4,260.3,354.4,276.3,354.4,292.9z"/>
	<path class="st0" d="M76.7,292.8c-2.7,0-5,0-7.5,0c-0.5-2.9-1-5.6-1.6-8.5c-3.1,0-6,0-9.1,0c-0.6,2.9-1.1,5.6-1.6,8.5
		c-2.2,0-4.3,0-6.8,0c2.6-16.3,5.1-32.3,7.7-48.5c3.7,0,7.2,0,11.2,0C71.5,260.3,74.1,276.4,76.7,292.8z M63.6,256.6
		c-0.4,0-0.8,0.1-1.2,0.1c-1,6.6-1.9,13.3-2.9,20.1c2.6,0,4.7,0,7.1,0C65.5,269.8,64.5,263.2,63.6,256.6z"/>
	<path class="st0" d="M645.4,244.2c6.9,0,13.5,0,20.4,0c0,2.2,0,4.1,0,6.5c-4,0-8,0-12.5,0c0,4.9,0,9.2,0,14.1c3,0,6.1,0,9.6,0
		c0,2.5,0,4.5,0,7c-3.1,0-6.2,0-9.6,0c0,4.8,0,9.2,0,14.1c4.1,0,8.2,0,12.5,0c0,2.4,0,4.4,0,6.7c-6.6,0-13.3,0-20.4,0
		C645.4,276.7,645.4,260.7,645.4,244.2z"/>
	<path class="st0" d="M170.8,244.3c0,2.3,0,4.3,0,6.5c-2.5,0.1-4.7,0.2-7.7,0.4c0,13.8,0,27.6,0,41.6c-2.9,0-5.1,0-7.9,0
		c0-13.9,0-27.6,0-41.6c-2.8-0.1-5.1-0.3-7.7-0.4c0-2.2,0-4.2,0-6.5C155.2,244.3,162.8,244.3,170.8,244.3z"/>
</g>
</svg>
