<?xml version="1.0" encoding="utf-8"?>
<!-- Generator: Adobe Illustrator 22.1.0, SVG Export Plug-In . SVG Version: 6.00 Build 0)  -->
<!DOCTYPE svg PUBLIC "-//W3C//DTD SVG 1.1//EN" "http://www.w3.org/Graphics/SVG/1.1/DTD/svg11.dtd">
<svg version="1.1" id="Layer_1" xmlns="http://www.w3.org/2000/svg" xmlns:xlink="http://www.w3.org/1999/xlink" x="0px" y="0px"
	 viewBox="0 0 678 290.8" style="enable-background:new 0 0 678 290.8;" xml:space="preserve">
<style type="text/css">
	.st0{fill:#FFFFFF;}
	.st1{fill-rule:evenodd;clip-rule:evenodd;fill:#FFFFFF;}
</style>
<path class="st0" d="M491.7,279.6c0,1.1-0.5,2.1-1.5,2.8c-0.9,0.6-1.9,0.9-3.1,0.9c-1.3,0-2.3-0.3-3.2-0.9c-1-0.7-1.5-1.6-1.5-2.8
	c0-1.2,0.5-2.1,1.5-2.7c0.9-0.6,2-0.9,3.1-0.9c1.2,0,2.2,0.3,3.2,0.9C491.2,277.5,491.7,278.4,491.7,279.6z"/>
<path class="st0" d="M111.8,273.3c0,7.3-6.3,11-19,11H81.1c-5.1,0-9.2-0.7-12.1-2c-4.5-1.8-6.8-4.8-6.8-9v-18.9
	c0-7.4,6.3-11.1,18.9-11.1h11.6c5.9,0,10.1,0.5,12.5,1.5c4.4,1.7,6.5,4.9,6.5,9.6V273.3z M104.3,273.1v-18.5c0-3.5-3.8-5.2-11.3-5.2
	H81.1c-7.6,0-11.4,1.7-11.4,5.2v18.5c0,3.3,3.8,5,11.4,5H93C100.5,278.1,104.3,276.5,104.3,273.1z"/>
<path class="st0" d="M165.8,281.6c0,1.8-0.9,2.7-2.6,2.7h-24c-5.5,0-9.7-0.5-12.8-1.5c-4.7-1.6-7.1-4.8-7.1-9.3v-27.6
	c0-1.7,0.9-2.6,2.6-2.6c1.7,0,2.8,0.1,3.2,0.2c1.1,0.3,1.6,1.1,1.6,2.4v27.6c0,2.1,1.7,3.5,5.2,4.2c1.1,0.3,3.7,0.4,7.7,0.4h23.6
	C164.9,278.1,165.8,279.3,165.8,281.6z"/>
<path class="st0" d="M217.8,263.8c0,2.1-0.6,3.3-2.5,3.3h-35.8v14.6c0,1.8-0.9,2.7-2.6,2.7c-1.9,0-2.9-0.1-3.2-0.2
	c-1.1-0.3-1.6-1.1-1.6-2.4v-28.8c0-3.3,2.1-5.8,6.3-7.5c3.2-1.3,6.8-2,10.6-2h5.6c1.8,0,2.7,1.1,2.7,3.4c0,1.8-0.9,2.7-2.7,2.7
	c-10.1,0-15.1,1.2-15.1,3.7v7.8h35.8C217.2,260.9,217.8,261.8,217.8,263.8z"/>
<path class="st0" d="M351.9,245.8c0,0.4-0.1,0.9-0.3,1.3l-16.2,34.2c-1,2-2.5,3-4.6,3c-2.1,0-3.5-0.9-4.4-2.8l-12.9-27.6l-13.4,27.7
	c-0.8,1.6-2.3,2.5-4.4,2.5c-2.3,0-3.8-0.9-4.6-2.6L275,247c-0.2-0.4-0.3-0.8-0.3-1.1c0-0.9,0.5-1.6,1.4-2.1c0.8-0.4,1.7-0.7,2.6-0.7
	c1.6,0,2.7,0.6,3.2,1.7l13.8,29.3l13.1-28.2c0.9-2,2.4-3,4.5-3c0.7,0,1.5,0.3,2.5,0.9c0.9,0.6,1.5,1.2,1.9,1.9l13.3,28.4l13.6-29.3
	c0.5-1.1,1.7-1.7,3.5-1.7c0.9,0,1.8,0.2,2.5,0.6C351.5,244.2,351.9,244.9,351.9,245.8z"/>
<path class="st0" d="M364.5,281.6c0,1.8-0.9,2.7-2.6,2.7c-0.8,0-1.4,0-2-0.1c-0.5,0-1-0.1-1.3-0.1c-1.1-0.3-1.6-1.2-1.6-2.5v-35.7
	c0-1.3,0.5-2.1,1.6-2.5c0.2,0,0.6-0.1,1.2-0.1c0.5,0,1.2,0,2.1,0c1.8,0,2.6,0.9,2.6,2.6V281.6z"/>
<path class="st0" d="M422.4,279.9c0,3.1-1.4,4.7-4.1,4.7c-1.3,0-2.7-0.7-4.3-2l-34.9-29.6v28.7c0,1.3-0.5,2.2-1.6,2.5
	c-0.3,0-0.7,0.1-1.3,0.1c-0.5,0-1.2,0.1-2,0.1c-1.7,0-2.6-0.9-2.6-2.7v-34.2c0-3,1.3-4.4,3.8-4.4c1.6,0,3.3,0.7,5,2.2l34.4,29.3
	v-28.5c0-1.3,0.5-2.1,1.6-2.5c0.3,0,0.7-0.1,1.3-0.1c0.5,0,1.2,0,1.9,0c1.8,0,2.7,0.9,2.7,2.6V279.9z"/>
<path class="st0" d="M542.4,246.7c0,1.8-0.9,2.7-2.6,2.7h-26.6c-6.5,0-9.7,1.3-9.7,3.9v20.3c0,3,3.6,4.6,10.7,4.6h25.4
	c1.8,0,2.7,1,2.7,3.1c0,2.1-0.9,3.1-2.7,3.1h-25.4c-3.4,0-5.9-0.1-7.4-0.4c-1.6-0.3-3.3-0.9-5.1-1.8c-2-1.1-3.4-2.2-4.2-3.3
	c-1-1.3-1.5-3-1.5-5.1v-20.4c0-2.6,1.2-4.8,3.5-6.6c2-1.5,4.4-2.5,7.2-3c0.7-0.1,1.6-0.2,2.6-0.3c1-0.1,2.2-0.1,3.7-0.1h26.8
	C541.6,243.3,542.4,244.5,542.4,246.7z"/>
<path class="st0" d="M597.9,273.3c0,7.3-6.3,11-19,11h-11.6c-5.1,0-9.2-0.7-12.2-2c-4.5-1.8-6.8-4.8-6.8-9v-18.9
	c0-7.4,6.3-11.1,18.9-11.1h11.6c5.9,0,10.1,0.5,12.5,1.5c4.4,1.7,6.5,4.9,6.5,9.6V273.3z M590.4,273.1v-18.5c0-3.5-3.8-5.2-11.3-5.2
	h-11.9c-7.6,0-11.5,1.7-11.5,5.2v18.5c0,3.3,3.8,5,11.5,5h11.9C586.6,278.1,590.4,276.5,590.4,273.1z"/>
<path class="st0" d="M673.7,281.6c0,1.3-0.5,2.1-1.6,2.5c-0.5,0.1-1.5,0.2-3.2,0.2c-1.8,0-2.6-0.9-2.6-2.7v-26.5l-22,27.2
	c-1.2,1.4-2.7,2.2-4.7,2.2c-2,0-3.6-0.7-4.8-2.2L612.2,255v26.7c0,1.8-0.9,2.7-2.6,2.7c-1.7,0-2.8-0.1-3.2-0.2
	c-1.1-0.3-1.6-1.2-1.6-2.5v-34.4c0-2.5,1.4-3.8,4.2-3.8c1.8,0,3.3,0.7,4.4,2l26.2,31.1l25.6-31.1c1.1-1.3,2.5-2,4.2-2
	c2.9,0,4.3,1.4,4.3,4.1V281.6z"/>
<path class="st0" d="M188,243.3l27.6,0.1c1.4,0,2.2,1,2.2,3.1c0,2.1-0.7,3.1-2.2,3.1l-27.6-0.1"/>
<g>
	<path class="st0" d="M270.9,274.1c0,2.2-0.4,3.9-1,5.1c-1.9,3.3-7.5,5-16.9,5H227c-1.7,0-2.6-0.9-2.6-2.7c0-1.2,0.1-2,0.4-2.5
		c0.4-0.6,1.1-1,2.2-1h25.9c7,0,10.5-1.3,10.5-3.9v-3.5c0-2.5-3.4-3.9-10.1-4.1l-12.4-0.4c-0.6,0-1.4-0.1-2.5-0.1
		c-1.1-0.1-2.4-0.1-3.9-0.3c-2.7-0.3-5-1.2-6.9-2.7c-2.1-1.6-3.2-3.7-3.2-6.4v-3.1c0-4.8,2.6-7.9,7.9-9.5c2.5-0.7,7.2-1,13.9-1
		c1.8,0,2.6,1.1,2.6,3.4c0,1.3-0.5,2.2-1.6,2.5c-0.2,0.1-1.2,0.1-3.2,0.1c-8.2,0-12.2,1.4-12.2,4.3v2.9c0,1.8,1.5,2.9,4.6,3.5
		c0.6,0.1,1.4,0.2,2.5,0.3c1.1,0,2.5,0.1,4.1,0.1h10c4.8,0,8.5,0.6,11.3,1.8c4.4,1.8,6.5,4.6,6.5,8.3V274.1z"/>
	<path class="st0" d="M243.3,243.3l25.5,0.1c1.3,0,2,1,2,3.1c0,2.1-0.7,3.1-2,3.1l-25.5-0.2"/>
</g>
<g>
	<path class="st0" d="M27.7,249.4l-3.9-0.1c-8,0-12,1.4-12,4.2V274c0,2.8,3.4,4.2,10.1,4.2h16.9c1.6,0,3.3-0.3,5.2-0.9
		c2.3-0.8,3.4-1.8,3.4-3.1v-10.6c0-1.2,0.5-2,1.6-2.5c0.6-0.1,1.7-0.2,3.2-0.2c1.7,0,2.6,0.9,2.6,2.6v10.3c0,3.7-1.9,6.5-5.6,8.3
		c-2.9,1.4-6.4,2.1-10.5,2.1h-17c-4.4,0-8.2-0.6-11.2-1.9c-4.2-1.7-6.3-4.5-6.3-8.4v-20.5c0-3.7,2.1-6.4,6.4-8.2
		c3.4-1.3,7.1-2,11.1-2h6.7"/>
	<path class="st0" d="M27.7,249.4l24.7,0.2c1.4,0,2.2-1,2.2-3.1c0-2-0.7-3.1-2.2-3.1l-14.6-0.1H27.4"/>
	<path class="st0" d="M52,267.2L24.3,267c-1.4,0-2.2-1-2.1-3.1c0-2.1,0.7-3.1,2.2-3.1l25.9,0.2"/>
</g>
<g>
	<path class="st0" d="M452.3,249.6l-3.9-0.1c-8,0-12,1.4-12,4.2v20.5c0,2.8,3.4,4.2,10.1,4.2h16.9c1.6,0,3.3-0.3,5.2-0.9
		c2.3-0.8,3.4-1.8,3.4-3.1v-10.6c0-1.2,0.5-2,1.6-2.5c0.6-0.1,1.7-0.2,3.2-0.2c1.8,0,2.6,0.9,2.6,2.6V274c0,3.7-1.9,6.5-5.6,8.3
		c-2.9,1.4-6.4,2.1-10.5,2.1h-17c-4.4,0-8.2-0.6-11.2-1.9c-4.2-1.7-6.3-4.5-6.3-8.4v-20.5c0-3.7,2.1-6.4,6.4-8.2
		c3.4-1.3,7.1-2,11.1-2h6.7"/>
	<path class="st0" d="M452.3,249.6l24.7,0.2c1.4,0,2.2-1,2.2-3.1c0-2-0.7-3.1-2.1-3.1l-14.6-0.1H452"/>
	<path class="st0" d="M476.5,267.3l-27.6-0.2c-1.4,0-2.2-1-2.1-3.1c0-2.1,0.7-3.1,2.2-3.1l25.9,0.2"/>
</g>
<g>
	<g>
		<path class="st1" d="M317.7,73.2c22,15.3,43.3,30.1,65.1,45.2c-7.7,4-15,7.8-22.3,11.6c-7,3.7-13.9,7.4-21,10.9
			c-2.2,1.1-2.9,2.4-2.9,4.8c0.1,22.6,0,71.9,0,71.9s-2.2,0-3.9,0c-49.3-1.6-91.3-38.6-99-87.4c-9.3-58.3,29.7-111.5,88.3-120.4
			c55.4-8.4,108.9,30.9,117.5,86.4c8.3,53.1-23.6,103-75.3,117.7c-8.2,3-15.9-12.4-4.4-18c38.4-10.9,64.9-48.2,62.5-87.9
			c-2.6-41.8-34.8-75.5-76.5-80.1c-47-5.1-89.2,28.9-94.3,75.9c-4.5,42.1,22.1,81.2,62.5,92.1c3.4,0.9,4.1,0.5,4.1-3.1
			c-0.2-38.4-0.2-76.7-0.3-115.1C317.7,76.5,317.7,75.2,317.7,73.2z"/>
	</g>
</g>
</svg>
