<?xml version="1.0" encoding="utf-8"?>
<!-- Generator: Adobe Illustrator 22.1.0, SVG Export Plug-In . SVG Version: 6.00 Build 0)  -->
<!DOCTYPE svg PUBLIC "-//W3C//DTD SVG 1.1//EN" "http://www.w3.org/Graphics/SVG/1.1/DTD/svg11.dtd">
<svg version="1.1" id="Layer_1" xmlns="http://www.w3.org/2000/svg" xmlns:xlink="http://www.w3.org/1999/xlink" x="0px" y="0px"
	 viewBox="0 0 288 177" style="enable-background:new 0 0 288 177;" xml:space="preserve">
<style type="text/css">
	.st0{fill:#FFFFFF;}
</style>
<g>
	<path class="st0" d="M76.3,85.5L76.3,85.5C76.4,85.7,76.4,85.9,76.3,85.5z"/>
	<path class="st0" d="M69.8,115.3c1.6,0.1,3.2-0.1,4.6-0.6c2.6-0.7,4.9-2.2,6.4-4.3c4.4-6.1,1.5-17.2-2-24.9c6.9,0,9.7-2.1,9.9-2.3
		c2.9-2.1,4-5,3.1-8c-0.5-1.6-1.5-2.8-3-3.5c-2-0.8-4.6-0.7-7,0.4c-4,1.9-6.3,5.3-6.2,9.4c0,0.5,0,1.1,0.1,1.6
		c-2.9-0.3-6.3-0.8-10.4-1.9C64.7,81,64.1,81.4,64,82c-0.2,0.6,0.2,1.3,0.8,1.4c4.5,1.3,8.4,1.9,11.5,2.1c-0.1-0.3-0.3-0.9,0,0
		c3.7,10.3,6.3,18.3,2.6,23.5c-1.9,2.6-5.3,4-9,3.8s-6.7-2-8.3-4.7c-1.9-3.4-1.8-7.4,0.4-10.3c1.3-1.8,3.6-2.9,6-3.1
		c2-0.2,3.8,0.5,5,1.8c1.2,1.4,1.7,3.6,1.1,5.1c-0.5,1-1.3,1.6-2.6,1.7c-0.7,0-1.2,0.6-1.1,1.2c0,0.7,0.6,1.2,1.2,1.1
		c2.3-0.2,4-1.3,4.8-3.2c1-2.4,0.2-5.6-1.6-7.5c-1.7-1.8-4.2-2.8-6.8-2.6c-3.1,0.1-6,1.7-7.8,4c-2.7,3.6-2.9,8.7-0.6,12.9
		C61.5,112.7,65.3,114.9,69.8,115.3z M78.1,81.4c-0.1-3.1,1.7-5.8,4.8-7.2c1.7-0.7,3.6-0.9,4.9-0.3c0.9,0.4,1.5,1.1,1.7,2
		c0.6,2.1-0.2,4-2.3,5.5c-0.1,0.1-2.7,1.8-9.1,1.8C78.1,82.6,78.1,82,78.1,81.4z"/>
	<path class="st0" d="M204.6,56.1c-0.4-0.6-0.6-1.2-0.7-1.7c-0.1-0.4-0.4-0.8-0.9-0.9l0,0c-0.8-0.2-1.6,0.5-1.4,1.4
		c0.1,0.6,0.4,1.3,0.7,2l-5.8,11.7c-0.1,0.1-0.1,0.1-0.1,0.2c-1.9,4-4.2,6.9-5.7,7.3c-0.4,0.1-0.7,0.1-1-0.1c-0.7-0.5-0.6-3,0-4.6
		c0.5-1.3,1.1-2.6,1.6-4c1.1-2.5,2.2-5.2,3-7.9c0.2-0.6-0.2-1.3-0.7-1.4c-0.6-0.2-1.3,0.1-1.5,0.8c-0.2,0.9-0.6,1.7-0.9,2.6
		c-0.2-0.3-0.4-0.5-0.7-0.8c-1-0.9-2.3-1.2-3.7-0.9c-5.3,0.9-8.9,6.9-10.5,10.4c-0.8,1.7-1.4,3.3-1.5,4.5c-0.1,0.1-0.1,0.1-0.2,0.2
		c-2.1,3.5-4.6,7.8-9.4,8.7c-1.1,0.2-2.1,0-3-0.6s-1.5-1.6-1.8-2.8c-0.4-2.8,2.1-5,4.7-5.4c0.6-0.2,1.1-0.8,0.9-1.4
		c-0.1-0.6-0.7-1.1-1.3-0.9c-0.9,0.2-2.1-0.5-2.6-1.5c-0.4-0.7-0.2-1.8,0.3-2.6c0.6-0.9,1.6-1.4,2.5-1.3c0.7,0.1,1.3,0.6,1.5,1.5
		c0.2,0.6,0.9,0.9,1.5,0.7c0.7-0.3,1-0.9,0.7-1.5c-0.5-1.7-1.9-2.8-3.4-3c-1.7-0.3-3.5,0.6-4.7,2.1c-1.1,1.5-1.3,3.6-0.5,5.1
		c0.3,0.6,0.8,1.2,1.4,1.8c-1.9,1.3-3.4,3.3-3.4,5.8c0,0-0.1,0.1-0.1,0.2c-2,4.1-4.3,7-5.8,7.4c-0.4,0.1-0.7,0.1-1-0.1
		c-1.6-1-0.4-4.2,0.2-5.8c0.1-0.4,0.4-0.8,0.5-1.2c0.9-2.1,2-4.9,0.8-7.3c-0.5-1-1.4-1.7-2.5-1.9c-2.3-0.4-5,1.1-6.2,2.1
		c-1.1,0.9-2,2-2.8,3c-0.2-0.6-0.5-1.1-0.9-1.5c-1.4-1.2-3.5-0.7-3.9-0.5c-2.8,0.7-5.1,2.8-6.9,5.6l0.8-3.2c0.2-0.6-0.3-1.2-0.9-1.4
		c-0.6-0.2-1.3,0.2-1.4,0.8L124.5,89c-0.9,1.7-1.8,3.1-2.8,4.4c-0.8,1.1-1.8,2.4-2.9,3c-0.8,0.4-1.4,0.4-1.7,0.2
		c-0.3-0.2-0.4-0.7-0.4-1c0-1,0.9-3.9,1.6-6.2c0.8-2.5,1.5-4.7,1.5-5.9c0.3-3.1-1-4.3-2.2-4.9c-1.8-0.8-3.9-0.1-5.3,0.7h-0.2
		c-0.8,0.5-1.5,1.4-2.3,2.4l3.2-9.3c0.2-0.6-0.1-1.4-0.9-1.6c-0.6-0.2-1.4,0.1-1.6,0.8l-7.7,23.2c-0.4,0.6-0.9,1.2-1.2,1.8
		c-0.8,1-1.5,2.1-2.3,3c-1.2,1.4-2.7,2.6-4.3,3.5c-1.6,0.9-3.4,0.9-4.7,0.4c-1.1-0.5-1.8-1.4-2.1-2.6c-0.7-2.8,0-6.4,1.7-9.2
		c1.3-2.1,3.1-3.5,5.1-4c1-0.2,1.9,0,2.4,0.7c0.5,0.6,0.7,1.5,0.3,2.4c-0.3,0.6,0.1,1.2,0.7,1.5c0.6,0.2,1.3-0.1,1.5-0.7
		c0.7-1.7,0.4-3.5-0.7-4.7c-1.1-1.3-2.8-1.8-4.6-1.4c-2.6,0.6-4.9,2.3-6.5,5c-2.1,3.3-2.8,7.5-2,11c0.5,1.9,1.7,3.4,3.4,4.2
		c1.5,0.7,3.2,0.7,4.8,0.2c0.7-0.2,1.3-0.4,1.9-0.7c1.7-0.9,3.2-2.1,4.5-3.5l-0.2,0.5c-0.2,0.6,0.1,1.4,0.8,1.6
		c0.2,0.1,0.5,0.1,0.8,0c0.4-0.1,0.7-0.4,0.8-0.8c1.7-5.1,7.1-18.8,10.8-21.5c1.3-0.7,2.4-0.9,3-0.6c0.7,0.3,0.8,1.5,0.8,2.4
		c0,0.8-0.8,3.2-1.3,5.2c-1.1,3.4-1.8,5.7-1.8,6.9c0.1,2,1,2.8,1.6,3.2c1.1,0.7,2.7,0.6,4.2-0.2c1.1-0.6,1.9-1.5,2.7-2.3l0,0
		c-0.2,0.6,0.2,1.3,0.9,1.4c0.6,0.2,1.2-0.3,1.4-0.9l0.7-2.8c1.8-6.2,5.8-16.5,11.3-17.8h0.2c0.3-0.1,1.2-0.3,1.6,0.1
		c0.2,0.1,0.6,0.7,0.2,2.7l-0.9,4c-1,2.8-1.8,6.3-2.5,9.8c-0.1,0.6,0.3,1.2,1,1.4c0.2,0,0.3,0.1,0.6,0c0.4-0.1,0.7-0.4,0.8-0.9
		l2.3-9.6l0.2-0.5c1.1-2.9,2.6-6.1,5.2-8.3c1.2-0.9,3.1-1.9,4.2-1.6c0.4,0,0.7,0.3,0.9,0.6c0.7,1.4-0.1,3.5-0.9,5.4l-0.5,1.2
		c-0.8,2.1-2.4,6.6,0.7,8.7c0.9,0.6,1.9,0.7,3,0.4c2.4-0.7,4.7-3.8,6.2-6.5c0.5,0.8,1.2,1.6,1.9,2.1c1.4,1,3.1,1.3,4.8,1
		c0.3,0,0.6-0.1,0.9-0.2c4-1.1,6.6-4.2,8.5-7.2c0.2,0.6,0.5,1.1,1,1.6c1.2,1.2,2.7,1.5,4.8,1.2c0.3,0,0.6-0.1,0.8-0.1
		c2.3-0.6,4.2-2.5,5.7-4.7c0.2,0.6,0.6,1.1,1.1,1.4c0.9,0.6,1.9,0.8,2.9,0.5c2.8-0.8,5.3-4.9,6.7-7.8c0.1-0.1,0.2-0.2,0.2-0.3
		l5.7-11.5c0.7,0.7,1.4,1.6,1.9,2.2c0.9,1.1,1,2,0.4,3.8c-0.6,1.6-1.4,6.2,1,7.8c0.9,0.6,1.9,0.8,3,0.5c2.8-0.8,5.3-4.9,6.8-7.7
		c0.1-0.1,0.1-0.1,0.2-0.2c1.2-2.2,1.1-2,1.1-2c1.2-2.2,2.9-3.7,4.4-4.1c1.2-0.3,2.1-0.2,2.9,0.4c1.1,0.7,1.8,1.9,1.9,3.4
		c0.6,4.4-0.4,7.9-2.5,11.3c-0.5,1-1.3,1.9-2.1,2.7c-2.4,2.4-5.5,4-9.3,4.9l0,0l-1.1,0.3l0,0l-119,30.6l-8.1,2
		c-0.8,0.2-1.2,1.4-0.8,2.2c0.5,1.1,4.6-0.6,5-0.7L214.5,84c4.3-1,7.6-2.8,10.3-5.5c1-0.9,1.8-2,2.5-3.1c2.3-4,3.4-7.9,2.8-12.9
		c-0.3-2.1-1.3-3.9-2.9-4.9c-1.4-1.1-3.1-1.3-4.9-0.9c-3.2,0.8-5.3,3.9-5.9,5.3l-2.1,3.7c0,0-0.1,0-0.1,0.1c-1.6,2.8-3.3,4.7-4.5,5
		c-0.4,0.1-0.7,0-1-0.2c-0.8-0.4-0.6-3.4,0-5l0.1-0.1c0.5-1.9,0.8-3.9-0.9-5.9C207,58.5,205.6,56.9,204.6,56.1z M187.6,70.5
		c-0.2,0.5-0.4,1.1-0.5,1.9c-2,3.9-4.4,6.3-6.6,6.5c-1.3,0.2-2.2,0-2.8-0.5c-0.9-1-0.8-2.8-0.7-3.5c0.1-1.1,0.5-2.5,1.3-4
		c1.5-3,4.5-8.3,8.8-9.1c0.7-0.1,1.3,0,1.8,0.4c0.6,0.5,1,1.5,0.9,2.5c-0.2,0.6-0.4,1.2-0.7,1.8C188.6,67.9,188.1,69.2,187.6,70.5z"
		/>
	<path class="st0" d="M219.2,44.5v-1.4h0.5c0.3,0,0.5,0,0.7,0.1s0.3,0.4,0.3,0.8v0.3v0.1l0,0l0,0h0.6l0,0c0,0,0-0.1,0-0.2
		c0-0.1,0-0.2,0-0.3v-0.3c0-0.2-0.1-0.4-0.2-0.5c-0.1-0.2-0.3-0.3-0.6-0.3c0.2,0,0.4-0.1,0.5-0.2c0.2-0.1,0.3-0.4,0.3-0.7
		c0-0.4-0.2-0.7-0.5-0.9c-0.2-0.1-0.5-0.1-0.9-0.1h-1.2v3.4L219.2,44.5z M219.7,41.5c0.3,0,0.6,0,0.7,0.1c0.2,0.1,0.2,0.3,0.2,0.5
		c0,0.3-0.1,0.4-0.4,0.5c-0.1,0.1-0.3,0.1-0.6,0.1h-0.5v-1.2L219.7,41.5z"/>
	<path class="st0" d="M219.8,45.9c0.9,0,1.6-0.3,2.2-0.9c0.6-0.6,0.9-1.4,0.9-2.2c0-0.9-0.3-1.6-0.9-2.2c-0.6-0.6-1.4-0.9-2.2-0.9
		c-0.9,0-1.6,0.3-2.2,0.9c-0.6,0.6-0.9,1.4-0.9,2.2c0,0.9,0.3,1.6,0.9,2.2C218.2,45.6,219,45.9,219.8,45.9z M217.9,40.9
		c0.5-0.5,1.2-0.8,1.9-0.8s1.4,0.3,1.9,0.8s0.8,1.2,0.8,1.9c0,0.8-0.3,1.4-0.8,1.9s-1.2,0.8-1.9,0.8s-1.4-0.3-1.9-0.8
		s-0.8-1.2-0.8-1.9C217.1,42.1,217.4,41.4,217.9,40.9z"/>
	<path class="st0" d="M121,65.1l0.2-0.3l0,0c5.2-8.2,14.4-13.7,24.8-13.7c6.3,0,12.2,2.1,17,5.5l0.6,0.5c0.6,0.4,1.3,0.2,1.8-0.4
		c0.4-0.5,0.2-1.2-0.2-1.7c0,0-0.5-0.4-0.8-0.6l-0.8-0.6c-5-3.3-11-5.3-17.5-5.3c-10.8,0-20.3,5.4-26.1,13.6l-1.1,1.6
		c-0.4,0.6-0.2,1.4,0.4,1.7C119.8,65.9,120.6,65.7,121,65.1z"/>
	<path class="st0" d="M77.1,66.3c0.7,0.2,1.3-0.3,1.5-0.9l0.9-3.7c7.9-28.8,34.3-50,65.6-50c25.5,0,47.6,14.1,59.3,34.9l0.3,0.5
		c0.3,0.6,1.1,0.8,1.7,0.4c0.6-0.3,0.8-1.1,0.5-1.7l-1.7-2.9c-12.4-20.2-34.6-33.8-60-33.8c-33.2,0-61.1,23-68.6,53.9l-0.4,1.8
		C76,65.5,76.4,66.2,77.1,66.3z"/>
	<path class="st0" d="M4.4,128.3h279.3c0.7,0,1.3-0.6,1.3-1.3c0-0.7-0.6-1.3-1.3-1.3h-85.2c7.3-8.4,12.6-18.6,15.3-29.8l0.1-0.1
		l0.7-3.6c0.1-0.7-0.3-1.3-1.1-1.4c-0.7-0.1-1.3,0.3-1.5,1l-0.1,0.8c-2.4,12.6-8.4,24-16.8,33.2H4.4c-0.7,0-1.3,0.6-1.3,1.3
		C3.2,127.8,3.7,128.3,4.4,128.3z"/>
	<path class="st0" d="M283.7,165.2H4.4c-0.7,0-1.3,0.6-1.3,1.3s0.6,1.3,1.3,1.3h279.3c0.7,0,1.3-0.6,1.3-1.3
		C285,165.7,284.4,165.2,283.7,165.2z"/>
	<path class="st0" d="M18.2,143.5v-3.1c0-2.5-1.6-4.1-4.1-4.1h-9c-0.5,0-1,0.4-1,1v19.2c0,0.5,0.4,1,1,1h9.3c2.5,0,4.1-1.6,4.1-4.1
		v-3.5c0-1.2-0.6-2.5-1.6-3.3C17.7,145.8,18.2,144.7,18.2,143.5z M15.9,153.3c0,1-0.4,1.5-1.5,1.5H6.8v-6.9h6.4c1.6,0,2.8,0.8,2.8,2
		v3.4H15.9z M15.6,143.5c0,1.5-1.7,1.8-2.6,1.8H6.8v-6.4h7.4c1,0,1.5,0.4,1.5,1.5v3.1H15.6z"/>
	<path class="st0" d="M33,136.3h-2.9c-0.4,0-0.8,0.3-0.9,0.7l-6,19.2c-0.1,0.3,0,0.6,0.1,0.9c0.2,0.3,0.5,0.4,0.8,0.4h0.6
		c0.4,0,0.8-0.3,0.9-0.7l1.4-4.4h8.9l1.3,4.4c0.1,0.4,0.5,0.7,0.9,0.7h0.6c0.3,0,0.6-0.1,0.8-0.4c0.2-0.3,0.2-0.6,0.1-0.9L33.9,137
		C33.8,136.6,33.4,136.3,33,136.3z M27.9,149.7l3.3-10.8h0.6l3.3,10.8H27.9z"/>
	<path class="st0" d="M47.2,136.3h-0.6c-0.5,0-1,0.4-1,1v19.2c0,0.5,0.4,1,1,1h0.6c0.5,0,1-0.4,1-1v-3.9l4.4-5.7L58,157
		c0.2,0.3,0.5,0.5,0.9,0.5h0.7c0.3,0,0.7-0.2,0.8-0.5c0.2-0.3,0.2-0.7,0-1l-6.1-11.4l5.1-6.7c0.2-0.3,0.3-0.7,0.1-1
		s-0.5-0.5-0.9-0.5h-0.7c-0.3,0-0.6,0.1-0.8,0.4l-9,11.7v-11.1C48.1,136.8,47.7,136.3,47.2,136.3z"/>
	<path class="st0" d="M78.6,138.9c0.5,0,1-0.4,1-1v-0.6c0-0.5-0.4-1-1-1h-11c-0.5,0-1,0.4-1,1v19.2c0,0.5,0.4,1,1,1h11
		c0.5,0,1-0.4,1-1v-0.6c0-0.5-0.4-1-1-1h-9.4V148h7.4c0.5,0,1-0.4,1-1v-0.6c0-0.5-0.4-1-1-1h-7.4V139L78.6,138.9L78.6,138.9z"/>
	<path class="st0" d="M99.8,144.9v-4.5c0-2.5-1.6-4.1-4.1-4.1h-9.1c-0.5,0-1,0.4-1,1v19.2c0,0.5,0.4,1,1,1h0.6c0.5,0,1-0.4,1-1V149
		h5.3l3.4,7.8c0.2,0.4,0.5,0.6,0.9,0.6h0.7c0.3,0,0.6-0.2,0.8-0.4c0.2-0.3,0.2-0.6,0.1-0.9l-3.1-7.1
		C98.5,148.7,99.8,147.2,99.8,144.9z M97.2,144.9c0,1-0.4,1.5-1.5,1.5h-7.5v-7.5h7.5c1,0,1.5,0.4,1.5,1.5V144.9z"/>
	<path class="st0" d="M111.6,157.4h0.6c0.5,0,1-0.4,1-1v-6.1l5.9-12.6c0.1-0.3,0.1-0.7-0.1-0.9c-0.2-0.3-0.5-0.5-0.8-0.5h-0.7
		c-0.4,0-0.7,0.2-0.9,0.6l-4.8,10.2l-4.8-10.2c-0.2-0.3-0.5-0.6-0.9-0.6h-0.7c-0.3,0-0.6,0.2-0.8,0.5c-0.2,0.3-0.2,0.6-0.1,0.9
		l5.9,12.6v6.1C110.6,157,111.1,157.4,111.6,157.4z"/>
	<path class="st0" d="M132.1,149.9v3.6c0,2.5,1.6,4.1,4.1,4.1h5.9c2.5,0,4.1-1.6,4.1-4.1v-5.6h1.3c0.5,0,1-0.4,1-1v-0.6
		c0-0.5-0.4-1-1-1h-10.3c-2.3,0-2.3-1.4-2.3-1.8v-3.2c0-1,0.4-1.5,1.5-1.5h4.6c1,0,1.5,0.4,1.5,1.5c0,0.5,0.4,1,1,1h0.6
		c0.5,0,1-0.5,1-1c0-2.5-1.6-4.1-4.1-4.1h-4.6c-2.5,0-4.1,1.6-4.1,4.1v3.2c0,1.3,0.4,2.3,1.3,3.1
		C132.7,147.3,132.1,148.5,132.1,149.9z M143.6,153.5c0,1-0.4,1.5-1.5,1.5h-5.9c-1,0-1.5-0.4-1.5-1.5v-3.6c0-1.7,1.6-2,2.5-2h6.4
		V153.5z"/>
	<path class="st0" d="M180.3,157.4h0.6c0.5,0,1-0.4,1-1v-19.2c0-0.5-0.4-1-1-1h-2.1c-0.4,0-0.7,0.2-0.9,0.6l-6.1,13.4l-6-13.4
		c-0.2-0.4-0.5-0.6-0.9-0.6h-2.1c-0.5,0-1,0.4-1,1v19.2c0,0.5,0.4,1,1,1h0.6c0.5,0,1-0.4,1-1V140l5.9,12.9c0.2,0.4,0.5,0.6,0.9,0.6
		h1.4c0.4,0,0.7-0.2,0.9-0.6l5.9-12.9v16.5C179.4,157,179.8,157.4,180.3,157.4z"/>
	<path class="st0" d="M197.3,136.3h-2.9c-0.4,0-0.8,0.3-0.9,0.7l-6,19.2c-0.1,0.3,0,0.6,0.1,0.9c0.2,0.3,0.5,0.4,0.8,0.4h0.6
		c0.4,0,0.8-0.3,0.9-0.7l1.4-4.4h8.9l1.3,4.4c0.1,0.4,0.5,0.7,0.9,0.7h0.6c0.3,0,0.6-0.1,0.8-0.4c0.2-0.3,0.2-0.6,0.1-0.9L198,137
		C198.1,136.6,197.7,136.3,197.3,136.3z M192.2,149.7l3.3-10.8h0.6l3.3,10.8H192.2z"/>
	<path class="st0" d="M224,144.9v-4.5c0-2.5-1.6-4.1-4.1-4.1h-9.1c-0.5,0-1,0.4-1,1v19.2c0,0.5,0.4,1,1,1h0.6c0.5,0,1-0.4,1-1V149
		h5.3l3.4,7.8c0.2,0.4,0.5,0.6,0.9,0.6h0.7c0.3,0,0.6-0.2,0.8-0.4c0.2-0.3,0.2-0.6,0.1-0.9l-3.1-7.1
		C222.8,148.7,224,147.2,224,144.9z M221.4,144.9c0,1-0.4,1.5-1.5,1.5h-7.5v-7.5h7.5c1,0,1.5,0.4,1.5,1.5V144.9z"/>
	<path class="st0" d="M232.1,136.3h-0.6c-0.5,0-1,0.4-1,1v19.2c0,0.5,0.4,1,1,1h0.6c0.5,0,1-0.4,1-1v-3.9l4.4-5.7l5.4,10.1
		c0.2,0.3,0.5,0.5,0.9,0.5h0.7c0.3,0,0.7-0.2,0.8-0.5c0.2-0.3,0.2-0.7,0-1l-6.1-11.4l5.1-6.7c0.2-0.3,0.3-0.7,0.1-1
		s-0.5-0.5-0.9-0.5h-0.7c-0.3,0-0.6,0.1-0.8,0.4l-9,11.7v-11.1C233.1,136.8,232.6,136.3,232.1,136.3z"/>
	<path class="st0" d="M263.6,138.9c0.5,0,1-0.4,1-1v-0.6c0-0.5-0.4-1-1-1h-11c-0.5,0-1,0.4-1,1v19.2c0,0.5,0.4,1,1,1h11
		c0.5,0,1-0.4,1-1v-0.6c0-0.5-0.4-1-1-1h-9.4V148h7.4c0.5,0,1-0.4,1-1v-0.6c0-0.5-0.4-1-1-1h-7.4V139L263.6,138.9L263.6,138.9z"/>
	<path class="st0" d="M275.8,157.4h0.6c0.5,0,1-0.4,1-1v-17.6h5c0.5,0,1-0.4,1-1v-0.6c0-0.5-0.4-1-1-1h-12.6c-0.5,0-1,0.4-1,1v0.6
		c0,0.5,0.4,1,1,1h5v17.6C274.8,157,275.2,157.4,275.8,157.4z"/>
</g>
</svg>
