<?xml version="1.0" encoding="utf-8"?>
<!-- Generator: Adobe Illustrator 22.1.0, SVG Export Plug-In . SVG Version: 6.00 Build 0)  -->
<!DOCTYPE svg PUBLIC "-//W3C//DTD SVG 1.1//EN" "http://www.w3.org/Graphics/SVG/1.1/DTD/svg11.dtd">
<svg version="1.1" id="Layer_1" xmlns="http://www.w3.org/2000/svg" xmlns:xlink="http://www.w3.org/1999/xlink" x="0px" y="0px"
	 viewBox="0 0 686.8 206.1" style="enable-background:new 0 0 686.8 206.1;" xml:space="preserve">
<style type="text/css">
	.st0{fill:#FFFFFF;}
</style>
<g>
	<path class="st0" d="M176.8,69.1c-1.7-2.5-4.2-3.7-7.4-3.7c-1,0-2,0.1-3,0.4c-1,0.3-1.9,0.7-2.6,1.2c-0.8,0.6-1.4,1.3-1.9,2.2
		c-0.5,0.9-0.7,1.9-0.7,3.1c0,1.7,0.5,3.1,1.5,4c1,1,2.2,1.7,3.6,2.4c1.4,0.6,3,1.2,4.7,1.7c1.7,0.5,3.3,1.1,4.7,1.9
		c1.4,0.8,2.7,1.9,3.6,3.2c1,1.3,1.5,3.2,1.5,5.5c0,1.7-0.4,3.3-1.1,4.7c-0.7,1.4-1.7,2.6-2.9,3.5c-1.2,0.9-2.6,1.7-4.1,2.2
		c-1.5,0.5-3,0.8-4.5,0.8c-2.3,0-4.6-0.4-6.7-1.3c-2.1-0.9-3.9-2.3-5.4-4.4l3.6-2.5c0.8,1.4,2,2.5,3.5,3.4c1.5,0.8,3.2,1.3,5.2,1.3
		c1,0,1.9-0.2,2.9-0.5c1-0.3,1.8-0.8,2.6-1.4c0.8-0.6,1.4-1.3,1.9-2.2c0.5-0.9,0.8-1.9,0.8-3c0-1.3-0.3-2.4-0.8-3.3
		c-0.6-0.9-1.3-1.6-2.2-2.2s-2-1.1-3.1-1.5c-1.2-0.4-2.4-0.8-3.6-1.2c-1.2-0.4-2.5-0.8-3.6-1.4c-1.2-0.5-2.2-1.1-3.1-1.9
		c-0.9-0.8-1.7-1.8-2.2-2.9c-0.6-1.2-0.8-2.6-0.8-4.4c0-1.8,0.4-3.4,1.1-4.8c0.7-1.4,1.6-2.5,2.8-3.4c1.2-0.9,2.5-1.6,4-2
		c1.5-0.4,3-0.6,4.5-0.6c2.2,0,4.1,0.3,5.9,1c1.8,0.7,3.4,1.9,4.9,3.6L176.8,69.1z"/>
	<path class="st0" d="M188.1,101.1h-4.5l16.7-38.3h3.8l16.7,38.3h-4.5l-4.2-10.1h-19.6L188.1,101.1z M193.8,87.5h16.6l-8.3-20.1
		L193.8,87.5z"/>
	<path class="st0" d="M229.8,101.1h-3.9V62.8h3.9V101.1z"/>
	<path class="st0" d="M267.9,95.3h0.1V62.8h3.9v38.3H267l-22.8-32.8H244v32.8h-3.9V62.8h4.9L267.9,95.3z"/>
	<path class="st0" d="M294.6,101.1h-3.9V66.4h-12.8v-3.6h29.6v3.6h-12.8V101.1z"/>
	<path class="st0" d="M327.8,93.3c0.4,1.6,1,2.9,2,3.8c1,0.9,2.3,1.4,4.1,1.4c1.4,0,2.6-0.3,3.5-0.8s1.6-1.3,2.1-2.2
		c0.5-0.9,0.8-1.9,1-3c0.2-1.1,0.3-2.3,0.3-3.5V62.8h3.9v27.8c0,1.3-0.2,2.6-0.5,4c-0.3,1.4-0.9,2.6-1.8,3.7c-0.8,1.1-2,2-3.3,2.7
		c-1.4,0.7-3.1,1.1-5.1,1.1c-2.6,0-4.8-0.7-6.6-2c-1.8-1.4-2.9-3.3-3.3-6L327.8,93.3z"/>
	<path class="st0" d="M391.8,82c0,2.9-0.5,5.6-1.5,8.1c-1,2.5-2.4,4.6-4.2,6.4c-1.8,1.8-3.9,3.2-6.3,4.2c-2.4,1-5.1,1.5-7.9,1.5
		c-2.9,0-5.5-0.5-7.9-1.5c-2.4-1-4.5-2.4-6.3-4.2c-1.8-1.8-3.2-3.9-4.2-6.4c-1-2.5-1.5-5.1-1.5-8.1s0.5-5.6,1.5-8.1
		c1-2.5,2.4-4.6,4.2-6.4s3.9-3.2,6.3-4.2c2.4-1,5.1-1.5,7.9-1.5c2.9,0,5.5,0.5,7.9,1.5c2.4,1,4.5,2.4,6.3,4.2s3.2,3.9,4.2,6.4
		C391.3,76.4,391.8,79.1,391.8,82z M387.6,82c0-2.2-0.4-4.3-1.1-6.3c-0.7-2-1.8-3.8-3.1-5.3c-1.4-1.5-3-2.7-5-3.6
		c-1.9-0.9-4.2-1.4-6.6-1.4c-2.5,0-4.7,0.5-6.6,1.4c-1.9,0.9-3.6,2.1-5,3.6c-1.4,1.5-2.4,3.3-3.1,5.3c-0.7,2-1.1,4.1-1.1,6.3
		c0,2.2,0.4,4.3,1.1,6.3c0.7,2,1.8,3.8,3.1,5.3c1.4,1.5,3,2.7,5,3.6c1.9,0.9,4.1,1.4,6.6,1.4c2.5,0,4.7-0.5,6.6-1.4
		c1.9-0.9,3.6-2.1,5-3.6c1.4-1.5,2.4-3.3,3.1-5.3C387.3,86.3,387.6,84.2,387.6,82z"/>
	<path class="st0" d="M399.6,62.8h3.9v16.6h20.9V62.8h3.9v38.3h-3.9V83h-20.9v18.1h-3.9V62.8z"/>
	<path class="st0" d="M466.4,95.3h0.1V62.8h3.9v38.3h-4.9l-22.8-32.8h-0.1v32.8h-3.9V62.8h4.9L466.4,95.3z"/>
</g>
<g>
	<path class="st0" d="M157.7,118.1h6.8v32.2h16.3v6.2h-23.1V118.1z"/>
	<path class="st0" d="M216.5,142.4c0,2.3-0.4,4.4-1.2,6.3c-0.8,1.9-1.9,3.4-3.2,4.7c-1.4,1.3-3,2.3-4.9,3c-1.9,0.7-3.9,1.1-6.1,1.1
		c-2.2,0-4.2-0.4-6.1-1.1c-1.9-0.7-3.5-1.7-4.9-3c-1.4-1.3-2.5-2.9-3.2-4.7c-0.8-1.9-1.2-3.9-1.2-6.3v-24.3h6.8v24
		c0,0.9,0.1,1.9,0.4,3c0.3,1,0.8,2,1.4,2.8c0.7,0.9,1.6,1.6,2.7,2.1c1.1,0.6,2.5,0.8,4.1,0.8s3-0.3,4.1-0.8c1.1-0.6,2-1.3,2.7-2.1
		c0.7-0.9,1.1-1.8,1.4-2.8c0.3-1,0.4-2,0.4-3v-24h6.8V142.4z"/>
	<path class="st0" d="M232.7,124.3H221v-6.2h30.3v6.2h-11.7v32.2h-6.8V124.3z"/>
	<path class="st0" d="M256,118.1h6.8v15.3h17.9v-15.3h6.8v38.3h-6.8v-16.9h-17.9v16.9H256V118.1z"/>
	<path class="st0" d="M296.1,118.1h25.4v6.2h-18.6v9.4h17.6v6.2h-17.6v10.4h19.5v6.2h-26.4V118.1z"/>
	<path class="st0" d="M329.1,118.1h13.3c1.8,0,3.6,0.2,5.3,0.5c1.7,0.3,3.2,0.9,4.6,1.8c1.3,0.8,2.4,1.9,3.2,3.4
		c0.8,1.4,1.2,3.2,1.2,5.4c0,2.8-0.8,5.1-2.3,7c-1.5,1.9-3.7,3-6.6,3.4l10.2,16.9h-8.2l-8.9-16.2h-5v16.2h-6.8V118.1z M341.3,134.4
		c1,0,1.9,0,2.9-0.1c1-0.1,1.9-0.3,2.7-0.6c0.8-0.3,1.5-0.9,2-1.6c0.5-0.7,0.8-1.7,0.8-3c0-1.1-0.2-2-0.7-2.7
		c-0.5-0.7-1.1-1.2-1.8-1.5c-0.8-0.3-1.6-0.6-2.5-0.7c-0.9-0.1-1.8-0.2-2.7-0.2H336v10.4H341.3z"/>
	<path class="st0" d="M375.7,118.1h5.9l16.5,38.3h-7.8l-3.6-8.8h-16.6l-3.5,8.8H359L375.7,118.1z M384.3,141.9l-5.9-15.6l-6,15.6
		H384.3z"/>
	<path class="st0" d="M402.3,118.1h9l18.6,28.5h0.1v-28.5h6.8v38.3h-8.7l-18.9-29.4h-0.1v29.4h-6.8V118.1z"/>
	<path class="st0" d="M487.8,127.1c-1.4-1.5-2.8-2.5-4.1-3c-1.3-0.5-2.6-0.8-4-0.8c-2,0-3.8,0.4-5.4,1.1c-1.6,0.7-3,1.7-4.1,2.9
		c-1.2,1.2-2,2.7-2.7,4.4c-0.6,1.7-0.9,3.4-0.9,5.4c0,2.1,0.3,4,0.9,5.7c0.6,1.7,1.5,3.2,2.7,4.5c1.2,1.3,2.5,2.3,4.1,3
		c1.6,0.7,3.4,1.1,5.4,1.1c1.6,0,3.1-0.4,4.5-1.1c1.5-0.7,2.8-1.9,4.1-3.5l5.6,4c-1.7,2.4-3.8,4.1-6.3,5.2c-2.5,1.1-5.1,1.6-8,1.6
		c-3,0-5.7-0.5-8.1-1.4c-2.5-1-4.6-2.3-6.4-4.1c-1.8-1.8-3.2-3.9-4.2-6.3c-1-2.5-1.5-5.2-1.5-8.2c0-3.1,0.5-5.9,1.5-8.4
		c1-2.5,2.4-4.6,4.2-6.4c1.8-1.8,3.9-3.1,6.4-4.1c2.5-1,5.2-1.4,8.1-1.4c2.6,0,5,0.5,7.2,1.4c2.2,0.9,4.3,2.5,6.2,4.7L487.8,127.1z"
		/>
	<path class="st0" d="M498.5,118.1h6.8v15.3h17.9v-15.3h6.8v38.3h-6.8v-16.9h-17.9v16.9h-6.8V118.1z"/>
	<path class="st0" d="M569.4,142.4c0,2.3-0.4,4.4-1.2,6.3c-0.8,1.9-1.9,3.4-3.2,4.7c-1.4,1.3-3,2.3-4.9,3c-1.9,0.7-3.9,1.1-6.1,1.1
		c-2.2,0-4.2-0.4-6.1-1.1c-1.9-0.7-3.5-1.7-4.9-3c-1.4-1.3-2.5-2.9-3.2-4.7c-0.8-1.9-1.2-3.9-1.2-6.3v-24.3h6.8v24
		c0,0.9,0.1,1.9,0.4,3c0.3,1,0.8,2,1.4,2.8c0.7,0.9,1.6,1.6,2.7,2.1c1.1,0.6,2.5,0.8,4.1,0.8c1.6,0,3-0.3,4.1-0.8
		c1.1-0.6,2-1.3,2.7-2.1s1.1-1.8,1.4-2.8s0.4-2,0.4-3v-24h6.8V142.4z"/>
	<path class="st0" d="M577.7,118.1h13.3c1.8,0,3.6,0.2,5.3,0.5s3.2,0.9,4.6,1.8c1.3,0.8,2.4,1.9,3.2,3.4c0.8,1.4,1.2,3.2,1.2,5.4
		c0,2.8-0.8,5.1-2.3,7c-1.5,1.9-3.7,3-6.6,3.4l10.2,16.9h-8.2l-8.9-16.2h-5v16.2h-6.8V118.1z M589.9,134.4c1,0,1.9,0,2.9-0.1
		c1-0.1,1.9-0.3,2.7-0.6c0.8-0.3,1.5-0.9,2-1.6c0.5-0.7,0.8-1.7,0.8-3c0-1.1-0.2-2-0.7-2.7c-0.5-0.7-1.1-1.2-1.8-1.5
		c-0.8-0.3-1.6-0.6-2.5-0.7c-0.9-0.1-1.8-0.2-2.7-0.2h-5.9v10.4H589.9z"/>
	<path class="st0" d="M638.2,127.1c-1.4-1.5-2.8-2.5-4.1-3c-1.3-0.5-2.6-0.8-4-0.8c-2,0-3.8,0.4-5.4,1.1c-1.6,0.7-3,1.7-4.1,2.9
		c-1.2,1.2-2,2.7-2.7,4.4c-0.6,1.7-0.9,3.4-0.9,5.4c0,2.1,0.3,4,0.9,5.7c0.6,1.7,1.5,3.2,2.7,4.5c1.2,1.3,2.5,2.3,4.1,3
		c1.6,0.7,3.4,1.1,5.4,1.1c1.6,0,3.1-0.4,4.5-1.1c1.5-0.7,2.8-1.9,4.1-3.5l5.6,4c-1.7,2.4-3.8,4.1-6.3,5.2c-2.5,1.1-5.1,1.6-8,1.6
		c-3,0-5.7-0.5-8.1-1.4c-2.5-1-4.6-2.3-6.4-4.1c-1.8-1.8-3.2-3.9-4.2-6.3c-1-2.5-1.5-5.2-1.5-8.2c0-3.1,0.5-5.9,1.5-8.4
		c1-2.5,2.4-4.6,4.2-6.4c1.8-1.8,3.9-3.1,6.4-4.1c2.5-1,5.2-1.4,8.1-1.4c2.6,0,5,0.5,7.2,1.4c2.2,0.9,4.3,2.5,6.2,4.7L638.2,127.1z"
		/>
	<path class="st0" d="M648.9,118.1h6.8v15.3h17.9v-15.3h6.8v38.3h-6.8v-16.9h-17.9v16.9h-6.8V118.1z"/>
</g>
<g>
	<path class="st0" d="M131.6,44.5l-16.3,0c-27.7,0-38.7,12.8-48.4,24c-9.2,10.7-17.2,19.9-39.6,19.9l-9,0v-32h8
		c9.4-0.3,7.4-4.2,8.1-12H11.1c-2.6,0-4.7,2.1-4.7,4.7v46.5c0,2.6,2.1,4.7,4.7,4.7l16.3,0c27.9,0,38.9-12.8,48.6-24.1
		c9.2-10.7,17.1-19.9,39.4-19.9l9,0v32h-8c-9.4,0.3-7.4,4.2-8.1,12h23.3c2.6,0,4.7-2.1,4.7-4.7V49.1
		C136.3,46.6,134.2,44.5,131.6,44.5z"/>
	<path class="st0" d="M27.6,78.1c15.3,0,27.7-12.4,27.7-27.7V19.3h32.2v21.5c3.5-1.6,7.4-2.9,12-3.8V12c0-2.6-2.1-4.7-4.7-4.7H48
		c-2.6,0-4.7,2.1-4.7,4.7v38.4c0,8.7-7.1,15.7-15.7,15.7V78.1z"/>
	<path class="st0" d="M77.3,47.1V28.2h-12v31C68.9,55.1,72.6,50.9,77.3,47.1z"/>
	<g>
		<path class="st0" d="M87.5,94.4v28.8h0v14.2v19.5V183v4.3h-4.3H59.6h-4.3V183v-25.9v-19.5v-14.2h0V104c-3.5,1.6-7.4,2.9-12,3.8
			v15.7v9.4v54.5v7.7c0,2.4,1.9,4.3,4.3,4.3h7.7h32.2h7.7c2.4,0,4.3-1.9,4.3-4.3v-7.7v-54.5v-9.4v-29c0-8.7,7.1-15.7,15.7-15.7v-12
			C99.9,66.7,87.5,79.2,87.5,94.4z"/>
	</g>
	<path class="st0" d="M77.4,85.6c-3.5,4.1-7.3,8.3-12,12.1v11.6v7.3V178h11.9v-61.4h0.1V85.6z"/>
</g>
</svg>
