<?xml version="1.0" encoding="UTF-8"?>
<svg id="Layer_1" xmlns="http://www.w3.org/2000/svg" version="1.1" viewBox="0 0 827.1 1033.9">
  <!-- Generator: Adobe Illustrator 29.3.0, SVG Export Plug-In . SVG Version: 2.1.0 Build 146)  -->
  <defs>
    <style>
      .st0 {
        fill: #645dd7;
      }

      .st1 {
        fill: #fff;
      }

      .st2 {
        fill: #373f51;
      }

      .st3 {
        fill: #9797fc;
      }
    </style>
  </defs>
  <rect class="st2" x="48.1" y="503.1" width="730.3" height="480.9"/>
  <g>
    <path class="st2" d="M387,101.1l-12.3,29h26.8c-4.5-9.7-7.8-20.7-14.5-29Z"/>
    <rect class="st2" x="407.1" y="66.5" width="29" height=".1"/>
    <path class="st2" d="M401.8,79.9h-.3c0,.1,0,.2,0,.4l-7.4,7.4,28.8,28.8,28.6-28.6-15.3-15.3v-5.9s-29,0-29,0v8s-5.3,5.3-5.3,5.3Z"/>
    <polygon class="st2" points="455.6 101 441.7 130 469.5 130 455.6 101"/>
    <polygon class="st2" points="440.5 169.1 476.8 169.1 487.4 147.9 451.1 147.9 440.5 169.1"/>
    <rect class="st2" x="475.1" y="66.5" width="29" height=".1"/>
    <polygon class="st2" points="461.5 87.6 491.8 117.9 521.8 87.8 504.1 70.1 504.1 66.6 475.1 66.6 475.1 74 461.5 87.6"/>
    <path class="st2" d="M525.3,243.8h-22.3l16.7,36.8h-78.1l-8.9-21.7,13.9-28.5h21.7l-12.3,29h30.1l-6.7-16.6h-.3c0,0,22.4-1.5,22.4-1.5h0s-19.4-40.6-19.4-40.6v-15.9h-35.3l-7.1-14.5-24,52.4h-23.4l40.6,87.7h74.3c11.7,0,21.3-9.5,21.3-21.3V109.3l-32.3,69.5,28.8,65Z"/>
    <rect class="st2" x="340.2" y="66.5" width="29" height=".1"/>
    <polygon class="st2" points="322.7 87 353 117.3 383 87.2 369.2 73.4 369.2 66.6 340.2 66.6 340.2 69.5 322.7 87"/>
    <path class="st2" d="M357.5,147.9l-70.3,150.1c3,6.5,9.2,11.2,16.6,12.1l75.4-162.2h-21.7Z"/>
    <path class="st2" d="M295.8,69.5c-6.4,3.7-10.7,10.5-10.7,18.4v161.6l47.2-101.2-36.5-78.9Z"/>
    <polygon class="st2" points="330.6 310 406.9 147.8 428.7 147.8 354.8 310.2 330.6 310"/>
  </g>
  <g>
    <path class="st2" d="M212.2,403.5v14.7c0,17.7-8.9,27.9-26,27.9s-26-10.1-26-27.9v-57.6c0-17.7,8.9-27.9,26-27.9s26,10.1,26,27.9v10.8h-16.5v-11.9c0-7.9-3.5-10.9-9-10.9s-9,3-9,10.9v59.8c0,7.9,3.5,10.8,9,10.8s9-2.8,9-10.8v-15.8h16.5Z"/>
    <path class="st2" d="M279.2,444.8h-17.6l-3-20.1h-21.4l-3,20.1h-16l17.7-110.8h25.5l17.7,110.8ZM239.4,409.7h16.8l-8.4-56-8.4,56Z"/>
    <path class="st2" d="M323.6,444.8c-.9-2.8-1.6-4.6-1.6-13.6v-17.4c0-10.3-3.5-14.1-11.4-14.1h-6v45.1h-17.4v-110.8h26.3c18,0,25.8,8.4,25.8,25.5v8.7c0,11.4-3.6,18.8-11.4,22.5,8.7,3.6,11.6,12,11.6,23.6v17.1c0,5.4.2,9.3,1.9,13.5h-17.7ZM304.7,349.8v34h6.8c6.5,0,10.4-2.8,10.4-11.7v-10.9c0-7.9-2.7-11.4-8.9-11.4h-8.4Z"/>
    <path class="st2" d="M350.9,334h27.5c17.4,0,26,9.7,26,27.4v56c0,17.7-8.5,27.4-26,27.4h-27.5v-110.8ZM368.3,349.8v79.2h9.8c5.5,0,8.9-2.8,8.9-10.8v-57.6c0-7.9-3.3-10.8-8.9-10.8h-9.8Z"/>
    <path class="st0" d="M462.8,400.7l-5.4,10.1v34h-17.4v-110.8h17.4v48.3l22.8-48.3h17.4l-24.2,49.4,24.2,61.4h-17.9l-16.9-44.2Z"/>
    <path class="st0" d="M505.6,334h17.4v110.8h-17.4v-110.8Z"/>
    <path class="st0" d="M551.1,364.6v80.3h-15.7v-110.8h21.8l17.9,66.3v-66.3h15.5v110.8h-17.9l-21.7-80.3Z"/>
    <path class="st0" d="M629.4,383.1h24.4v35.1c0,17.7-8.9,27.9-26,27.9s-26-10.1-26-27.9v-57.6c0-17.7,8.9-27.9,26-27.9s26,10.1,26,27.9v10.8h-16.5v-11.9c0-7.9-3.5-10.9-9-10.9s-9,3-9,10.9v59.8c0,7.9,3.5,10.8,9,10.8s9-2.8,9-10.8v-20.4h-7.9v-15.8Z"/>
  </g>
  <g>
    <path class="st1" d="M387,590.9l-12.3,29h26.8c-4.5-9.7-7.8-20.7-14.5-29Z"/>
    <rect class="st1" x="407.1" y="556.3" width="29" height=".1"/>
    <path class="st1" d="M401.8,569.7h-.3c0,.1,0,.2,0,.4l-7.4,7.4,28.8,28.8,28.6-28.6-15.3-15.3v-5.9s-29,0-29,0v8s-5.3,5.3-5.3,5.3Z"/>
    <polygon class="st1" points="455.6 590.9 441.7 619.9 469.5 619.9 455.6 590.9"/>
    <polygon class="st1" points="440.5 658.9 476.8 658.9 487.4 637.7 451.1 637.7 440.5 658.9"/>
    <rect class="st1" x="475.1" y="556.3" width="29" height=".1"/>
    <polygon class="st1" points="461.5 577.4 491.8 607.7 521.8 577.7 504.1 560 504.1 556.5 475.1 556.5 475.1 563.9 461.5 577.4"/>
    <path class="st1" d="M525.3,733.6h-22.3l16.7,36.8h-78.1l-8.9-21.7,13.9-28.5h21.7l-12.3,29h30.1l-6.7-16.6h-.3c0,0,22.4-1.5,22.4-1.5h0s-19.4-40.6-19.4-40.6v-15.9h-35.3l-7.1-14.5-24,52.4h-23.4l40.6,87.7h74.3c11.7,0,21.3-9.5,21.3-21.3v-179.7l-32.3,69.5,28.8,65Z"/>
    <rect class="st1" x="340.2" y="556.3" width="29" height=".1"/>
    <polygon class="st1" points="322.7 576.8 353 607.1 383 577.1 369.2 563.2 369.2 556.5 340.2 556.5 340.2 559.4 322.7 576.8"/>
    <path class="st1" d="M357.5,637.7l-70.3,150.1c3,6.5,9.2,11.2,16.6,12.1l75.4-162.2h-21.7Z"/>
    <path class="st1" d="M295.8,559.3c-6.4,3.7-10.7,10.5-10.7,18.4v161.6l47.2-101.2-36.5-78.9Z"/>
    <polygon class="st1" points="330.6 799.9 406.9 637.7 428.7 637.7 354.8 800 330.6 799.9"/>
  </g>
  <g>
    <path class="st1" d="M212.2,893.4v14.7c0,17.7-8.9,27.9-26,27.9s-26-10.1-26-27.9v-57.6c0-17.7,8.9-27.9,26-27.9s26,10.1,26,27.9v10.8h-16.5v-11.9c0-7.9-3.5-10.9-9-10.9s-9,3-9,10.9v59.8c0,7.9,3.5,10.8,9,10.8s9-2.8,9-10.8v-15.8h16.5Z"/>
    <path class="st1" d="M279.2,934.7h-17.6l-3-20.1h-21.4l-3,20.1h-16l17.7-110.8h25.5l17.7,110.8ZM239.4,899.5h16.8l-8.4-56-8.4,56Z"/>
    <path class="st1" d="M323.6,934.7c-.9-2.8-1.6-4.6-1.6-13.6v-17.4c0-10.3-3.5-14.1-11.4-14.1h-6v45.1h-17.4v-110.8h26.3c18,0,25.8,8.4,25.8,25.5v8.7c0,11.4-3.6,18.8-11.4,22.5,8.7,3.6,11.6,12,11.6,23.6v17.1c0,5.4.2,9.3,1.9,13.5h-17.7ZM304.7,839.7v34h6.8c6.5,0,10.4-2.8,10.4-11.7v-10.9c0-7.9-2.7-11.4-8.9-11.4h-8.4Z"/>
    <path class="st1" d="M350.9,823.9h27.5c17.4,0,26,9.7,26,27.4v56c0,17.7-8.5,27.4-26,27.4h-27.5v-110.8ZM368.3,839.7v79.2h9.8c5.5,0,8.9-2.8,8.9-10.8v-57.6c0-7.9-3.3-10.8-8.9-10.8h-9.8Z"/>
    <path class="st3" d="M462.8,890.5l-5.4,10.1v34h-17.4v-110.8h17.4v48.3l22.8-48.3h17.4l-24.2,49.4,24.2,61.4h-17.9l-16.9-44.2Z"/>
    <path class="st3" d="M505.6,823.9h17.4v110.8h-17.4v-110.8Z"/>
    <path class="st3" d="M551.1,854.4v80.3h-15.7v-110.8h21.8l17.9,66.3v-66.3h15.5v110.8h-17.9l-21.7-80.3Z"/>
    <path class="st3" d="M629.4,872.9h24.4v35.1c0,17.7-8.9,27.9-26,27.9s-26-10.1-26-27.9v-57.6c0-17.7,8.9-27.9,26-27.9s26,10.1,26,27.9v10.8h-16.5v-11.9c0-7.9-3.5-10.9-9-10.9s-9,3-9,10.9v59.8c0,7.9,3.5,10.8,9,10.8s9-2.8,9-10.8v-20.4h-7.9v-15.8Z"/>
  </g>
</svg>