<?xml version="1.0" encoding="UTF-8"?>
<svg id="Layer_1" xmlns="http://www.w3.org/2000/svg" xmlns:xlink="http://www.w3.org/1999/xlink" version="1.1" viewBox="0 0 827.1 1033.9">
  <!-- Generator: Adobe Illustrator 29.3.0, SVG Export Plug-In . SVG Version: 2.1.0 Build 146)  -->
  <defs>
    <style>
      .st0 {
        fill: url(#linear-gradient1);
      }

      .st1 {
        fill: url(#linear-gradient);
      }

      .st2 {
        fill: url(#New_Gradient_Swatch_copy_72);
      }

      .st3 {
        fill: url(#New_Gradient_Swatch_copy_71);
      }

      .st4 {
        fill: url(#New_Gradient_Swatch_copy_7);
      }

      .st5 {
        fill: #fff;
      }

      .st6 {
        fill: #1ba0b4;
      }
    </style>
    <linearGradient id="linear-gradient" x1="275.7" y1="200.2" x2="412.9" y2="200.2" gradientUnits="userSpaceOnUse">
      <stop offset="0" stop-color="#066ab4"/>
      <stop offset=".2" stop-color="#056eb4"/>
      <stop offset=".4" stop-color="#047cb4"/>
      <stop offset=".7" stop-color="#0293b4"/>
      <stop offset="1" stop-color="#00b4b4"/>
      <stop offset="1" stop-color="#00b8b5"/>
    </linearGradient>
    <linearGradient id="New_Gradient_Swatch_copy_7" data-name="New Gradient Swatch copy 7" x1="245.9" y1="170.4" x2="506.6" y2="170.4" gradientUnits="userSpaceOnUse">
      <stop offset="0" stop-color="#066ab4"/>
      <stop offset=".5" stop-color="#038ab4"/>
      <stop offset="1" stop-color="#00b8b5"/>
    </linearGradient>
    <linearGradient id="New_Gradient_Swatch_copy_71" data-name="New Gradient Swatch copy 7" x1="275.7" y1="121.7" x2="275.7" y2="121.7" xlink:href="#New_Gradient_Swatch_copy_7"/>
    <linearGradient id="New_Gradient_Swatch_copy_72" data-name="New Gradient Swatch copy 7" x1="322.5" y1="218.3" x2="250.8" y2="146.6" xlink:href="#New_Gradient_Swatch_copy_7"/>
    <linearGradient id="linear-gradient1" x1="43.6" y1="749.4" x2="784.4" y2="749.4" gradientUnits="userSpaceOnUse">
      <stop offset="0" stop-color="#066ab4"/>
      <stop offset=".5" stop-color="#038ab4"/>
      <stop offset="1" stop-color="#00b8b5"/>
    </linearGradient>
  </defs>
  <path class="st1" d="M332.1,219.8c-7.1-2.3-9.9-6-9.6-13.7.6-19.7.4-39.4,0-59.1,0-3.2-2.5-8.1-5.1-9.2-13.2-5.7-26.9-10.4-41.7-16v125.7c27.1,9.8,54.2,19.9,81.6,29.3,5.5,1.9,11.7,2,17.6,2,22.1-.1,37.1-15.3,38-35.1l-44-11c-12.6-2.8-24.4-8.8-36.8-12.8Z"/>
  <path class="st4" d="M433.7,309.4c38.1-42.7,30.1-88.4,9.4-133.7-15.2-33.3-42.9-54.5-76.7-67.6-36.4-14.1-72.8-27.9-109.2-41.9-3.4-1.3-6.7-2.8-11.3-4.8,14-10.2,26.7-19.8,39.9-28.7,2.4-1.7,7.2-1.6,10.2-.5,38.2,14.3,76.8,28,114.4,43.8,78.5,33.1,103.1,107.6,94.6,168.7-5.4,38.5-34.9,65-71.3,64.7Z"/>
  <path class="st3" d="M275.7,121.7"/>
  <path class="st2" d="M322.5,206.1c.6-19.7.4-39.4,0-59.1,0-3.2-2.5-8.1-5.1-9.2-13.2-5.7-26.9-10.4-41.7-16v125.7l49.4-31.7c-2-2.3-2.8-5.3-2.6-9.6Z"/>
  <g>
    <path class="st6" d="M193,344.6v66.4h-4.4v-11c-1.8,3.6-4.4,6.4-7.8,8.4-3.3,2-7.1,3-11.4,3s-8.3-1-11.8-3c-3.5-2-6.3-4.8-8.3-8.4-2-3.6-3-7.7-3-12.3s1-8.7,3-12.3c2-3.6,4.8-6.4,8.3-8.4,3.5-2,7.5-3,11.8-3s7.9,1,11.2,3c3.3,2,5.9,4.7,7.8,8.2v-30.5h4.5ZM179.4,404.8c2.8-1.7,5.1-4,6.7-7,1.6-3,2.5-6.4,2.5-10.2s-.8-7.2-2.5-10.2c-1.6-3-3.9-5.3-6.7-7-2.8-1.7-6-2.5-9.6-2.5s-6.8.8-9.6,2.5c-2.8,1.7-5.1,4-6.7,7-1.6,3-2.5,6.4-2.5,10.2s.8,7.2,2.5,10.2c1.6,3,3.9,5.3,6.7,7,2.8,1.7,6,2.5,9.6,2.5s6.8-.8,9.6-2.5Z"/>
    <path class="st6" d="M218.2,408.3c-3.5-2-6.3-4.8-8.4-8.5-2-3.6-3-7.7-3-12.2s1-8.6,3-12.2c2-3.6,4.8-6.4,8.4-8.5,3.5-2,7.5-3,11.9-3s8.4,1,11.9,3c3.5,2,6.3,4.8,8.4,8.5,2,3.6,3,7.7,3,12.2s-1,8.6-3,12.2c-2,3.6-4.8,6.4-8.4,8.5-3.5,2-7.5,3-11.9,3s-8.4-1-11.9-3ZM239.7,404.8c2.8-1.7,5.1-4,6.7-7,1.6-3,2.5-6.4,2.5-10.2s-.8-7.2-2.5-10.2c-1.6-3-3.9-5.3-6.7-7-2.8-1.7-6-2.5-9.6-2.5s-6.8.8-9.6,2.5c-2.8,1.7-5.1,4-6.7,7-1.6,3-2.5,6.4-2.5,10.2s.8,7.2,2.5,10.2c1.6,3,3.9,5.3,6.7,7,2.8,1.7,6,2.5,9.6,2.5s6.8-.8,9.6-2.5Z"/>
    <path class="st6" d="M273.7,408.3c-3.6-2-6.4-4.8-8.4-8.5-2-3.6-3-7.7-3-12.2s1-8.7,3-12.3c2-3.6,4.8-6.4,8.4-8.4,3.6-2,7.6-3,12.2-3s7.2.7,10.2,2.2c3.1,1.5,5.6,3.6,7.5,6.4l-3.3,2.4c-1.7-2.3-3.7-4.1-6.2-5.2-2.5-1.2-5.2-1.7-8.2-1.7s-6.9.8-9.8,2.5c-2.9,1.6-5.2,4-6.8,6.9-1.6,3-2.5,6.4-2.5,10.3s.8,7.3,2.5,10.3c1.6,3,3.9,5.3,6.8,6.9,2.9,1.6,6.2,2.5,9.8,2.5s5.7-.6,8.2-1.7c2.5-1.2,4.5-2.9,6.2-5.2l3.3,2.4c-1.9,2.8-4.4,4.9-7.5,6.4-3.1,1.5-6.5,2.2-10.2,2.2s-8.6-1-12.2-3Z"/>
    <path class="st6" d="M340.7,408c-1.1,1.1-2.5,1.9-4.2,2.5-1.7.6-3.5.8-5.3.8-4.1,0-7.2-1.1-9.4-3.4-2.2-2.2-3.3-5.4-3.3-9.3v-30.5h-8.6v-3.8h8.6v-10.2h4.5v10.2h14.8v3.8h-14.8v30.1c0,3,.7,5.4,2.2,6.9,1.5,1.6,3.6,2.4,6.5,2.4s5.3-.9,7.2-2.6l1.9,3.1Z"/>
    <path class="st6" d="M357.7,408.3c-3.5-2-6.3-4.8-8.4-8.5-2-3.6-3-7.7-3-12.2s1-8.6,3-12.2c2-3.6,4.8-6.4,8.4-8.5,3.5-2,7.5-3,11.9-3s8.4,1,11.9,3c3.5,2,6.3,4.8,8.4,8.5,2,3.6,3,7.7,3,12.2s-1,8.6-3,12.2c-2,3.6-4.8,6.4-8.4,8.5-3.5,2-7.5,3-11.9,3s-8.4-1-11.9-3ZM379.3,404.8c2.8-1.7,5.1-4,6.7-7,1.6-3,2.5-6.4,2.5-10.2s-.8-7.2-2.5-10.2c-1.6-3-3.9-5.3-6.7-7-2.8-1.7-6-2.5-9.6-2.5s-6.8.8-9.6,2.5c-2.8,1.7-5.1,4-6.7,7-1.6,3-2.5,6.4-2.5,10.2s.8,7.2,2.5,10.2c1.6,3,3.9,5.3,6.7,7,2.8,1.7,6,2.5,9.6,2.5s6.8-.8,9.6-2.5Z"/>
    <path class="st6" d="M417.9,366.6c3-1.8,6.7-2.7,11.1-2.7v4.4h-1.1c-5.2,0-9.2,1.5-12.2,4.8-2.9,3.3-4.4,7.8-4.4,13.6v24.3h-4.5v-46.7h4.3v10.2c1.4-3.4,3.7-6,6.7-7.8Z"/>
    <path class="st6" d="M441.3,344.6h4.5v66.4h-4.5v-66.4Z"/>
    <path class="st6" d="M471,408.3c-3.5-2-6.3-4.8-8.4-8.5-2-3.6-3-7.7-3-12.2s1-8.6,3-12.2c2-3.6,4.8-6.4,8.4-8.5,3.5-2,7.5-3,11.9-3s8.4,1,11.9,3c3.5,2,6.3,4.8,8.4,8.5,2,3.6,3,7.7,3,12.2s-1,8.6-3,12.2c-2,3.6-4.8,6.4-8.4,8.5-3.5,2-7.5,3-11.9,3s-8.4-1-11.9-3ZM492.6,404.8c2.8-1.7,5.1-4,6.7-7,1.6-3,2.5-6.4,2.5-10.2s-.8-7.2-2.5-10.2c-1.6-3-3.9-5.3-6.7-7-2.8-1.7-6-2.5-9.6-2.5s-6.8.8-9.6,2.5c-2.8,1.7-5.1,4-6.7,7-1.6,3-2.5,6.4-2.5,10.2s.8,7.2,2.5,10.2c1.6,3,3.9,5.3,6.7,7,2.8,1.7,6,2.5,9.6,2.5s6.8-.8,9.6-2.5Z"/>
    <path class="st6" d="M562.2,364.2v41.7c0,7.8-1.9,13.5-5.6,17.2-3.8,3.7-9.4,5.5-17,5.5s-8.4-.7-12.2-2c-3.8-1.3-6.9-3.1-9.2-5.5l2.4-3.4c2.3,2.1,5.1,3.8,8.4,5,3.3,1.2,6.8,1.8,10.5,1.8,6.2,0,10.8-1.5,13.8-4.4,3-3,4.5-7.5,4.5-13.7v-7.9c-1.9,3.4-4.6,6-8,7.9s-7.2,2.8-11.5,2.8-8.3-1-11.9-2.9c-3.5-1.9-6.3-4.6-8.4-8.1-2-3.5-3-7.4-3-11.7s1-8.3,3-11.7c2-3.5,4.8-6.1,8.4-8.1,3.5-1.9,7.5-2.9,11.9-2.9s8.2,1,11.6,2.9c3.5,1.9,6.1,4.6,8,8.1v-10.6h4.3ZM548.5,402.8c2.9-1.6,5.2-3.8,6.8-6.6,1.6-2.8,2.5-6.1,2.5-9.7s-.8-6.9-2.5-9.7c-1.6-2.8-3.9-5-6.8-6.6-2.9-1.6-6.2-2.4-9.8-2.4s-6.9.8-9.8,2.4c-2.9,1.6-5.2,3.8-6.8,6.6-1.6,2.8-2.5,6-2.5,9.7s.8,6.9,2.5,9.7c1.6,2.8,3.9,5,6.8,6.6,2.9,1.6,6.2,2.4,9.8,2.4s6.9-.8,9.8-2.4Z"/>
    <path class="st6" d="M580.8,351.9c-.7-.7-1.1-1.5-1.1-2.5s.4-1.9,1.1-2.6,1.6-1.1,2.6-1.1,1.9.3,2.6,1c.7.7,1.1,1.5,1.1,2.5s-.4,1.9-1.1,2.6c-.7.7-1.6,1.1-2.6,1.1s-1.9-.3-2.6-1ZM581.2,364.2h4.5v46.7h-4.5v-46.7Z"/>
    <path class="st6" d="M610.9,408.3c-3.6-2-6.4-4.8-8.4-8.5-2-3.6-3-7.7-3-12.2s1-8.7,3-12.3c2-3.6,4.8-6.4,8.4-8.4,3.6-2,7.6-3,12.2-3s7.2.7,10.2,2.2c3.1,1.5,5.6,3.6,7.5,6.4l-3.3,2.4c-1.7-2.3-3.7-4.1-6.2-5.2-2.5-1.2-5.2-1.7-8.2-1.7s-6.9.8-9.8,2.5c-2.9,1.6-5.2,4-6.8,6.9-1.6,3-2.5,6.4-2.5,10.3s.8,7.3,2.5,10.3c1.6,3,3.9,5.3,6.8,6.9,2.9,1.6,6.2,2.5,9.8,2.5s5.7-.6,8.2-1.7c2.5-1.2,4.5-2.9,6.2-5.2l3.3,2.4c-1.9,2.8-4.4,4.9-7.5,6.4-3.1,1.5-6.5,2.2-10.2,2.2s-8.6-1-12.2-3Z"/>
  </g>
  <rect class="st0" x="43.6" y="495.9" width="740.8" height="507.1"/>
  <path class="st5" d="M308.8,651"/>
  <g>
    <path class="st5" d="M373.3,725.1c-6.1-2-8.6-5.2-8.4-11.9.5-17.1.4-34.2,0-51.3,0-2.8-2.1-7-4.4-8-11.5-4.9-23.3-9-36.2-13.9v109c23.5,8.5,47,17.2,70.7,25.4,4.7,1.6,10.2,1.7,15.3,1.7,19.2-.1,32.2-13.3,32.9-30.4l-38.1-9.5c-10.9-2.4-21.2-7.6-31.9-11.1Z"/>
    <path class="st5" d="M461.4,802.7c33-37.1,26.1-76.6,8.2-115.9-13.2-28.9-37.2-47.3-66.5-58.6-31.5-12.2-63.1-24.2-94.7-36.3-2.9-1.1-5.8-2.4-9.8-4.2,12.1-8.8,23.1-17.2,34.6-24.9,2.1-1.4,6.2-1.4,8.8-.4,33.2,12.4,66.6,24.3,99.2,38,68.1,28.7,89.4,93.3,82,146.2-4.6,33.4-30.2,56.3-61.8,56.1Z"/>
    <path class="st5" d="M364.9,713.2c.5-17.1.4-34.2,0-51.3,0-2.8-2.1-7-4.4-8-11.5-4.9-23.3-9-36.2-13.9v109l42.9-27.5c-1.7-2-2.4-4.6-2.3-8.3Z"/>
  </g>
  <g>
    <path class="st5" d="M213.8,843.6v66.4h-4.4v-11c-1.8,3.6-4.4,6.4-7.8,8.4-3.3,2-7.1,3-11.4,3s-8.3-1-11.8-3c-3.5-2-6.3-4.8-8.3-8.4-2-3.6-3-7.7-3-12.3s1-8.7,3-12.3c2-3.6,4.8-6.4,8.3-8.4,3.5-2,7.5-3,11.8-3s7.9,1,11.2,3c3.3,2,5.9,4.7,7.8,8.2v-30.5h4.5ZM200.2,903.8c2.8-1.7,5.1-4,6.7-7,1.6-3,2.5-6.4,2.5-10.2s-.8-7.2-2.5-10.2c-1.6-3-3.9-5.3-6.7-7-2.8-1.7-6-2.5-9.6-2.5s-6.8.8-9.6,2.5c-2.8,1.7-5.1,4-6.7,7-1.6,3-2.5,6.4-2.5,10.2s.8,7.2,2.5,10.2c1.6,3,3.9,5.3,6.7,7,2.8,1.7,6,2.5,9.6,2.5s6.8-.8,9.6-2.5Z"/>
    <path class="st5" d="M239,907.3c-3.5-2-6.3-4.8-8.4-8.5-2-3.6-3-7.7-3-12.2s1-8.6,3-12.2c2-3.6,4.8-6.4,8.4-8.5,3.5-2,7.5-3,11.9-3s8.4,1,11.9,3c3.5,2,6.3,4.8,8.4,8.5,2,3.6,3,7.7,3,12.2s-1,8.6-3,12.2c-2,3.6-4.8,6.4-8.4,8.5-3.5,2-7.5,3-11.9,3s-8.4-1-11.9-3ZM260.6,903.8c2.8-1.7,5.1-4,6.7-7,1.6-3,2.5-6.4,2.5-10.2s-.8-7.2-2.5-10.2c-1.6-3-3.9-5.3-6.7-7-2.8-1.7-6-2.5-9.6-2.5s-6.8.8-9.6,2.5c-2.8,1.7-5.1,4-6.7,7-1.6,3-2.5,6.4-2.5,10.2s.8,7.2,2.5,10.2c1.6,3,3.9,5.3,6.7,7,2.8,1.7,6,2.5,9.6,2.5s6.8-.8,9.6-2.5Z"/>
    <path class="st5" d="M294.5,907.3c-3.6-2-6.4-4.8-8.4-8.5-2-3.6-3-7.7-3-12.2s1-8.7,3-12.3c2-3.6,4.8-6.4,8.4-8.4,3.6-2,7.6-3,12.2-3s7.2.7,10.2,2.2c3.1,1.5,5.6,3.6,7.5,6.4l-3.3,2.4c-1.7-2.3-3.7-4.1-6.2-5.2-2.5-1.2-5.2-1.7-8.2-1.7s-6.9.8-9.8,2.5c-2.9,1.6-5.2,4-6.8,6.9-1.6,3-2.5,6.4-2.5,10.3s.8,7.3,2.5,10.3c1.6,3,3.9,5.3,6.8,6.9,2.9,1.6,6.2,2.5,9.8,2.5s5.7-.6,8.2-1.7c2.5-1.2,4.5-2.9,6.2-5.2l3.3,2.4c-1.9,2.8-4.4,4.9-7.5,6.4-3.1,1.5-6.5,2.2-10.2,2.2s-8.6-1-12.2-3Z"/>
    <path class="st5" d="M361.5,907c-1.1,1.1-2.5,1.9-4.2,2.5-1.7.6-3.5.8-5.3.8-4.1,0-7.2-1.1-9.4-3.4-2.2-2.2-3.3-5.4-3.3-9.3v-30.5h-8.6v-3.8h8.6v-10.2h4.5v10.2h14.8v3.8h-14.8v30.1c0,3,.7,5.4,2.2,6.9,1.5,1.6,3.6,2.4,6.5,2.4s5.3-.9,7.2-2.6l1.9,3.1Z"/>
    <path class="st5" d="M378.5,907.3c-3.5-2-6.3-4.8-8.4-8.5-2-3.6-3-7.7-3-12.2s1-8.6,3-12.2c2-3.6,4.8-6.4,8.4-8.5,3.5-2,7.5-3,11.9-3s8.4,1,11.9,3c3.5,2,6.3,4.8,8.4,8.5,2,3.6,3,7.7,3,12.2s-1,8.6-3,12.2c-2,3.6-4.8,6.4-8.4,8.5-3.5,2-7.5,3-11.9,3s-8.4-1-11.9-3ZM400.1,903.8c2.8-1.7,5.1-4,6.7-7,1.6-3,2.5-6.4,2.5-10.2s-.8-7.2-2.5-10.2c-1.6-3-3.9-5.3-6.7-7-2.8-1.7-6-2.5-9.6-2.5s-6.8.8-9.6,2.5c-2.8,1.7-5.1,4-6.7,7-1.6,3-2.5,6.4-2.5,10.2s.8,7.2,2.5,10.2c1.6,3,3.9,5.3,6.7,7,2.8,1.7,6,2.5,9.6,2.5s6.8-.8,9.6-2.5Z"/>
    <path class="st5" d="M438.7,865.6c3-1.8,6.7-2.7,11.1-2.7v4.4h-1.1c-5.2,0-9.2,1.5-12.2,4.8-2.9,3.3-4.4,7.8-4.4,13.6v24.3h-4.5v-46.7h4.3v10.2c1.4-3.4,3.7-6,6.7-7.8Z"/>
    <path class="st5" d="M462.1,843.6h4.5v66.4h-4.5v-66.4Z"/>
    <path class="st5" d="M491.8,907.3c-3.5-2-6.3-4.8-8.4-8.5-2-3.6-3-7.7-3-12.2s1-8.6,3-12.2c2-3.6,4.8-6.4,8.4-8.5,3.5-2,7.5-3,11.9-3s8.4,1,11.9,3c3.5,2,6.3,4.8,8.4,8.5,2,3.6,3,7.7,3,12.2s-1,8.6-3,12.2c-2,3.6-4.8,6.4-8.4,8.5-3.5,2-7.5,3-11.9,3s-8.4-1-11.9-3ZM513.4,903.8c2.8-1.7,5.1-4,6.7-7,1.6-3,2.5-6.4,2.5-10.2s-.8-7.2-2.5-10.2c-1.6-3-3.9-5.3-6.7-7-2.8-1.7-6-2.5-9.6-2.5s-6.8.8-9.6,2.5c-2.8,1.7-5.1,4-6.7,7-1.6,3-2.5,6.4-2.5,10.2s.8,7.2,2.5,10.2c1.6,3,3.9,5.3,6.7,7,2.8,1.7,6,2.5,9.6,2.5s6.8-.8,9.6-2.5Z"/>
    <path class="st5" d="M583,863.3v41.7c0,7.8-1.9,13.5-5.6,17.2-3.8,3.7-9.4,5.5-17,5.5s-8.4-.7-12.2-2c-3.8-1.3-6.9-3.1-9.2-5.5l2.4-3.4c2.3,2.1,5.1,3.8,8.4,5,3.3,1.2,6.8,1.8,10.5,1.8,6.2,0,10.8-1.5,13.8-4.4,3-3,4.5-7.5,4.5-13.7v-7.9c-1.9,3.4-4.6,6-8,7.9s-7.2,2.8-11.5,2.8-8.3-1-11.9-2.9c-3.5-1.9-6.3-4.6-8.4-8.1-2-3.5-3-7.4-3-11.7s1-8.3,3-11.7c2-3.5,4.8-6.1,8.4-8.1,3.5-1.9,7.5-2.9,11.9-2.9s8.2,1,11.6,2.9c3.5,1.9,6.1,4.6,8,8.1v-10.6h4.3ZM569.3,901.9c2.9-1.6,5.2-3.8,6.8-6.6,1.6-2.8,2.5-6.1,2.5-9.7s-.8-6.9-2.5-9.7c-1.6-2.8-3.9-5-6.8-6.6-2.9-1.6-6.2-2.4-9.8-2.4s-6.9.8-9.8,2.4c-2.9,1.6-5.2,3.8-6.8,6.6-1.6,2.8-2.5,6-2.5,9.7s.8,6.9,2.5,9.7c1.6,2.8,3.9,5,6.8,6.6,2.9,1.6,6.2,2.4,9.8,2.4s6.9-.8,9.8-2.4Z"/>
    <path class="st5" d="M601.6,850.9c-.7-.7-1.1-1.5-1.1-2.5s.4-1.9,1.1-2.6,1.6-1.1,2.6-1.1,1.9.3,2.6,1c.7.7,1.1,1.5,1.1,2.5s-.4,1.9-1.1,2.6-1.6,1.1-2.6,1.1-1.9-.3-2.6-1ZM602,863.3h4.5v46.7h-4.5v-46.7Z"/>
    <path class="st5" d="M631.7,907.3c-3.6-2-6.4-4.8-8.4-8.5-2-3.6-3-7.7-3-12.2s1-8.7,3-12.3c2-3.6,4.8-6.4,8.4-8.4,3.6-2,7.6-3,12.2-3s7.2.7,10.2,2.2c3.1,1.5,5.6,3.6,7.5,6.4l-3.3,2.4c-1.7-2.3-3.7-4.1-6.2-5.2-2.5-1.2-5.2-1.7-8.2-1.7s-6.9.8-9.8,2.5c-2.9,1.6-5.2,4-6.8,6.9-1.6,3-2.5,6.4-2.5,10.3s.8,7.3,2.5,10.3c1.6,3,3.9,5.3,6.8,6.9,2.9,1.6,6.2,2.5,9.8,2.5s5.7-.6,8.2-1.7c2.5-1.2,4.5-2.9,6.2-5.2l3.3,2.4c-1.9,2.8-4.4,4.9-7.5,6.4-3.1,1.5-6.5,2.2-10.2,2.2s-8.6-1-12.2-3Z"/>
  </g>
</svg>