<?xml version="1.0" encoding="UTF-8"?>
<svg id="Layer_1" xmlns="http://www.w3.org/2000/svg" version="1.1" viewBox="0 0 827.1 1033.9">
  <!-- Generator: Adobe Illustrator 29.3.0, SVG Export Plug-In . SVG Version: 2.1.0 Build 146)  -->
  <defs>
    <style>
      .st0 {
        fill: #fff;
      }

      .st1 {
        fill: #2c3640;
      }
    </style>
  </defs>
  <rect class="st1" x="48.1" y="503.1" width="730.3" height="480.9"/>
  <g>
    <path class="st0" d="M376.6,687.2v67.4h-11l-.8-6.5c-3.7,5.7-9.6,7.6-15.3,7.6-14,0-24.5-9.3-24.5-24.9s10.3-24.9,24.2-24.9,12.8,2.7,15.6,7.6v-26.3s11.8,0,11.8,0ZM336.8,730.8c0,8.3,6,14,13.5,14s13.7-5.4,13.7-14-6.4-13.9-13.7-13.9-13.5,5.3-13.5,13.9Z"/>
    <path class="st0" d="M434.7,707l-29,67.4h-12.9l8.9-20.6-19-46.8h13.7l7.2,20.6,4.5,13.4,4.9-13.1,8.6-20.8h13Z"/>
    <path class="st0" d="M475.8,754.6v-24.9c0-7.2-4-12.7-11.5-12.7s-12.1,6.1-12.1,13.3v24.3h-11.7v-47.7h10.5l.8,6.4c4.8-4.7,9.6-7.2,15.6-7.2,11.2,0,20.1,8.4,20.1,23.3v24.9h-11.7Z"/>
    <path class="st0" d="M535.4,707h11.3v47.5h-11.1l-.6-6.9c-2.7,5.6-10.1,8.3-15.4,8.4-14.1,0-24.5-8.6-24.5-25.2s10.9-24.9,24.7-24.9c6.4,0,12.4,3,15.1,7.7l.4-6.5h0ZM506.9,730.8c0,9.1,6.2,14.5,14.1,14.5,18.5,0,18.5-28.8,0-28.8s-14.1,5.3-14.1,14.4Z"/>
    <path class="st0" d="M588.2,754.6v-25.4c0-6.2-3.3-12-9.7-12s-10.1,5.7-10.1,12v25.4h-11.8v-47.6h10.9l.9,5.8c2.5-4.8,8-6.5,12.5-6.5s11.3,2.3,14.1,8.9c4.3-6.7,9.7-8.6,15.9-8.6,13.5,0,20.1,8.3,20.1,22.5v25.7h-11.8v-25.7c0-6.2-2.6-11.6-8.9-11.6s-10.3,5.5-10.3,11.8v25.4h-11.8Z"/>
    <path class="st0" d="M655.8,693.6c0,9.1-13.9,9.1-13.9,0s13.9-9.1,13.9,0ZM643,706.9v47.7h11.8v-47.7h-11.8Z"/>
    <path class="st0" d="M706.1,748.5c-5.5,5.4-11.3,7.5-18.3,7.5-13.7,0-25.2-8.3-25.2-25.2s11.5-25.2,25.2-25.2,12,1.9,17.2,7l-7.4,7.8c-2.8-2.5-6.2-3.8-9.6-3.8-7.9,0-13.7,5.8-13.7,14.1s6.2,13.9,13.5,13.9,7.5-1.1,10.4-4l7.9,7.7h0Z"/>
  </g>
  <g>
    <path class="st0" d="M424.2,772c-.9,0-1.6.1-2.1.5s-.9.9-.9,1.6.3,1.3.9,1.6c.6.4,1.7.8,3.5,1.2,1.8.4,3.1,1.1,4,1.8.9.8,1.3,1.9,1.3,3.5s-.6,2.8-1.7,3.7-2.6,1.4-4.5,1.4-5.1-.9-7.2-2.8l1.8-2.2c1.8,1.6,3.6,2.3,5.5,2.3s1.7-.2,2.3-.6c.6-.4.9-.9.9-1.6s-.3-1.2-.8-1.6-1.4-.7-2.7-1-2.3-.6-2.9-.9-1.3-.6-1.8-1c-1.1-.8-1.6-2-1.6-3.6s.6-2.8,1.8-3.7c1.1-.9,2.6-1.3,4.3-1.3s2.2.2,3.3.6,2.1.9,2.8,1.6l-1.6,2.2c-.5-.5-1.2-.9-2.1-1.1-.9-.4-1.8-.5-2.6-.5h0Z"/>
    <path class="st0" d="M445.7,784.4c1,0,1.9-.1,2.6-.5s1.5-.9,2.3-1.6l1.9,1.9c-1.8,2.1-4.1,3-6.7,3s-4.8-.9-6.5-2.6c-1.7-1.7-2.6-3.8-2.6-6.4s.9-4.7,2.6-6.4c1.8-1.7,4-2.6,6.7-2.6s5,1,6.7,3l-1.8,2.1c-.9-.8-1.6-1.3-2.3-1.7-.7-.3-1.6-.5-2.6-.5-1.8,0-3.3.6-4.4,1.7-1.2,1.1-1.8,2.6-1.8,4.3s.6,3.3,1.8,4.4c1.2,1.3,2.6,1.9,4.3,1.9h0Z"/>
    <path class="st0" d="M459.1,787v-17.4h2.9v7.5h8.6v-7.5h2.9v17.4h-2.9v-7.1h-8.6v7.1h-2.9Z"/>
    <path class="st0" d="M496.1,784.6c-1.8,1.7-3.9,2.6-6.5,2.6s-4.7-.9-6.5-2.6c-1.8-1.7-2.6-3.8-2.6-6.4s.9-4.7,2.6-6.4c1.8-1.7,3.9-2.6,6.5-2.6s4.7.9,6.5,2.6c1.8,1.7,2.6,3.8,2.6,6.4s-.9,4.7-2.6,6.4ZM493.9,773.7c-1.2-1.2-2.6-1.8-4.4-1.8s-3.2.6-4.4,1.8c-1.2,1.2-1.8,2.7-1.8,4.5s.6,3.3,1.8,4.5,2.6,1.8,4.4,1.8,3.2-.6,4.4-1.8c1.2-1.2,1.8-2.7,1.8-4.5,0-1.7-.6-3.2-1.8-4.5Z"/>
    <path class="st0" d="M520.1,784.6c-1.8,1.7-3.9,2.6-6.5,2.6s-4.7-.9-6.5-2.6c-1.8-1.7-2.6-3.8-2.6-6.4s.9-4.7,2.6-6.4c1.8-1.7,3.9-2.6,6.5-2.6s4.7.9,6.5,2.6c1.8,1.7,2.6,3.8,2.6,6.4s-.9,4.7-2.6,6.4ZM517.9,773.7c-1.2-1.2-2.6-1.8-4.4-1.8s-3.2.6-4.4,1.8c-1.2,1.2-1.8,2.7-1.8,4.5s.6,3.3,1.8,4.5,2.6,1.8,4.4,1.8,3.2-.6,4.4-1.8c1.2-1.2,1.8-2.7,1.8-4.5s-.6-3.2-1.8-4.5Z"/>
    <path class="st0" d="M529.6,787v-17.4h2.9v14.6h7.9v2.8h-10.8Z"/>
    <path class="st0" d="M571.2,784.6c-1.8,1.7-3.9,2.6-6.5,2.6s-4.7-.9-6.5-2.6c-1.8-1.7-2.6-3.8-2.6-6.4s.9-4.7,2.6-6.4c1.8-1.7,3.9-2.6,6.5-2.6s4.7.9,6.5,2.6c1.8,1.7,2.6,3.8,2.6,6.4s-.9,4.7-2.6,6.4ZM569,773.7c-1.2-1.2-2.6-1.8-4.4-1.8s-3.2.6-4.4,1.8c-1.2,1.2-1.8,2.7-1.8,4.5s.6,3.3,1.8,4.5,2.6,1.8,4.4,1.8,3.2-.6,4.4-1.8,1.8-2.7,1.8-4.5-.6-3.2-1.8-4.5Z"/>
    <path class="st0" d="M583.6,772.4v4.7h7.7v2.7h-7.7v7.2h-2.9v-17.4h11.6v2.8h-8.6Z"/>
    <path class="st0" d="M611.6,787h-2.9v-17.4h4.6l5.2,10.9,5.2-10.9h4.5v17.4h-2.9v-13.6l-6.1,12h-1.6l-6-12v13.6h0Z"/>
    <path class="st0" d="M640.2,783.1c.8.9,1.8,1.4,3.3,1.4s2.4-.5,3.3-1.4c.8-.9,1.2-2.2,1.2-3.8v-9.6h2.9v9.8c0,2.5-.7,4.5-2.1,5.8s-3.1,2.1-5.3,2.1-3.9-.7-5.3-2.1c-1.3-1.3-2.1-3.3-2.1-5.8v-9.8h2.9v9.6c0,1.6.4,2.8,1.2,3.8h0Z"/>
    <path class="st0" d="M663.7,772c-.9,0-1.6.1-2.1.5s-.9.9-.9,1.6.3,1.3.9,1.6,1.7.8,3.5,1.2c1.8.4,3.1,1.1,4,1.8s1.3,1.9,1.3,3.5-.6,2.8-1.7,3.7c-1.1.9-2.6,1.4-4.5,1.4s-5.1-.9-7.2-2.8l1.8-2.2c1.8,1.6,3.6,2.3,5.5,2.3s1.7-.2,2.3-.6c.6-.4.9-.9.9-1.6s-.3-1.2-.8-1.6c-.5-.4-1.4-.7-2.7-1s-2.3-.6-2.9-.9c-.6-.3-1.3-.6-1.8-1-1.1-.8-1.6-2-1.6-3.6s.6-2.8,1.8-3.7c1.1-.9,2.6-1.3,4.3-1.3s2.2.2,3.3.6,2.1.9,2.8,1.6l-1.6,2.2c-.5-.5-1.2-.9-2.1-1.1-.9-.4-1.8-.5-2.6-.5Z"/>
    <path class="st0" d="M677.3,769.7h2.9v17.4h-2.9v-17.4Z"/>
    <path class="st0" d="M696,784.4c1,0,1.9-.1,2.6-.5s1.5-.9,2.3-1.6l1.9,1.9c-1.8,2.1-4.1,3-6.7,3s-4.8-.9-6.5-2.6c-1.7-1.7-2.6-3.8-2.6-6.4s.9-4.7,2.6-6.4c1.8-1.7,4-2.6,6.7-2.6s5,1,6.7,3l-1.8,2.1c-.9-.8-1.6-1.3-2.3-1.7-.7-.3-1.6-.5-2.6-.5-1.8,0-3.3.6-4.4,1.7-1.2,1.1-1.8,2.6-1.8,4.3s.6,3.3,1.8,4.4c1.2,1.3,2.6,1.9,4.3,1.9h0Z"/>
  </g>
  <g>
    <path class="st1" d="M424.2,311.5c-.9,0-1.6.1-2.1.5s-.9.9-.9,1.6.3,1.3.9,1.6c.6.4,1.7.8,3.5,1.2,1.8.4,3.1,1.1,4,1.8.9.8,1.3,1.9,1.3,3.5s-.6,2.8-1.7,3.7-2.6,1.4-4.5,1.4-5.1-.9-7.2-2.8l1.8-2.2c1.8,1.6,3.6,2.3,5.5,2.3s1.7-.2,2.3-.6c.6-.4.9-.9.9-1.6s-.3-1.2-.8-1.6-1.4-.7-2.7-1-2.3-.6-2.9-.9-1.3-.6-1.8-1c-1.1-.8-1.6-2-1.6-3.6s.6-2.8,1.8-3.7c1.1-.9,2.6-1.3,4.3-1.3s2.2.2,3.3.6,2.1.9,2.8,1.6l-1.6,2.2c-.5-.5-1.2-.9-2.1-1.1-.9-.4-1.8-.5-2.6-.5h0Z"/>
    <path class="st1" d="M445.7,323.9c1,0,1.9-.1,2.6-.5s1.5-.9,2.3-1.6l1.9,1.9c-1.8,2.1-4.1,3-6.7,3s-4.8-.9-6.5-2.6c-1.7-1.7-2.6-3.8-2.6-6.4s.9-4.7,2.6-6.4c1.8-1.7,4-2.6,6.7-2.6s5,1,6.7,3l-1.8,2.1c-.9-.8-1.6-1.3-2.3-1.7-.7-.3-1.6-.5-2.6-.5-1.8,0-3.3.6-4.4,1.7-1.2,1.1-1.8,2.6-1.8,4.3s.6,3.3,1.8,4.4c1.2,1.3,2.6,1.9,4.3,1.9h0Z"/>
    <path class="st1" d="M459.1,326.6v-17.4h2.9v7.5h8.6v-7.5h2.9v17.4h-2.9v-7.1h-8.6v7.1h-2.9Z"/>
    <path class="st1" d="M496.1,324.2c-1.8,1.7-3.9,2.6-6.5,2.6s-4.7-.9-6.5-2.6c-1.8-1.7-2.6-3.8-2.6-6.4s.9-4.7,2.6-6.4c1.8-1.7,3.9-2.6,6.5-2.6s4.7.9,6.5,2.6c1.8,1.7,2.6,3.8,2.6,6.4s-.9,4.7-2.6,6.4ZM493.9,313.3c-1.2-1.2-2.6-1.8-4.4-1.8s-3.2.6-4.4,1.8c-1.2,1.2-1.8,2.7-1.8,4.5s.6,3.3,1.8,4.5,2.6,1.8,4.4,1.8,3.2-.6,4.4-1.8c1.2-1.2,1.8-2.7,1.8-4.5,0-1.7-.6-3.2-1.8-4.5Z"/>
    <path class="st1" d="M520.1,324.2c-1.8,1.7-3.9,2.6-6.5,2.6s-4.7-.9-6.5-2.6c-1.8-1.7-2.6-3.8-2.6-6.4s.9-4.7,2.6-6.4c1.8-1.7,3.9-2.6,6.5-2.6s4.7.9,6.5,2.6c1.8,1.7,2.6,3.8,2.6,6.4s-.9,4.7-2.6,6.4ZM517.9,313.3c-1.2-1.2-2.6-1.8-4.4-1.8s-3.2.6-4.4,1.8c-1.2,1.2-1.8,2.7-1.8,4.5s.6,3.3,1.8,4.5,2.6,1.8,4.4,1.8,3.2-.6,4.4-1.8c1.2-1.2,1.8-2.7,1.8-4.5s-.6-3.2-1.8-4.5Z"/>
    <path class="st1" d="M529.6,326.6v-17.4h2.9v14.6h7.9v2.8h-10.8Z"/>
    <path class="st1" d="M571.2,324.2c-1.8,1.7-3.9,2.6-6.5,2.6s-4.7-.9-6.5-2.6c-1.8-1.7-2.6-3.8-2.6-6.4s.9-4.7,2.6-6.4c1.8-1.7,3.9-2.6,6.5-2.6s4.7.9,6.5,2.6c1.8,1.7,2.6,3.8,2.6,6.4s-.9,4.7-2.6,6.4ZM569,313.3c-1.2-1.2-2.6-1.8-4.4-1.8s-3.2.6-4.4,1.8c-1.2,1.2-1.8,2.7-1.8,4.5s.6,3.3,1.8,4.5,2.6,1.8,4.4,1.8,3.2-.6,4.4-1.8,1.8-2.7,1.8-4.5-.6-3.2-1.8-4.5Z"/>
    <path class="st1" d="M583.6,312v4.7h7.7v2.7h-7.7v7.2h-2.9v-17.4h11.6v2.8h-8.6Z"/>
    <path class="st1" d="M611.6,326.6h-2.9v-17.4h4.6l5.2,10.9,5.2-10.9h4.5v17.4h-2.9v-13.6l-6.1,12h-1.6l-6-12v13.6h0Z"/>
    <path class="st1" d="M640.2,322.7c.8.9,1.8,1.4,3.3,1.4s2.4-.5,3.3-1.4c.8-.9,1.2-2.2,1.2-3.8v-9.6h2.9v9.8c0,2.5-.7,4.5-2.1,5.8s-3.1,2.1-5.3,2.1-3.9-.7-5.3-2.1c-1.3-1.3-2.1-3.3-2.1-5.8v-9.8h2.9v9.6c0,1.6.4,2.8,1.2,3.8h0Z"/>
    <path class="st1" d="M663.7,311.5c-.9,0-1.6.1-2.1.5s-.9.9-.9,1.6.3,1.3.9,1.6,1.7.8,3.5,1.2c1.8.4,3.1,1.1,4,1.8s1.3,1.9,1.3,3.5-.6,2.8-1.7,3.7c-1.1.9-2.6,1.4-4.5,1.4s-5.1-.9-7.2-2.8l1.8-2.2c1.8,1.6,3.6,2.3,5.5,2.3s1.7-.2,2.3-.6c.6-.4.9-.9.9-1.6s-.3-1.2-.8-1.6c-.5-.4-1.4-.7-2.7-1s-2.3-.6-2.9-.9c-.6-.3-1.3-.6-1.8-1-1.1-.8-1.6-2-1.6-3.6s.6-2.8,1.8-3.7c1.1-.9,2.6-1.3,4.3-1.3s2.2.2,3.3.6,2.1.9,2.8,1.6l-1.6,2.2c-.5-.5-1.2-.9-2.1-1.1-.9-.4-1.8-.5-2.6-.5Z"/>
    <path class="st1" d="M677.3,309.3h2.9v17.4h-2.9v-17.4Z"/>
    <path class="st1" d="M696,323.9c1,0,1.9-.1,2.6-.5s1.5-.9,2.3-1.6l1.9,1.9c-1.8,2.1-4.1,3-6.7,3s-4.8-.9-6.5-2.6c-1.7-1.7-2.6-3.8-2.6-6.4s.9-4.7,2.6-6.4c1.8-1.7,4-2.6,6.7-2.6s5,1,6.7,3l-1.8,2.1c-.9-.8-1.6-1.3-2.3-1.7-.7-.3-1.6-.5-2.6-.5-1.8,0-3.3.6-4.4,1.7-1.2,1.1-1.8,2.6-1.8,4.3s.6,3.3,1.8,4.4c1.2,1.3,2.6,1.9,4.3,1.9h0Z"/>
  </g>
  <g>
    <path class="st0" d="M257.5,715.6s-24.4-34.3-48.9-37c-4,23.6-8.1,47.2-12,70.8-2.8,16.1-3.3,35.9-12.2,49.9-4,6.3-9.6,11.3-15.8,15.1h21.3c17.2,0,32.5-3.6,45.9-10.8s24-17.2,31.6-29.9c7.4-12.3,11.2-26.3,11.4-41.9-6.2-2.6-14.5-7.4-21.3-16.2h0Z"/>
    <path class="st0" d="M175.6,762.1c2.5-14.7,4.5-29.4,7-43.9,4.1-24,8.2-48,12.3-72h-73.8v131.1c12.7-15.8,36.1-21.5,54.6-15.1h0Z"/>
    <path d="M269.6,690.7c-.7-1.3-1.4-2.7-2.2-4-3.8-6.6-8.5-12.4-13.8-17.4,4.1,4.3,8.3,9.4,12.4,15.2,0,0,1.5,2.6,3.6,6.2Z"/>
    <path class="st1" d="M287.3,718.6c-2.4-2.2-11.4-17.2-16.9-26.5-9-17.2-19.1-24.8-19.1-24.8h0c-4.5-4-9.6-7.4-15.2-10.4-12.3-6.6-26.1-10.1-41.3-10.6-4.1,24-8.2,47.9-12.3,71.9-2.5,14.5-4.5,29.3-7,43.9-18.4-6.4-41.9-.7-54.6,15.1v37.2h47.5c6.2-3.8,11.8-8.8,15.8-15.1,8.9-14,9.5-33.8,12.2-49.9,4-23.6,8.1-47.2,12-70.8,24.5,2.7,48.9,37,48.9,37,6.8,8.6,15.1,13.5,21.3,16.2,5.3,2.3,9.1,2.9,9.1,2.9,7.2.9,19.1-3.4,19.1-3.4-11.3-.8-19.6-12.6-19.6-12.6h0Z"/>
  </g>
  <g>
    <path class="st1" d="M376.6,230.6v67.4h-11l-.8-6.5c-3.7,5.7-9.6,7.6-15.3,7.6-14,0-24.5-9.3-24.5-24.9s10.3-24.9,24.2-24.9,12.8,2.7,15.6,7.6v-26.3s11.8,0,11.8,0ZM336.8,274.2c0,8.3,6,14,13.5,14s13.7-5.4,13.7-14-6.4-13.9-13.7-13.9-13.5,5.3-13.5,13.9Z"/>
    <path class="st1" d="M434.7,250.4l-29,67.4h-12.9l8.9-20.6-19-46.8h13.7l7.2,20.6,4.5,13.4,4.9-13.1,8.6-20.8h13Z"/>
    <path class="st1" d="M475.8,298v-24.9c0-7.2-4-12.7-11.5-12.7s-12.1,6.1-12.1,13.3v24.3h-11.7v-47.7h10.5l.8,6.4c4.8-4.7,9.6-7.2,15.6-7.2,11.2,0,20.1,8.4,20.1,23.3v24.9h-11.7Z"/>
    <path class="st1" d="M535.4,250.4h11.3v47.5h-11.1l-.6-6.9c-2.7,5.6-10.1,8.3-15.4,8.4-14.1,0-24.5-8.6-24.5-25.2s10.9-24.9,24.7-24.9c6.4,0,12.4,3,15.1,7.7l.4-6.5h0ZM506.9,274.2c0,9.1,6.2,14.5,14.1,14.5,18.5,0,18.5-28.8,0-28.8s-14.1,5.3-14.1,14.4Z"/>
    <path class="st1" d="M588.2,298v-25.4c0-6.2-3.3-12-9.7-12s-10.1,5.7-10.1,12v25.4h-11.8v-47.6h10.9l.9,5.8c2.5-4.8,8-6.5,12.5-6.5s11.3,2.3,14.1,8.9c4.3-6.7,9.7-8.6,15.9-8.6,13.5,0,20.1,8.3,20.1,22.5v25.7h-11.8v-25.7c0-6.2-2.6-11.6-8.9-11.6s-10.3,5.5-10.3,11.8v25.4h-11.8Z"/>
    <path class="st1" d="M655.8,237.1c0,9.1-13.9,9.1-13.9,0s13.9-9.1,13.9,0ZM643,250.3v47.7h11.8v-47.7h-11.8Z"/>
    <path class="st1" d="M706.1,291.9c-5.5,5.4-11.3,7.5-18.3,7.5-13.7,0-25.2-8.3-25.2-25.2s11.5-25.2,25.2-25.2,12,1.9,17.2,7l-7.4,7.8c-2.8-2.5-6.2-3.8-9.6-3.8-7.9,0-13.7,5.8-13.7,14.1s6.2,13.9,13.5,13.9,7.5-1.1,10.4-4l7.9,7.7h0Z"/>
  </g>
  <g>
    <path class="st1" d="M257.5,259s-24.4-34.3-48.9-37c-4,23.6-8.1,47.2-12,70.8-2.8,16.1-3.3,35.9-12.2,49.9-4,6.3-9.6,11.3-15.8,15.1h21.3c17.2,0,32.5-3.6,45.9-10.8s24-17.2,31.6-29.9c7.4-12.3,11.2-26.3,11.4-41.9-6.2-2.6-14.5-7.4-21.3-16.2h0Z"/>
    <path class="st1" d="M175.6,305.5c2.5-14.7,4.5-29.4,7-43.9,4.1-24,8.2-48,12.3-72h-73.8v131.1c12.7-15.8,36.1-21.5,54.6-15.1h0Z"/>
    <path d="M269.6,234.1c-.7-1.3-1.4-2.7-2.2-4-3.8-6.6-8.5-12.4-13.8-17.4,4.1,4.3,8.3,9.4,12.4,15.2,0,0,1.5,2.6,3.6,6.2Z"/>
    <path class="st0" d="M287.3,262c-2.4-2.2-11.4-17.2-16.9-26.5-9-17.2-19.1-24.8-19.1-24.8h0c-4.5-4-9.6-7.4-15.2-10.4-12.3-6.6-26.1-10.1-41.3-10.6-4.1,24-8.2,47.9-12.3,71.9-2.5,14.5-4.5,29.3-7,43.9-18.4-6.4-41.9-.7-54.6,15.1v37.2h47.5c6.2-3.8,11.8-8.8,15.8-15.1,8.9-14,9.5-33.8,12.2-49.9,4-23.6,8.1-47.2,12-70.8,24.5,2.7,48.9,37,48.9,37,6.8,8.6,15.1,13.5,21.3,16.2,5.3,2.3,9.1,2.9,9.1,2.9,7.2.9,19.1-3.4,19.1-3.4-11.3-.8-19.6-12.6-19.6-12.6h0Z"/>
  </g>
</svg>