<?xml version="1.0" encoding="UTF-8"?>
<!DOCTYPE svg PUBLIC "-//W3C//DTD SVG 1.1//EN" "http://www.w3.org/Graphics/SVG/1.1/DTD/svg11.dtd">
<!-- Creator: CorelDRAW 2019 (64-Bit) -->
<svg xmlns="http://www.w3.org/2000/svg" xml:space="preserve" width="423.333mm" height="423.333mm" version="1.1" style="shape-rendering:geometricPrecision; text-rendering:geometricPrecision; image-rendering:optimizeQuality; fill-rule:evenodd; clip-rule:evenodd"
viewBox="0 0 42333.32 42333.32"
 xmlns:xlink="http://www.w3.org/1999/xlink"
 xmlns:xodm="http://www.corel.com/coreldraw/odm/2003">
 <defs>
  <style type="text/css">
   <![CDATA[
    .fil0 {fill:#848688}
   ]]>
  </style>
 </defs>
 <g id="Layer_x0020_1">
  <metadata id="CorelCorpID_0Corel-Layer"/>
  <path class="fil0" d="M1166.66 1396.99c137.45,0 248.88,111.44 248.88,248.89 0,137.45 -111.43,248.88 -248.88,248.88 -137.46,0 -248.89,-111.43 -248.89,-248.88 0,-137.45 111.43,-248.89 248.89,-248.89zm3636.36 0c137.45,0 248.89,111.44 248.89,248.89 0,137.45 -111.44,248.88 -248.89,248.88 -137.45,0 -248.89,-111.43 -248.89,-248.88 0,-137.45 111.44,-248.89 248.89,-248.89zm3636.36 0c137.46,0 248.89,111.44 248.89,248.89 0,137.45 -111.43,248.88 -248.89,248.88 -137.45,0 -248.88,-111.43 -248.88,-248.88 0,-137.45 111.43,-248.89 248.88,-248.89zm3636.37 0c137.45,0 248.88,111.44 248.88,248.89 0,137.45 -111.43,248.88 -248.88,248.88 -137.46,0 -248.89,-111.43 -248.89,-248.88 0,-137.45 111.43,-248.89 248.89,-248.89zm3636.36 0c137.45,0 248.89,111.44 248.89,248.89 0,137.45 -111.44,248.88 -248.89,248.88 -137.45,0 -248.89,-111.43 -248.89,-248.88 0,-137.45 111.44,-248.89 248.89,-248.89zm3636.36 0c137.46,0 248.89,111.44 248.89,248.89 0,137.45 -111.43,248.88 -248.89,248.88 -137.45,0 -248.88,-111.43 -248.88,-248.88 0,-137.45 111.43,-248.89 248.88,-248.89zm3636.37 0c137.45,0 248.88,111.44 248.88,248.89 0,137.45 -111.43,248.88 -248.88,248.88 -137.46,0 -248.89,-111.43 -248.89,-248.88 0,-137.45 111.43,-248.89 248.89,-248.89zm3636.36 0c137.45,0 248.89,111.44 248.89,248.89 0,137.45 -111.44,248.88 -248.89,248.88 -137.45,0 -248.89,-111.43 -248.89,-248.88 0,-137.45 111.44,-248.89 248.89,-248.89zm3636.36 0c137.46,0 248.89,111.44 248.89,248.89 0,137.45 -111.43,248.88 -248.89,248.88 -137.45,0 -248.88,-111.43 -248.88,-248.88 0,-137.45 111.43,-248.89 248.88,-248.89zm3636.37 0c137.45,0 248.88,111.44 248.88,248.89 0,137.45 -111.43,248.88 -248.88,248.88 -137.46,0 -248.89,-111.43 -248.89,-248.88 0,-137.45 111.43,-248.89 248.89,-248.89zm3636.36 0c137.45,0 248.89,111.44 248.89,248.89 0,137.45 -111.44,248.88 -248.89,248.88 -137.45,0 -248.89,-111.43 -248.89,-248.88 0,-137.45 111.44,-248.89 248.89,-248.89zm3636.36 0c137.46,0 248.89,111.44 248.89,248.89 0,137.45 -111.43,248.88 -248.89,248.88 -137.45,0 -248.88,-111.43 -248.88,-248.88 0,-137.45 111.43,-248.89 248.88,-248.89zm-39999.99 3253.46c137.45,0 248.88,111.44 248.88,248.89 0,137.45 -111.43,248.89 -248.88,248.89 -137.46,0 -248.89,-111.44 -248.89,-248.89 0,-137.45 111.43,-248.89 248.89,-248.89zm3636.36 0c137.45,0 248.89,111.44 248.89,248.89 0,137.45 -111.44,248.89 -248.89,248.89 -137.45,0 -248.89,-111.44 -248.89,-248.89 0,-137.45 111.44,-248.89 248.89,-248.89zm3636.36 0c137.46,0 248.89,111.44 248.89,248.89 0,137.45 -111.43,248.89 -248.89,248.89 -137.45,0 -248.88,-111.44 -248.88,-248.89 0,-137.45 111.43,-248.89 248.88,-248.89zm3636.37 0c137.45,0 248.88,111.44 248.88,248.89 0,137.45 -111.43,248.89 -248.88,248.89 -137.46,0 -248.89,-111.44 -248.89,-248.89 0,-137.45 111.43,-248.89 248.89,-248.89zm3636.36 0c137.45,0 248.89,111.44 248.89,248.89 0,137.45 -111.44,248.89 -248.89,248.89 -137.45,0 -248.89,-111.44 -248.89,-248.89 0,-137.45 111.44,-248.89 248.89,-248.89zm3636.36 0c137.46,0 248.89,111.44 248.89,248.89 0,137.45 -111.43,248.89 -248.89,248.89 -137.45,0 -248.88,-111.44 -248.88,-248.89 0,-137.45 111.43,-248.89 248.88,-248.89zm3636.37 0c137.45,0 248.88,111.44 248.88,248.89 0,137.45 -111.43,248.89 -248.88,248.89 -137.46,0 -248.89,-111.44 -248.89,-248.89 0,-137.45 111.43,-248.89 248.89,-248.89zm3636.36 0c137.45,0 248.89,111.44 248.89,248.89 0,137.45 -111.44,248.89 -248.89,248.89 -137.45,0 -248.89,-111.44 -248.89,-248.89 0,-137.45 111.44,-248.89 248.89,-248.89zm3636.36 0c137.46,0 248.89,111.44 248.89,248.89 0,137.45 -111.43,248.89 -248.89,248.89 -137.45,0 -248.88,-111.44 -248.88,-248.89 0,-137.45 111.43,-248.89 248.88,-248.89zm3636.37 0c137.45,0 248.88,111.44 248.88,248.89 0,137.45 -111.43,248.89 -248.88,248.89 -137.46,0 -248.89,-111.44 -248.89,-248.89 0,-137.45 111.43,-248.89 248.89,-248.89zm3636.36 0c137.45,0 248.89,111.44 248.89,248.89 0,137.45 -111.44,248.89 -248.89,248.89 -137.45,0 -248.89,-111.44 -248.89,-248.89 0,-137.45 111.44,-248.89 248.89,-248.89zm3636.36 0c137.46,0 248.89,111.44 248.89,248.89 0,137.45 -111.43,248.89 -248.89,248.89 -137.45,0 -248.88,-111.44 -248.88,-248.89 0,-137.45 111.43,-248.89 248.88,-248.89zm-39999.99 3253.47c137.45,0 248.88,111.43 248.88,248.88 0,137.46 -111.43,248.89 -248.88,248.89 -137.46,0 -248.89,-111.43 -248.89,-248.89 0,-137.45 111.43,-248.88 248.89,-248.88zm3636.36 0c137.45,0 248.89,111.43 248.89,248.88 0,137.46 -111.44,248.89 -248.89,248.89 -137.45,0 -248.89,-111.43 -248.89,-248.89 0,-137.45 111.44,-248.88 248.89,-248.88zm3636.36 0c137.46,0 248.89,111.43 248.89,248.88 0,137.46 -111.43,248.89 -248.89,248.89 -137.45,0 -248.88,-111.43 -248.88,-248.89 0,-137.45 111.43,-248.88 248.88,-248.88zm3636.37 0c137.45,0 248.88,111.43 248.88,248.88 0,137.46 -111.43,248.89 -248.88,248.89 -137.46,0 -248.89,-111.43 -248.89,-248.89 0,-137.45 111.43,-248.88 248.89,-248.88zm3636.36 0c137.45,0 248.89,111.43 248.89,248.88 0,137.46 -111.44,248.89 -248.89,248.89 -137.45,0 -248.89,-111.43 -248.89,-248.89 0,-137.45 111.44,-248.88 248.89,-248.88zm3636.36 0c137.46,0 248.89,111.43 248.89,248.88 0,137.46 -111.43,248.89 -248.89,248.89 -137.45,0 -248.88,-111.43 -248.88,-248.89 0,-137.45 111.43,-248.88 248.88,-248.88zm3636.37 0c137.45,0 248.88,111.43 248.88,248.88 0,137.46 -111.43,248.89 -248.88,248.89 -137.46,0 -248.89,-111.43 -248.89,-248.89 0,-137.45 111.43,-248.88 248.89,-248.88zm3636.36 0c137.45,0 248.89,111.43 248.89,248.88 0,137.46 -111.44,248.89 -248.89,248.89 -137.45,0 -248.89,-111.43 -248.89,-248.89 0,-137.45 111.44,-248.88 248.89,-248.88zm3636.36 0c137.46,0 248.89,111.43 248.89,248.88 0,137.46 -111.43,248.89 -248.89,248.89 -137.45,0 -248.88,-111.43 -248.88,-248.89 0,-137.45 111.43,-248.88 248.88,-248.88zm3636.37 0c137.45,0 248.88,111.43 248.88,248.88 0,137.46 -111.43,248.89 -248.88,248.89 -137.46,0 -248.89,-111.43 -248.89,-248.89 0,-137.45 111.43,-248.88 248.89,-248.88zm3636.36 0c137.45,0 248.89,111.43 248.89,248.88 0,137.46 -111.44,248.89 -248.89,248.89 -137.45,0 -248.89,-111.43 -248.89,-248.89 0,-137.45 111.44,-248.88 248.89,-248.88zm3636.36 0c137.46,0 248.89,111.43 248.89,248.88 0,137.46 -111.43,248.89 -248.89,248.89 -137.45,0 -248.88,-111.43 -248.88,-248.89 0,-137.45 111.43,-248.88 248.88,-248.88zm-39999.99 3253.46c137.45,0 248.88,111.44 248.88,248.89 0,137.45 -111.43,248.89 -248.88,248.89 -137.46,0 -248.89,-111.44 -248.89,-248.89 0,-137.45 111.43,-248.89 248.89,-248.89zm3636.36 0c137.45,0 248.89,111.44 248.89,248.89 0,137.45 -111.44,248.89 -248.89,248.89 -137.45,0 -248.89,-111.44 -248.89,-248.89 0,-137.45 111.44,-248.89 248.89,-248.89zm3636.36 0c137.46,0 248.89,111.44 248.89,248.89 0,137.45 -111.43,248.89 -248.89,248.89 -137.45,0 -248.88,-111.44 -248.88,-248.89 0,-137.45 111.43,-248.89 248.88,-248.89zm3636.37 0c137.45,0 248.88,111.44 248.88,248.89 0,137.45 -111.43,248.89 -248.88,248.89 -137.46,0 -248.89,-111.44 -248.89,-248.89 0,-137.45 111.43,-248.89 248.89,-248.89zm3636.36 0c137.45,0 248.89,111.44 248.89,248.89 0,137.45 -111.44,248.89 -248.89,248.89 -137.45,0 -248.89,-111.44 -248.89,-248.89 0,-137.45 111.44,-248.89 248.89,-248.89zm3636.36 0c137.46,0 248.89,111.44 248.89,248.89 0,137.45 -111.43,248.89 -248.89,248.89 -137.45,0 -248.88,-111.44 -248.88,-248.89 0,-137.45 111.43,-248.89 248.88,-248.89zm3636.37 0c137.45,0 248.88,111.44 248.88,248.89 0,137.45 -111.43,248.89 -248.88,248.89 -137.46,0 -248.89,-111.44 -248.89,-248.89 0,-137.45 111.43,-248.89 248.89,-248.89zm3636.36 0c137.45,0 248.89,111.44 248.89,248.89 0,137.45 -111.44,248.89 -248.89,248.89 -137.45,0 -248.89,-111.44 -248.89,-248.89 0,-137.45 111.44,-248.89 248.89,-248.89zm3636.36 0c137.46,0 248.89,111.44 248.89,248.89 0,137.45 -111.43,248.89 -248.89,248.89 -137.45,0 -248.88,-111.44 -248.88,-248.89 0,-137.45 111.43,-248.89 248.88,-248.89zm3636.37 0c137.45,0 248.88,111.44 248.88,248.89 0,137.45 -111.43,248.89 -248.88,248.89 -137.46,0 -248.89,-111.44 -248.89,-248.89 0,-137.45 111.43,-248.89 248.89,-248.89zm3636.36 0c137.45,0 248.89,111.44 248.89,248.89 0,137.45 -111.44,248.89 -248.89,248.89 -137.45,0 -248.89,-111.44 -248.89,-248.89 0,-137.45 111.44,-248.89 248.89,-248.89zm3636.36 0c137.46,0 248.89,111.44 248.89,248.89 0,137.45 -111.43,248.89 -248.89,248.89 -137.45,0 -248.88,-111.44 -248.88,-248.89 0,-137.45 111.43,-248.89 248.88,-248.89zm-39999.99 3253.46c137.45,0 248.88,111.44 248.88,248.89 0,137.45 -111.43,248.89 -248.88,248.89 -137.46,0 -248.89,-111.44 -248.89,-248.89 0,-137.45 111.43,-248.89 248.89,-248.89zm3636.36 0c137.45,0 248.89,111.44 248.89,248.89 0,137.45 -111.44,248.89 -248.89,248.89 -137.45,0 -248.89,-111.44 -248.89,-248.89 0,-137.45 111.44,-248.89 248.89,-248.89zm3636.36 0c137.46,0 248.89,111.44 248.89,248.89 0,137.45 -111.43,248.89 -248.89,248.89 -137.45,0 -248.88,-111.44 -248.88,-248.89 0,-137.45 111.43,-248.89 248.88,-248.89zm3636.37 0c137.45,0 248.88,111.44 248.88,248.89 0,137.45 -111.43,248.89 -248.88,248.89 -137.46,0 -248.89,-111.44 -248.89,-248.89 0,-137.45 111.43,-248.89 248.89,-248.89zm3636.36 0c137.45,0 248.89,111.44 248.89,248.89 0,137.45 -111.44,248.89 -248.89,248.89 -137.45,0 -248.89,-111.44 -248.89,-248.89 0,-137.45 111.44,-248.89 248.89,-248.89zm3636.36 0c137.46,0 248.89,111.44 248.89,248.89 0,137.45 -111.43,248.89 -248.89,248.89 -137.45,0 -248.88,-111.44 -248.88,-248.89 0,-137.45 111.43,-248.89 248.88,-248.89zm3636.37 0c137.45,0 248.88,111.44 248.88,248.89 0,137.45 -111.43,248.89 -248.88,248.89 -137.46,0 -248.89,-111.44 -248.89,-248.89 0,-137.45 111.43,-248.89 248.89,-248.89zm3636.36 0c137.45,0 248.89,111.44 248.89,248.89 0,137.45 -111.44,248.89 -248.89,248.89 -137.45,0 -248.89,-111.44 -248.89,-248.89 0,-137.45 111.44,-248.89 248.89,-248.89zm3636.36 0c137.46,0 248.89,111.44 248.89,248.89 0,137.45 -111.43,248.89 -248.89,248.89 -137.45,0 -248.88,-111.44 -248.88,-248.89 0,-137.45 111.43,-248.89 248.88,-248.89zm3636.37 0c137.45,0 248.88,111.44 248.88,248.89 0,137.45 -111.43,248.89 -248.88,248.89 -137.46,0 -248.89,-111.44 -248.89,-248.89 0,-137.45 111.43,-248.89 248.89,-248.89zm3636.36 0c137.45,0 248.89,111.44 248.89,248.89 0,137.45 -111.44,248.89 -248.89,248.89 -137.45,0 -248.89,-111.44 -248.89,-248.89 0,-137.45 111.44,-248.89 248.89,-248.89zm3636.36 0c137.46,0 248.89,111.44 248.89,248.89 0,137.45 -111.43,248.89 -248.89,248.89 -137.45,0 -248.88,-111.44 -248.88,-248.89 0,-137.45 111.43,-248.89 248.88,-248.89zm-39999.99 3253.47c137.45,0 248.88,111.43 248.88,248.89 0,137.45 -111.43,248.88 -248.88,248.88 -137.46,0 -248.89,-111.43 -248.89,-248.88 0,-137.46 111.43,-248.89 248.89,-248.89zm3636.36 0c137.45,0 248.89,111.43 248.89,248.89 0,137.45 -111.44,248.88 -248.89,248.88 -137.45,0 -248.89,-111.43 -248.89,-248.88 0,-137.46 111.44,-248.89 248.89,-248.89zm3636.36 0c137.46,0 248.89,111.43 248.89,248.89 0,137.45 -111.43,248.88 -248.89,248.88 -137.45,0 -248.88,-111.43 -248.88,-248.88 0,-137.46 111.43,-248.89 248.88,-248.89zm3636.37 0c137.45,0 248.88,111.43 248.88,248.89 0,137.45 -111.43,248.88 -248.88,248.88 -137.46,0 -248.89,-111.43 -248.89,-248.88 0,-137.46 111.43,-248.89 248.89,-248.89zm3636.36 0c137.45,0 248.89,111.43 248.89,248.89 0,137.45 -111.44,248.88 -248.89,248.88 -137.45,0 -248.89,-111.43 -248.89,-248.88 0,-137.46 111.44,-248.89 248.89,-248.89zm3636.36 0c137.46,0 248.89,111.43 248.89,248.89 0,137.45 -111.43,248.88 -248.89,248.88 -137.45,0 -248.88,-111.43 -248.88,-248.88 0,-137.46 111.43,-248.89 248.88,-248.89zm3636.37 0c137.45,0 248.88,111.43 248.88,248.89 0,137.45 -111.43,248.88 -248.88,248.88 -137.46,0 -248.89,-111.43 -248.89,-248.88 0,-137.46 111.43,-248.89 248.89,-248.89zm3636.36 0c137.45,0 248.89,111.43 248.89,248.89 0,137.45 -111.44,248.88 -248.89,248.88 -137.45,0 -248.89,-111.43 -248.89,-248.88 0,-137.46 111.44,-248.89 248.89,-248.89zm3636.36 0c137.46,0 248.89,111.43 248.89,248.89 0,137.45 -111.43,248.88 -248.89,248.88 -137.45,0 -248.88,-111.43 -248.88,-248.88 0,-137.46 111.43,-248.89 248.88,-248.89zm3636.37 0c137.45,0 248.88,111.43 248.88,248.89 0,137.45 -111.43,248.88 -248.88,248.88 -137.46,0 -248.89,-111.43 -248.89,-248.88 0,-137.46 111.43,-248.89 248.89,-248.89zm3636.36 0c137.45,0 248.89,111.43 248.89,248.89 0,137.45 -111.44,248.88 -248.89,248.88 -137.45,0 -248.89,-111.43 -248.89,-248.88 0,-137.46 111.44,-248.89 248.89,-248.89zm3636.36 0c137.46,0 248.89,111.43 248.89,248.89 0,137.45 -111.43,248.88 -248.89,248.88 -137.45,0 -248.88,-111.43 -248.88,-248.88 0,-137.46 111.43,-248.89 248.88,-248.89zm-39999.99 3253.46c137.45,0 248.88,111.44 248.88,248.89 0,137.45 -111.43,248.89 -248.88,248.89 -137.46,0 -248.89,-111.44 -248.89,-248.89 0,-137.45 111.43,-248.89 248.89,-248.89zm3636.36 0c137.45,0 248.89,111.44 248.89,248.89 0,137.45 -111.44,248.89 -248.89,248.89 -137.45,0 -248.89,-111.44 -248.89,-248.89 0,-137.45 111.44,-248.89 248.89,-248.89zm3636.36 0c137.46,0 248.89,111.44 248.89,248.89 0,137.45 -111.43,248.89 -248.89,248.89 -137.45,0 -248.88,-111.44 -248.88,-248.89 0,-137.45 111.43,-248.89 248.88,-248.89zm3636.37 0c137.45,0 248.88,111.44 248.88,248.89 0,137.45 -111.43,248.89 -248.88,248.89 -137.46,0 -248.89,-111.44 -248.89,-248.89 0,-137.45 111.43,-248.89 248.89,-248.89zm3636.36 0c137.45,0 248.89,111.44 248.89,248.89 0,137.45 -111.44,248.89 -248.89,248.89 -137.45,0 -248.89,-111.44 -248.89,-248.89 0,-137.45 111.44,-248.89 248.89,-248.89zm3636.36 0c137.46,0 248.89,111.44 248.89,248.89 0,137.45 -111.43,248.89 -248.89,248.89 -137.45,0 -248.88,-111.44 -248.88,-248.89 0,-137.45 111.43,-248.89 248.88,-248.89zm3636.37 0c137.45,0 248.88,111.44 248.88,248.89 0,137.45 -111.43,248.89 -248.88,248.89 -137.46,0 -248.89,-111.44 -248.89,-248.89 0,-137.45 111.43,-248.89 248.89,-248.89zm3636.36 0c137.45,0 248.89,111.44 248.89,248.89 0,137.45 -111.44,248.89 -248.89,248.89 -137.45,0 -248.89,-111.44 -248.89,-248.89 0,-137.45 111.44,-248.89 248.89,-248.89zm3636.36 0c137.46,0 248.89,111.44 248.89,248.89 0,137.45 -111.43,248.89 -248.89,248.89 -137.45,0 -248.88,-111.44 -248.88,-248.89 0,-137.45 111.43,-248.89 248.88,-248.89zm3636.37 0c137.45,0 248.88,111.44 248.88,248.89 0,137.45 -111.43,248.89 -248.88,248.89 -137.46,0 -248.89,-111.44 -248.89,-248.89 0,-137.45 111.43,-248.89 248.89,-248.89zm3636.36 0c137.45,0 248.89,111.44 248.89,248.89 0,137.45 -111.44,248.89 -248.89,248.89 -137.45,0 -248.89,-111.44 -248.89,-248.89 0,-137.45 111.44,-248.89 248.89,-248.89zm3636.36 0c137.46,0 248.89,111.44 248.89,248.89 0,137.45 -111.43,248.89 -248.89,248.89 -137.45,0 -248.88,-111.44 -248.88,-248.89 0,-137.45 111.43,-248.89 248.88,-248.89zm-39999.99 3253.47c137.45,0 248.88,111.43 248.88,248.88 0,137.46 -111.43,248.89 -248.88,248.89 -137.46,0 -248.89,-111.43 -248.89,-248.89 0,-137.45 111.43,-248.88 248.89,-248.88zm3636.36 0c137.45,0 248.89,111.43 248.89,248.88 0,137.46 -111.44,248.89 -248.89,248.89 -137.45,0 -248.89,-111.43 -248.89,-248.89 0,-137.45 111.44,-248.88 248.89,-248.88zm3636.36 0c137.46,0 248.89,111.43 248.89,248.88 0,137.46 -111.43,248.89 -248.89,248.89 -137.45,0 -248.88,-111.43 -248.88,-248.89 0,-137.45 111.43,-248.88 248.88,-248.88zm3636.37 0c137.45,0 248.88,111.43 248.88,248.88 0,137.46 -111.43,248.89 -248.88,248.89 -137.46,0 -248.89,-111.43 -248.89,-248.89 0,-137.45 111.43,-248.88 248.89,-248.88zm3636.36 0c137.45,0 248.89,111.43 248.89,248.88 0,137.46 -111.44,248.89 -248.89,248.89 -137.45,0 -248.89,-111.43 -248.89,-248.89 0,-137.45 111.44,-248.88 248.89,-248.88zm3636.36 0c137.46,0 248.89,111.43 248.89,248.88 0,137.46 -111.43,248.89 -248.89,248.89 -137.45,0 -248.88,-111.43 -248.88,-248.89 0,-137.45 111.43,-248.88 248.88,-248.88zm3636.37 0c137.45,0 248.88,111.43 248.88,248.88 0,137.46 -111.43,248.89 -248.88,248.89 -137.46,0 -248.89,-111.43 -248.89,-248.89 0,-137.45 111.43,-248.88 248.89,-248.88zm3636.36 0c137.45,0 248.89,111.43 248.89,248.88 0,137.46 -111.44,248.89 -248.89,248.89 -137.45,0 -248.89,-111.43 -248.89,-248.89 0,-137.45 111.44,-248.88 248.89,-248.88zm3636.36 0c137.46,0 248.89,111.43 248.89,248.88 0,137.46 -111.43,248.89 -248.89,248.89 -137.45,0 -248.88,-111.43 -248.88,-248.89 0,-137.45 111.43,-248.88 248.88,-248.88zm3636.37 0c137.45,0 248.88,111.43 248.88,248.88 0,137.46 -111.43,248.89 -248.88,248.89 -137.46,0 -248.89,-111.43 -248.89,-248.89 0,-137.45 111.43,-248.88 248.89,-248.88zm3636.36 0c137.45,0 248.89,111.43 248.89,248.88 0,137.46 -111.44,248.89 -248.89,248.89 -137.45,0 -248.89,-111.43 -248.89,-248.89 0,-137.45 111.44,-248.88 248.89,-248.88zm3636.36 0c137.46,0 248.89,111.43 248.89,248.88 0,137.46 -111.43,248.89 -248.89,248.89 -137.45,0 -248.88,-111.43 -248.88,-248.89 0,-137.45 111.43,-248.88 248.88,-248.88zm-39999.99 3253.46c137.45,0 248.88,111.43 248.88,248.89 0,137.45 -111.43,248.88 -248.88,248.88 -137.46,0 -248.89,-111.43 -248.89,-248.88 0,-137.46 111.43,-248.89 248.89,-248.89zm3636.36 0c137.45,0 248.89,111.43 248.89,248.89 0,137.45 -111.44,248.88 -248.89,248.88 -137.45,0 -248.89,-111.43 -248.89,-248.88 0,-137.46 111.44,-248.89 248.89,-248.89zm3636.36 0c137.46,0 248.89,111.43 248.89,248.89 0,137.45 -111.43,248.88 -248.89,248.88 -137.45,0 -248.88,-111.43 -248.88,-248.88 0,-137.46 111.43,-248.89 248.88,-248.89zm3636.37 0c137.45,0 248.88,111.43 248.88,248.89 0,137.45 -111.43,248.88 -248.88,248.88 -137.46,0 -248.89,-111.43 -248.89,-248.88 0,-137.46 111.43,-248.89 248.89,-248.89zm3636.36 0c137.45,0 248.89,111.43 248.89,248.89 0,137.45 -111.44,248.88 -248.89,248.88 -137.45,0 -248.89,-111.43 -248.89,-248.88 0,-137.46 111.44,-248.89 248.89,-248.89zm3636.36 0c137.46,0 248.89,111.43 248.89,248.89 0,137.45 -111.43,248.88 -248.89,248.88 -137.45,0 -248.88,-111.43 -248.88,-248.88 0,-137.46 111.43,-248.89 248.88,-248.89zm3636.37 0c137.45,0 248.88,111.43 248.88,248.89 0,137.45 -111.43,248.88 -248.88,248.88 -137.46,0 -248.89,-111.43 -248.89,-248.88 0,-137.46 111.43,-248.89 248.89,-248.89zm3636.36 0c137.45,0 248.89,111.43 248.89,248.89 0,137.45 -111.44,248.88 -248.89,248.88 -137.45,0 -248.89,-111.43 -248.89,-248.88 0,-137.46 111.44,-248.89 248.89,-248.89zm3636.36 0c137.46,0 248.89,111.43 248.89,248.89 0,137.45 -111.43,248.88 -248.89,248.88 -137.45,0 -248.88,-111.43 -248.88,-248.88 0,-137.46 111.43,-248.89 248.88,-248.89zm3636.37 0c137.45,0 248.88,111.43 248.88,248.89 0,137.45 -111.43,248.88 -248.88,248.88 -137.46,0 -248.89,-111.43 -248.89,-248.88 0,-137.46 111.43,-248.89 248.89,-248.89zm3636.36 0c137.45,0 248.89,111.43 248.89,248.89 0,137.45 -111.44,248.88 -248.89,248.88 -137.45,0 -248.89,-111.43 -248.89,-248.88 0,-137.46 111.44,-248.89 248.89,-248.89zm3636.36 0c137.46,0 248.89,111.43 248.89,248.89 0,137.45 -111.43,248.88 -248.89,248.88 -137.45,0 -248.88,-111.43 -248.88,-248.88 0,-137.46 111.43,-248.89 248.88,-248.89zm-39999.99 3253.46c137.45,0 248.88,111.44 248.88,248.89 0,137.45 -111.43,248.89 -248.88,248.89 -137.46,0 -248.89,-111.44 -248.89,-248.89 0,-137.45 111.43,-248.89 248.89,-248.89zm3636.36 0c137.45,0 248.89,111.44 248.89,248.89 0,137.45 -111.44,248.89 -248.89,248.89 -137.45,0 -248.89,-111.44 -248.89,-248.89 0,-137.45 111.44,-248.89 248.89,-248.89zm3636.36 0c137.46,0 248.89,111.44 248.89,248.89 0,137.45 -111.43,248.89 -248.89,248.89 -137.45,0 -248.88,-111.44 -248.88,-248.89 0,-137.45 111.43,-248.89 248.88,-248.89zm3636.37 0c137.45,0 248.88,111.44 248.88,248.89 0,137.45 -111.43,248.89 -248.88,248.89 -137.46,0 -248.89,-111.44 -248.89,-248.89 0,-137.45 111.43,-248.89 248.89,-248.89zm3636.36 0c137.45,0 248.89,111.44 248.89,248.89 0,137.45 -111.44,248.89 -248.89,248.89 -137.45,0 -248.89,-111.44 -248.89,-248.89 0,-137.45 111.44,-248.89 248.89,-248.89zm3636.36 0c137.46,0 248.89,111.44 248.89,248.89 0,137.45 -111.43,248.89 -248.89,248.89 -137.45,0 -248.88,-111.44 -248.88,-248.89 0,-137.45 111.43,-248.89 248.88,-248.89zm3636.37 0c137.45,0 248.88,111.44 248.88,248.89 0,137.45 -111.43,248.89 -248.88,248.89 -137.46,0 -248.89,-111.44 -248.89,-248.89 0,-137.45 111.43,-248.89 248.89,-248.89zm3636.36 0c137.45,0 248.89,111.44 248.89,248.89 0,137.45 -111.44,248.89 -248.89,248.89 -137.45,0 -248.89,-111.44 -248.89,-248.89 0,-137.45 111.44,-248.89 248.89,-248.89zm3636.36 0c137.46,0 248.89,111.44 248.89,248.89 0,137.45 -111.43,248.89 -248.89,248.89 -137.45,0 -248.88,-111.44 -248.88,-248.89 0,-137.45 111.43,-248.89 248.88,-248.89zm3636.37 0c137.45,0 248.88,111.44 248.88,248.89 0,137.45 -111.43,248.89 -248.88,248.89 -137.46,0 -248.89,-111.44 -248.89,-248.89 0,-137.45 111.43,-248.89 248.89,-248.89zm3636.36 0c137.45,0 248.89,111.44 248.89,248.89 0,137.45 -111.44,248.89 -248.89,248.89 -137.45,0 -248.89,-111.44 -248.89,-248.89 0,-137.45 111.44,-248.89 248.89,-248.89zm3636.36 0c137.46,0 248.89,111.44 248.89,248.89 0,137.45 -111.43,248.89 -248.89,248.89 -137.45,0 -248.88,-111.44 -248.88,-248.89 0,-137.45 111.43,-248.89 248.88,-248.89zm-39999.99 3253.47c137.45,0 248.88,111.43 248.88,248.88 0,137.46 -111.43,248.89 -248.88,248.89 -137.46,0 -248.89,-111.43 -248.89,-248.89 0,-137.45 111.43,-248.88 248.89,-248.88zm3636.36 0c137.45,0 248.89,111.43 248.89,248.88 0,137.46 -111.44,248.89 -248.89,248.89 -137.45,0 -248.89,-111.43 -248.89,-248.89 0,-137.45 111.44,-248.88 248.89,-248.88zm3636.36 0c137.46,0 248.89,111.43 248.89,248.88 0,137.46 -111.43,248.89 -248.89,248.89 -137.45,0 -248.88,-111.43 -248.88,-248.89 0,-137.45 111.43,-248.88 248.88,-248.88zm3636.37 0c137.45,0 248.88,111.43 248.88,248.88 0,137.46 -111.43,248.89 -248.88,248.89 -137.46,0 -248.89,-111.43 -248.89,-248.89 0,-137.45 111.43,-248.88 248.89,-248.88zm3636.36 0c137.45,0 248.89,111.43 248.89,248.88 0,137.46 -111.44,248.89 -248.89,248.89 -137.45,0 -248.89,-111.43 -248.89,-248.89 0,-137.45 111.44,-248.88 248.89,-248.88zm3636.36 0c137.46,0 248.89,111.43 248.89,248.88 0,137.46 -111.43,248.89 -248.89,248.89 -137.45,0 -248.88,-111.43 -248.88,-248.89 0,-137.45 111.43,-248.88 248.88,-248.88zm3636.37 0c137.45,0 248.88,111.43 248.88,248.88 0,137.46 -111.43,248.89 -248.88,248.89 -137.46,0 -248.89,-111.43 -248.89,-248.89 0,-137.45 111.43,-248.88 248.89,-248.88zm3636.36 0c137.45,0 248.89,111.43 248.89,248.88 0,137.46 -111.44,248.89 -248.89,248.89 -137.45,0 -248.89,-111.43 -248.89,-248.89 0,-137.45 111.44,-248.88 248.89,-248.88zm3636.36 0c137.46,0 248.89,111.43 248.89,248.88 0,137.46 -111.43,248.89 -248.89,248.89 -137.45,0 -248.88,-111.43 -248.88,-248.89 0,-137.45 111.43,-248.88 248.88,-248.88zm3636.37 0c137.45,0 248.88,111.43 248.88,248.88 0,137.46 -111.43,248.89 -248.88,248.89 -137.46,0 -248.89,-111.43 -248.89,-248.89 0,-137.45 111.43,-248.88 248.89,-248.88zm3636.36 0c137.45,0 248.89,111.43 248.89,248.88 0,137.46 -111.44,248.89 -248.89,248.89 -137.45,0 -248.89,-111.43 -248.89,-248.89 0,-137.45 111.44,-248.88 248.89,-248.88zm3636.36 0c137.46,0 248.89,111.43 248.89,248.88 0,137.46 -111.43,248.89 -248.89,248.89 -137.45,0 -248.88,-111.43 -248.88,-248.89 0,-137.45 111.43,-248.88 248.88,-248.88zm-39999.99 3253.46c137.45,0 248.88,111.44 248.88,248.89 0,137.45 -111.43,248.89 -248.88,248.89 -137.46,0 -248.89,-111.44 -248.89,-248.89 0,-137.45 111.43,-248.89 248.89,-248.89zm3636.36 0c137.45,0 248.89,111.44 248.89,248.89 0,137.45 -111.44,248.89 -248.89,248.89 -137.45,0 -248.89,-111.44 -248.89,-248.89 0,-137.45 111.44,-248.89 248.89,-248.89zm3636.36 0c137.46,0 248.89,111.44 248.89,248.89 0,137.45 -111.43,248.89 -248.89,248.89 -137.45,0 -248.88,-111.44 -248.88,-248.89 0,-137.45 111.43,-248.89 248.88,-248.89zm3636.37 0c137.45,0 248.88,111.44 248.88,248.89 0,137.45 -111.43,248.89 -248.88,248.89 -137.46,0 -248.89,-111.44 -248.89,-248.89 0,-137.45 111.43,-248.89 248.89,-248.89zm3636.36 0c137.45,0 248.89,111.44 248.89,248.89 0,137.45 -111.44,248.89 -248.89,248.89 -137.45,0 -248.89,-111.44 -248.89,-248.89 0,-137.45 111.44,-248.89 248.89,-248.89zm3636.36 0c137.46,0 248.89,111.44 248.89,248.89 0,137.45 -111.43,248.89 -248.89,248.89 -137.45,0 -248.88,-111.44 -248.88,-248.89 0,-137.45 111.43,-248.89 248.88,-248.89zm3636.37 0c137.45,0 248.88,111.44 248.88,248.89 0,137.45 -111.43,248.89 -248.88,248.89 -137.46,0 -248.89,-111.44 -248.89,-248.89 0,-137.45 111.43,-248.89 248.89,-248.89zm3636.36 0c137.45,0 248.89,111.44 248.89,248.89 0,137.45 -111.44,248.89 -248.89,248.89 -137.45,0 -248.89,-111.44 -248.89,-248.89 0,-137.45 111.44,-248.89 248.89,-248.89zm3636.36 0c137.46,0 248.89,111.44 248.89,248.89 0,137.45 -111.43,248.89 -248.89,248.89 -137.45,0 -248.88,-111.44 -248.88,-248.89 0,-137.45 111.43,-248.89 248.88,-248.89zm3636.37 0c137.45,0 248.88,111.44 248.88,248.89 0,137.45 -111.43,248.89 -248.88,248.89 -137.46,0 -248.89,-111.44 -248.89,-248.89 0,-137.45 111.43,-248.89 248.89,-248.89zm3636.36 0c137.45,0 248.89,111.44 248.89,248.89 0,137.45 -111.44,248.89 -248.89,248.89 -137.45,0 -248.89,-111.44 -248.89,-248.89 0,-137.45 111.44,-248.89 248.89,-248.89zm3636.36 0c137.46,0 248.89,111.44 248.89,248.89 0,137.45 -111.43,248.89 -248.89,248.89 -137.45,0 -248.88,-111.44 -248.88,-248.89 0,-137.45 111.43,-248.89 248.88,-248.89zm-39999.99 3253.46c137.45,0 248.88,111.44 248.88,248.89 0,137.45 -111.43,248.89 -248.88,248.89 -137.46,0 -248.89,-111.44 -248.89,-248.89 0,-137.45 111.43,-248.89 248.89,-248.89zm3636.36 0c137.45,0 248.89,111.44 248.89,248.89 0,137.45 -111.44,248.89 -248.89,248.89 -137.45,0 -248.89,-111.44 -248.89,-248.89 0,-137.45 111.44,-248.89 248.89,-248.89zm3636.36 0c137.46,0 248.89,111.44 248.89,248.89 0,137.45 -111.43,248.89 -248.89,248.89 -137.45,0 -248.88,-111.44 -248.88,-248.89 0,-137.45 111.43,-248.89 248.88,-248.89zm3636.37 0c137.45,0 248.88,111.44 248.88,248.89 0,137.45 -111.43,248.89 -248.88,248.89 -137.46,0 -248.89,-111.44 -248.89,-248.89 0,-137.45 111.43,-248.89 248.89,-248.89zm3636.36 0c137.45,0 248.89,111.44 248.89,248.89 0,137.45 -111.44,248.89 -248.89,248.89 -137.45,0 -248.89,-111.44 -248.89,-248.89 0,-137.45 111.44,-248.89 248.89,-248.89zm3636.36 0c137.46,0 248.89,111.44 248.89,248.89 0,137.45 -111.43,248.89 -248.89,248.89 -137.45,0 -248.88,-111.44 -248.88,-248.89 0,-137.45 111.43,-248.89 248.88,-248.89zm3636.37 0c137.45,0 248.88,111.44 248.88,248.89 0,137.45 -111.43,248.89 -248.88,248.89 -137.46,0 -248.89,-111.44 -248.89,-248.89 0,-137.45 111.43,-248.89 248.89,-248.89zm3636.36 0c137.45,0 248.89,111.44 248.89,248.89 0,137.45 -111.44,248.89 -248.89,248.89 -137.45,0 -248.89,-111.44 -248.89,-248.89 0,-137.45 111.44,-248.89 248.89,-248.89zm3636.36 0c137.46,0 248.89,111.44 248.89,248.89 0,137.45 -111.43,248.89 -248.89,248.89 -137.45,0 -248.88,-111.44 -248.88,-248.89 0,-137.45 111.43,-248.89 248.88,-248.89zm3636.37 0c137.45,0 248.88,111.44 248.88,248.89 0,137.45 -111.43,248.89 -248.88,248.89 -137.46,0 -248.89,-111.44 -248.89,-248.89 0,-137.45 111.43,-248.89 248.89,-248.89zm3636.36 0c137.45,0 248.89,111.44 248.89,248.89 0,137.45 -111.44,248.89 -248.89,248.89 -137.45,0 -248.89,-111.44 -248.89,-248.89 0,-137.45 111.44,-248.89 248.89,-248.89zm3636.36 0c137.46,0 248.89,111.44 248.89,248.89 0,137.45 -111.43,248.89 -248.89,248.89 -137.45,0 -248.88,-111.44 -248.88,-248.89 0,-137.45 111.43,-248.89 248.88,-248.89z"/>
 </g>
</svg>
