<?xml version="1.0" encoding="UTF-8"?>
<svg id="Layer_1" xmlns="http://www.w3.org/2000/svg" xmlns:xlink="http://www.w3.org/1999/xlink" version="1.1" viewBox="0 0 302 300">
  <!-- Generator: Adobe Illustrator 29.3.0, SVG Export Plug-In . SVG Version: 2.1.0 Build 146)  -->
  <defs>
    <style>
      .st0 {
        fill: #fff;
      }

      .st1 {
        fill: none;
        stroke: #6e6c69;
        stroke-miterlimit: 10;
        stroke-width: 3px;
      }

      .st2 {
        fill: #2c3640;
      }

      .st3 {
        fill: #754c28;
      }
    </style>
  </defs>
  <path class="st0" d="M152.6,295.7c-32.2,0-62.3-8.3-85-23.4-23.8-15.9-37-37.6-37-61.3s3.4-23.4,9.8-33.9c-19.6-6.4-33.7-25.6-36.7-51.1-2.3-18.9,1-36.1,9.5-48.5,9.3-13.7,24.6-21.6,42.1-21.6h2.1c5,0,10.1.8,15.1,2.1,20.8-16.7,50.5-26.2,82.1-26.2h3c-1.4-5.5-4.3-11-8.5-15.9-2.7-3.2-2.7-7.9.1-11,1.6-1.8,3.9-2.9,6.4-2.9s3.2.5,4.5,1.3c9.2,5.9,16.6,13.5,21.6,22.3,5.9-2.7,12.3-4.1,18.8-4.1s4.3.2,6.4.4c4,.6,7.1,3.9,7.3,8,.2,4-2.5,7.7-6.5,8.6-.9.2-1.8.5-2.7.8,9,2.8,17.6,6.4,25.4,10.6l8.4-10.8c.4-.5.9-1.1,1.4-1.6.1,0,.2-.2.3-.3l.3-.3c2.5-2.4,5.6-4.6,8.4-5.8l14-6.1c1.2-.5,2.5-.9,3.8-1.1.5-.1,1-.1,1.5-.1,3.2,0,6.2,1.3,8.4,3.5,2.6,2.7,3.7,6.6,3.1,10.7l-2.5,15.1c-.6,3.3-2.3,7.7-4.4,10.8l-.3.4c-.1.2-.2.4-.4.5-.1,0-.2.2-.2.3l-2.2,2.9c1.9,1.2,3.8,2.5,5.6,3.9,11.6,9.2,18.8,23.7,20.3,40.8,1.1,13.5-1.8,27.1-8.1,38.3-4.6,8.1-10.8,14.8-18.2,19.7,10.7,12.3,16.3,26.2,16.3,40.4,0,22.5-13.9,43.6-39,59.6-23.8,15.1-55.1,24-88.4,25h-5.9Z"/>
  <path class="st0" d="M152.6,290.7c-31.2,0-60.4-8-82.2-22.5-22.4-14.9-34.8-35.2-34.8-57.1s4.5-25.8,13.1-37.1c-21.1-3.1-36.8-21.8-39.9-48.5-2.2-17.7.9-33.7,8.7-45.1,8.3-12.4,22.2-19.5,37.9-19.5h1.9c5.4,0,11,1,16.5,2.6,20-17,49.4-26.7,80.9-26.7s3.5,0,5.2,0c1.2,0,2.5,0,3.7.2-.5-8.2-4.3-16.9-10.6-24.3-1.1-1.3-1.1-3.2,0-4.5.7-.8,1.6-1.2,2.6-1.2s1.3.2,1.9.5c10,6.4,17.7,15.1,22.1,24.9,6.3-3.8,13.6-5.9,20.9-5.9s3.8.1,5.7.4c1.6.2,2.9,1.6,3,3.3.1,1.7-1,3.1-2.6,3.5-5.3,1.3-10.2,3.8-14.3,7.3,14.4,3.3,27.9,8.6,39.5,15.4l11.1-14.2c.3-.4.7-.8,1.1-1.3q.1,0,.2-.2l.3-.3c2-2,4.7-3.8,6.8-4.8l14-6.1c.8-.3,1.6-.6,2.4-.7.3,0,.6-.1.9-.1,1.8,0,3.5.7,4.7,2,1.5,1.6,2.2,3.9,1.7,6.4l-2.5,15.1c-.4,2.7-1.9,6.3-3.6,8.8l-.3.4c-.1,0-.1.2-.2.3s-.1.2-.2.3l-5.9,7.6c3.7,1.6,7,3.6,10.1,6.1,10.6,8.4,17.1,21.6,18.4,37.3,1,12.5-1.6,25.1-7.4,35.4-5.2,9.3-12.7,16.5-21.8,20.9,12.6,12.6,19.3,26.9,19.3,41.6s-13.1,40.3-36.7,55.4c-23,14.6-53.5,23.2-85.8,24.2-2,.1-3.9.1-5.8.1h0ZM259.2,42.6c.4.6.6,1.3.7,2,.2,1.3-.2,2.5-1,3.5-.3.3-.4.6-.5.8.2,0,.4-.3.7-.6.9-1.2,2.3-1.8,3.7-1.8s.7,0,1,0l.5-3.2c-.1,0-.2,0-.3-.2-.1,0-.1,0-.2,0-.3-.2-.6-.4-.8-.6-.3-.3-.7-.5-1-.9-.1,0-.1,0-.2,0l-2.6,1.1Z"/>
  <path class="st0" d="M255.3,168.3c22-7.8,33.9-31.1,32-54.9-1.2-14.2-7-26.9-17.2-34.9-3.9-3.2-8.5-5.6-13.5-7.2l8.8-11.3c.1,0,.2-.2.3-.3h0l.3-.4c1.4-2.1,2.7-5.3,3.1-7.5l2-12,.5-3.1c.2-1.4-.1-2.6-.8-3.4-.7-.7-1.7-1-2.8-.9-.5,0-1,.2-1.4.4l-2.6,1.1h0l-11.4,5c-1.8.8-4.1,2.4-5.8,4.1l-.3.3h0c-.4.4-.7.8-1,1.1l-12.9,16.6c-13.1-8.2-29.3-14.4-47.1-17.8,5.1-6.3,12.2-10.9,20.3-12.8-10.2-1.4-20.1,1.5-27.7,7.3-3.6-10.3-11.3-20.2-22.4-27.2,7.8,9.2,11.9,20.1,11.4,30.2-2.4-.2-4.8-.3-7.3-.4-34.5-1.1-65.5,9.5-85.2,27-5.6-1.8-11.4-2.8-17.4-3-16.3-.6-29.3,6.6-36.9,17.9-7.7,11.3-10.1,26.7-8.1,42.7,3.2,27.3,20.4,46.3,43.4,45.9-10.5,11.7-16.6,25.4-16.6,40.2,0,44.4,53.9,78.2,119.2,76.1,65.4-2,119.1-35.8,119.2-76.1,0-15.7-8.2-30.5-22.1-42.7ZM268.7,38.7h0c-.1,0-.2,0-.2,0,0,0,.1,0,.2,0ZM265.3,36.1q.1,0,.2.2c-.1,0-.1,0-.2-.2h0ZM248.8,44.9q0-.1,0,0v-.3c1.5-1.4,3.3-2.7,4.7-3.3l9.3-4c.2.3.4.5.6.8q.1,0,.2.2c.2.2.3.4.5.6s.1,0,.2.2c.3.2.5.5.8.7.2.2.4.3.6.5.1,0,.1,0,.2,0,.4.3.9.5,1.3.8q.1,0,.2,0c.2,0,.4.2.7.3h0l-1.7,10c-.3,1.7-1.3,4.2-2.4,6h-.6c-.1,0-.1,0-.2,0-.8-.6-1.1-3.2.5-5.3.2-.3.3-.6.3-1s-.2-.6-.5-.9c-.6-.4-1.4-.3-1.8.2-1.6,2.1-3.8,2.7-5.5,1.3h0c-2.1-1.6-1.4-4-.1-5.7.2-.3.3-.6.3-1s-.2-.6-.5-.9c-.6-.4-1.4-.3-1.8.2-.8,1.1-2.1,1.8-3.4,2-.8,0-1.3,0-1.6-.2h-.1c0,0,0-.2-.1-.2h0v-.2h0v-.2h0v-.3h0c0-.3,0-.4,0-.4Z"/>
  <path class="st3" d="M270.8,33.2c-.7-.7-1.7-1-2.8-.9-.5,0-1,.2-1.4.4l-2.6,1.1h0l-11.4,5c-1.8.8-4.1,2.4-5.8,4.1l-.3.3h0c-.4.4-.7.8-1,1.1l-32.7,41.9c-.9,1.2-1.3,2.6-1.1,4.1s.9,2.8,2.1,3.7l11.2,8.7c1.2.9,2.6,1.3,4.1,1.1,1.5-.2,2.8-.9,3.7-2.1l32.7-41.7c.1,0,.2-.2.3-.3h0l.3-.4c1.4-2.1,2.7-5.3,3.1-7.5l2-12,.5-3.1c.2-1.5,0-2.7-.9-3.5Z"/>
  <path class="st2" d="M116.1,112.4c.3,11.3-4.4,22.2-12.7,32.5-8.3,10.1-20.3,19.6-34.8,23.9-29.4,9.1-52.8-11.5-56.5-43.8-2-16,.4-31.4,8.1-42.7,7.6-11.3,20.6-18.5,36.9-17.9,16.2.4,31.5,7.6,42,16.7,10.7,9.1,16.5,20.1,17,31.3Z"/>
  <path class="st0" d="M112,110c.3,9.1-3.9,17.8-11,25.7-7.2,7.8-17.2,14.8-29.1,18-23.8,6.7-43.8-8.7-47.1-34-3.7-25.2,11.8-47.9,38.7-47.1,26.9,1,48.2,19.9,48.5,37.4Z"/>
  <path class="st2" d="M183.7,125.8c1.2,11.7,7.4,22.7,17.8,31.4,10.3,8.5,24.7,14.8,39.9,13.9,30.8-1.6,48.3-29.2,46-57.6-1.2-14.2-7-26.9-17.2-34.9-10-8.1-24.3-11.5-39.5-8.3-15.3,3.1-27.9,12.3-36.1,22.3-8.3,10.2-12,21.4-10.9,33.2Z"/>
  <path class="st0" d="M186.9,118.5c2,16.9,23.3,32.4,48.7,30.6,25.3-2.1,42.3-22.4,41-43.3-1-21-22.3-35.6-48.7-29.9-13,2.6-24,9.6-31.2,17.3-7.4,7.9-10.9,16.5-9.8,25.3Z"/>
  <path class="st1" d="M255.5,52.7"/>
  <path class="st0" d="M253.6,41.2c-1.4.6-3.3,1.9-4.7,3.3-.1.7,0,1.3.3,1.6l14.2,11.1c.2.2.5.2.7.2,1.1-1.8,2.1-4.3,2.4-6l1.7-10h0c-.2,0-.4-.2-.7-.3q-.1,0-.2,0c-.5-.2-.9-.5-1.3-.8-.1,0-.1,0-.2,0-.2,0-.4-.3-.6-.5-.3-.2-.5-.4-.8-.7q-.1,0-.2-.2c-.2-.2-.4-.4-.5-.6q-.1,0-.2-.2c-.2-.3-.4-.5-.6-.8l-9.3,4.1Z"/>
  <path d="M264.4,39c.3.2.5.5.8.7-.2-.2-.5-.5-.8-.7Z"/>
  <path d="M265.9,40.1c.1,0,.1,0,.2,0-.1,0-.2,0-.2,0Z"/>
  <path d="M266.1,37c-.2-.2-.4-.4-.5-.6.1.2.3.4.5.6Z"/>
  <path d="M265.5,36.3q-.1,0-.2-.2h0c.1.1.1.2.2.2Z"/>
  <path d="M266.8,37.6c-.2-.2-.4-.3-.6-.5.2.2.4.4.6.5Z"/>
  <path d="M267.5,38.1c-.2,0-.4-.3-.7-.5.2.2.5.3.7.5Z"/>
  <path d="M264.2,38.8c-.2-.2-.4-.4-.5-.6.2.2.3.4.5.6Z"/>
  <path d="M268.7,38.7h0c-.1,0-.2,0-.2,0,0,0,.1,0,.2,0Z"/>
  <path d="M268.3,38.5c-.2,0-.5-.2-.7-.4.2.2.4.3.7.4Z"/>
  <path d="M267.4,41q.1,0,.2,0c-.1,0-.2,0-.2,0Z"/>
  <path d="M267.6,38.2h-.1c0-.1.1-.1.1,0Z"/>
  <path d="M266.2,37.1h-.1c0,0,.1,0,.1,0Z"/>
  <path d="M268.4,38.6s-.1,0-.1,0c0,0,.1,0,.1,0Z"/>
  <path d="M267.5,41c.2,0,.4.2.7.3-.2,0-.5-.2-.7-.3Z"/>
  <path d="M266,40.2c.4.3.9.5,1.3.8-.4-.2-.9-.5-1.3-.8Z"/>
  <path d="M264.4,39q-.1,0-.2-.2c.1,0,.2.1.2.2Z"/>
  <path d="M265.2,39.7c.2.2.4.3.6.5-.2-.2-.4-.4-.6-.5Z"/>
  <path d="M265.6,36.4h-.1.1Z"/>
  <path d="M263.5,38q.1,0,.2.2t-.2-.2Z"/>
  <path class="st2" d="M270.8,33.2c-.7-.7-1.7-1-2.8-.9-.5,0-1,.2-1.4.4l-2.6,1.1h0l-11.4,5c-1.8.8-4.1,2.4-5.8,4.1l-.3.3h0c-.4.4-.7.8-1,1.1l-12.9,16.6c-13.1-8.2-29.3-14.4-47.1-17.8,5.1-6.3,12.2-10.9,20.3-12.8-10.2-1.4-20.1,1.5-27.7,7.3-3.6-10.3-11.3-20.2-22.4-27.2,7.8,9.2,11.9,20.1,11.4,30.2-2.4-.2-4.8-.3-7.3-.4-59-2-107.5,30.4-107.6,72.9,0,42.5,48.6,74.8,107.6,72.9s107.5-34.3,107.5-72.9-5.6-25.4-15.2-36.1l13.4-17c.1,0,.2-.2.3-.3h0l.3-.4c1.4-2.1,2.7-5.3,3.1-7.5l2-12,.5-3.1c.2-1.5,0-2.7-.9-3.5ZM265.3,36.1q.1,0,.2.2c-.1,0-.1,0-.2-.2h0ZM266.5,51.3c-.3,1.7-1.3,4.2-2.4,6h-.6c-.1,0-.1,0-.2,0-.8-.6-1.1-3.2.5-5.3.2-.3.3-.6.3-1s-.2-.6-.5-.9c-.6-.4-1.4-.3-1.8.2-1.6,2.1-3.8,2.7-5.5,1.3h0c-2.1-1.6-1.4-4-.1-5.7.2-.3.3-.6.3-1s-.2-.6-.5-.9c-.6-.4-1.4-.3-1.8.2-.8,1.1-2.1,1.8-3.4,2-.8,0-1.3,0-1.6-.2h-.1c0,0,0-.2-.1-.2h0v-.2h0v-.2h0v-.3h0v-.3h0v-.4c1.5-1.4,3.3-2.7,4.7-3.3l9.3-4c.2.3.4.5.6.8q.1,0,.2.2c.2.2.3.4.5.6s.1,0,.2.2c.3.2.5.5.8.7.2.2.4.3.6.5.1,0,.1,0,.2,0,.4.3.9.5,1.3.8q.1,0,.2,0c.2,0,.4.2.7.3h0l-1.8,10ZM268.7,38.7c-.1,0-.2,0-.2,0,0,0,.1,0,.2,0h0Z"/>
  <path class="st0" d="M204.8,65.5c-10.3,0-19.9,2.9-27.9,7.9-10.7-10-25.6-16.3-42.1-16.3-32.4,0-58.6,23.9-58.6,53.4s26.2,53.4,58.6,53.4,27.5-4.7,37.6-12.5c8.8,6.9,20.1,11,32.4,11,28.2,0,51-21.7,51-48.5s-22.8-48.4-51-48.4Z"/>
  <ellipse class="st2" cx="145.3" cy="125.6" rx="12.8" ry="16.5"/>
  <path class="st2" d="M201.1,131.8c-1.7,8.6-8.7,14.5-15.7,13.1-7-1.3-11.3-9.4-9.7-18,1.7-8.6,8.7-14.5,15.7-13.1,7,1.3,11.4,9.4,9.7,18Z"/>
  <path class="st2" d="M277.4,211c-.1,40.3-53.8,74.2-119.2,76.1-65.3,2.1-119.1-31.7-119.2-76.1,0-44.4,53.9-78.2,119.2-76.1,65.4,2,119.1,35.8,119.2,76.1Z"/>
  <path class="st2" d="M114.5,79.4c15.9-11.1,37.8-7.3,48.9,8.6,3.8,5.5,5.9,11.7,6.3,17.9.9-8.2-1.1-16.7-6.2-24-11.1-15.9-33-19.7-48.9-8.6-10.4,7.3-15.7,19.2-14.9,31.1,1.1-9.8,6.2-19,14.8-25Z"/>
  <path class="st2" d="M191.3,84.8c13.7-5.5,29.3,1.2,34.8,15,1.9,4.7,2.3,9.7,1.5,14.4,2.1-5.9,2.2-12.6-.3-18.9-5.5-13.7-21-20.4-34.8-15-9,3.6-15,11.5-16.5,20.4,2.5-7,7.9-13,15.3-15.9Z"/>
  <path class="st0" d="M267.3,205.7c-.1-34.2-47.9-62.8-106.2-64.5-58.2-1.7-106.2,26.9-106.2,64.5,0,36.9,46.2,65.1,102.9,64.6-1.1,1.3-2.4,2.5-3.9,3.7-2.1,1.6-4.4,2.9-6.9,4,5.9-.3,11.7-2,15.9-5.2.2-.2.4-.4.7-.5l-.3.6c-1.1,2-2.5,3.8-4.3,5.4,5.3-1.6,9.7-4.6,11.9-8.5,53.7-4.5,96.3-31.9,96.4-64.1Z"/>
  <path class="st2" d="M94.1,195.1s53.2,49.4,149.3,0c0,0-33.6,40.8-74.6,45.8,0,0-59.2,12.9-74.7-45.8Z"/>
  <path class="st2" d="M84,202.6c0-11,7.3-19.9,16.3-19.9s3.2.3,4.6.8c-2.5-1.6-5.5-2.5-8.7-2.5-9,0-16.3,7.3-16.3,16.3s1.9,8.7,4.9,11.7c-.5-1.9-.8-4.1-.8-6.4Z"/>
  <path class="st2" d="M249.4,201.2c0,1.7-.1,3.3-.4,4.9,1.7-2.5,2.6-5.3,2.5-8.2-.2-6.5-5.1-12-12.3-14.7,6,3.9,10,10.5,10.2,18Z"/>
  <path class="st0" d="M153.9,226.9c-6.7-2.7-14.2-4.2-22.2-4.2s-3.7.1-5.5.2c-3.6.3-7,.9-10.3,1.8,2.9,2.2,6.1,4.2,9.7,5.8,11.1,5.1,23.4,6.1,31.7,6.1s9.3-.4,11.4-.7c-4.1-3.6-9.1-6.7-14.8-9Z"/>
  <circle class="st2" cx="161" cy="161.9" r="7.8"/>
  <circle class="st2" cx="180.1" cy="162.3" r="7.8"/>
  <path class="st2" d="M170.2,170.8s3.6,21.5,0,40.6c0,0,12.6-17.5,0-40.6Z"/>
</svg>