<?xml version="1.0" encoding="utf-8"?>
<!-- Generator: Adobe Illustrator 22.1.0, SVG Export Plug-In . SVG Version: 6.00 Build 0)  -->
<!DOCTYPE svg PUBLIC "-//W3C//DTD SVG 1.1//EN" "http://www.w3.org/Graphics/SVG/1.1/DTD/svg11.dtd">
<svg version="1.1" id="Layer_1" xmlns="http://www.w3.org/2000/svg" xmlns:xlink="http://www.w3.org/1999/xlink" x="0px" y="0px"
	 viewBox="0 0 302 300" style="enable-background:new 0 0 302 300;" xml:space="preserve">
<style type="text/css">
	.st0{fill:#FFFFFF;}
	.st1{fill:#754C28;}
	.st2{fill:url(#SVGID_1_);}
	.st3{fill:url(#SVGID_2_);}
	.st4{fill:none;stroke:#6E6C69;stroke-width:3;stroke-miterlimit:10;}
	.st5{fill:url(#SVGID_3_);}
	.st6{fill:url(#SVGID_4_);}
	.st7{fill:url(#SVGID_5_);}
	.st8{fill:url(#SVGID_6_);}
	.st9{fill:url(#SVGID_7_);}
	.st10{fill:url(#SVGID_8_);}
	.st11{fill:url(#SVGID_9_);}
	.st12{fill:url(#SVGID_10_);}
	.st13{fill:url(#SVGID_11_);}
	.st14{fill:url(#SVGID_12_);}
	.st15{fill:url(#SVGID_13_);}
	.st16{fill:url(#SVGID_14_);}
</style>
<g>
	<path class="st0" d="M152.6,295.7c-32.2,0-62.3-8.3-85-23.4c-23.8-15.9-37-37.6-37-61.3c0-11.8,3.4-23.4,9.8-33.9
		C20.8,170.7,6.7,151.5,3.7,126c-2.3-18.9,1-36.1,9.5-48.5c9.3-13.7,24.6-21.6,42.1-21.6c0.7,0,1.4,0,2.1,0c5,0.1,10.1,0.8,15.1,2.1
		c20.8-16.7,50.5-26.2,82.1-26.2c1,0,2,0,3,0c-1.4-5.5-4.3-11-8.5-15.9c-2.7-3.2-2.7-7.9,0.1-11c1.6-1.8,3.9-2.9,6.4-2.9
		c1.6,0,3.2,0.5,4.5,1.3c9.2,5.9,16.6,13.5,21.6,22.3c5.9-2.7,12.3-4.1,18.8-4.1c2.1,0,4.3,0.2,6.4,0.4c4,0.6,7.1,3.9,7.3,8
		c0.2,4-2.5,7.7-6.5,8.6c-0.9,0.2-1.8,0.5-2.7,0.8c9,2.8,17.6,6.4,25.4,10.6l8.4-10.8c0.4-0.5,0.9-1.1,1.4-1.6
		c0.1-0.1,0.2-0.2,0.3-0.3l0.3-0.3c2.5-2.4,5.6-4.6,8.4-5.8l14-6.1c1.2-0.5,2.5-0.9,3.8-1.1c0.5-0.1,1-0.1,1.5-0.1
		c3.2,0,6.2,1.3,8.4,3.5c2.6,2.7,3.7,6.6,3.1,10.7l-2.5,15.1c-0.6,3.3-2.3,7.7-4.4,10.8l-0.3,0.4c-0.1,0.2-0.2,0.4-0.4,0.5
		c-0.1,0.1-0.2,0.2-0.2,0.3l-2.2,2.9c1.9,1.2,3.8,2.5,5.6,3.9c11.6,9.2,18.8,23.7,20.3,40.8c1.1,13.5-1.8,27.1-8.1,38.3
		c-4.6,8.1-10.8,14.8-18.2,19.7c10.7,12.3,16.3,26.2,16.3,40.4c0,22.5-13.9,43.6-39,59.6c-23.8,15.1-55.1,24-88.4,25
		C156.5,295.7,154.5,295.7,152.6,295.7L152.6,295.7z"/>
	<path class="st0" d="M152.6,290.7c-31.2,0-60.4-8-82.2-22.5c-22.4-14.9-34.8-35.2-34.8-57.1c0-13.1,4.5-25.8,13.1-37.1
		c-21.1-3.1-36.8-21.8-39.9-48.5c-2.2-17.7,0.9-33.7,8.7-45.1c8.3-12.4,22.2-19.5,37.9-19.5c0.6,0,1.3,0,1.9,0
		c5.4,0.1,11,1,16.5,2.6c20-17,49.4-26.7,80.9-26.7c1.7,0,3.5,0,5.2,0.1c1.2,0,2.5,0.1,3.7,0.2c-0.5-8.2-4.3-16.9-10.6-24.3
		c-1.1-1.3-1.1-3.2,0-4.5c0.7-0.8,1.6-1.2,2.6-1.2c0.6,0,1.3,0.2,1.9,0.5c10,6.4,17.7,15.1,22.1,24.9c6.3-3.8,13.6-5.9,20.9-5.9
		c1.9,0,3.8,0.1,5.7,0.4c1.6,0.2,2.9,1.6,3,3.3c0.1,1.7-1,3.1-2.6,3.5c-5.3,1.3-10.2,3.8-14.3,7.3c14.4,3.3,27.9,8.6,39.5,15.4
		l11.1-14.2c0.3-0.4,0.7-0.8,1.1-1.3c0.1-0.1,0.1-0.1,0.2-0.2l0.3-0.3c2-2,4.7-3.8,6.8-4.8l14-6.1c0.8-0.3,1.6-0.6,2.4-0.7
		c0.3,0,0.6-0.1,0.9-0.1c1.8,0,3.5,0.7,4.7,2c1.5,1.6,2.2,3.9,1.7,6.4l-2.5,15.1c-0.4,2.7-1.9,6.3-3.6,8.8l-0.3,0.4
		c-0.1,0.1-0.1,0.2-0.2,0.3c-0.1,0.1-0.1,0.2-0.2,0.3l-5.9,7.6c3.7,1.6,7,3.6,10.1,6.1c10.6,8.4,17.1,21.6,18.4,37.3
		c1,12.5-1.6,25.1-7.4,35.4c-5.2,9.3-12.7,16.5-21.8,20.9c12.6,12.6,19.3,26.9,19.3,41.6c0,20.7-13.1,40.3-36.7,55.4
		c-23,14.6-53.5,23.2-85.8,24.2C156.4,290.7,154.5,290.7,152.6,290.7C152.6,290.7,152.6,290.7,152.6,290.7z M259.2,42.6
		c0.4,0.6,0.6,1.3,0.7,2c0.2,1.3-0.2,2.5-1,3.5c-0.3,0.3-0.4,0.6-0.5,0.8c0.2-0.1,0.4-0.3,0.7-0.6c0.9-1.2,2.3-1.8,3.7-1.8
		c0.3,0,0.7,0,1,0.1l0.5-3.2c-0.1-0.1-0.2-0.1-0.3-0.2c-0.1,0-0.1-0.1-0.2-0.1c-0.3-0.2-0.6-0.4-0.8-0.6c-0.3-0.3-0.7-0.5-1-0.9
		c-0.1,0-0.1-0.1-0.2-0.1L259.2,42.6z"/>
	<path class="st0" d="M255.3,168.3c22-7.8,33.9-31.1,32-54.9c-1.2-14.2-7-26.9-17.2-34.9c-3.9-3.2-8.5-5.6-13.5-7.2l8.8-11.3
		c0.1-0.1,0.2-0.2,0.3-0.3l0,0l0.3-0.4c1.4-2.1,2.7-5.3,3.1-7.5l2-12l0.5-3.1c0.2-1.4-0.1-2.6-0.8-3.4c-0.7-0.7-1.7-1-2.8-0.9
		c-0.5,0.1-1,0.2-1.4,0.4l-2.6,1.1l0,0l-11.4,5c-1.8,0.8-4.1,2.4-5.8,4.1l-0.3,0.3l0,0c-0.4,0.4-0.7,0.8-1,1.1l-12.9,16.6
		c-13.1-8.2-29.3-14.4-47.1-17.8c5.1-6.3,12.2-10.9,20.3-12.8c-10.2-1.4-20.1,1.5-27.7,7.3c-3.6-10.3-11.3-20.2-22.4-27.2
		c7.8,9.2,11.9,20.1,11.4,30.2c-2.4-0.2-4.8-0.3-7.3-0.4c-34.5-1.1-65.5,9.5-85.2,27c-5.6-1.8-11.4-2.8-17.4-3
		c-16.3-0.6-29.3,6.6-36.9,17.9c-7.7,11.3-10.1,26.7-8.1,42.7c3.2,27.3,20.4,46.3,43.4,45.9C45.1,182.5,39,196.2,39,211
		c0.1,44.4,53.9,78.2,119.2,76.1c65.4-2,119.1-35.8,119.2-76.1C277.4,195.3,269.2,180.5,255.3,168.3z M268.7,38.7L268.7,38.7
		c-0.1,0-0.2-0.1-0.2-0.1C268.5,38.7,268.6,38.7,268.7,38.7z M265.3,36.1c0.1,0.1,0.1,0.1,0.2,0.2C265.4,36.3,265.4,36.2,265.3,36.1
		L265.3,36.1z M248.8,44.9C248.8,44.8,248.8,44.8,248.8,44.9c0-0.1,0-0.2,0-0.3c1.5-1.4,3.3-2.7,4.7-3.3l9.3-4
		c0.2,0.3,0.4,0.5,0.6,0.8c0.1,0.1,0.1,0.1,0.2,0.2c0.2,0.2,0.3,0.4,0.5,0.6c0.1,0.1,0.1,0.1,0.2,0.2c0.3,0.2,0.5,0.5,0.8,0.7
		c0.2,0.2,0.4,0.3,0.6,0.5c0.1,0,0.1,0.1,0.2,0.1c0.4,0.3,0.9,0.5,1.3,0.8c0.1,0,0.1,0,0.2,0.1c0.2,0.1,0.4,0.2,0.7,0.3c0,0,0,0,0,0
		l-1.7,10c-0.3,1.7-1.3,4.2-2.4,6c0,0-0.1,0-0.1,0c0,0,0,0-0.1,0c0,0-0.1,0-0.1,0c0,0-0.1,0-0.1,0c0,0-0.1,0-0.1,0c0,0,0,0-0.1,0
		c-0.1,0-0.1-0.1-0.2-0.1c-0.8-0.6-1.1-3.2,0.5-5.3c0.2-0.3,0.3-0.6,0.3-1c0-0.3-0.2-0.6-0.5-0.9c-0.6-0.4-1.4-0.3-1.8,0.2
		c-1.6,2.1-3.8,2.7-5.5,1.3l0,0c-2.1-1.6-1.4-4-0.1-5.7c0.2-0.3,0.3-0.6,0.3-1c0-0.3-0.2-0.6-0.5-0.9c-0.6-0.4-1.4-0.3-1.8,0.2
		c-0.8,1.1-2.1,1.8-3.4,2c-0.8,0.1-1.3-0.1-1.6-0.2l0,0c0,0,0,0,0,0c0,0-0.1-0.1-0.1-0.1c0,0,0,0,0,0c0,0,0-0.1-0.1-0.1
		c0,0,0,0,0-0.1c0,0,0-0.1,0-0.1c0,0,0-0.1,0-0.1c0,0,0-0.1,0-0.1c0,0,0-0.1,0-0.1c0-0.1,0-0.1,0-0.2c0,0,0-0.1,0-0.1
		C248.8,45,248.8,44.9,248.8,44.9z"/>
	<path class="st1" d="M270.8,33.2c-0.7-0.7-1.7-1-2.8-0.9c-0.5,0.1-1,0.2-1.4,0.4l-2.6,1.1l0,0l-11.4,5c-1.8,0.8-4.1,2.4-5.8,4.1
		l-0.3,0.3l0,0c-0.4,0.4-0.7,0.8-1,1.1l-32.7,41.9c-0.9,1.2-1.3,2.6-1.1,4.1c0.2,1.5,0.9,2.8,2.1,3.7l11.2,8.7
		c1.2,0.9,2.6,1.3,4.1,1.1c1.5-0.2,2.8-0.9,3.7-2.1L265.5,60c0.1-0.1,0.2-0.2,0.3-0.3l0,0l0.3-0.4c1.4-2.1,2.7-5.3,3.1-7.5l2-12
		l0.5-3.1C271.9,35.2,271.6,34,270.8,33.2z"/>
	<g>
		<linearGradient id="SVGID_1_" gradientUnits="userSpaceOnUse" x1="-21.6618" y1="214.4763" x2="187.7059" y2="-38.9689">
			<stop  offset="6.810898e-04" style="stop-color:#005D97"/>
			<stop  offset="0.63" style="stop-color:#214895"/>
			<stop  offset="1" style="stop-color:#363A93"/>
		</linearGradient>
		<path class="st2" d="M116.1,112.4c0.3,11.3-4.4,22.2-12.7,32.5c-8.3,10.1-20.3,19.6-34.8,23.9c-29.4,9.1-52.8-11.5-56.5-43.8
			c-2-16,0.4-31.4,8.1-42.7c7.6-11.3,20.6-18.5,36.9-17.9c16.2,0.4,31.5,7.6,42,16.7C109.8,90.2,115.6,101.2,116.1,112.4z"/>
	</g>
	<g>
		<path class="st0" d="M112,110c0.3,9.1-3.9,17.8-11,25.7c-7.2,7.8-17.2,14.8-29.1,18c-23.8,6.7-43.8-8.7-47.1-34
			c-3.7-25.2,11.8-47.9,38.7-47.1C90.4,73.6,111.7,92.5,112,110z"/>
	</g>
	<g>
		<linearGradient id="SVGID_2_" gradientUnits="userSpaceOnUse" x1="86.104" y1="303.5002" x2="295.4717" y2="50.055">
			<stop  offset="6.810898e-04" style="stop-color:#005D97"/>
			<stop  offset="0.63" style="stop-color:#214895"/>
			<stop  offset="1" style="stop-color:#363A93"/>
		</linearGradient>
		<path class="st3" d="M183.7,125.8c1.2,11.7,7.4,22.7,17.8,31.4c10.3,8.5,24.7,14.8,39.9,13.9c30.8-1.6,48.3-29.2,46-57.6
			c-1.2-14.2-7-26.9-17.2-34.9c-10-8.1-24.3-11.5-39.5-8.3c-15.3,3.1-27.9,12.3-36.1,22.3C186.3,102.8,182.6,114,183.7,125.8z"/>
	</g>
	<g>
		<path class="st0" d="M186.9,118.5c2,16.9,23.3,32.4,48.7,30.6c25.3-2.1,42.3-22.4,41-43.3c-1-21-22.3-35.6-48.7-29.9
			c-13,2.6-24,9.6-31.2,17.3C189.3,101.1,185.8,109.7,186.9,118.5z"/>
	</g>
	<g>
		<path class="st4" d="M255.5,52.7"/>
	</g>
	<path class="st0" d="M253.6,41.2c-1.4,0.6-3.3,1.9-4.7,3.3c-0.1,0.7,0,1.3,0.3,1.6l14.2,11.1c0.2,0.2,0.5,0.2,0.7,0.2
		c1.1-1.8,2.1-4.3,2.4-6l1.7-10c0,0,0,0,0,0c-0.2-0.1-0.4-0.2-0.7-0.3c-0.1,0-0.1,0-0.2-0.1c-0.5-0.2-0.9-0.5-1.3-0.8
		c-0.1,0-0.1-0.1-0.2-0.1c-0.2-0.1-0.4-0.3-0.6-0.5c-0.3-0.2-0.5-0.4-0.8-0.7c-0.1-0.1-0.1-0.1-0.2-0.2c-0.2-0.2-0.4-0.4-0.5-0.6
		c-0.1-0.1-0.1-0.1-0.2-0.2c-0.2-0.3-0.4-0.5-0.6-0.8L253.6,41.2z"/>
	<path d="M264.4,39c0.3,0.2,0.5,0.5,0.8,0.7C265,39.5,264.7,39.2,264.4,39z"/>
	<path d="M265.9,40.1c0.1,0,0.1,0.1,0.2,0.1C266,40.2,265.9,40.2,265.9,40.1z"/>
	<path d="M266.1,37c-0.2-0.2-0.4-0.4-0.5-0.6C265.7,36.6,265.9,36.8,266.1,37z"/>
	<path d="M265.5,36.3c-0.1-0.1-0.1-0.1-0.2-0.2l0,0C265.4,36.2,265.4,36.3,265.5,36.3z"/>
	<path d="M266.8,37.6c-0.2-0.2-0.4-0.3-0.6-0.5C266.4,37.3,266.6,37.5,266.8,37.6z"/>
	<path d="M267.5,38.1c-0.2-0.1-0.4-0.3-0.7-0.5C267,37.8,267.3,37.9,267.5,38.1z"/>
	<path d="M264.2,38.8c-0.2-0.2-0.4-0.4-0.5-0.6C263.9,38.4,264,38.6,264.2,38.8z"/>
	<path d="M268.7,38.7L268.7,38.7c-0.1,0-0.2-0.1-0.2-0.1C268.5,38.7,268.6,38.7,268.7,38.7z"/>
	<path d="M268.3,38.5c-0.2-0.1-0.5-0.2-0.7-0.4C267.8,38.3,268,38.4,268.3,38.5z"/>
	<path d="M267.4,41c0.1,0,0.1,0,0.2,0.1C267.5,41,267.4,41,267.4,41z"/>
	<path d="M267.6,38.2c0,0-0.1-0.1-0.1-0.1C267.5,38.1,267.6,38.1,267.6,38.2z"/>
	<path d="M266.2,37.1c0,0-0.1-0.1-0.1-0.1C266.1,37,266.2,37.1,266.2,37.1z"/>
	<path d="M268.4,38.6c0,0-0.1,0-0.1-0.1C268.3,38.6,268.4,38.6,268.4,38.6z"/>
	<path d="M267.5,41c0.2,0.1,0.4,0.2,0.7,0.3C268,41.2,267.7,41.1,267.5,41z"/>
	<path d="M266,40.2c0.4,0.3,0.9,0.5,1.3,0.8C266.9,40.8,266.4,40.5,266,40.2z"/>
	<path d="M264.4,39c-0.1-0.1-0.1-0.1-0.2-0.2C264.3,38.8,264.4,38.9,264.4,39z"/>
	<path d="M265.2,39.7c0.2,0.2,0.4,0.3,0.6,0.5C265.6,40,265.4,39.8,265.2,39.7z"/>
	<path d="M265.6,36.4c0,0-0.1-0.1-0.1-0.1C265.5,36.4,265.5,36.4,265.6,36.4z"/>
	<path d="M263.5,38c0.1,0.1,0.1,0.1,0.2,0.2C263.6,38.1,263.6,38.1,263.5,38z"/>
	<linearGradient id="SVGID_3_" gradientUnits="userSpaceOnUse" x1="35.8077" y1="261.9511" x2="245.1754" y2="8.5059">
		<stop  offset="6.810898e-04" style="stop-color:#005D97"/>
		<stop  offset="0.63" style="stop-color:#214895"/>
		<stop  offset="1" style="stop-color:#363A93"/>
	</linearGradient>
	<path class="st5" d="M270.8,33.2c-0.7-0.7-1.7-1-2.8-0.9c-0.5,0.1-1,0.2-1.4,0.4l-2.6,1.1l0,0l-11.4,5c-1.8,0.8-4.1,2.4-5.8,4.1
		l-0.3,0.3l0,0c-0.4,0.4-0.7,0.8-1,1.1l-12.9,16.6c-13.1-8.2-29.3-14.4-47.1-17.8c5.1-6.3,12.2-10.9,20.3-12.8
		c-10.2-1.4-20.1,1.5-27.7,7.3c-3.6-10.3-11.3-20.2-22.4-27.2c7.8,9.2,11.9,20.1,11.4,30.2c-2.4-0.2-4.8-0.3-7.3-0.4
		c-59-2-107.5,30.4-107.6,72.9c0.1,42.5,48.6,74.8,107.6,72.9c59-1.9,107.5-34.3,107.5-72.9c0-13-5.6-25.4-15.2-36.1L265.5,60
		c0.1-0.1,0.2-0.2,0.3-0.3l0,0l0.3-0.4c1.4-2.1,2.7-5.3,3.1-7.5l2-12l0.5-3.1C271.9,35.2,271.6,34,270.8,33.2z M265.3,36.1
		c0.1,0.1,0.1,0.1,0.2,0.2C265.4,36.3,265.4,36.2,265.3,36.1L265.3,36.1z M266.5,51.3c-0.3,1.7-1.3,4.2-2.4,6c0,0-0.1,0-0.1,0
		c0,0,0,0-0.1,0c0,0-0.1,0-0.1,0c0,0-0.1,0-0.1,0c0,0-0.1,0-0.1,0c0,0,0,0-0.1,0c-0.1,0-0.1-0.1-0.2-0.1c-0.8-0.6-1.1-3.2,0.5-5.3
		c0.2-0.3,0.3-0.6,0.3-1c0-0.3-0.2-0.6-0.5-0.9c-0.6-0.4-1.4-0.3-1.8,0.2c-1.6,2.1-3.8,2.7-5.5,1.3l0,0c-2.1-1.6-1.4-4-0.1-5.7
		c0.2-0.3,0.3-0.6,0.3-1c0-0.3-0.2-0.6-0.5-0.9c-0.6-0.4-1.4-0.3-1.8,0.2c-0.8,1.1-2.1,1.8-3.4,2c-0.8,0.1-1.3-0.1-1.6-0.2l0,0
		c0,0,0,0,0,0c0,0-0.1-0.1-0.1-0.1c0,0,0,0,0,0c0,0,0-0.1-0.1-0.1c0,0,0,0,0-0.1c0,0,0-0.1,0-0.1c0,0,0-0.1,0-0.1c0,0,0-0.1,0-0.1
		c0,0,0-0.1,0-0.1c0-0.1,0-0.1,0-0.2c0,0,0-0.1,0-0.1c0-0.1,0-0.1,0-0.2c0,0,0,0,0-0.1c0-0.1,0-0.2,0-0.3c1.5-1.4,3.3-2.7,4.7-3.3
		l9.3-4c0.2,0.3,0.4,0.5,0.6,0.8c0.1,0.1,0.1,0.1,0.2,0.2c0.2,0.2,0.3,0.4,0.5,0.6c0.1,0.1,0.1,0.1,0.2,0.2c0.3,0.2,0.5,0.5,0.8,0.7
		c0.2,0.2,0.4,0.3,0.6,0.5c0.1,0,0.1,0.1,0.2,0.1c0.4,0.3,0.9,0.5,1.3,0.8c0.1,0,0.1,0,0.2,0.1c0.2,0.1,0.4,0.2,0.7,0.3c0,0,0,0,0,0
		L266.5,51.3z M268.7,38.7c-0.1,0-0.2-0.1-0.2-0.1C268.5,38.7,268.6,38.7,268.7,38.7L268.7,38.7z"/>
	<path class="st0" d="M204.8,65.5c-10.3,0-19.9,2.9-27.9,7.9c-10.7-10-25.6-16.3-42.1-16.3c-32.4,0-58.6,23.9-58.6,53.4
		s26.2,53.4,58.6,53.4c14.3,0,27.5-4.7,37.6-12.5c8.8,6.9,20.1,11,32.4,11c28.2,0,51-21.7,51-48.5S233,65.5,204.8,65.5z"/>
	<linearGradient id="SVGID_4_" gradientUnits="userSpaceOnUse" x1="33.9736" y1="260.4359" x2="243.3413" y2="6.9908">
		<stop  offset="6.810898e-04" style="stop-color:#005D97"/>
		<stop  offset="0.63" style="stop-color:#214895"/>
		<stop  offset="1" style="stop-color:#363A93"/>
	</linearGradient>
	<ellipse class="st6" cx="145.3" cy="125.6" rx="12.8" ry="16.5"/>
	<linearGradient id="SVGID_5_" gradientUnits="userSpaceOnUse" x1="61.4247" y1="283.1129" x2="270.7924" y2="29.6678">
		<stop  offset="6.810898e-04" style="stop-color:#005D97"/>
		<stop  offset="0.63" style="stop-color:#214895"/>
		<stop  offset="1" style="stop-color:#363A93"/>
	</linearGradient>
	<path class="st7" d="M201.1,131.8c-1.7,8.6-8.7,14.5-15.7,13.1c-7-1.3-11.3-9.4-9.7-18c1.7-8.6,8.7-14.5,15.7-13.1
		C198.4,115.1,202.8,123.2,201.1,131.8z"/>
	<linearGradient id="SVGID_6_" gradientUnits="userSpaceOnUse" x1="82.9217" y1="300.8713" x2="292.2894" y2="47.4262">
		<stop  offset="6.810898e-04" style="stop-color:#005D97"/>
		<stop  offset="0.63" style="stop-color:#214895"/>
		<stop  offset="1" style="stop-color:#363A93"/>
	</linearGradient>
	<path class="st8" d="M277.4,211c-0.1,40.3-53.8,74.2-119.2,76.1C92.9,289.2,39.1,255.4,39,211c0.1-44.4,53.9-78.2,119.2-76.1
		C223.6,136.9,277.3,170.7,277.4,211z"/>
	<linearGradient id="SVGID_7_" gradientUnits="userSpaceOnUse" x1="13.8913" y1="243.8462" x2="223.259" y2="-9.5989">
		<stop  offset="6.810898e-04" style="stop-color:#005D97"/>
		<stop  offset="0.63" style="stop-color:#214895"/>
		<stop  offset="1" style="stop-color:#363A93"/>
	</linearGradient>
	<path class="st9" d="M114.5,79.4c15.9-11.1,37.8-7.3,48.9,8.6c3.8,5.5,5.9,11.7,6.3,17.9c0.9-8.2-1.1-16.7-6.2-24
		c-11.1-15.9-33-19.7-48.9-8.6c-10.4,7.3-15.7,19.2-14.9,31.1C100.8,94.6,105.9,85.4,114.5,79.4z"/>
	<linearGradient id="SVGID_8_" gradientUnits="userSpaceOnUse" x1="57.2071" y1="279.6289" x2="266.5749" y2="26.1837">
		<stop  offset="6.810898e-04" style="stop-color:#005D97"/>
		<stop  offset="0.63" style="stop-color:#214895"/>
		<stop  offset="1" style="stop-color:#363A93"/>
	</linearGradient>
	<path class="st10" d="M191.3,84.8c13.7-5.5,29.3,1.2,34.8,15c1.9,4.7,2.3,9.7,1.5,14.4c2.1-5.9,2.2-12.6-0.3-18.9
		c-5.5-13.7-21-20.4-34.8-15c-9,3.6-15,11.5-16.5,20.4C178.5,93.7,183.9,87.7,191.3,84.8z"/>
	<path class="st0" d="M267.3,205.7c-0.1-34.2-47.9-62.8-106.2-64.5c-58.2-1.7-106.2,26.9-106.2,64.5c0.1,36.9,46.2,65.1,102.9,64.6
		c-1.1,1.3-2.4,2.5-3.9,3.7c-2.1,1.6-4.4,2.9-6.9,4c5.9-0.3,11.7-2,15.9-5.2c0.2-0.2,0.4-0.4,0.7-0.5c-0.1,0.2-0.2,0.4-0.3,0.6
		c-1.1,2-2.5,3.8-4.3,5.4c5.3-1.6,9.7-4.6,11.9-8.5C224.6,265.3,267.2,237.9,267.3,205.7z"/>
	<linearGradient id="SVGID_9_" gradientUnits="userSpaceOnUse" x1="82.0133" y1="300.1209" x2="291.381" y2="46.6758">
		<stop  offset="6.810898e-04" style="stop-color:#005D97"/>
		<stop  offset="0.63" style="stop-color:#214895"/>
		<stop  offset="1" style="stop-color:#363A93"/>
	</linearGradient>
	<path class="st11" d="M94.1,195.1c0,0,53.2,49.4,149.3,0c0,0-33.6,40.8-74.6,45.8C168.8,240.9,109.6,253.8,94.1,195.1z"/>
	<linearGradient id="SVGID_10_" gradientUnits="userSpaceOnUse" x1="33.2211" y1="259.8143" x2="242.5888" y2="6.3692">
		<stop  offset="6.810898e-04" style="stop-color:#005D97"/>
		<stop  offset="0.63" style="stop-color:#214895"/>
		<stop  offset="1" style="stop-color:#363A93"/>
	</linearGradient>
	<path class="st12" d="M84,202.6c0-11,7.3-19.9,16.3-19.9c1.6,0,3.2,0.3,4.6,0.8c-2.5-1.6-5.5-2.5-8.7-2.5c-9,0-16.3,7.3-16.3,16.3
		c0,4.6,1.9,8.7,4.9,11.7C84.3,207.1,84,204.9,84,202.6z"/>
	<linearGradient id="SVGID_11_" gradientUnits="userSpaceOnUse" x1="126.548" y1="336.9104" x2="335.9157" y2="83.4653">
		<stop  offset="6.810898e-04" style="stop-color:#005D97"/>
		<stop  offset="0.63" style="stop-color:#214895"/>
		<stop  offset="1" style="stop-color:#363A93"/>
	</linearGradient>
	<path class="st13" d="M249.4,201.2c0,1.7-0.1,3.3-0.4,4.9c1.7-2.5,2.6-5.3,2.5-8.2c-0.2-6.5-5.1-12-12.3-14.7
		C245.2,187.1,249.2,193.7,249.4,201.2z"/>
	<path class="st0" d="M153.9,226.9c-6.7-2.7-14.2-4.2-22.2-4.2c-1.9,0-3.7,0.1-5.5,0.2c-3.6,0.3-7,0.9-10.3,1.8
		c2.9,2.2,6.1,4.2,9.7,5.8c11.1,5.1,23.4,6.1,31.7,6.1c5.2,0,9.3-0.4,11.4-0.7C164.6,232.3,159.6,229.2,153.9,226.9z"/>
	<linearGradient id="SVGID_12_" gradientUnits="userSpaceOnUse" x1="61.0803" y1="282.8284" x2="270.448" y2="29.3833">
		<stop  offset="6.810898e-04" style="stop-color:#005D97"/>
		<stop  offset="0.63" style="stop-color:#214895"/>
		<stop  offset="1" style="stop-color:#363A93"/>
	</linearGradient>
	<circle class="st14" cx="161" cy="161.9" r="7.8"/>
	<linearGradient id="SVGID_13_" gradientUnits="userSpaceOnUse" x1="72.6343" y1="292.373" x2="282.002" y2="38.9279">
		<stop  offset="6.810898e-04" style="stop-color:#005D97"/>
		<stop  offset="0.63" style="stop-color:#214895"/>
		<stop  offset="1" style="stop-color:#363A93"/>
	</linearGradient>
	<circle class="st15" cx="180.1" cy="162.3" r="7.8"/>
	<linearGradient id="SVGID_14_" gradientUnits="userSpaceOnUse" x1="80.881" y1="299.1856" x2="290.2487" y2="45.7404">
		<stop  offset="6.810898e-04" style="stop-color:#005D97"/>
		<stop  offset="0.63" style="stop-color:#214895"/>
		<stop  offset="1" style="stop-color:#363A93"/>
	</linearGradient>
	<path class="st16" d="M170.2,170.8c0,0,3.6,21.5,0,40.6C170.2,211.4,182.8,193.9,170.2,170.8z"/>
</g>
</svg>
