<?xml version="1.0" encoding="UTF-8"?>
<svg id="Layer_1" xmlns="http://www.w3.org/2000/svg" version="1.1" viewBox="0 0 1672 626.1">
  <!-- Generator: Adobe Illustrator 29.3.0, SVG Export Plug-In . SVG Version: 2.1.0 Build 146)  -->
  <defs>
    <style>
      .st0 {
        fill: #ffbf3c;
      }

      .st1 {
        fill: #f2dab2;
      }

      .st2 {
        fill: #fff;
      }

      .st3 {
        fill: none;
        stroke: #6e6c69;
        stroke-miterlimit: 10;
        stroke-width: 3px;
      }

      .st4 {
        fill: #df854f;
      }

      .st5 {
        fill: #754c28;
      }

      .st6 {
        fill: #151a1f;
      }
    </style>
  </defs>
  <g>
    <path class="st2" d="M603.4,317.8c13.2-23.4,19.2-51.9,16.9-80.1-3-35.6-18-65.8-42.2-85-4.6-3.7-9.5-7-14.8-9.9l4.8-6.1.6-.2,3.6-5.4c4.2-6.3,7.7-15,8.9-21.7l5.4-32.3c1.3-7.6-.8-14.9-5.7-20-4-4.2-9.5-6.5-15.5-6.5s-1.9,0-2.9.2c-2.4.3-4.8,1-7.2,2l-30,13.1c-5.4,2.4-11.9,6.9-16.9,11.8l-3.7,3.7v.5c-.2,0-20,25.5-20,25.5-19.7-11-41.6-19.9-65.1-26.5,4.7-2.4,53.5-35.3,13.3-34.4-32,1.6-39.8,3.6-54.7,8.9-9.7-18.4-18.3-25.6-46.2-49l-.2-.2h-.2c-6.7-4.3-11.2-6.2-14.5-6.2s-4.5,1-5.7,2.8c-3.6,5.4.4,16,9.9,39.3,3.1,7.7,6.6,16.3,10,25.4-3.2,0-6.5-.1-9.7-.1-67.5,0-131.1,20.5-175.1,56.4-11.1-2.9-22.4-4.5-33.3-4.8-1.5,0-2.9,0-4.4,0-36.3,0-68.1,16.4-87.4,44.9C3.6,189.8-3.4,225.9,1.5,265.6c3.7,31.8,15.5,59.2,34,79.2,13.2,14.3,28.7,23.9,46.3,28.7-15,23-22.9,48.7-22.9,74.6.2,99.8,113.5,178,258,178h0c4.1,0,8.3,0,12.5-.2,70.5-2.1,137.1-20.9,187.5-53,52.8-33.6,81.9-77.9,82-124.8,0-30.6-12.7-60.7-36.7-87.2,17-10.2,30.8-24.7,41.1-43Z"/>
    <path class="st5" d="M537,356.5c47.2-16.8,72.7-66.6,68.6-117.6-2.6-30.5-15.1-57.5-36.7-74.7-8.4-6.8-18.1-12-28.9-15.4l18.9-24.2c.2-.2.4-.5.6-.7h0s.6-.9.6-.9c3-4.5,5.8-11.3,6.6-16l4.3-25.7,1.1-6.6c.5-3-.1-5.6-1.8-7.4-1.5-1.5-3.5-2.2-5.9-1.9-1,.1-2,.4-3.1.9l-5.6,2.5h0s-24.4,10.6-24.4,10.6c-3.8,1.7-8.7,5.1-12.4,8.8l-.6.6h0c-.2.2-.4.4-.5.6,0,0-.1.1-.2.2-.1.2-.3.3-.4.4,0,0-.2.2-.3.3,0,.1-.2.2-.3.3-.2.2-.4.4-.5.6l-27.7,35.5c-28.1-17.6-62.7-30.9-100.8-38.2,11-13.6,26.2-23.3,43.4-27.4-21.9-3.1-43,3.1-59.3,15.7-7.7-22-24.3-43.2-47.9-58.3,16.8,19.7,25.6,43,24.5,64.8-5.2-.4-10.4-.7-15.6-.8-73.9-2.5-140.2,20.3-182.5,57.8-11.9-3.8-24.5-6.1-37.3-6.4-34.9-1.2-62.8,14.2-79.1,38.4-16.6,24.2-21.6,57.2-17.4,91.5,6.9,58.5,43.8,99.1,93,98.4-22.5,24.7-35.5,54-35.5,85.9.2,95,115.4,167.4,255.3,163.1,140-4.2,255.1-76.7,255.2-163.1,0-33.7-17.6-65.3-47.3-91.5Z"/>
    <path class="st5" d="M570.2,67.3c-1.5-1.5-3.5-2.2-5.9-1.9-1,.1-2,.4-3.1.9l-5.6,2.5h0s-24.4,10.6-24.4,10.6c-3.8,1.7-8.7,5.1-12.4,8.8l-.6.6h0c-.8.9-1.6,1.7-2.1,2.4l-70.1,89.8c-2,2.5-2.8,5.7-2.4,8.8.4,3.2,2,6,4.5,8l24,18.7c2.5,2,5.7,2.8,8.8,2.4,3.2-.4,6-2,8-4.5l70.1-89.8c.2-.2.4-.5.6-.7h0s.6-.9.6-.9c3-4.5,5.8-11.3,6.6-16l4.3-25.7,1.1-6.6c.5-3-.1-5.6-1.8-7.4Z"/>
    <path class="st6" d="M323.5,18.5c25.4,29.8,32.6,68.1,14.7,96.4-23.4,36.9-80.6,42.6-127.8,12.7-.1,0-.3-.2-.4-.3,7.8,9.2,17.4,17.6,28.5,24.6,47.2,29.9,104.5,24.2,127.8-12.7,23.3-36.8,4.1-90.8-42.8-120.7Z"/>
    <path class="st6" d="M430.8,61.1c-30.6,7.3-55.2,32.5-60,65.6-6.3,43.2,23.7,83.4,66.9,89.7.1,0,.2,0,.4,0-9.4,2.2-19.4,2.8-29.6,1.3-43.2-6.3-73.2-46.4-66.9-89.7,6.3-43.1,46.2-73,89.3-66.9Z"/>
    <g>
      <path class="st6" d="M239,236.9c.7,24.1-9.4,47.5-27.2,69.5-17.9,21.7-43.6,42-74.5,51.2-62.9,19.5-113-24.6-121.1-93.8-4.3-34.4.8-67.3,17.4-91.5,16.3-24.2,44.1-39.7,79.1-38.4,34.7.8,67.6,16.4,90,35.8,22.8,19.7,35.2,43.3,36.3,67.2Z"/>
      <path class="st1" d="M230.1,231.6c.6,19.4-8.4,38.1-23.7,55-15.3,16.7-36.9,31.8-62.2,38.5-50.9,14.3-93.9-18.5-100.8-72.8-8-53.9,25.2-102.7,82.9-100.9,57.6,2.3,103.3,42.8,103.8,80.1Z"/>
    </g>
    <g>
      <path class="st6" d="M383.6,265.5c2.7,25.1,15.8,48.6,38.1,67.2,22,18.3,53,31.7,85.5,29.7,66.1-3.3,103.4-62.5,98.4-123.5-2.6-30.5-15.1-57.5-36.7-74.7-21.4-17.3-52-24.6-84.7-17.7-32.8,6.6-59.8,26.3-77.3,47.8-17.6,22-25.6,45.9-23.3,71.1Z"/>
      <path class="st1" d="M390.4,249.8c4.3,36.3,49.9,69.4,104.3,65.5,54.1-4.5,90.7-47.9,87.8-92.7-2.2-45.1-47.8-76.2-104.2-64-27.9,5.7-51.4,20.6-66.9,37.1-15.6,16.8-23.2,35.2-20.9,54.1Z"/>
    </g>
    <g>
      <path class="st3" d="M537.4,108.9"/>
      <g>
        <path class="st1" d="M533.4,84.4c-3,1.3-7,4.1-10.2,7.1-.2,1.6,0,2.8.7,3.3l30.5,23.8c.4.3,1.1.4,1.6.3,2.4-3.9,4.5-9.2,5.1-12.9l3.6-21.4s0,0,0,0c-.5-.2-1-.4-1.4-.6-.1,0-.2-.1-.3-.2-1-.5-2-1-2.9-1.6-.1,0-.2-.1-.3-.2-.5-.3-.9-.6-1.3-1-.6-.5-1.1-1-1.7-1.5-.2-.1-.3-.3-.5-.5-.4-.4-.8-.8-1.1-1.2-.1-.2-.3-.3-.4-.5-.5-.6-.9-1.1-1.3-1.7l-19.9,8.7Z"/>
        <path d="M556.6,79.6c.5.5,1.1,1,1.7,1.5-.6-.5-1.1-1-1.7-1.5Z"/>
        <path d="M559.6,82c.1,0,.2.1.3.2-.1,0-.2-.1-.3-.2Z"/>
        <path d="M560.1,75.4c-.4-.4-.8-.8-1.1-1.2.4.4.7.8,1.1,1.2Z"/>
        <path d="M558.8,73.9c-.1-.1-.2-.3-.3-.5h0c.1.2.2.3.4.5Z"/>
        <path d="M561.7,76.7c-.5-.4-.9-.7-1.3-1.1.4.4.8.8,1.3,1.1Z"/>
        <path d="M563.1,77.7c-.5-.3-1-.6-1.4-1,.5.4.9.7,1.4,1Z"/>
        <path d="M556.1,79.2c-.4-.4-.8-.8-1.1-1.2.4.4.7.8,1.1,1.2Z"/>
        <path d="M565.6,79.1h0c-.2-.1-.4-.2-.5-.2.2,0,.3.2.5.2Z"/>
        <path d="M564.8,78.7c-.5-.2-1-.5-1.4-.8.5.3.9.6,1.4.8Z"/>
        <path d="M562.8,83.9c.1,0,.2.1.3.2-.1,0-.2-.1-.3-.2Z"/>
        <path d="M563.4,77.9c0,0-.2-.1-.3-.2,0,0,.2.1.3.2Z"/>
        <path d="M560.4,75.6c0,0-.2-.1-.2-.2,0,0,.2.1.2.2Z"/>
        <path d="M565.1,78.8c0,0-.2,0-.3-.1,0,0,.2,0,.3.1Z"/>
        <path d="M563.2,84c.5.2.9.4,1.4.6-.5-.2-1-.4-1.4-.6Z"/>
        <path d="M559.9,82.2c.9.6,1.9,1.1,2.9,1.6-1-.5-2-1-2.9-1.6Z"/>
        <path d="M556.6,79.6c-.2-.1-.3-.3-.5-.5.2.2.3.3.5.5Z"/>
        <path d="M558.3,81.1c.4.3.9.7,1.3,1-.5-.3-.9-.6-1.3-1Z"/>
        <path d="M559,74.2c0,0-.1-.2-.2-.2,0,0,.1.2.2.2Z"/>
        <path d="M554.6,77.5c.1.2.3.3.4.5-.1-.2-.3-.3-.4-.5Z"/>
        <path class="st6" d="M570.2,67.3c-1.5-1.5-3.5-2.2-5.9-1.9-1,.1-2,.4-3.1.9l-5.6,2.5h0s-24.4,10.6-24.4,10.6c-3.8,1.7-8.7,5.1-12.4,8.8l-.6.6-.2.8c-.9,4.2,0,7.7,2.5,9.7l30.5,23.8c1.9,1.5,4.5,1.9,7.4,1.1l1-.3.6-.9c3-4.5,5.8-11.3,6.6-16l4.3-25.7,1.1-6.6c.5-3-.1-5.6-1.8-7.4ZM565.6,79.1c-.2,0-.3-.2-.5-.2.2,0,.4.1.5.2h0ZM558.8,73.9c-.1-.1-.3-.3-.4-.4h0c.1.1.2.3.3.4ZM561.1,106c-.6,3.7-2.8,9-5.1,12.9-.5,0-1.2,0-1.6-.3l-30.5-23.8c-.7-.5-.9-1.8-.7-3.3,3.2-3,7.2-5.7,10.2-7.1l19.9-8.7c.4.6.9,1.2,1.3,1.7.1.2.3.3.4.5.4.4.7.8,1.1,1.2.2.2.3.3.5.5.5.5,1.1,1,1.7,1.5.4.3.9.7,1.3,1,.1,0,.2.1.3.2.9.6,1.9,1.1,2.9,1.6.1,0,.2.1.3.2.5.2.9.4,1.4.6,0,0,0,0,0,0l-3.6,21.4Z"/>
      </g>
      <g>
        <path class="st0" d="M552.7,120.8c-3.1-2.4-3.6-9.8.5-15.2-4.2,5.3-10.4,7.4-15.8,3.3-5.3-4.2-4.8-10.7-.7-16.1-4.2,5.3-11.5,6.6-14.6,4.2-1.7-1.4-2.2-3.9-1.5-6.9-.9.9-1.8,1.9-2.5,2.7l-70.1,89.8c-3.1,4-2.4,9.8,1.6,12.9l24,18.7c4,3.1,9.8,2.4,12.9-1.6l70.1-89.8c.3-.4.7-.9,1-1.4-1.9.5-3.7.4-5-.6Z"/>
        <path class="st6" d="M520.3,87.3c.6,0,1.2,0,1.7.3,1.1.6,1.6,1.8,1.4,3-.4,1.9-.2,3.5.6,4.1.5.4,1.6.7,3.4.5,2.8-.3,5.5-1.9,7.3-4.2.9-1.2,2.7-1.4,3.9-.5s1,1.1,1,1.8,0,1.4-.6,2c-2.8,3.6-4.3,8.7.2,12.2,3.8,2.9,8.4,1.7,11.9-2.8.9-1.2,2.7-1.4,3.9-.5.6.5,1,1.1,1,1.8s0,1.4-.6,2c-3.4,4.3-2.7,10-1,11.3.5.4,1.2.4,1.7.3s.5,0,.8-.2c1.1-.3,2.3.1,3,1,.7.9.7,2.2,0,3.2-.4.6-.8,1.1-1.1,1.6l-70.1,89.8c-2,2.5-4.8,4.1-8,4.5s-6.3-.5-8.8-2.4l-24-18.7c-2.5-2-4.1-4.8-4.5-8s.5-6.3,2.4-8.8l70.1-89.8c.7-.9,1.6-1.9,2.7-3,.4-.4,1-.7,1.6-.8ZM527.9,100.8c-3,.4-5.6-.2-7.4-1.6s-1.5-1.4-1.9-2.4l-68.3,87.5c-1.1,1.4-1.5,3-1.3,4.8s1.1,3.2,2.4,4.3l24,18.7c2.7,2.1,6.9,1.6,9-1.1l68-87.1c-.5-.2-1-.5-1.4-.8-2.4-1.9-3.8-5.6-3.5-9.8-4,1.3-8.2.6-11.7-2.1-3.6-2.8-5.2-6.7-4.9-10.9-1,.3-1.9.5-2.9.7Z"/>
      </g>
    </g>
    <path class="st6" d="M562.7,238.5c-.1,82.7-104,152-230.3,156.1-126.3,4.2-230.2-65.1-230.4-156.1.1-90.9,104.1-160.3,230.4-156.1,126.3,4,230.2,73.4,230.3,156.1Z"/>
    <ellipse class="st1" cx="278.9" cy="232.9" rx="125.6" ry="114.4"/>
    <ellipse class="st1" cx="428.8" cy="240.3" rx="109.3" ry="103.8"/>
    <ellipse class="st6" cx="312.3" cy="269.8" rx="27.5" ry="35.4"/>
    <ellipse class="st6" cx="391.2" cy="272.3" rx="31.4" ry="25.6" transform="translate(50 605.2) rotate(-79.1)"/>
    <path class="st6" d="M584.3,448.1c-.1,86.4-115.2,158.8-255.2,163.1-140,4.4-255.2-68.1-255.3-163.1.2-95,115.4-167.4,255.3-163.1,140,4.2,255.1,76.7,255.2,163.1Z"/>
    <path class="st1" d="M562.7,436.6c-.1,73.2-102.7,134.6-227.4,138.1-124.7,3.7-227.4-57.7-227.5-138.1.1-80.5,102.8-141.9,227.5-138.1,124.8,3.6,227.3,64.9,227.4,138.1Z"/>
    <circle class="st6" cx="334.9" cy="342.9" r="16.8"/>
    <circle class="st6" cx="376" cy="342.9" r="16.8"/>
    <path class="st6" d="M191.9,413.9s113.9,105.8,319.7,0c0,0-71.9,87.4-159.8,98.1,0,0-126.7,27.6-159.8-98.1Z"/>
    <path class="st6" d="M170,430.1c0-23.5,15.6-42.5,34.9-42.5s6.8.6,9.9,1.7c-5.4-3.4-11.7-5.3-18.6-5.3-19.3,0-34.9,15.6-34.9,34.9s4,18.7,10.5,25c-1.2-4.3-1.9-9-1.9-13.8Z"/>
    <path class="st1" d="M319.7,582.8c21.7-16.5,23-39.3,3-50.9-3.6-2.1-7.6-3.6-11.9-4.7,8.7.9,17.1,3.3,24.2,7.4,20,11.6,21.8,32,4,45.6s-21.4,10.7-34,11.2c5.3-2.3,10.3-5.2,14.7-8.6Z"/>
    <path class="st1" d="M339.7,580.4c11.3-20.6.3-42.1-24.7-48.2-4.5-1.1-9.1-1.6-13.7-1.6,8.6-1.3,17.8-1,26.6,1.2,25,6.1,37.7,24.7,28.4,41.6s-14.2,15.1-25.7,18.6c3.7-3.4,6.8-7.3,9.1-11.5Z"/>
    <path class="st6" d="M524.4,427c0,3.6-.3,7.1-1,10.5,3.6-5.3,5.6-11.3,5.5-17.6-.3-13.9-11-25.8-26.3-31.5,12.9,8.6,21.4,22.6,21.8,38.6Z"/>
    <path class="st6" d="M354.7,361.9s7.8,46.1,0,87c0,0,27-37.5,0-87Z"/>
    <path class="st4" d="M319.9,482.2c-14.3-5.7-30.4-9-47.5-9s-8,.2-11.9.5c-7.6.7-15,2-22.1,3.9,6.2,4.8,13.2,8.9,20.7,12.4,23.9,10.9,50.1,13.2,68,13.2s20-.9,24.4-1.4c-8.9-8-19.7-14.7-31.8-19.6Z"/>
    <path class="st6" d="M235.5,166.1c34-23.8,80.9-15.6,104.8,18.4,8.2,11.7,12.6,25,13.5,38.3,1.9-17.5-2.3-35.8-13.2-51.3-23.8-34-70.8-42.3-104.8-18.4-22.3,15.6-33.5,41.2-31.9,66.5,2.3-20.8,13.1-40.5,31.6-53.4Z"/>
    <path class="st6" d="M400,177.7c29.4-11.7,62.7,2.7,74.4,32.1,4,10.1,5,20.7,3.3,30.7,4.5-12.6,4.6-26.9-.7-40.4-11.7-29.4-45-43.8-74.4-32.1-19.3,7.7-32.1,24.6-35.3,43.7,5.3-15,16.9-27.7,32.8-34.1Z"/>
  </g>
  <g>
    <path class="st6" d="M729,173.3c-1.3-2.8-.8-4.4,2.6-4.6,21.4-2.3,40.6-13.1,58.1-13.9,13.1-.5,24.4,3.6,30.6,21.4,5.4,15.4,1,30.4-7.7,44-12.9,20.1-40.6,39.4-74.4,45.8-5.9,1-11.6,0-16-2.6-7.2,14.2-14.9,31.1-23.9,52.5-1,2.6-2.3,2.6-4.1.8-3.6-3.9-6.2-11.6-2.3-25.5,6.7-23.4,30.9-71.8,53.3-107-8.7-1-13.6-5.4-16.2-10.8ZM809.3,178.4c-5.4-14.2-31.1-.8-48.1,4.1,0,6.9-2.6,16-9.8,28.3-6.7,11.8-13.9,23.7-21.6,38.1,57.6-10.8,86.4-52.5,79.5-70.5Z"/>
    <path class="st6" d="M925.6,216.5c2.3-3.1,5.4-3.1,5.1,1-.3,6.4-4.1,13.1-9.5,20.6-5.9,8-18.3,21.9-32.7,36,.5,8.7,1,16.7,1.8,22.6,1.3,10.3,4.1,13.4,7.7,13.6,9,.5,22.4-18.8,29.6-34.2,1-2.3,3.3-2.1,4.1.3,1,3.6,1.3,9.8-3.1,17.2-9.5,16.5-22.9,25.5-36,25.5s-20.3-8-21.6-29.1c-18.5,16-38.6,29.1-52.7,29.1s-24.4-16.5-17.8-37.6c6.4-20.3,27.8-55.3,33.2-62.8,2.3-3.1,4.1-4.1,6.2-1.5,4.1,4.1,5.9,15.4.3,28.3-5.1,11.6-17.5,29.6-22.9,42.5-6.2,14.4-5.1,23.9,3.3,23.4,10.5-.5,29.8-14.9,49.7-33.2-1.3-19.3-3.3-46.6-5.9-59.4-.8-3.6,1.8-4.4,5.1-3.9,8.2,1.5,14.4,8.5,16.2,25.5.8,6.4,1.3,13.4,1.8,20.8,15.2-15.4,28.8-31.9,38.1-44.8ZM858.4,214c-3.6,3.9-10.5,3.1-14.4-3.9-3.9-6.9-3.3-14.4,1.3-18.8,4.4-4.1,11.8-1.3,14.7,5.7,2.8,6.7,1.3,13.9-1.5,17Z"/>
    <path class="st6" d="M960,311.7c21.4,1,40.1-19.6,51.2-36.5,1.3-2.1,3.3-2.1,4.4.3,1,2.1.3,9.3-4.4,16-10.8,15.7-30.6,27.5-50.4,27.8-32.7.5-44-31.6-27.3-64.8,16.7-33.2,43-46.6,55.8-39.1,6.4,3.9,11.1,7.7,15.2,13.4,4.6,6.2,2.6,21.9-8.2,35-12.6,15.4-29.8,22.1-47.9,7.5-8.2,23.7-2.1,39.9,11.6,40.6ZM981.4,252.5c8.2-10.8,13.9-24.2,10.3-27-5.4-4.4-26.8,11.1-38.8,35.5-.8,1.5-1.5,3.1-2.1,4.4,12.6,8,23.2-3.1,30.6-12.9Z"/>
    <path class="st6" d="M1030.8,311.2c12.3,1,30.4-17.5,40.4-37.3,1.8-3.3,4.6-3.6,5.7,0,1.3,4.1.3,9.8-2.6,16-3.6,7.7-22.4,29.1-43,28.6-17.8-.5-27.3-12.9-21.4-40.6,9.5-44.8,38.8-91.3,65.1-118.6,3.9-4.1,7.5-4.6,11.1-1.3,7.5,6.7,9,16.2,5.9,28.3-8,31.6-36.8,62.5-59.7,77.4-10.3,25.2-13.1,46.6-1.5,47.6ZM1083.3,180.8c-3.3-2.1-22.4,26.5-40.1,59.4-2.3,4.1-4.4,8.2-6.2,12.3,35.2-28.6,49.7-69.7,46.3-71.8Z"/>
    <path class="st6" d="M1228.1,262.6c6.4,17.2-10,36.5-20.8,44.3-18.3,13.1-39.9,12.9-53.8,5.4-11.6-6.2-21.6-22.1-22.1-43.2-1-54.5,44.8-101.1,73.6-112.2,13.9-5.4,26.5-6.4,34.7.8,5.7,4.9,11.6,12.3,13.6,18.8,2.3,7.5,1.5,14.7-2.3,22.6-3.9,8-7.5,18-10.3,25.5-.8,2.1-2.6,3.6-5.7,1.5-5.9-3.9-10-11.8-6.2-24.7,4.1-13.6,13.4-28.3,7.5-34.5-7.2-7.7-46.3,13.1-69.5,51.5-22.6,37.6-20.1,75.6-7.5,85.9,16.5,13.4,43.7-3.9,63.3-42.2,1.3-2.8,4.1-2.8,5.4.5Z"/>
    <path class="st6" d="M1306.3,319.2c-21.6,0-27-15.7-19.3-38.1,8.5-25,30.9-51.7,26.8-54-3.6-2.1-31.6,15.4-46.6,39.9-9.3,15.2-18.8,33.2-25,48.9-1,2.3-2.8,2.8-4.4,1-4.1-4.6-6.4-11.8-1-27.3,9-25.7,62.5-116.3,83.4-142.3,2.3-3.1,4.9-2.8,6.2.3,3.3,7.5,2.6,20.3-7.2,36.5-6.2,10.3-19.8,31.1-30.9,48.4,10.5-10.3,23.9-18.8,30.9-18,8.7,1,16.7,13.9,10,27-5.7,11.3-18,30.1-23.9,43.5-6.4,14.9-5.1,27,4.4,26.5,10.5-.5,24.7-19,32.7-35.5,1-2.3,3.6-2.3,4.6-.3,1.3,2.8,1.3,8.2-2.6,16-7.2,14.7-22.9,27.5-38.1,27.5Z"/>
    <path class="st6" d="M1339.3,281.4c6.4-18.8,23.4-49.1,32.9-62.5,2.3-3.1,4.1-3.9,6.2-1.5,3.9,4.1,5.9,15.2-.3,28-5.4,11.3-16.2,28.8-21.6,41.7-6.2,14.9-5.7,25,2.6,24.4,11.6-.5,25.7-17.5,33.4-35.2,1.3-2.3,3.1-2.1,4.1,0,2.1,4.1,1.3,9.5-1.8,16-7.7,16-23.9,26.8-38.3,26.8s-24.4-16.5-17.2-37.6ZM1396.6,214.2c-3.3,3.6-10.5,2.8-14.4-3.9-4.1-6.9-2.8-14.7,1.3-19,4.1-4.4,11.6-1.3,14.9,5.7,3.3,6.7,1.5,13.6-1.8,17.2Z"/>
    <path class="st6" d="M1471,214c8.7.3,13.4,13.9,10,25.2,12.3-12.1,29.6-24.2,38.1-23.9,9.3.3,11.3,15.4,6.2,28.3-4.6,11.6-17.2,28.6-23.7,41.4-7.2,14.7-3.6,26.5,5.7,26.2,10.5-.3,22.1-17.2,32.2-35.2,1.3-2.3,3.3-2.3,4.6-.5,1.3,1.8.5,10.3-2.3,16.2-7.2,14.7-23.7,27.5-38.6,27.5-22.4,0-30.6-17.8-21.1-38.8,9.5-21.4,32.4-50.2,28.6-51.5-2.1-.8-10.8,2.1-27.5,18.8-21.4,21.4-34,46.1-44.8,70.2-1.5,3.1-3.6,3.9-5.9,1.3-4.4-3.9-8-13.9-.5-32.4,8.5-21.4,36.3-56.9,31.1-58.7-3.1-1.3-15.7,5.7-32.2,23.7-15.2,16.5-27.5,40.4-37.8,64.6-1,2.3-2.6,3.3-4.9,1.3-5.7-4.9-6.9-13.4-2.6-26.5,5.4-16.2,24.2-52.5,40.4-76.7,1.8-2.8,3.9-2.6,5.4,0,4.4,7.2,3.6,17.2-.3,27.5,11.3-13.1,30.6-28.3,39.9-28Z"/>
    <path class="st6" d="M1638.5,276.5c1.5-3.6,4.4-2.6,4.9,0,.5,2.3,1,9-3.3,17-9.8,17.8-27.3,26.2-45.8,27.5-16.5,1-27.3-1.3-36.3-9.5-5.4-4.9-8-10.8-8.7-17.2-12.1,22.1-25.2,48.4-37.6,76.9-1,2.3-2.8,2.8-4.4.5-3.9-5.4-5.1-12.6-.3-28.3,7.7-25,50.9-106.5,67.2-128.1,2.6-3.3,4.9-2.8,6.2.3,1.3,3.3,1.8,7.2,1.5,11.6,11.3-9.8,26.5-17,37.6-5.4,12.3,13.1,6.7,36-2.8,57.1-7.7,17-17.2,29.3-27,35.2,25.2-1.5,40.6-20.1,48.9-37.6ZM1563.1,306.1c8.2,6.7,25-12.1,37-36.8,10-20.6,12.9-41.9,6.4-45-6.2-3.1-22.1,9.8-34.2,29.6-2.8,4.6-5.7,9.3-8.7,14.7-6.4,16.2-7.7,31.6-.5,37.6Z"/>
  </g>
  <g>
    <path class="st4" d="M821.1,384.7c8.7,0,16.1,7.2,16.1,16.1v47.1c0,9.1-7.4,16.2-16.1,16.2h-42.7v-79.5h42.7ZM816.9,407.6c0-3.4-2.4-5.8-5.8-5.8h-12.2v45.2h12.2c3.4,0,5.8-2.4,5.8-5.8v-33.7Z"/>
    <path class="st4" d="M882.7,384.7h51.9v17.1h-31.6v13.9h27.3v17h-27.3v14.4h31.6v17.2h-51.9v-79.5Z"/>
    <path class="st4" d="M976.3,447h29.8c.8,0,1.3-.5,1.3-1.1v-11.5c0-.6-.5-1.1-1.3-1.1h-20.5c-5.5,0-9.3-3.8-9.3-9.3v-30c0-5.5,3.8-9.3,9.3-9.3h41.1v17.1h-28.7c-.7,0-1.2.6-1.2,1.3v11.7c0,.5.5,1.1,1.2,1.1h20.5c5.5,0,9.3,3.8,9.3,9.3v29.8c0,5.5-3.8,9.3-9.3,9.3h-42.2v-17.2Z"/>
    <path class="st4" d="M1092.1,464.2h-20.4v-79.5h20.4v79.5Z"/>
    <path class="st4" d="M1166.2,415.4h36v16.8h-6.6v22.8c0,5.2-4,9.1-9.1,9.1h-39.8c-5.1,0-9.2-3.9-9.2-9.1v-61.5c0-4.8,4.1-8.9,9.2-8.9h49.2v17.1h-36.9c-.6,0-1.2.6-1.2,1.3v42.6c0,.7.6,1.2,1.2,1.2h16.5c.8,0,1.3-.5,1.3-1.2v-13.4h-10.7v-16.8Z"/>
    <path class="st4" d="M1263.5,420.5v43.7h-18.8v-79.5h18.8l23.8,43.8v-43.8h18.8v79.5h-19.4l-23.2-43.7Z"/>
    <path class="st4" d="M1462,434.5v20.6c0,5.2-4.2,9.1-9.3,9.1h-39.9c-5.1,0-9.1-3.9-9.1-9.1v-61.5c0-4.8,4-8.9,9.1-8.9h39.9c5.1,0,9.3,4.1,9.3,8.9v20.5h-20.5v-11.1c0-.7-.6-1.3-1.1-1.3h-15c-.7,0-1.3.6-1.3,1.3v42.7c0,.7.6,1.2,1.3,1.2h15c.5,0,1.1-.5,1.1-1.2v-11.3h20.5Z"/>
    <path class="st4" d="M1554.5,384.7c5.5,0,9.3,3.8,9.3,9.3v60.9c0,5.5-3.8,9.3-9.3,9.3h-40.9c-5.5,0-9.3-3.8-9.3-9.3v-60.9c0-5.5,3.8-9.3,9.3-9.3h40.9ZM1543.3,403.2c0-.7-.6-1.3-1.3-1.3h-16.1c-.5,0-1.1.6-1.1,1.3v42.7c0,.6.6,1.1,1.1,1.1h16.1c.7,0,1.3-.5,1.3-1.1v-42.7Z"/>
  </g>
  <rect class="st6" x="694.9" y="348" width="957" height="3"/>
</svg>