<?xml version="1.0" encoding="utf-8"?>
<!-- Generator: Adobe Illustrator 22.1.0, SVG Export Plug-In . SVG Version: 6.00 Build 0)  -->
<!DOCTYPE svg PUBLIC "-//W3C//DTD SVG 1.1//EN" "http://www.w3.org/Graphics/SVG/1.1/DTD/svg11.dtd">
<svg version="1.1" id="Layer_1" xmlns="http://www.w3.org/2000/svg" xmlns:xlink="http://www.w3.org/1999/xlink" x="0px" y="0px"
	 viewBox="0 0 1102 300" style="enable-background:new 0 0 1102 300;" xml:space="preserve">
<style type="text/css">
	.st0{fill:#FFFFFF;}
	.st1{fill:#754C28;}
	.st2{fill:url(#SVGID_1_);}
	.st3{fill:url(#SVGID_2_);}
	.st4{fill:none;stroke:#6E6C69;stroke-width:3;stroke-miterlimit:10;}
	.st5{fill:url(#SVGID_3_);}
	.st6{fill:url(#SVGID_4_);}
	.st7{fill:url(#SVGID_5_);}
	.st8{fill:url(#SVGID_6_);}
	.st9{fill:url(#SVGID_7_);}
	.st10{fill:url(#SVGID_8_);}
	.st11{fill:url(#SVGID_9_);}
	.st12{fill:url(#SVGID_10_);}
	.st13{fill:url(#SVGID_11_);}
	.st14{fill:url(#SVGID_12_);}
	.st15{fill:url(#SVGID_13_);}
	.st16{fill:url(#SVGID_14_);}
</style>
<g>
	<path class="st0" d="M152.6,295.7c-32.2,0-62.3-8.3-85-23.4c-23.8-15.9-37-37.6-37-61.3c0-11.8,3.4-23.4,9.8-33.9
		C20.8,170.7,6.7,151.5,3.7,126c-2.3-18.9,1-36.1,9.5-48.5c9.3-13.7,24.6-21.6,42.1-21.6c0.7,0,1.4,0,2.1,0c5,0.1,10.1,0.8,15.1,2.1
		c20.8-16.7,50.5-26.2,82.1-26.2c1,0,2,0,3,0c-1.4-5.5-4.3-11-8.5-15.9c-2.7-3.2-2.7-7.9,0.1-11c1.6-1.8,3.9-2.9,6.4-2.9
		c1.6,0,3.2,0.5,4.5,1.3c9.2,5.9,16.6,13.5,21.6,22.3c5.9-2.7,12.3-4.1,18.8-4.1c2.1,0,4.3,0.2,6.4,0.4c4,0.6,7.1,3.9,7.3,8
		c0.2,4-2.5,7.7-6.5,8.6c-0.9,0.2-1.8,0.5-2.7,0.8c9,2.8,17.6,6.4,25.4,10.6l8.4-10.8c0.4-0.5,0.9-1.1,1.4-1.6
		c0.1-0.1,0.2-0.2,0.3-0.3l0.3-0.3c2.5-2.4,5.6-4.6,8.4-5.8l14-6.1c1.2-0.5,2.5-0.9,3.8-1.1c0.5-0.1,1-0.1,1.5-0.1
		c3.2,0,6.2,1.3,8.4,3.5c2.6,2.7,3.7,6.6,3.1,10.7l-2.5,15.1c-0.6,3.3-2.3,7.7-4.4,10.8l-0.3,0.4c-0.1,0.2-0.2,0.4-0.4,0.5
		c-0.1,0.1-0.2,0.2-0.2,0.3l-2.2,2.9c1.9,1.2,3.8,2.5,5.6,3.9c11.6,9.2,18.8,23.7,20.3,40.8c1.1,13.5-1.8,27.1-8.1,38.3
		c-4.6,8.1-10.8,14.8-18.2,19.7c10.7,12.3,16.3,26.2,16.3,40.4c0,22.5-13.9,43.6-39,59.6c-23.8,15.1-55.1,24-88.4,25
		C156.5,295.7,154.5,295.7,152.6,295.7L152.6,295.7z"/>
	<path class="st0" d="M152.6,290.7c-31.2,0-60.4-8-82.2-22.5c-22.4-14.9-34.8-35.2-34.8-57.1c0-13.1,4.5-25.8,13.1-37.1
		c-21.1-3.1-36.8-21.8-39.9-48.5c-2.2-17.7,0.9-33.7,8.7-45.1c8.3-12.4,22.2-19.5,37.9-19.5c0.6,0,1.3,0,1.9,0
		c5.4,0.1,11,1,16.5,2.6c20-17,49.4-26.7,80.9-26.7c1.7,0,3.5,0,5.2,0.1c1.2,0,2.5,0.1,3.7,0.2c-0.5-8.2-4.3-16.9-10.6-24.3
		c-1.1-1.3-1.1-3.2,0-4.5c0.7-0.8,1.6-1.2,2.6-1.2c0.6,0,1.3,0.2,1.9,0.5c10,6.4,17.7,15.1,22.1,24.9c6.3-3.8,13.6-5.9,20.9-5.9
		c1.9,0,3.8,0.1,5.7,0.4c1.6,0.2,2.9,1.6,3,3.3c0.1,1.7-1,3.1-2.6,3.5c-5.3,1.3-10.2,3.8-14.3,7.3c14.4,3.3,27.9,8.6,39.5,15.4
		l11.1-14.2c0.3-0.4,0.7-0.8,1.1-1.3c0.1-0.1,0.1-0.1,0.2-0.2l0.3-0.3c2-2,4.7-3.8,6.8-4.8l14-6.1c0.8-0.3,1.6-0.6,2.4-0.7
		c0.3,0,0.6-0.1,0.9-0.1c1.8,0,3.5,0.7,4.7,2c1.5,1.6,2.2,3.9,1.7,6.4l-2.5,15.1c-0.4,2.7-1.9,6.3-3.6,8.8l-0.3,0.4
		c-0.1,0.1-0.1,0.2-0.2,0.3c-0.1,0.1-0.1,0.2-0.2,0.3l-5.9,7.6c3.7,1.6,7,3.6,10.1,6.1c10.6,8.4,17.1,21.6,18.4,37.3
		c1,12.5-1.6,25.1-7.4,35.4c-5.2,9.3-12.7,16.5-21.8,20.9c12.6,12.6,19.3,26.9,19.3,41.6c0,20.7-13.1,40.3-36.7,55.4
		c-23,14.6-53.5,23.2-85.8,24.2C156.4,290.7,154.5,290.7,152.6,290.7C152.6,290.7,152.6,290.7,152.6,290.7z M259.2,42.6
		c0.4,0.6,0.6,1.3,0.7,2c0.2,1.3-0.2,2.5-1,3.5c-0.3,0.3-0.4,0.6-0.5,0.8c0.2-0.1,0.4-0.3,0.7-0.6c0.9-1.2,2.3-1.8,3.7-1.8
		c0.3,0,0.7,0,1,0.1l0.5-3.2c-0.1-0.1-0.2-0.1-0.3-0.2c-0.1,0-0.1-0.1-0.2-0.1c-0.3-0.2-0.6-0.4-0.8-0.6c-0.3-0.3-0.7-0.5-1-0.9
		c-0.1,0-0.1-0.1-0.2-0.1L259.2,42.6z"/>
	<path class="st0" d="M255.3,168.3c22-7.8,33.9-31.1,32-54.9c-1.2-14.2-7-26.9-17.2-34.9c-3.9-3.2-8.5-5.6-13.5-7.2l8.8-11.3
		c0.1-0.1,0.2-0.2,0.3-0.3l0,0l0.3-0.4c1.4-2.1,2.7-5.3,3.1-7.5l2-12l0.5-3.1c0.2-1.4-0.1-2.6-0.8-3.4c-0.7-0.7-1.7-1-2.8-0.9
		c-0.5,0.1-1,0.2-1.4,0.4l-2.6,1.1l0,0l-11.4,5c-1.8,0.8-4.1,2.4-5.8,4.1l-0.3,0.3l0,0c-0.4,0.4-0.7,0.8-1,1.1l-12.9,16.6
		c-13.1-8.2-29.3-14.4-47.1-17.8c5.1-6.3,12.2-10.9,20.3-12.8c-10.2-1.4-20.1,1.5-27.7,7.3c-3.6-10.3-11.3-20.2-22.4-27.2
		c7.8,9.2,11.9,20.1,11.4,30.2c-2.4-0.2-4.8-0.3-7.3-0.4c-34.5-1.1-65.5,9.5-85.2,27c-5.6-1.8-11.4-2.8-17.4-3
		c-16.3-0.6-29.3,6.6-36.9,17.9c-7.7,11.3-10.1,26.7-8.1,42.7c3.2,27.3,20.4,46.3,43.4,45.9C45.1,182.5,39,196.2,39,211
		c0.1,44.4,53.9,78.2,119.2,76.1c65.4-2,119.1-35.8,119.2-76.1C277.4,195.3,269.2,180.5,255.3,168.3z M268.7,38.7L268.7,38.7
		c-0.1,0-0.2-0.1-0.2-0.1C268.5,38.7,268.6,38.7,268.7,38.7z M265.3,36.1c0.1,0.1,0.1,0.1,0.2,0.2C265.4,36.3,265.4,36.2,265.3,36.1
		L265.3,36.1z M248.8,44.9C248.8,44.8,248.8,44.8,248.8,44.9c0-0.1,0-0.2,0-0.3c1.5-1.4,3.3-2.7,4.7-3.3l9.3-4
		c0.2,0.3,0.4,0.5,0.6,0.8c0.1,0.1,0.1,0.1,0.2,0.2c0.2,0.2,0.3,0.4,0.5,0.6c0.1,0.1,0.1,0.1,0.2,0.2c0.3,0.2,0.5,0.5,0.8,0.7
		c0.2,0.2,0.4,0.3,0.6,0.5c0.1,0,0.1,0.1,0.2,0.1c0.4,0.3,0.9,0.5,1.3,0.8c0.1,0,0.1,0,0.2,0.1c0.2,0.1,0.4,0.2,0.7,0.3c0,0,0,0,0,0
		l-1.7,10c-0.3,1.7-1.3,4.2-2.4,6c0,0-0.1,0-0.1,0c0,0,0,0-0.1,0c0,0-0.1,0-0.1,0c0,0-0.1,0-0.1,0c0,0-0.1,0-0.1,0c0,0,0,0-0.1,0
		c-0.1,0-0.1-0.1-0.2-0.1c-0.8-0.6-1.1-3.2,0.5-5.3c0.2-0.3,0.3-0.6,0.3-1c0-0.3-0.2-0.6-0.5-0.9c-0.6-0.4-1.4-0.3-1.8,0.2
		c-1.6,2.1-3.8,2.7-5.5,1.3l0,0c-2.1-1.6-1.4-4-0.1-5.7c0.2-0.3,0.3-0.6,0.3-1c0-0.3-0.2-0.6-0.5-0.9c-0.6-0.4-1.4-0.3-1.8,0.2
		c-0.8,1.1-2.1,1.8-3.4,2c-0.8,0.1-1.3-0.1-1.6-0.2l0,0c0,0,0,0,0,0c0,0-0.1-0.1-0.1-0.1c0,0,0,0,0,0c0,0,0-0.1-0.1-0.1
		c0,0,0,0,0-0.1c0,0,0-0.1,0-0.1c0,0,0-0.1,0-0.1c0,0,0-0.1,0-0.1c0,0,0-0.1,0-0.1c0-0.1,0-0.1,0-0.2c0,0,0-0.1,0-0.1
		C248.8,45,248.8,44.9,248.8,44.9z"/>
	<path class="st1" d="M270.8,33.2c-0.7-0.7-1.7-1-2.8-0.9c-0.5,0.1-1,0.2-1.4,0.4l-2.6,1.1l0,0l-11.4,5c-1.8,0.8-4.1,2.4-5.8,4.1
		l-0.3,0.3l0,0c-0.4,0.4-0.7,0.8-1,1.1l-32.7,41.9c-0.9,1.2-1.3,2.6-1.1,4.1c0.2,1.5,0.9,2.8,2.1,3.7l11.2,8.7
		c1.2,0.9,2.6,1.3,4.1,1.1c1.5-0.2,2.8-0.9,3.7-2.1L265.5,60c0.1-0.1,0.2-0.2,0.3-0.3l0,0l0.3-0.4c1.4-2.1,2.7-5.3,3.1-7.5l2-12
		l0.5-3.1C271.9,35.2,271.6,34,270.8,33.2z"/>
	<g>
		<linearGradient id="SVGID_1_" gradientUnits="userSpaceOnUse" x1="-21.6618" y1="214.4763" x2="187.7059" y2="-38.9689">
			<stop  offset="6.810898e-04" style="stop-color:#005D97"/>
			<stop  offset="0.63" style="stop-color:#214895"/>
			<stop  offset="1" style="stop-color:#363A93"/>
		</linearGradient>
		<path class="st2" d="M116.1,112.4c0.3,11.3-4.4,22.2-12.7,32.5c-8.3,10.1-20.3,19.6-34.8,23.9c-29.4,9.1-52.8-11.5-56.5-43.8
			c-2-16,0.4-31.4,8.1-42.7c7.6-11.3,20.6-18.5,36.9-17.9c16.2,0.4,31.5,7.6,42,16.7C109.8,90.2,115.6,101.2,116.1,112.4z"/>
	</g>
	<g>
		<path class="st0" d="M112,110c0.3,9.1-3.9,17.8-11,25.7c-7.2,7.8-17.2,14.8-29.1,18c-23.8,6.7-43.8-8.7-47.1-34
			c-3.7-25.2,11.8-47.9,38.7-47.1C90.4,73.6,111.7,92.5,112,110z"/>
	</g>
	<g>
		<linearGradient id="SVGID_2_" gradientUnits="userSpaceOnUse" x1="86.104" y1="303.5002" x2="295.4717" y2="50.055">
			<stop  offset="6.810898e-04" style="stop-color:#005D97"/>
			<stop  offset="0.63" style="stop-color:#214895"/>
			<stop  offset="1" style="stop-color:#363A93"/>
		</linearGradient>
		<path class="st3" d="M183.7,125.8c1.2,11.7,7.4,22.7,17.8,31.4c10.3,8.5,24.7,14.8,39.9,13.9c30.8-1.6,48.3-29.2,46-57.6
			c-1.2-14.2-7-26.9-17.2-34.9c-10-8.1-24.3-11.5-39.5-8.3c-15.3,3.1-27.9,12.3-36.1,22.3C186.3,102.8,182.6,114,183.7,125.8z"/>
	</g>
	<g>
		<path class="st0" d="M186.9,118.5c2,16.9,23.3,32.4,48.7,30.6c25.3-2.1,42.3-22.4,41-43.3c-1-21-22.3-35.6-48.7-29.9
			c-13,2.6-24,9.6-31.2,17.3C189.3,101.1,185.8,109.7,186.9,118.5z"/>
	</g>
	<g>
		<path class="st4" d="M255.5,52.7"/>
	</g>
	<path class="st0" d="M253.6,41.2c-1.4,0.6-3.3,1.9-4.7,3.3c-0.1,0.7,0,1.3,0.3,1.6l14.2,11.1c0.2,0.2,0.5,0.2,0.7,0.2
		c1.1-1.8,2.1-4.3,2.4-6l1.7-10c0,0,0,0,0,0c-0.2-0.1-0.4-0.2-0.7-0.3c-0.1,0-0.1,0-0.2-0.1c-0.5-0.2-0.9-0.5-1.3-0.8
		c-0.1,0-0.1-0.1-0.2-0.1c-0.2-0.1-0.4-0.3-0.6-0.5c-0.3-0.2-0.5-0.4-0.8-0.7c-0.1-0.1-0.1-0.1-0.2-0.2c-0.2-0.2-0.4-0.4-0.5-0.6
		c-0.1-0.1-0.1-0.1-0.2-0.2c-0.2-0.3-0.4-0.5-0.6-0.8L253.6,41.2z"/>
	<path d="M264.4,39c0.3,0.2,0.5,0.5,0.8,0.7C265,39.5,264.7,39.2,264.4,39z"/>
	<path d="M265.9,40.1c0.1,0,0.1,0.1,0.2,0.1C266,40.2,265.9,40.2,265.9,40.1z"/>
	<path d="M266.1,37c-0.2-0.2-0.4-0.4-0.5-0.6C265.7,36.6,265.9,36.8,266.1,37z"/>
	<path d="M265.5,36.3c-0.1-0.1-0.1-0.1-0.2-0.2l0,0C265.4,36.2,265.4,36.3,265.5,36.3z"/>
	<path d="M266.8,37.6c-0.2-0.2-0.4-0.3-0.6-0.5C266.4,37.3,266.6,37.5,266.8,37.6z"/>
	<path d="M267.5,38.1c-0.2-0.1-0.4-0.3-0.7-0.5C267,37.8,267.3,37.9,267.5,38.1z"/>
	<path d="M264.2,38.8c-0.2-0.2-0.4-0.4-0.5-0.6C263.9,38.4,264,38.6,264.2,38.8z"/>
	<path d="M268.7,38.7L268.7,38.7c-0.1,0-0.2-0.1-0.2-0.1C268.5,38.7,268.6,38.7,268.7,38.7z"/>
	<path d="M268.3,38.5c-0.2-0.1-0.5-0.2-0.7-0.4C267.8,38.3,268,38.4,268.3,38.5z"/>
	<path d="M267.4,41c0.1,0,0.1,0,0.2,0.1C267.5,41,267.4,41,267.4,41z"/>
	<path d="M267.6,38.2c0,0-0.1-0.1-0.1-0.1C267.5,38.1,267.6,38.1,267.6,38.2z"/>
	<path d="M266.2,37.1c0,0-0.1-0.1-0.1-0.1C266.1,37,266.2,37.1,266.2,37.1z"/>
	<path d="M268.4,38.6c0,0-0.1,0-0.1-0.1C268.3,38.6,268.4,38.6,268.4,38.6z"/>
	<path d="M267.5,41c0.2,0.1,0.4,0.2,0.7,0.3C268,41.2,267.7,41.1,267.5,41z"/>
	<path d="M266,40.2c0.4,0.3,0.9,0.5,1.3,0.8C266.9,40.8,266.4,40.5,266,40.2z"/>
	<path d="M264.4,39c-0.1-0.1-0.1-0.1-0.2-0.2C264.3,38.8,264.4,38.9,264.4,39z"/>
	<path d="M265.2,39.7c0.2,0.2,0.4,0.3,0.6,0.5C265.6,40,265.4,39.8,265.2,39.7z"/>
	<path d="M265.6,36.4c0,0-0.1-0.1-0.1-0.1C265.5,36.4,265.5,36.4,265.6,36.4z"/>
	<path d="M263.5,38c0.1,0.1,0.1,0.1,0.2,0.2C263.6,38.1,263.6,38.1,263.5,38z"/>
	<linearGradient id="SVGID_3_" gradientUnits="userSpaceOnUse" x1="35.8077" y1="261.9511" x2="245.1754" y2="8.5059">
		<stop  offset="6.810898e-04" style="stop-color:#005D97"/>
		<stop  offset="0.63" style="stop-color:#214895"/>
		<stop  offset="1" style="stop-color:#363A93"/>
	</linearGradient>
	<path class="st5" d="M270.8,33.2c-0.7-0.7-1.7-1-2.8-0.9c-0.5,0.1-1,0.2-1.4,0.4l-2.6,1.1l0,0l-11.4,5c-1.8,0.8-4.1,2.4-5.8,4.1
		l-0.3,0.3l0,0c-0.4,0.4-0.7,0.8-1,1.1l-12.9,16.6c-13.1-8.2-29.3-14.4-47.1-17.8c5.1-6.3,12.2-10.9,20.3-12.8
		c-10.2-1.4-20.1,1.5-27.7,7.3c-3.6-10.3-11.3-20.2-22.4-27.2c7.8,9.2,11.9,20.1,11.4,30.2c-2.4-0.2-4.8-0.3-7.3-0.4
		c-59-2-107.5,30.4-107.6,72.9c0.1,42.5,48.6,74.8,107.6,72.9c59-1.9,107.5-34.3,107.5-72.9c0-13-5.6-25.4-15.2-36.1L265.5,60
		c0.1-0.1,0.2-0.2,0.3-0.3l0,0l0.3-0.4c1.4-2.1,2.7-5.3,3.1-7.5l2-12l0.5-3.1C271.9,35.2,271.6,34,270.8,33.2z M265.3,36.1
		c0.1,0.1,0.1,0.1,0.2,0.2C265.4,36.3,265.4,36.2,265.3,36.1L265.3,36.1z M266.5,51.3c-0.3,1.7-1.3,4.2-2.4,6c0,0-0.1,0-0.1,0
		c0,0,0,0-0.1,0c0,0-0.1,0-0.1,0c0,0-0.1,0-0.1,0c0,0-0.1,0-0.1,0c0,0,0,0-0.1,0c-0.1,0-0.1-0.1-0.2-0.1c-0.8-0.6-1.1-3.2,0.5-5.3
		c0.2-0.3,0.3-0.6,0.3-1c0-0.3-0.2-0.6-0.5-0.9c-0.6-0.4-1.4-0.3-1.8,0.2c-1.6,2.1-3.8,2.7-5.5,1.3l0,0c-2.1-1.6-1.4-4-0.1-5.7
		c0.2-0.3,0.3-0.6,0.3-1c0-0.3-0.2-0.6-0.5-0.9c-0.6-0.4-1.4-0.3-1.8,0.2c-0.8,1.1-2.1,1.8-3.4,2c-0.8,0.1-1.3-0.1-1.6-0.2l0,0
		c0,0,0,0,0,0c0,0-0.1-0.1-0.1-0.1c0,0,0,0,0,0c0,0,0-0.1-0.1-0.1c0,0,0,0,0-0.1c0,0,0-0.1,0-0.1c0,0,0-0.1,0-0.1c0,0,0-0.1,0-0.1
		c0,0,0-0.1,0-0.1c0-0.1,0-0.1,0-0.2c0,0,0-0.1,0-0.1c0-0.1,0-0.1,0-0.2c0,0,0,0,0-0.1c0-0.1,0-0.2,0-0.3c1.5-1.4,3.3-2.7,4.7-3.3
		l9.3-4c0.2,0.3,0.4,0.5,0.6,0.8c0.1,0.1,0.1,0.1,0.2,0.2c0.2,0.2,0.3,0.4,0.5,0.6c0.1,0.1,0.1,0.1,0.2,0.2c0.3,0.2,0.5,0.5,0.8,0.7
		c0.2,0.2,0.4,0.3,0.6,0.5c0.1,0,0.1,0.1,0.2,0.1c0.4,0.3,0.9,0.5,1.3,0.8c0.1,0,0.1,0,0.2,0.1c0.2,0.1,0.4,0.2,0.7,0.3c0,0,0,0,0,0
		L266.5,51.3z M268.7,38.7c-0.1,0-0.2-0.1-0.2-0.1C268.5,38.7,268.6,38.7,268.7,38.7L268.7,38.7z"/>
	<path class="st0" d="M204.8,65.5c-10.3,0-19.9,2.9-27.9,7.9c-10.7-10-25.6-16.3-42.1-16.3c-32.4,0-58.6,23.9-58.6,53.4
		s26.2,53.4,58.6,53.4c14.3,0,27.5-4.7,37.6-12.5c8.8,6.9,20.1,11,32.4,11c28.2,0,51-21.7,51-48.5S233,65.5,204.8,65.5z"/>
	<linearGradient id="SVGID_4_" gradientUnits="userSpaceOnUse" x1="33.9736" y1="260.4359" x2="243.3413" y2="6.9908">
		<stop  offset="6.810898e-04" style="stop-color:#005D97"/>
		<stop  offset="0.63" style="stop-color:#214895"/>
		<stop  offset="1" style="stop-color:#363A93"/>
	</linearGradient>
	<ellipse class="st6" cx="145.3" cy="125.6" rx="12.8" ry="16.5"/>
	<linearGradient id="SVGID_5_" gradientUnits="userSpaceOnUse" x1="61.4247" y1="283.1129" x2="270.7924" y2="29.6678">
		<stop  offset="6.810898e-04" style="stop-color:#005D97"/>
		<stop  offset="0.63" style="stop-color:#214895"/>
		<stop  offset="1" style="stop-color:#363A93"/>
	</linearGradient>
	<path class="st7" d="M201.1,131.8c-1.7,8.6-8.7,14.5-15.7,13.1c-7-1.3-11.3-9.4-9.7-18c1.7-8.6,8.7-14.5,15.7-13.1
		C198.4,115.1,202.8,123.2,201.1,131.8z"/>
	<linearGradient id="SVGID_6_" gradientUnits="userSpaceOnUse" x1="82.9217" y1="300.8713" x2="292.2894" y2="47.4262">
		<stop  offset="6.810898e-04" style="stop-color:#005D97"/>
		<stop  offset="0.63" style="stop-color:#214895"/>
		<stop  offset="1" style="stop-color:#363A93"/>
	</linearGradient>
	<path class="st8" d="M277.4,211c-0.1,40.3-53.8,74.2-119.2,76.1C92.9,289.2,39.1,255.4,39,211c0.1-44.4,53.9-78.2,119.2-76.1
		C223.6,136.9,277.3,170.7,277.4,211z"/>
	<linearGradient id="SVGID_7_" gradientUnits="userSpaceOnUse" x1="13.8913" y1="243.8462" x2="223.259" y2="-9.5989">
		<stop  offset="6.810898e-04" style="stop-color:#005D97"/>
		<stop  offset="0.63" style="stop-color:#214895"/>
		<stop  offset="1" style="stop-color:#363A93"/>
	</linearGradient>
	<path class="st9" d="M114.5,79.4c15.9-11.1,37.8-7.3,48.9,8.6c3.8,5.5,5.9,11.7,6.3,17.9c0.9-8.2-1.1-16.7-6.2-24
		c-11.1-15.9-33-19.7-48.9-8.6c-10.4,7.3-15.7,19.2-14.9,31.1C100.8,94.6,105.9,85.4,114.5,79.4z"/>
	<linearGradient id="SVGID_8_" gradientUnits="userSpaceOnUse" x1="57.2071" y1="279.6289" x2="266.5749" y2="26.1837">
		<stop  offset="6.810898e-04" style="stop-color:#005D97"/>
		<stop  offset="0.63" style="stop-color:#214895"/>
		<stop  offset="1" style="stop-color:#363A93"/>
	</linearGradient>
	<path class="st10" d="M191.3,84.8c13.7-5.5,29.3,1.2,34.8,15c1.9,4.7,2.3,9.7,1.5,14.4c2.1-5.9,2.2-12.6-0.3-18.9
		c-5.5-13.7-21-20.4-34.8-15c-9,3.6-15,11.5-16.5,20.4C178.5,93.7,183.9,87.7,191.3,84.8z"/>
	<path class="st0" d="M267.3,205.7c-0.1-34.2-47.9-62.8-106.2-64.5c-58.2-1.7-106.2,26.9-106.2,64.5c0.1,36.9,46.2,65.1,102.9,64.6
		c-1.1,1.3-2.4,2.5-3.9,3.7c-2.1,1.6-4.4,2.9-6.9,4c5.9-0.3,11.7-2,15.9-5.2c0.2-0.2,0.4-0.4,0.7-0.5c-0.1,0.2-0.2,0.4-0.3,0.6
		c-1.1,2-2.5,3.8-4.3,5.4c5.3-1.6,9.7-4.6,11.9-8.5C224.6,265.3,267.2,237.9,267.3,205.7z"/>
	<linearGradient id="SVGID_9_" gradientUnits="userSpaceOnUse" x1="82.0133" y1="300.1209" x2="291.381" y2="46.6758">
		<stop  offset="6.810898e-04" style="stop-color:#005D97"/>
		<stop  offset="0.63" style="stop-color:#214895"/>
		<stop  offset="1" style="stop-color:#363A93"/>
	</linearGradient>
	<path class="st11" d="M94.1,195.1c0,0,53.2,49.4,149.3,0c0,0-33.6,40.8-74.6,45.8C168.8,240.9,109.6,253.8,94.1,195.1z"/>
	<linearGradient id="SVGID_10_" gradientUnits="userSpaceOnUse" x1="33.2211" y1="259.8143" x2="242.5888" y2="6.3692">
		<stop  offset="6.810898e-04" style="stop-color:#005D97"/>
		<stop  offset="0.63" style="stop-color:#214895"/>
		<stop  offset="1" style="stop-color:#363A93"/>
	</linearGradient>
	<path class="st12" d="M84,202.6c0-11,7.3-19.9,16.3-19.9c1.6,0,3.2,0.3,4.6,0.8c-2.5-1.6-5.5-2.5-8.7-2.5c-9,0-16.3,7.3-16.3,16.3
		c0,4.6,1.9,8.7,4.9,11.7C84.3,207.1,84,204.9,84,202.6z"/>
	<linearGradient id="SVGID_11_" gradientUnits="userSpaceOnUse" x1="126.548" y1="336.9104" x2="335.9157" y2="83.4653">
		<stop  offset="6.810898e-04" style="stop-color:#005D97"/>
		<stop  offset="0.63" style="stop-color:#214895"/>
		<stop  offset="1" style="stop-color:#363A93"/>
	</linearGradient>
	<path class="st13" d="M249.4,201.2c0,1.7-0.1,3.3-0.4,4.9c1.7-2.5,2.6-5.3,2.5-8.2c-0.2-6.5-5.1-12-12.3-14.7
		C245.2,187.1,249.2,193.7,249.4,201.2z"/>
	<path class="st0" d="M153.9,226.9c-6.7-2.7-14.2-4.2-22.2-4.2c-1.9,0-3.7,0.1-5.5,0.2c-3.6,0.3-7,0.9-10.3,1.8
		c2.9,2.2,6.1,4.2,9.7,5.8c11.1,5.1,23.4,6.1,31.7,6.1c5.2,0,9.3-0.4,11.4-0.7C164.6,232.3,159.6,229.2,153.9,226.9z"/>
	<linearGradient id="SVGID_12_" gradientUnits="userSpaceOnUse" x1="61.0803" y1="282.8284" x2="270.448" y2="29.3833">
		<stop  offset="6.810898e-04" style="stop-color:#005D97"/>
		<stop  offset="0.63" style="stop-color:#214895"/>
		<stop  offset="1" style="stop-color:#363A93"/>
	</linearGradient>
	<circle class="st14" cx="161" cy="161.9" r="7.8"/>
	<linearGradient id="SVGID_13_" gradientUnits="userSpaceOnUse" x1="72.6343" y1="292.373" x2="282.002" y2="38.9279">
		<stop  offset="6.810898e-04" style="stop-color:#005D97"/>
		<stop  offset="0.63" style="stop-color:#214895"/>
		<stop  offset="1" style="stop-color:#363A93"/>
	</linearGradient>
	<circle class="st15" cx="180.1" cy="162.3" r="7.8"/>
	<linearGradient id="SVGID_14_" gradientUnits="userSpaceOnUse" x1="80.881" y1="299.1856" x2="290.2487" y2="45.7404">
		<stop  offset="6.810898e-04" style="stop-color:#005D97"/>
		<stop  offset="0.63" style="stop-color:#214895"/>
		<stop  offset="1" style="stop-color:#363A93"/>
	</linearGradient>
	<path class="st16" d="M170.2,170.8c0,0,3.6,21.5,0,40.6C170.2,211.4,182.8,193.9,170.2,170.8z"/>
</g>
<g>
	<path class="st0" d="M430.8,246.8c0,5.1-2,9.9-5.9,13.4c-3.8,3.6-9.1,5.5-15.3,5.8v0.1H409c-0.2,0-0.5,0-0.7,0h-29.3h-27v-7.5h14.8
		v-24.9h-14.8v-7.4h44.6h11.7v-0.1c3.8,0,7.3,0.6,10.3,1.7c2.9,1.1,5.2,2.8,7.2,4.8C429,236.4,430.8,241.3,430.8,246.8z
		 M408.9,258.6c10-0.2,14.5-6,14.5-11.8c0-4.7-1.9-12.5-13.8-13h-35.3v24.9H408.9"/>
	<path class="st0" d="M532.6,250.1v16.1h-7.5h-72.4v-7.5h14.8v-24.9h-14.8v-7.5h79.6v0.1h0.1v16.1H525v-8.6h-49.8v7.7h25.3v-4.3h7.5
		v16.1h-7.5v-4.3h-25.3v9.8h49.9v-8.6H532.6z"/>
	<path class="st0" d="M610.5,263c-5,3.3-12.5,4-18.3,4c-1.7,0-3.3-0.1-4.6-0.2c-9-0.6-17.8-2.7-23.4-5.8c-0.2-0.1-0.4-0.2-0.7-0.3
		v5.2h-7.4v-14.8h0.6h7.4c0,0.5,0.7,1.8,3.6,3.3c10.3,5.6,31.6,6.8,38.7,2.3c1.8-1.1,2-2.2,1.9-3.1c-0.3-4-12.7-3.9-21.8-3.8
		c-11.4,0-22.2,0.1-27.4-5.1c-2-1.9-3-4.4-3-7.3c0-4.6,2.7-8.2,7.5-10.4c3.6-1.6,8.5-2.5,14.2-2.5c7.6,0,16.1,1.5,22.7,4
		c2.5,0.9,4.6,2,6.3,2.9v-5.2h7.4v14.7h-7.4h-0.7c0-0.7-2-3.2-8.2-5.5c-5.9-2.2-13.4-3.5-20.1-3.5c-4.6,0-8.5,0.7-11.1,1.8
		c-3.2,1.5-3.2,3.1-3.2,3.7c0,1.1,0.4,1.6,0.8,2c0.8,0.8,2.9,2,7.9,2.5c4.2,0.4,9.3,0.4,14.3,0.4c6.3-0.1,12.9-0.1,17.9,0.9
		c3.1,0.6,5.5,1.5,7.3,2.8c2.4,1.7,3.7,4.2,4,7C616.1,257.2,614.2,260.7,610.5,263z"/>
	<path class="st0" d="M678.3,226.3v7.4h-14.8v25h14.8v7.4h-37.2v-7.4h14.8v-25h-14.8v-7.4H678.3z"/>
	<path class="st0" d="M763.6,251.4h-5.3c-0.2,3-1.5,5.8-3.9,8.1c-4.6,4.6-13,7.3-22.3,7.3h-0.2c-11.6,0-29.6-5-29.6-20.3
		c0-13.9,14.3-21.2,28-21.2c7.9,0,16.3,2.1,21.6,7.3v-5.4h6.5v14.8h-0.1c0,0.1,0,0.1,0,0.1h-6.5c-1.5-7.7-12.4-9.9-21.3-9.9
		c-10.1,0-20,4.5-20.3,14.3c-0.2,10.2,13.4,13.6,21.6,13.6c7.7,0,14.7-1.9,18-5.2c1.1-1.1,1.7-2.4,1.9-3.6h-21.3v-6.1h33.2V251.4z"
		/>
	<path class="st0" d="M875.2,226.4v7.4h-14.8v32.4h-8.8l-44.4-31.5v24h14.8v7.4h-37.2v-7.4h14.8v-24.9h-14.8v-7.4l23.6-0.1
		l44.4,31.5v-24h-14.9v-7.4H875.2z"/>
	<path class="st0" d="M999.4,242.1h-6.8c0-1.7-1.3-3.3-2.4-4.4c-3.5-3.3-11-6.5-19.8-6.1c-7.9,0.3-21.4,3.9-21.4,15.6
		c0,11.2,14.3,13.6,22.9,13.8h0.1c5.5,0,19.6-2,20.2-9.9h7.2c0,3.3-1.4,6.4-4,9c-4.8,4.8-13.5,7.7-23.4,7.7c0,0-0.1,0-0.2,0
		c-11.6,0-30.7-4.6-30.7-20.2c0-16,16-22.3,29.1-22.8c8.3-0.3,16.8,2,22.5,6.2v-4.4h6.8V242.1z"/>
	<path class="st0" d="M1028.6,260.6c-3.8-3.8-5.9-9-5.9-14.3c0-5.5,2.1-10.5,5.9-14.3c3.8-3.8,9-5.9,14.4-5.9c0.2,0,24,0,24.1,0
		c5.4,0.1,10.4,2.2,14.1,6c3.7,3.8,5.9,8.9,5.9,14.3c0,5.4-2.1,10.4-5.9,14.3s-8.8,5.9-14.2,6c-0.1,0-23.8,0-24,0
		C1037.6,266.5,1032.5,264.4,1028.6,260.6z M1030,246.2c0,7.2,5.9,13,13,13c0.2,0,23.2,0,24,0c7-0.1,12.8-5.9,12.8-13
		c0-7-5.7-12.9-12.7-13c-0.9,0-23.9,0-24,0C1035.9,233.3,1030,239.1,1030,246.2z"/>
	<path class="st0" d="M1099.9,268c-1.7,0-3.2-1.4-3.2-3.1c0-1.7,1.5-3.1,3.2-3.1c1.7,0,3.1,1.4,3.1,3.1
		C1103,266.6,1101.6,268,1099.9,268z"/>
</g>
<rect x="351.4" y="200.3" class="st0" width="751.9" height="2.4"/>
<g>
	<path class="st0" d="M381.5,62.3c-1-2.2-0.6-3.4,2-3.6c16.8-1.8,31.9-10.3,45.7-10.9c10.3-0.4,19.2,2.8,24.1,16.8
		c4.2,12.1,0.8,23.9-6.1,34.6c-10.1,15.8-31.9,30.9-58.4,36c-4.6,0.8-9.1,0-12.5-2c-5.7,11.1-11.7,24.5-18.8,41.2
		c-0.8,2-1.8,2-3.2,0.6c-2.8-3-4.9-9.1-1.8-20c5.3-18.4,24.3-56.4,41.8-84.1C387.4,70,383.6,66.6,381.5,62.3z M444.6,66.4
		c-4.2-11.1-24.5-0.6-37.8,3.2c0,5.5-2,12.5-7.7,22.2c-5.3,9.3-10.9,18.6-17,29.9C427.4,113.3,450.1,80.5,444.6,66.4z"/>
	<path class="st0" d="M536,96.3c1.8-2.4,4.2-2.4,4,0.8c-0.2,5.1-3.2,10.3-7.5,16.2c-4.6,6.3-14.4,17.2-25.7,28.3
		c0.4,6.9,0.8,13.1,1.4,17.8c1,8.1,3.2,10.5,6.1,10.7c7.1,0.4,17.6-14.8,23.2-26.9c0.8-1.8,2.6-1.6,3.2,0.2c0.8,2.8,1,7.7-2.4,13.5
		c-7.5,12.9-18,20-28.3,20c-10.5,0-16-6.3-17-22.8c-14.6,12.5-30.3,22.8-41.4,22.8c-15.4,0-19.2-12.9-13.9-29.5
		c5.1-16,21.8-43.5,26.1-49.3c1.8-2.4,3.2-3.2,4.9-1.2c3.2,3.2,4.6,12.1,0.2,22.2c-4,9.1-13.7,23.2-18,33.4
		c-4.9,11.3-4,18.8,2.6,18.4c8.3-0.4,23.4-11.7,39-26.1c-1-15.2-2.6-36.6-4.6-46.7c-0.6-2.8,1.4-3.4,4-3c6.5,1.2,11.3,6.7,12.7,20
		c0.6,5.1,1,10.5,1.4,16.4C518,119.3,528.7,106.4,536,96.3z M483.2,94.3c-2.8,3-8.3,2.4-11.3-3c-3-5.5-2.6-11.3,1-14.8
		c3.4-3.2,9.3-1,11.5,4.4C486.7,86.2,485.4,91.8,483.2,94.3z"/>
	<path class="st0" d="M563.1,171.1c16.8,0.8,31.5-15.4,40.2-28.7c1-1.6,2.6-1.6,3.4,0.2c0.8,1.6,0.2,7.3-3.4,12.5
		c-8.5,12.3-24.1,21.6-39.6,21.8c-25.7,0.4-34.6-24.9-21.4-50.9c13.1-26.1,33.8-36.6,43.9-30.7c5.1,3,8.7,6.1,11.9,10.5
		c3.6,4.9,2,17.2-6.5,27.5c-9.9,12.1-23.4,17.4-37.6,5.9C547.5,157.7,552.3,170.5,563.1,171.1z M579.8,124.6
		c6.5-8.5,10.9-19,8.1-21.2c-4.2-3.4-21,8.7-30.5,27.9c-0.6,1.2-1.2,2.4-1.6,3.4C565.7,141,574,132.3,579.8,124.6z"/>
	<path class="st0" d="M618.6,170.7c9.7,0.8,23.9-13.7,31.7-29.3c1.4-2.6,3.6-2.8,4.4,0c1,3.2,0.2,7.7-2,12.5
		c-2.8,6.1-17.6,22.8-33.8,22.4c-13.9-0.4-21.4-10.1-16.8-31.9c7.5-35.2,30.5-71.8,51.1-93.2c3-3.2,5.9-3.6,8.7-1
		c5.9,5.3,7.1,12.7,4.6,22.2c-6.3,24.9-28.9,49.1-46.9,60.8C611.8,153.1,609.5,169.9,618.6,170.7z M659.9,68.2
		c-2.6-1.6-17.6,20.8-31.5,46.7c-1.8,3.2-3.4,6.5-4.9,9.7C651.2,102.2,662.5,69.8,659.9,68.2z"/>
	<path class="st0" d="M773.7,132.5c5.1,13.5-7.9,28.7-16.4,34.8c-14.4,10.3-31.3,10.1-42.2,4.2c-9.1-4.9-17-17.4-17.4-34
		c-0.8-42.9,35.2-79.4,57.8-88.1c10.9-4.2,20.8-5.1,27.3,0.6c4.4,3.8,9.1,9.7,10.7,14.8c1.8,5.9,1.2,11.5-1.8,17.8
		c-3,6.3-5.9,14.1-8.1,20c-0.6,1.6-2,2.8-4.4,1.2c-4.6-3-7.9-9.3-4.9-19.4c3.2-10.7,10.5-22.2,5.9-27.1
		c-5.7-6.1-36.4,10.3-54.6,40.4c-17.8,29.5-15.8,59.4-5.9,67.5c12.9,10.5,34.4-3,49.7-33.2C770.4,129.8,772.7,129.8,773.7,132.5z"/>
	<path class="st0" d="M835.1,176.9c-17,0-21.2-12.3-15.2-29.9c6.7-19.6,24.3-40.6,21-42.4c-2.8-1.6-24.9,12.1-36.6,31.3
		c-7.3,11.9-14.8,26.1-19.6,38.4c-0.8,1.8-2.2,2.2-3.4,0.8c-3.2-3.6-5.1-9.3-0.8-21.4c7.1-20.2,49.1-91.4,65.5-111.8
		c1.8-2.4,3.8-2.2,4.9,0.2c2.6,5.9,2,16-5.7,28.7c-4.9,8.1-15.6,24.5-24.3,38c8.3-8.1,18.8-14.8,24.3-14.1
		c6.9,0.8,13.1,10.9,7.9,21.2c-4.4,8.9-14.1,23.7-18.8,34.2c-5.1,11.7-4,21.2,3.4,20.8c8.3-0.4,19.4-15,25.7-27.9
		c0.8-1.8,2.8-1.8,3.6-0.2c1,2.2,1,6.5-2,12.5C859.4,166.8,847.1,176.9,835.1,176.9z"/>
	<path class="st0" d="M861,147.2c5.1-14.8,18.4-38.6,25.9-49.1c1.8-2.4,3.2-3,4.9-1.2c3,3.2,4.6,11.9-0.2,22
		c-4.2,8.9-12.7,22.6-17,32.7c-4.9,11.7-4.4,19.6,2,19.2c9.1-0.4,20.2-13.7,26.3-27.7c1-1.8,2.4-1.6,3.2,0c1.6,3.2,1,7.5-1.4,12.5
		c-6.1,12.5-18.8,21-30.1,21C859.2,176.7,855.3,163.8,861,147.2z M906.1,94.5c-2.6,2.8-8.3,2.2-11.3-3c-3.2-5.5-2.2-11.5,1-15
		s9.1-1,11.7,4.4C910.1,86.2,908.7,91.6,906.1,94.5z"/>
	<path class="st0" d="M964.5,94.3c6.9,0.2,10.5,10.9,7.9,19.8c9.7-9.5,23.2-19,29.9-18.8c7.3,0.2,8.9,12.1,4.9,22.2
		c-3.6,9.1-13.5,22.4-18.6,32.5c-5.7,11.5-2.8,20.8,4.4,20.6c8.3-0.2,17.4-13.5,25.3-27.7c1-1.8,2.6-1.8,3.6-0.4
		c1,1.4,0.4,8.1-1.8,12.7c-5.7,11.5-18.6,21.6-30.3,21.6c-17.6,0-24.1-13.9-16.6-30.5c7.5-16.8,25.5-39.4,22.4-40.4
		c-1.6-0.6-8.5,1.6-21.6,14.8c-16.8,16.8-26.7,36.2-35.2,55.2c-1.2,2.4-2.8,3-4.6,1c-3.4-3-6.3-10.9-0.4-25.5
		c6.7-16.8,28.5-44.7,24.5-46.1c-2.4-1-12.3,4.4-25.3,18.6c-11.9,12.9-21.6,31.7-29.7,50.7c-0.8,1.8-2,2.6-3.8,1
		c-4.4-3.8-5.5-10.5-2-20.8c4.2-12.7,19-41.2,31.7-60.2c1.4-2.2,3-2,4.2,0c3.4,5.7,2.8,13.5-0.2,21.6
		C942.1,106,957.2,94.1,964.5,94.3z"/>
	<path class="st0" d="M1096.1,143.4c1.2-2.8,3.4-2,3.8,0c0.4,1.8,0.8,7.1-2.6,13.3c-7.7,13.9-21.4,20.6-36,21.6
		c-12.9,0.8-21.4-1-28.5-7.5c-4.2-3.8-6.3-8.5-6.9-13.5c-9.5,17.4-19.8,38-29.5,60.4c-0.8,1.8-2.2,2.2-3.4,0.4
		c-3-4.2-4-9.9-0.2-22.2c6.1-19.6,40-83.7,52.8-100.7c2-2.6,3.8-2.2,4.9,0.2c1,2.6,1.4,5.7,1.2,9.1c8.9-7.7,20.8-13.3,29.5-4.2
		c9.7,10.3,5.3,28.3-2.2,44.9c-6.1,13.3-13.5,23-21.2,27.7C1077.5,171.7,1089.6,157.1,1096.1,143.4z M1036.9,166.6
		c6.5,5.3,19.6-9.5,29.1-28.9c7.9-16.2,10.1-32.9,5.1-35.4c-4.9-2.4-17.4,7.7-26.9,23.2c-2.2,3.6-4.4,7.3-6.9,11.5
		C1032.2,149.9,1031.2,162,1036.9,166.6z"/>
</g>
</svg>
