<?xml version="1.0" encoding="utf-8"?>
<!-- Generator: Adobe Illustrator 22.1.0, SVG Export Plug-In . SVG Version: 6.00 Build 0)  -->
<!DOCTYPE svg PUBLIC "-//W3C//DTD SVG 1.1//EN" "http://www.w3.org/Graphics/SVG/1.1/DTD/svg11.dtd">
<svg version="1.1" id="Layer_1" xmlns="http://www.w3.org/2000/svg" xmlns:xlink="http://www.w3.org/1999/xlink" x="0px" y="0px"
	 viewBox="0 0 442.5 463.2" style="enable-background:new 0 0 442.5 463.2;" xml:space="preserve">
<style type="text/css">
	.st0{opacity:0.47;fill:#E0E4F0;enable-background:new    ;}
	.st1{opacity:0.5;fill:#E0E4F0;enable-background:new    ;}
</style>
<path class="st0" d="M422.8,231.2c0-0.1,0-0.1,0-0.2c0-0.1,0-0.1,0-0.2h0c-0.1-28.1-6-54.8-16.8-78.9c3.9-8.1,6.1-17.1,6.1-26.7
	c0-34-27.5-61.5-61.5-61.5c-6.4,0-12.5,1-18.3,2.8c-30.2-19.3-66.1-30.4-104.6-30.4c-4.8,0-9.6,0.2-14.3,0.5
	c-8.4-6.3-18.9-10.1-30.2-10.1c-21.4,0-39.7,13.4-46.9,32.3c-14.8,7.9-28.5,17.6-40.7,28.8c-4-0.9-8.1-1.4-12.4-1.4
	c-30.8,0-55.7,24.9-55.7,55.7c0,13.4,4.7,25.7,12.6,35.3c-4.9,17-7.6,35.1-7.6,53.7h0c0,0,0,0.1,0,0.1s0,0.1,0,0.1h0
	c0,18.6,2.7,36.7,7.6,53.7c-7.9,9.6-12.6,21.9-12.6,35.3c0,30.8,24.9,55.7,55.7,55.7c4.3,0,8.4-0.5,12.4-1.4
	c12.2,11.2,25.9,20.9,40.7,28.8c7.2,18.9,25.5,32.3,46.9,32.3c11.3,0,21.8-3.8,30.2-10.1c4.7,0.3,9.5,0.5,14.3,0.5
	c38.5,0,74.4-11.1,104.6-30.4c5.8,1.8,11.9,2.8,18.3,2.8c34,0,61.5-27.5,61.5-61.5c0-9.6-2.2-18.6-6.1-26.7
	C416.7,286,422.7,259.3,422.8,231.2L422.8,231.2z"/>
<g id="Bg">
</g>
<ellipse class="st1" cx="424.7" cy="150.5" rx="10.4" ry="10.4"/>
<path class="st1" d="M285.8,21c0,7.5-6.1,13.5-13.5,13.5c-7.5,0-13.5-6.1-13.5-13.5c0-7.5,6.1-13.5,13.5-13.5
	C279.8,7.5,285.8,13.5,285.8,21z"/>
<path class="st1" d="M99.9,38.2c0,3.8-3.1,6.9-6.9,6.9s-6.9-3.1-6.9-6.9c0-3.8,3.1-6.9,6.9-6.9S99.9,34.4,99.9,38.2z"/>
<path class="st1" d="M342.2,51.4c0,3.8-3.1,6.9-6.9,6.9s-6.9-3.1-6.9-6.9c0-3.8,3.1-6.9,6.9-6.9S342.2,47.6,342.2,51.4z"/>
<circle class="st1" cx="177.9" cy="10.7" r="6.9"/>
<path class="st1" d="M438,180.7c0,1.6-1.3,2.8-2.8,2.8c-1.6,0-2.8-1.3-2.8-2.8c0-1.6,1.3-2.8,2.8-2.8S438,179.1,438,180.7z"/>
<path class="st1" d="M328,26.5c0,1.2-1,2.1-2.1,2.1c-1.2,0-2.1-1-2.1-2.1s1-2.1,2.1-2.1C327.1,24.4,328,25.4,328,26.5z"/>
<circle class="st1" cx="120.2" cy="10.7" r="2.8"/>
<path class="st1" d="M24,70.9c0,2-1.6,3.7-3.7,3.7c-2,0-3.7-1.6-3.7-3.7c0-2,1.6-3.7,3.7-3.7C22.4,67.2,24,68.8,24,70.9z"/>
<path class="st1" d="M432.1,105.7c0,2-1.6,3.7-3.7,3.7c-2,0-3.7-1.6-3.7-3.7c0-2,1.6-3.7,3.7-3.7
	C430.4,102.1,432.1,103.7,432.1,105.7z"/>
<ellipse class="st1" cx="57" cy="59.3" rx="15.6" ry="15.6"/>
<path class="st1" d="M10.1,187.1c0,2-1.6,3.7-3.7,3.7c-2,0-3.7-1.6-3.7-3.7s1.6-3.7,3.7-3.7C8.5,183.5,10.1,185.1,10.1,187.1z"/>
<circle class="st1" cx="404.9" cy="51.4" r="15.1"/>
<g id="Layer_16">
</g>
<g id="Layer_9">
</g>
<g id="Layer_14">
</g>
<g id="Layer_11">
</g>
<g id="Layer_17">
</g>
<g id="Layer_12">
</g>
<ellipse class="st1" cx="424.7" cy="311.5" rx="10.4" ry="10.4"/>
<path class="st1" d="M272.3,454.5c-7.4,0-13.5-6-13.5-13.5c0-7.4,6-13.5,13.5-13.5c7.4,0,13.5,6,13.5,13.5S279.8,454.5,272.3,454.5z
	"/>
<path class="st1" d="M93,430.7c-3.8,0-6.9-3.1-6.9-6.9c0-3.8,3.1-6.9,6.9-6.9s6.9,3.1,6.9,6.9C99.9,427.6,96.8,430.7,93,430.7z"/>
<path class="st1" d="M335.3,417.5c-3.8,0-6.9-3.1-6.9-6.9c0-3.8,3.1-6.9,6.9-6.9s6.9,3.1,6.9,6.9
	C342.2,414.4,339.1,417.5,335.3,417.5z"/>
<circle class="st1" cx="177.9" cy="451.3" r="6.9"/>
<path class="st1" d="M435.2,284.1c-1.5,0-2.8-1.2-2.8-2.8c0-1.5,1.2-2.8,2.8-2.8c1.5,0,2.8,1.2,2.8,2.8
	C438,282.9,436.7,284.1,435.2,284.1z"/>
<path class="st1" d="M325.9,437.6c-1.1,0-2.1-1-2.1-2.1s0.9-2.1,2.1-2.1c1.1,0,2.1,0.9,2.1,2.1C328,436.6,327.1,437.6,325.9,437.6z"
	/>
<circle class="st1" cx="120.2" cy="451.3" r="2.8"/>
<path class="st1" d="M20.3,394.8c-2.1,0-3.7-1.7-3.7-3.7c0-2.1,1.7-3.7,3.7-3.7c2.1,0,3.7,1.7,3.7,3.7
	C24,393.2,22.4,394.8,20.3,394.8z"/>
<path class="st1" d="M428.4,360c-2.1,0-3.7-1.7-3.7-3.7c0-2.1,1.7-3.7,3.7-3.7c2.1,0,3.7,1.7,3.7,3.7S430.4,359.9,428.4,360z"/>
<ellipse class="st1" cx="57" cy="402.7" rx="15.6" ry="15.6"/>
<path class="st1" d="M6.4,278.6c-2.1,0-3.7-1.6-3.7-3.7s1.7-3.7,3.7-3.7c2.1,0,3.7,1.7,3.7,3.7S8.5,278.5,6.4,278.6z"/>
<circle class="st1" cx="404.9" cy="410.6" r="15.1"/>
<ellipse transform="matrix(0.7071 -0.7071 0.7071 0.7071 -96.8306 227.8301)" class="st0" cx="226.6" cy="230.8" rx="141.7" ry="141.7"/>
</svg>
