<?xml version="1.0" encoding="utf-8"?>
<!-- Generator: Adobe Illustrator 22.1.0, SVG Export Plug-In . SVG Version: 6.00 Build 0)  -->
<!DOCTYPE svg PUBLIC "-//W3C//DTD SVG 1.1//EN" "http://www.w3.org/Graphics/SVG/1.1/DTD/svg11.dtd">
<svg version="1.1" id="Layer_1" xmlns="http://www.w3.org/2000/svg" xmlns:xlink="http://www.w3.org/1999/xlink" x="0px" y="0px"
	 viewBox="0 0 369.9 537.4" style="enable-background:new 0 0 369.9 537.4;" xml:space="preserve">
<style type="text/css">
	.st0{opacity:0.3;fill:#191C3C;enable-background:new    ;}
	.st1{fill:#686969;}
	.st2{fill:#F2DAB2;}
	.st3{fill:#4E5168;}
	.st4{fill:#FFFFFF;}
	.st5{fill:#C19E6C;}
	.st6{fill:#191C3C;}
	.st7{opacity:0.5;}
	.st8{fill:#3A3D4F;}
	.st9{opacity:0.16;}
	.st10{opacity:0.3;}
	.st11{fill:#3C2517;}
	.st12{fill:#231F20;}
	.st13{fill:#754D29;}
	.st14{fill:#424143;}
	.st15{fill:none;stroke:#6F6C69;stroke-width:3;stroke-miterlimit:10;}
	.st16{fill:#010101;}
	.st17{fill:#DFE2EC;}
	.st18{fill:#F5F7F9;}
	.st19{fill:#E6E7E7;}
</style>
<g id="Layer_13">
	<path class="st0" d="M79.4,515.2c0,0-8-20.2-9.7-31v-11.6h2.9c0,0,2.9-35.1,4.2-75.2c0-0.4,0-0.4,0-0.8c0-1.7,0-3.3,0-5
		c0-0.4,0-0.4,0-0.8c0-1.7,0-3.3,0-5.4l0,0h22.3V225.9h-2.1c-3.4,0-6.7,1.2-9.3,2.9l3.4-10.3l-5-0.8l11.8,2.1l2.1-7v-97.9
		c-11.8,4.1-21,12.8-24.8,24.4l-26.9,72.7l5,0.8l-2.1,6.6h0.4l-15.1,52.5c-2.1,6.2,2.9,12.4,9.3,12.4l35.3,7.4v14.5l-12.6-1.7l0,0
		c-0.8,0-1.3,0-2.1,0H54.2c-21.9,0-37.4,17.8-38.7,39.7C11.7,397,36.5,466,39,473.1v4.1c0,0,0,0-0.4,0c0,0-2.5,21.9-20.6,42.6v9.9
		h31.6h5.9c8.4,0,16.4-2.5,23.1-6.6L79.4,515.2z M79.4,253.6l1.7-5.4v6.2L79.4,253.6z"/>
	<g>
		<g>
			<polygon class="st1" points="169,92.6 124.4,104 115.2,196.9 127.8,318.5 246.4,321 255.2,200.7 247.2,104.8 218.2,92.6 			"/>
		</g>
		<g>
			<g>
				<rect x="51.2" y="443.4" class="st2" width="31.1" height="40.4"/>
			</g>
			<g>
				<rect x="303.6" y="443.4" class="st2" width="31.1" height="40.4"/>
			</g>
			<g>
				<path class="st3" d="M80.7,349.2l25.7,23.1c7.6,6.7,17.2,10.5,26.9,10.5h98.4c9.3,0,18.1-2.9,24.8-8.8l38.7-30.7l-4.6-39.1
					l-82.9,6.7h-55.5l-71.9-10.5l-8,5.5L80.7,349.2z"/>
			</g>
			<g>
				<polygon class="st3" points="80.7,383.3 295.6,383.3 291,304.2 208.1,310.5 152.6,310.5 80.7,307.1 72.7,310.5 				"/>
			</g>
			<g>
				<path class="st4" d="M50.8,475.4c0,0-2.5,22.3-20.6,43.3v10.1h60.2l1.3-13.9c0,0-8.8-22.3-9.7-32.8
					C81.9,482.1,79,467,50.8,475.4z"/>
			</g>
			<g>
				<path class="st5" d="M91.6,518.7c0,0-50.1-2.9-61,0.4v10.1h60.2L91.6,518.7z"/>
			</g>
			<g>
				<rect x="51.2" y="485.5" class="st6" width="16.8" height="5.5"/>
			</g>
			<g>
				<rect x="49.5" y="491.8" class="st6" width="16.8" height="5.5"/>
			</g>
			<g>
				<rect x="46.6" y="499.8" class="st6" width="16.8" height="5.5"/>
			</g>
			<g>
				<path class="st4" d="M333.9,475.4c0,0,2.5,22.3,20.6,43.3v10.1h-60.2l-1.3-13.9c0,0,8.8-22.3,9.7-32.8
					C302.8,482.1,306.1,467,333.9,475.4z"/>
			</g>
			<g>
				<path class="st5" d="M293.5,518.7c0,0,50.1-2.9,61,0.4v10.1h-60.2L293.5,518.7z"/>
			</g>
			<g>
				<rect x="317.1" y="485.5" class="st6" width="16.8" height="5.5"/>
			</g>
			<g>
				<rect x="318.3" y="491.8" class="st6" width="16.8" height="5.5"/>
			</g>
			<g>
				<rect x="321.7" y="499.8" class="st6" width="16.8" height="5.5"/>
			</g>
			<g>
				<path class="st3" d="M51.2,471.6h33.7c0,0,8.4-107.7,4.6-162c-0.4-5.9-5-10.1-10.9-10.1H66.4c-21.9,0-37.4,18.1-38.7,40.4
					C23.9,396.7,51.2,471.6,51.2,471.6z"/>
			</g>
			<g>
				<path class="st3" d="M334.3,475.4h-33.7c0,0-19.4-109.8-16.4-162.8c0.4-5,4.2-8.8,9.3-8.8H307c21.9,0,39.5,18.1,38.7,40.4
					C343.6,398,334.3,475.4,334.3,475.4z"/>
			</g>
			<g class="st7">
				<g>
					<path class="st8" d="M309.1,372.3c0.8,0,1.7,0,2.1,0c-5,0-10.9-3.8-13-8s0.4-12.6-4.6-13.5c-4.2-0.8-17.2,8.4-21,10.5
						c-7.2,3.8-14.3,7.2-21.5,10.9c-6.3,3.4-12.6,6.3-19.8,7.6c-12.2,2.1-24.8-2.1-37.4-2.5c-9.7-0.4-19.4,1.3-28.6-0.4
						c-4.6-0.8-9.3-2.5-13.9-4.6c-19.4-8-37.9-18.1-58.1-21.9c-2.5-0.4-10.1-3.4-11.8-1.7c-2.1,2.1,1.7,13,2.1,15.6
						c-2.5-4.6-6.3-8.4-10.9-11.4c1.3,13,5,26.1,10.9,37.9c-3.4-2.9-6.7-5.9-10.5-8.4c2.5,5.9,7.6,9.7,10.1,15.1
						c2.9,6.7,1.7,17.2,1.7,24.8c0,1.7,0,3.8-1.3,4.6c-2.9-5-7.2-8.8-12.2-11.8c2.5,5.9,4.2,12.2,4.6,18.5c-4.2-2.1-7.6-5-10.1-8.4
						c-1.3-1.7-2.9-3.4-4.6-2.5c-1.7,0.8-1.7,2.9-1.3,4.6c0.4,3.4,1.3,6.7,2.9,9.7c4.6,7.6,14.3,10.9,19.8,17.7
						c1.3,1.7,2.5,3.4,4.2,5c1.3-16,2.9-45.9,3.8-76.6h193.1l3.8-2.9c0,0.8,0,2.1,0.4,2.9h0.4c3.4,32.8,8.4,64.8,11.4,81.2
						c0.8,0.4,1.7,0.8,2.1,1.7c2.1-8.8,2.1-20.6-2.1-28.6c-0.8-1.3-1.7-2.5-2.1-3.8c-2.1-4.2-1.3-8.8-0.8-13.5
						c2.9,2.5,6.3,4.6,9.7,6.3c0.8,0.4,1.7,0.4,2.1-0.4c-1.3-8.8-7.6-15.6-12.2-22.7c6.3-2.1,12.6-2.9,18.9-2.1l1.3-0.8
						C308.7,393.4,305.7,381.6,309.1,372.3z"/>
				</g>
			</g>
		</g>
		<g class="st9">
			<path class="st6" d="M127.8,196.1c2.9,0.8,7.6,1.7,5,0c-6.3-4.2-15.1-10.9-20.6-16l0.8,8c0.8,0.8,1.7,1.7,2.9,2.5
				c-1.3,0-2.1,0.4-2.5,1.3l0.4,4.2c0.8,0.4,1.7,0,2.9,0.8c-0.4,0-0.4,0-0.8,0c-0.8,0-1.7,0.4-2.1,1.3l0.4,3.4
				c0.4,0.4,0.4,0.4,0.8,0.8l0,0c-0.4,0-0.8,0.4-0.8,0.8l5,49.6c0.8,5,1.3,10.1,1.7,15.1l2.5,26.1c1.3,0,2.5-0.8,2.5-2.5
				c0.8-17.7-0.4-34.9-3.8-52.2c-2.1-10.5-2.5-19.8-2.5-30.7c0-5.9,6.7-0.8,5.5-4.2c0-0.8-5-5.9-5-6.7
				C118.1,192.7,122.3,194.8,127.8,196.1z"/>
		</g>
		<g>
			<path class="st2" d="M139.1,250.8l-7.6-0.4l-13.5,13l-26.5-14.7l11.4-35.3L65.1,207l-16.8,60.2c-2.1,6.3,2.9,12.6,9.3,12.6
				l58.5,12.6l16.4,5.5l17.2-5l15.6-8.4l1.3-13.9c0-1.7-1.3-3.4-2.9-3.4h-16.4l-10.5-5h2.1v-11.4L139.1,250.8L139.1,250.8z"/>
		</g>
		<g class="st10">
			<polygon class="st6" points="63.4,213.7 100.4,219.6 103,213.3 65.5,207 			"/>
		</g>
		<g>
			<path class="st1" d="M134.9,135.1L169,92.6l-53.8,13.9c-13,3.4-23.6,13-28.2,25.7l-26.9,74l49.6,8L134.9,135.1z"/>
		</g>
		<g class="st9">
			<path class="st6" d="M252.7,231l2.1-30.3V199c-0.4,0-0.8,0-0.8,0c-0.4,0-0.8,0.4-1.7,0.4c0.4-1.3,1.3-2.1,2.5-2.9l-0.4-5.5
				c-2.1,0,0.4-0.8-1.7-0.8c2.1-1.7-0.8-2.1,1.3-3.8l-0.4-5.5c-4.6,4.2-9.7,8-15.1,11.8c-1.7,1.3,2.1,1.7,4.6,1.3
				c2.9-0.4,2.5,2.5,5.5,2.1c-0.4,1.7-0.8,3.4-1.7,5.5c-0.8,1.7,0.4,3.4,2.1,3.4c-0.4,0.4-1.7,4.2-2.1,4.6c-2.1,2.1,1.3,1.3,3.4,0.4
				c0.8-0.4,1.3-0.4,2.1-0.8c-0.4,0.8-1.3,1.3-1.7,2.1c-0.4,0.8-0.8,1.7-0.4,2.5c-1.3,0.8-3.4,7.2-4.6,8.4c-1.7,1.7,1.7,0,3.8-1.7
				c0.8-0.8,1.7-1.3,2.5-1.7c-0.4,0.8-1.3,2.1-1.7,2.9c-0.4,1.3,0.8,4.6,1.3,5c-1.7,3.8-4.6,5.5-6.3,9.7c-0.4,1.3-0.4,2.5,0.8,2.9
				c0.8,0.4,1.7,1.3,2.1,1.7c0.8,0.4,1.7,0.4,2.1,0c-1.7,0.8-2.9,21.5-3.8,25.7c-0.8,6.3-1.7,12.2-1.7,18.5c0,2.5,2.9,2.9,4.2,1.3
				l3.8-50.5c-0.4-0.4-1.3-0.4-2.1,0C251,235.2,251.9,233.1,252.7,231z"/>
		</g>
		<g>
			<path class="st2" d="M301.9,207l16.8,64.8c2.1,6.3-2.9,12.6-9.3,12.6l-56.8,10.1l-16.4,5.5l-17.2-5l-15.6-8.4l-1.3-13.9
				c0-1.7,1.3-3.4,2.9-3.4h16.4l10.5-5h-4.6l-5.5,0.8c-3.4,0.4-6.3-2.1-6.3-5.5l0,0l10.9-5.9l10.9-0.4l13.5,13l24.8-12.2l-11.4-40.4
				L301.9,207z"/>
		</g>
		<g class="st10">
			<polygon class="st6" points="301.9,207 264.1,213.3 266.2,218.4 303.6,212.5 			"/>
		</g>
		<g>
			<path class="st1" d="M234.2,135.1l-34.1-42.5l53.8,13.9c13,3.4,23.6,13,28.2,25.7l26.9,74l-49.6,8L234.2,135.1z"/>
		</g>
		<g>
			<path class="st2" d="M187.5,142.2L187.5,142.2c-12.2,0-21.9-9.7-21.9-21.9V82.1h43.8v38.3C209.8,132.1,199.7,142.2,187.5,142.2z"
				/>
		</g>
		<g>
			<path class="st2" d="M164,83.9c0,0-9.7,1.3-12.4-8c0,0-7.5-19,0-19.9c0,0,15.9,9.7,15.9,14.2C167.1,74.2,164,83.9,164,83.9z"/>
		</g>
		<g>
			<path class="st2" d="M214,83.9c0,0,9.7,1.3,12.4-8c0,0,7.5-19,0-19.9c0,0-15.9,9.7-15.9,14.2C210.5,74.2,214,83.9,214,83.9z"/>
		</g>
		<g class="st10">
			<path class="st6" d="M167.6,108.3c2.1,3.4,5,6.7,8.4,8.8c3.8,2.5,8,3.8,12.2,3.8s8.4-1.3,11.8-3.4l0.8-0.4
				c2.1-1.3,3.8-2.9,5.5-4.6V89h-38.7V108.3z"/>
		</g>
		<path class="st2" d="M188.4,9.9c-34.9-0.4-33.2,26.7-33.2,26.7h3.1v50.7c0,10.8,6.2,20.8,15.9,26.3c4.4,2.4,9.3,3.6,14.2,3.6
			c4.9,0,9.3-1.2,13.7-3.2l0.9-0.4c10.2-5.6,16.8-15.6,16.8-26.7V36.7h3.1C220.2,27.5,222.9,10.3,188.4,9.9z"/>
		<path class="st11" d="M133.9,53"/>
		<path class="st2" d="M221.5,37.2L221.5,37.2L221.5,37.2v-0.8c-1.3-9,1.3-25.8-33.2-26.2c-34.9-0.4-33.2,26.2-33.2,26.2l0,0
			c0,0.4,0,0.8,0,0.8l0,0v26.2l3.1,5.9v17.6c0,10.6,6.2,20.4,15.9,25.8c4.4,2.3,9.3,3.5,14.2,3.5c4.9,0,9.3-1.2,13.7-3.1l0.9-0.4
			c10.2-5.5,16.8-15.3,16.8-26.2V70.5l3.1-6.3v-27C222.9,37.2,221.5,37.2,221.5,37.2z"/>
		<path class="st12" d="M209.1,54.3h-17.3h-0.4h-6.6h-0.9h-16.8c-0.9,0-1.8,0.9-1.8,1.3v9.3c0,0.9,0.9,1.3,1.8,1.3h17.7
			c0.9,0,1.8-0.9,1.8-1.3v-8.8v-0.4h3.1v0.4v9.3c0,0.9,0.9,1.3,1.8,1.3h17.7c0.9,0,1.8-0.9,1.8-1.3v-9.3
			C210.9,55.2,210,54.3,209.1,54.3z M185.3,64c0,0.9-0.9,1.3-1.8,1.3H168c-0.9,0-1.8-0.9-1.8-1.3v-7.5c0-0.9,0.9-1.3,1.8-1.3h15.5
			c0.9,0,1.8,0.9,1.8,1.3V64z M210,64c0,0.9-0.9,1.3-1.8,1.3h-15.9c-0.9,0-1.8-0.9-1.8-1.3v-7.5c0-0.9,0.9-1.3,1.8-1.3h15.5
			c0.9,0,1.8,0.9,1.8,1.3V64H210z"/>
		<polygon class="st12" points="155.6,59.6 155.2,58.7 166.2,54.7 166.7,56.1 		"/>
		<polygon class="st12" points="220.7,59.6 221.1,58.7 210.5,54.7 210,56.1 		"/>
		<path class="st11" d="M224.7,37c-1.4-9.4,1.4-27.1-35.7-27.5c-37-0.4-35.7,27.5-35.7,27.5v28.3l4.5,9l1.4,23.4c0,3.7,5,7.8,5,7.8
			c2.7,3.3,5.9,6.6,9.9,8.6c4.5,2.5,9.5,3.7,14.4,3.7c5,0,9.9-1.2,14-3.3l0.9-0.4c2.3-1.2,4.5-2.9,6.8-4.5l4.1-2.9
			c0,0,0.5-0.4,0.9-0.8l0,0l0,0c1.4-1.6,3.6-4.1,3.6-7l1.4-23.4l0,0l4.5-9L224.7,37L224.7,37z M202.6,106.7c0,0.8-0.9,1.6-1.8,1.6
			h-23c-0.9,0-1.8-0.8-1.8-1.6v-8.6c0-0.8,0.9-1.6,1.8-1.6h23c0.9,0,1.8,0.8,1.8,1.6V106.7z M220.7,59.9l-4.1,11.9v0.4
			c0,0,0,19.7-1.4,26.2c-0.9,1.2-5,4.9-5,4.9c-1.4,1.2-2.7,2.1-4.1,2.9V95.6c0-0.8-0.9-1.6-1.8-1.6h-29.3c-0.9,0-1.8,0.8-1.8,1.6
			v11.5c-3.2-1.6-5.9-4.1-8.1-6.6c-0.5-0.4-0.5-0.4-0.9-0.8C162,98.5,162,71,162,71l-4.1-11.5L157,37c0-1.6,0.5-7.4,4.1-12.7
			c6.8,1.6,31.6,7.4,58.7,0.4c1.8,4.1,1.8,8.6,2.3,12.3l0,0L220.7,59.9z"/>
		<g class="st10">
			<path class="st6" d="M189,82.5c-2.5,0-5-1.7-5.5-4.2c0,0.4,0,0.8,0,1.3c0,2.9,2.5,5.5,5.5,5.5s5.5-2.5,5.5-5.5c0-0.4,0-0.8,0-1.3
				C193.7,80.4,191.6,82.5,189,82.5z"/>
		</g>
		<g>
			<path class="st1" d="M186.3,237.3c-9.3,0-17.7-2.5-24-6.7c-6.7-4.2-10.1-10.1-10.1-16.8c0-3.8,1.3-7.6,3.8-10.9
				c-6.3-0.8-10.5-6.3-11.8-14.3c-0.8-5,0.4-9.7,2.5-13c2.5-3.8,6.3-5.5,10.9-5.5h0.4c1.7,0,3.4,0.4,4.6,0.8
				c5.9-5,14.3-7.6,23.6-7.6c0.4,0,0.8,0,1.7,0c0.4,0,0.8,0,1.3,0c0-2.5-1.3-5-2.9-7.2c-0.4-0.4-0.4-0.8,0-1.3
				c0-0.4,0.4-0.4,0.8-0.4h0.4c2.9,1.7,5,4.2,6.3,7.2c1.7-1.3,3.8-1.7,5.9-1.7c0.4,0,1.3,0,1.7,0c0.4,0,0.8,0.4,0.8,0.8
				c0,0.4-0.4,0.8-0.8,0.8c-1.7,0.4-2.9,1.3-4.2,2.1c4.2,0.8,8,2.5,11.4,4.6l3.4-4.2c0,0,0-0.4,0.4-0.4l0,0l0,0
				c0.4-0.4,1.3-1.3,2.1-1.3l4.2-1.7c0.4,0,0.4,0,0.8,0c0,0,0,0,0.4,0c0.4,0,0.8,0,1.3,0.4s0.4,1.3,0.4,1.7l-0.8,4.2
				c0,0.8-0.4,1.7-0.8,2.5l0,0l0,0l0,0l-1.7,2.1c1.3,0.4,2.1,1.3,2.9,1.7c2.9,2.5,5,6.3,5.5,10.9c0.4,3.8-0.4,7.2-2.1,10.5
				c-1.7,2.5-3.8,4.6-6.3,5.9c3.8,3.8,5.5,8,5.5,12.2c0,5.9-3.8,11.8-10.5,16c-6.7,4.2-15.6,6.7-24.8,7.2
				C187.1,237.3,186.7,237.3,186.3,237.3L186.3,237.3z M217,165c0,0,0,0.4,0.4,0.4c0,0.4,0,0.8-0.4,0.8c0,0,0,0,0,0.4l0,0
				c0.4-0.4,0.8-0.4,1.3-0.4c0,0,0,0,0.4,0v-0.8l0,0l0,0c0,0,0,0-0.4,0c0,0,0,0-0.4-0.4l0,0H217z"/>
			<path class="st1" d="M216.1,201.6c6.3-2.1,10.1-9.3,9.3-16c-0.4-4.2-2.1-8-5-10.1c-1.3-0.8-2.5-1.7-3.8-2.1l2.5-3.4l0,0l0,0l0,0
				c0.4-0.4,0.8-1.7,0.8-2.1l0.4-3.4v-0.8c0-0.4,0-0.8-0.4-0.8c0,0-0.4-0.4-0.8-0.4h-0.4l-0.8,0.4l0,0l-3.4,1.3
				c-0.4,0.4-1.3,0.8-1.7,1.3l0,0l0,0l-0.4,0.4l-3.8,4.6c-3.8-2.5-8.4-4.2-13.9-5c1.7-1.7,3.4-3.4,5.9-3.8c-2.9-0.4-5.9,0.4-8,2.1
				c-0.8-2.9-3.4-5.9-6.7-8c2.1,2.5,3.4,5.9,3.4,8.8c-0.8,0-1.3,0-2.1,0c-10.1-0.4-18.9,2.9-24.8,8c-1.7-0.4-3.4-0.8-5-0.8
				c-4.6,0-8.4,2.1-10.9,5c-2.1,3.4-2.9,8-2.5,12.6c0.8,8,5.9,13.5,12.6,13.5c-2.9,3.4-4.6,7.2-4.6,11.8c0,13,15.6,22.7,34.9,22.3
				c18.9-0.4,34.9-10.5,34.9-22.3C222.4,209.5,219.9,205.3,216.1,201.6z M219.9,163.7L219.9,163.7L219.9,163.7L219.9,163.7z
				 M219.1,163.3L219.1,163.3L219.1,163.3L219.1,163.3z M214,165.8L214,165.8C214,165.4,214,165.4,214,165.8
				c0.4-0.4,0.8-0.8,1.3-1.3l2.5-1.3c0,0,0,0,0,0.4l0,0l0,0l0,0c0,0,0,0,0.4,0l0,0l0,0c0,0,0.4,0,0.4,0.4l0,0l0,0l0,0l-0.4,2.9
				c0,0.4-0.4,1.3-0.8,1.7l0,0l0,0l0,0l0,0l0,0l0,0l0,0c-0.4,0-0.4-0.8,0-1.7c0,0,0,0,0-0.4c0,0,0,0,0-0.4H217
				c-0.4,0.4-1.3,0.8-1.7,0.4l0,0c-0.4-0.4-0.4-1.3,0-1.7c0,0,0,0,0-0.4c0,0,0,0,0-0.4h-0.4c-0.4,0.4-0.4,0.4-0.8,0.4
				C214.4,166.2,214.4,166.2,214,165.8L214,165.8C214.4,165.8,214.4,165.8,214,165.8C214.4,165.8,214.4,165.8,214,165.8L214,165.8
				L214,165.8L214,165.8L214,165.8L214,165.8L214,165.8L214,165.8L214,165.8L214,165.8L214,165.8z"/>
			<path class="st13" d="M220.7,162.4c0,0-0.4-0.4-0.8-0.4h-0.4l-0.8,0.4l0,0l-3.4,1.3c-0.4,0.4-1.3,0.8-1.7,1.3l0,0l0,0l-0.4,0.4
				l-9.7,12.2c-0.4,0.4-0.4,0.8-0.4,1.3s0.4,0.8,0.4,1.3l3.4,2.5c0.4,0.4,0.8,0.4,1.3,0.4s0.8-0.4,1.3-0.4l9.7-12.2l0,0l0,0l0,0
				c0.4-0.4,0.8-1.7,0.8-2.1l0.4-3.4v-0.8C220.7,162.8,220.7,162.4,220.7,162.4z"/>
			<g>
				<path class="st14" d="M175.3,185.1c0,3.4-1.3,6.3-3.8,9.3c-2.5,2.9-5.9,5.9-10.1,7.2c-8.4,2.5-15.6-3.4-16.4-12.6
					c-0.4-4.6,0-9.3,2.5-12.6c2.1-3.4,5.9-5.5,10.9-5c4.6,0,9.3,2.1,12.2,5C173.6,178.8,175.3,182.2,175.3,185.1z"/>
			</g>
			<g>
				<path class="st1" d="M174.5,184.7c0,2.5-1.3,5-3.4,7.6c-2.1,2.1-5,4.2-8.4,5c-6.7,2.1-12.6-2.5-13.9-10.1
					c-1.3-7.2,3.4-13.9,11.4-13.9C168.2,174.2,174.1,179.7,174.5,184.7z"/>
			</g>
			<g>
				<path class="st14" d="M195.1,189.4c0.4,3.4,2.1,6.7,5,9.3c2.9,2.5,7.2,4.2,11.8,4.2c8.8-0.4,13.9-8.4,13.5-16.8
					c-0.4-4.2-2.1-8-5-10.1c-2.9-2.5-7.2-3.4-11.4-2.5c-4.6,0.8-8,3.8-10.5,6.3C195.9,182.6,194.7,185.6,195.1,189.4z"/>
			</g>
			<g>
				<path class="st1" d="M195.9,187.2c0.4,5,6.7,9.3,14.3,8.8c7.6-0.4,12.2-6.7,11.8-12.6c-0.4-6.3-6.3-10.5-14.3-8.8
					c-3.8,0.8-7.2,2.9-9.3,5C196.8,182.2,195.9,184.3,195.9,187.2z"/>
			</g>
			<g>
				<path class="st15" d="M216.1,167.9"/>
			</g>
			<path class="st1" d="M215.7,164.5c-0.4,0-0.8,0.4-1.3,0.8c0,0.4,0,0.4,0,0.4l4.2,3.4c0,0,0,0,0.4,0c0.4-0.4,0.4-1.3,0.8-1.7
				l0.4-2.9l0,0l0,0l0,0c0,0-0.4,0-0.4-0.4l0,0l0,0c0,0,0,0-0.4,0l0,0l0,0l0,0c0,0,0,0,0-0.4L215.7,164.5z"/>
			<path class="st16" d="M218.6,163.7C218.6,164.1,219.1,164.1,218.6,163.7C219.1,164.1,218.6,164.1,218.6,163.7z"/>
			<path class="st16" d="M219.1,164.1L219.1,164.1L219.1,164.1z"/>
			<path class="st16" d="M219.1,163.3L219.1,163.3L219.1,163.3z"/>
			<path class="st16" d="M219.1,163.3L219.1,163.3L219.1,163.3L219.1,163.3z"/>
			<path class="st16" d="M219.5,163.7C219.5,163.3,219.5,163.3,219.5,163.7C219.5,163.3,219.5,163.3,219.5,163.7z"/>
			<path class="st16" d="M219.5,163.7L219.5,163.7L219.5,163.7z"/>
			<path class="st16" d="M218.6,163.7L218.6,163.7L218.6,163.7z"/>
			<path class="st16" d="M219.9,163.7L219.9,163.7L219.9,163.7L219.9,163.7z"/>
			<path class="st16" d="M219.9,163.7C219.9,163.7,219.5,163.7,219.9,163.7C219.5,163.7,219.9,163.7,219.9,163.7z"/>
			<path class="st16" d="M219.5,164.5L219.5,164.5L219.5,164.5z"/>
			<path class="st16" d="M219.5,163.7L219.5,163.7L219.5,163.7z"/>
			<path class="st16" d="M219.1,163.3L219.1,163.3L219.1,163.3z"/>
			<path class="st16" d="M219.9,163.7L219.9,163.7L219.9,163.7z"/>
			<path class="st16" d="M219.5,164.5C219.5,164.5,219.9,164.5,219.5,164.5C219.9,164.5,219.5,164.5,219.5,164.5z"/>
			<path class="st16" d="M219.1,164.1C219.5,164.5,219.5,164.5,219.1,164.1C219.5,164.5,219.5,164.5,219.1,164.1z"/>
			<path class="st16" d="M218.6,163.7L218.6,163.7L218.6,163.7z"/>
			<path class="st16" d="M219.1,164.1L219.1,164.1L219.1,164.1z"/>
			<path class="st16" d="M219.1,163.3L219.1,163.3L219.1,163.3z"/>
			<path class="st16" d="M218.6,163.7L218.6,163.7L218.6,163.7z"/>
			<path class="st14" d="M220.7,162.4c0,0-0.4-0.4-0.8-0.4h-0.4l-0.8,0.4l0,0l-3.4,1.3c-0.4,0.4-1.3,0.8-1.7,1.3l0,0l0,0l-0.4,0.4
				l-3.8,4.6c-3.8-2.5-8.4-4.2-13.9-5c1.7-1.7,3.4-3.4,5.9-3.8c-2.9-0.4-5.9,0.4-8,2.1c-0.8-2.9-3.4-5.9-6.7-8
				c2.1,2.5,3.4,5.9,3.4,8.8c-0.8,0-1.3,0-2.1,0c-17.2-0.4-31.1,8.8-31.6,21c0,12.2,14.3,21.9,31.6,21c17.2-0.4,31.1-10.1,31.6-21
				c0-3.8-1.7-7.6-4.6-10.5l3.8-5l0,0l0,0l0,0c0.4-0.4,0.8-1.7,0.8-2.1l0.4-3.4v-0.8C220.7,162.8,220.7,162.4,220.7,162.4z
				 M219.1,163.3L219.1,163.3L219.1,163.3L219.1,163.3z M219.5,167.5c0,0.4-0.4,1.3-0.8,1.7l0,0l0,0l0,0l0,0l0,0l0,0l0,0
				c-0.4,0-0.4-0.8,0-1.7c0,0,0,0,0-0.4c0,0,0,0,0-0.4h-0.4c-0.4,0.4-1.3,0.8-1.7,0.4l0,0c-0.4-0.4-0.4-1.3,0-1.7c0,0,0,0,0-0.4
				c0,0,0,0,0-0.4h-0.4c-0.4,0.4-0.4,0.4-0.8,0.4c-0.4,0-0.4,0-0.4,0l0,0l0,0l0,0l0,0l0,0l0,0l0,0l0,0l0,0l0,0l0,0l0,0l0,0l0,0l0,0
				c0.4-0.4,0.8-0.8,1.3-0.8l2.5-1.3c0,0,0,0,0,0.4l0,0l0,0l0,0c0,0,0,0,0.4,0l0,0l0,0c0,0,0.4,0,0.4,0.4l0,0l0,0l0,0L219.5,167.5z
				 M219.9,163.7L219.9,163.7L219.9,163.7L219.9,163.7z"/>
			<path class="st1" d="M201.4,171.7c-2.9,0-5.9,0.8-8,2.1c-2.9-2.9-7.6-4.6-12.2-4.6c-9.3,0-17.2,7.2-17.2,15.6
				c0,8.4,7.6,15.6,17.2,15.6c4.2,0,8-1.3,10.9-3.8c2.5,2.1,5.9,3.4,9.3,3.4c8.4,0,14.7-6.3,14.7-14.3
				C216.1,178,209.4,171.7,201.4,171.7z"/>
			<ellipse class="st14" cx="184.1" cy="189.4" rx="3.8" ry="4.6"/>
			
				<ellipse transform="matrix(0.1887 -0.982 0.982 0.1887 -27.6684 347.4506)" class="st14" cx="196.5" cy="190.5" rx="4.6" ry="3.8"/>
			<path class="st14" d="M222.4,214.2c0,11.8-15.6,21.5-34.9,22.3c-18.9,0.4-34.9-9.3-34.9-22.3c0-13,15.6-22.7,34.9-22.3
				C206.9,192.3,222.4,202.4,222.4,214.2z"/>
			<path class="st14" d="M174.9,175.5c4.6-3.4,10.9-2.1,14.3,2.5c1.3,1.7,1.7,3.4,1.7,5c0.4-2.5-0.4-5-1.7-7.2
				c-3.4-4.6-9.7-5.9-14.3-2.5c-2.9,2.1-4.6,5.5-4.2,9.3C171.1,180.1,172.4,177.6,174.9,175.5z"/>
			<path class="st14" d="M197.2,177.2c4.2-1.7,8.4,0.4,10.1,4.2c0.4,1.3,0.8,2.9,0.4,4.2c0.4-1.7,0.4-3.8,0-5.5
				c-1.7-4.2-6.3-5.9-10.1-4.2c-2.5,0.8-4.2,3.4-4.6,5.9C193.8,179.7,195.1,178,197.2,177.2z"/>
			<path class="st1" d="M219.5,212.5c0-10.1-13.9-18.5-31.1-18.9c-16.8-0.4-31.1,8-31.1,18.9c0,10.9,13.5,18.9,29.9,18.9
				c-0.4,0.4-0.8,0.8-1.3,1.3s-1.3,0.8-2.1,1.3c1.7,0,3.4-0.4,4.6-1.7l0,0l0,0c-0.4,0.4-0.8,1.3-1.3,1.7c1.7-0.4,2.9-1.3,3.4-2.5
				C207.3,229.7,219.5,221.7,219.5,212.5z"/>
			<path class="st14" d="M169,209.5c0,0,15.6,14.3,43.3,0c0,0-9.7,11.8-21.9,13.5C190.9,222.6,173.6,226.4,169,209.5z"/>
			<path class="st14" d="M166.1,211.6c0-3.4,2.1-5.9,4.6-5.9c0.4,0,0.8,0,1.3,0.4c-0.8-0.4-1.7-0.8-2.5-0.8c-2.5,0-4.6,2.1-4.6,4.6
				c0,1.3,0.4,2.5,1.3,3.4C166.1,212.9,166.1,212.1,166.1,211.6z"/>
			<path class="st14" d="M214.4,211.2c0,0.4,0,0.8,0,1.3c0.4-0.8,0.8-1.7,0.8-2.5c0-2.1-1.7-3.4-3.8-4.2
				C213.2,207,214.4,209.1,214.4,211.2z"/>
			<path class="st1" d="M186.7,218.8c-2.1-0.8-4.2-1.3-6.3-1.3c-0.4,0-1.3,0-1.7,0c-0.8,0-2.1,0.4-2.9,0.4c0.8,0.8,1.7,1.3,2.9,1.7
				c3.4,1.7,6.7,1.7,9.3,1.7c1.7,0,2.5,0,3.4,0C189.6,220.1,188.4,219.2,186.7,218.8z"/>
			<circle class="st14" cx="188.4" cy="199.9" r="2.1"/>
			<circle class="st14" cx="194.2" cy="199.9" r="2.1"/>
			<path class="st14" d="M191.3,202.4c0,0,1.3,6.3,0,11.8C191.3,214.2,195.1,209.1,191.3,202.4z"/>
		</g>
		<g id="XMLID_98_">
			<g id="XMLID_110_">
				<g id="XMLID_111_">
					<g id="XMLID_112_">
						<path class="st17" d="M270.8,349.6H104.2c-5,0-10.1-2.9-12.2-7.6l-4.2-8.8h199.4l-4.2,8.8
							C280.5,346.7,275.9,349.6,270.8,349.6z"/>
					</g>
				</g>
			</g>
			<g id="XMLID_104_">
				<g id="XMLID_106_">
					<g id="XMLID_109_">
						<path class="st18" d="M267.4,341.2H106.7c-7.6,0-13.5-5.9-13.5-13.5v-93.8c0-7.6,5.9-13.5,13.5-13.5h160.7
							c7.6,0,13.5,5.9,13.5,13.5v93.8C280.9,335.3,275,341.2,267.4,341.2z"/>
					</g>
				</g>
			</g>
			<g id="XMLID_99_">
				<g id="XMLID_101_">
					<g id="XMLID_102_">
						<circle class="st19" cx="187.1" cy="284.8" r="13.5"/>
					</g>
				</g>
			</g>
		</g>
	</g>
	<path class="st11" d="M232.5,91.8"/>
</g>
</svg>
